<svg id="Component_19_1" data-name="Component 19 – 1" xmlns="http://www.w3.org/2000/svg" width="96.657" height="75.136" viewBox="0 0 96.657 75.136">
  <g id="Group_788" data-name="Group 788" transform="translate(0.016)">
    <g id="Group_787" data-name="Group 787" transform="translate(0 0)">
      <g id="Group_785" data-name="Group 785">
        <rect id="Rectangle_216" data-name="Rectangle 216" width="96.641" height="64.428" fill="#003e92"/>
        <path id="Path_4745" data-name="Path 4745" d="M420.945,283.933" transform="translate(-372.624 -251.717)" fill="#003e92"/>
      </g>
      <g id="Group_786" data-name="Group 786" transform="translate(23.859 7.707)">
        <path id="Path_4746" data-name="Path 4746" d="M411.832,214.2l2.039-1.488,2.039,1.488-.776-2.407,2.071-1.488h-2.553l-.781-2.436-.781,2.439-2.552,0,2.07,1.488Z" transform="translate(-389.43 -207.869)" fill="#fe0"/>
        <path id="Path_4747" data-name="Path 4747" d="M379.077,222.993l2.039-1.488,2.038,1.488-.775-2.407,2.07-1.488H381.9l-.781-2.439-.781,2.441-2.552,0,2.07,1.488Z" transform="translate(-367.227 -213.827)" fill="#fe0"/>
        <path id="Path_4748" data-name="Path 4748" d="M357.154,240.679l-.781,2.441-2.552,0,2.07,1.488-.776,2.407,2.039-1.488,2.039,1.488-.776-2.407,2.07-1.488h-2.552Z" transform="translate(-350.987 -230.107)" fill="#fe0"/>
        <path id="Path_4749" data-name="Path 4749" d="M348.359,278.235l2.038,1.488-.775-2.407,2.07-1.488h-2.552l-.781-2.439-.781,2.444-2.553-.005,2.071,1.488-.776,2.407Z" transform="translate(-345.025 -252.279)" fill="#fe0"/>
        <path id="Path_4750" data-name="Path 4750" d="M357.935,308.639l-.781-2.439-.781,2.441-2.552,0,2.07,1.488-.776,2.407,2.039-1.491,2.039,1.491-.776-2.407,2.07-1.488Z" transform="translate(-350.987 -274.517)" fill="#fe0"/>
        <path id="Path_4751" data-name="Path 4751" d="M381.946,332.656l-.781-2.436-.78,2.439-2.553,0,2.07,1.488-.775,2.407,2.039-1.488,2.038,1.488-.775-2.407,2.07-1.488Z" transform="translate(-367.261 -290.797)" fill="#fe0"/>
        <path id="Path_4752" data-name="Path 4752" d="M414.657,341.35l-.781-2.439-.78,2.441-2.553,0,2.07,1.488-.775,2.407,2.039-1.488,2.038,1.488-.776-2.407,2.071-1.488Z" transform="translate(-389.432 -296.689)" fill="#fe0"/>
        <path id="Path_4753" data-name="Path 4753" d="M447.371,332.656l-.78-2.436-.783,2.439-2.55,0,2.069,1.488-.775,2.407,2.039-1.488,2.039,1.488-.777-2.407,2.071-1.488Z" transform="translate(-411.607 -290.797)" fill="#fe0"/>
        <path id="Path_4754" data-name="Path 4754" d="M471.384,308.639,470.6,306.2l-.783,2.441-2.55,0,2.071,1.488-.777,2.407,2.039-1.491,2.039,1.491-.777-2.407,2.071-1.488Z" transform="translate(-427.881 -274.517)" fill="#fe0"/>
        <path id="Path_4755" data-name="Path 4755" d="M482.63,275.738h-2.553l-.783-2.439-.78,2.441-2.553,0,2.071,1.488-.775,2.407,2.037-1.491,2.039,1.491-.775-2.407Z" transform="translate(-433.773 -252.217)" fill="#fe0"/>
        <path id="Path_4756" data-name="Path 4756" d="M468.563,246.919l2.039-1.488,2.039,1.488-.777-2.407,2.071-1.486h-2.55l-.783-2.439-.783,2.441-2.55,0,2.071,1.486Z" transform="translate(-427.881 -230.046)" fill="#fe0"/>
        <path id="Path_4757" data-name="Path 4757" d="M446.682,216.668l-.78,2.441-2.553-.005,2.069,1.491L444.643,223l2.042-1.491L448.721,223l-.775-2.407,2.071-1.491h-2.556Z" transform="translate(-411.668 -213.833)" fill="#fe0"/>
      </g>
    </g>
  </g>
  <g id="Group_789" data-name="Group 789" transform="translate(0 70.335)">
    <path id="Path_4758" data-name="Path 4758" d="M270.927,402.362h2.84v.673H271.6v1.4h1.849v.634H271.6v2.018h-.673Z" transform="translate(-270.927 -402.323)" fill="#1a1818"/>
    <path id="Path_4759" data-name="Path 4759" d="M281.418,402.362h.673v3.047a1.01,1.01,0,0,0,.263.736.846.846,0,0,0,.644.266.865.865,0,0,0,.65-.266,1.021,1.021,0,0,0,.256-.736v-3.047h.673v3.122a1.627,1.627,0,0,1-.454,1.182,1.6,1.6,0,0,1-2.242,0,1.577,1.577,0,0,1-.464-1.181Z" transform="translate(-278.038 -402.323)" fill="#1a1818"/>
    <path id="Path_4760" data-name="Path 4760" d="M294.273,402.362h.634l2.013,3.357h.012v-3.357h.673v4.723h-.638l-2.01-3.357h-.012v3.357h-.673Z" transform="translate(-286.751 -402.323)" fill="#1a1818"/>
    <path id="Path_4761" data-name="Path 4761" d="M307.958,402.362h1.555a1.625,1.625,0,0,1,1.558,1.354q.033.291.034,1.008a7.285,7.285,0,0,1-.052,1.062,1.247,1.247,0,0,1-.073.272,2.606,2.606,0,0,1-.125.243,1.59,1.59,0,0,1-.543.551,1.473,1.473,0,0,1-.844.233h-1.509Zm.673,4.049h.806a.9.9,0,0,0,.824-.412.817.817,0,0,0,.143-.387q.028-.23.027-.863,0-.617-.027-.883a.839.839,0,0,0-.174-.431.875.875,0,0,0-.794-.4h-.806Z" transform="translate(-296.026 -402.323)" fill="#1a1818"/>
    <path id="Path_4762" data-name="Path 4762" d="M320.559,402.362h2.84v.673h-2.167v1.351h1.849v.634h-1.849v1.39H323.4v.673h-2.84Z" transform="translate(-304.567 -402.323)" fill="#1a1818"/>
    <path id="Path_4763" data-name="Path 4763" d="M331.684,402.362h1.555a1.625,1.625,0,0,1,1.558,1.354q.034.291.034,1.008a7.285,7.285,0,0,1-.052,1.062,1.249,1.249,0,0,1-.073.272,2.547,2.547,0,0,1-.125.243,1.589,1.589,0,0,1-.543.551,1.473,1.473,0,0,1-.844.233h-1.51Zm.673,4.049h.806a.9.9,0,0,0,.824-.412.82.82,0,0,0,.143-.387q.027-.23.027-.863,0-.617-.027-.883a.839.839,0,0,0-.174-.431.875.875,0,0,0-.794-.4h-.806Z" transform="translate(-312.108 -402.323)" fill="#1a1818"/>
    <path id="Path_4764" data-name="Path 4764" d="M349.082,402.362H350.8a1.325,1.325,0,0,1,.985.35,1.271,1.271,0,0,1,.332.917,1.142,1.142,0,0,1-.131.557.9.9,0,0,1-.2.24,1.446,1.446,0,0,1-.323.217v.013a.9.9,0,0,1,.55.4,1.388,1.388,0,0,1,.174.683,1.334,1.334,0,0,1-.36.968,1.154,1.154,0,0,1-.876.373h-1.873Zm.673.634v1.358h.973a.672.672,0,0,0,.543-.205.665.665,0,0,0,.177-.475.7.7,0,0,0-.177-.485.731.731,0,0,0-.543-.192Zm0,1.992v1.422h1.039a.688.688,0,0,0,.55-.218.744.744,0,0,0,.174-.494.753.753,0,0,0-.174-.5.7.7,0,0,0-.55-.211Z" transform="translate(-323.9 -402.323)" fill="#1a1818"/>
    <path id="Path_4765" data-name="Path 4765" d="M360.871,405.142l-1.337-2.78h.713l.942,2.095.942-2.095h.714l-1.338,2.779v1.944h-.635Z" transform="translate(-330.984 -402.323)" fill="#1a1818"/>
    <path id="Path_4766" data-name="Path 4766" d="M375.862,403h-1.218v-.634h3.11V403h-1.219v4.088h-.673Z" transform="translate(-341.226 -402.323)" fill="#1a1818"/>
    <path id="Path_4767" data-name="Path 4767" d="M388.519,405.021h-1.763v2.064h-.673v-4.723h.673v2.025h1.763v-2.025h.673v4.723h-.673Z" transform="translate(-348.979 -402.323)" fill="#1a1818"/>
    <path id="Path_4768" data-name="Path 4768" d="M399.044,402.362h2.84v.673h-2.167v1.351h1.849v.634h-1.849v1.39h2.167v.673h-2.84Z" transform="translate(-357.764 -402.323)" fill="#1a1818"/>
    <path id="Path_4769" data-name="Path 4769" d="M414.966,402.362h2.84v.673h-2.167v1.351h1.849v.634h-1.849v1.39h2.167v.673h-2.84Z" transform="translate(-368.556 -402.323)" fill="#1a1818"/>
    <path id="Path_4770" data-name="Path 4770" d="M425.838,402.362h.673v3.047a1,1,0,0,0,.262.736.846.846,0,0,0,.644.266.866.866,0,0,0,.65-.266,1.023,1.023,0,0,0,.256-.736v-3.047H429v3.122a1.629,1.629,0,0,1-.455,1.182,1.6,1.6,0,0,1-2.242,0,1.577,1.577,0,0,1-.464-1.181Z" transform="translate(-375.925 -402.323)" fill="#1a1818"/>
    <path id="Path_4771" data-name="Path 4771" d="M438.693,402.362h1.736a1.317,1.317,0,0,1,.907.311,1.289,1.289,0,0,1,.441,1.007,1.312,1.312,0,0,1-.858,1.309l1.029,2.1h-.8l-.92-2.018h-.862v2.018h-.673Zm.673,2.07h1.021a.715.715,0,0,0,.569-.234.758.758,0,0,0,.186-.52.648.648,0,0,0-.223-.536.742.742,0,0,0-.495-.146h-1.058Z" transform="translate(-384.638 -402.323)" fill="#1a1818"/>
    <path id="Path_4772" data-name="Path 4772" d="M450.424,404.641a8.372,8.372,0,0,1,.046-1.1,1.379,1.379,0,0,1,.149-.451,1.592,1.592,0,0,1,.518-.581,1.468,1.468,0,0,1,.875-.265,1.485,1.485,0,0,1,.883.266,1.558,1.558,0,0,1,.506.583,1.128,1.128,0,0,1,.155.45,15.108,15.108,0,0,1,0,2.2,1.145,1.145,0,0,1-.155.457,1.555,1.555,0,0,1-2.264.576,1.55,1.55,0,0,1-.518-.576c-.032-.072-.062-.14-.088-.2a1.4,1.4,0,0,1-.061-.253A8.354,8.354,0,0,1,450.424,404.641Zm.673,0a5.93,5.93,0,0,0,.048.944.818.818,0,0,0,.174.4.807.807,0,0,0,.281.237.758.758,0,0,0,.409.107.8.8,0,0,0,.419-.107.763.763,0,0,0,.269-.237.857.857,0,0,0,.18-.4,6.308,6.308,0,0,0,.045-.944,6.459,6.459,0,0,0-.045-.951.851.851,0,0,0-.18-.392.818.818,0,0,0-.269-.243.931.931,0,0,0-.419-.1.886.886,0,0,0-.409.1.866.866,0,0,0-.281.243.809.809,0,0,0-.174.392A6.072,6.072,0,0,0,451.1,404.641Z" transform="translate(-392.589 -402.241)" fill="#1a1818"/>
    <path id="Path_4773" data-name="Path 4773" d="M463.094,402.362h1.612a2.439,2.439,0,0,1,.506.052,1.336,1.336,0,0,1,.494.278,1.128,1.128,0,0,1,.341.453,1.544,1.544,0,0,1,.137.674,1.487,1.487,0,0,1-.348.956,1.282,1.282,0,0,1-1.044.466h-1.025v1.843h-.673Zm.673,2.206h1a.692.692,0,0,0,.565-.247.834.834,0,0,0,.18-.521.971.971,0,0,0-.073-.4.58.58,0,0,0-.214-.231.811.811,0,0,0-.483-.133h-.974Z" transform="translate(-401.177 -402.323)" fill="#1a1818"/>
    <path id="Path_4774" data-name="Path 4774" d="M474.953,402.362h2.84v.673h-2.167v1.351h1.849v.634h-1.849v1.39h2.167v.673h-2.84Z" transform="translate(-409.215 -402.323)" fill="#1a1818"/>
    <path id="Path_4775" data-name="Path 4775" d="M487.383,406.028H485.7l-.342,1.057h-.713l1.615-4.723h.564l1.616,4.723h-.71Zm-.192-.634-.643-2.066h-.012l-.643,2.066Z" transform="translate(-415.782 -402.323)" fill="#1a1818"/>
    <path id="Path_4776" data-name="Path 4776" d="M498.277,402.362h.634l2.013,3.357h.012v-3.357h.673v4.723h-.637l-2.01-3.357h-.012v3.357h-.673Z" transform="translate(-425.023 -402.323)" fill="#1a1818"/>
    <path id="Path_4777" data-name="Path 4777" d="M516.506,402.362h.673v3.047a1.011,1.011,0,0,0,.262.736.848.848,0,0,0,.644.266.866.866,0,0,0,.65-.266,1.024,1.024,0,0,0,.257-.736v-3.047h.673v3.122a1.627,1.627,0,0,1-.455,1.182,1.6,1.6,0,0,1-2.242,0,1.576,1.576,0,0,1-.463-1.181Z" transform="translate(-437.379 -402.323)" fill="#1a1818"/>
    <path id="Path_4778" data-name="Path 4778" d="M529.359,402.362h.634l2.013,3.357h.012v-3.357h.673v4.723h-.637l-2.01-3.357h-.012v3.357h-.673Z" transform="translate(-446.091 -402.323)" fill="#1a1818"/>
    <path id="Path_4779" data-name="Path 4779" d="M543.045,402.362h.673v4.723h-.673Z" transform="translate(-455.367 -402.323)" fill="#1a1818"/>
    <path id="Path_4780" data-name="Path 4780" d="M547.734,404.641a8.461,8.461,0,0,1,.045-1.1,1.363,1.363,0,0,1,.15-.451,1.587,1.587,0,0,1,.518-.581,1.465,1.465,0,0,1,.874-.265,1.487,1.487,0,0,1,.884.266,1.552,1.552,0,0,1,.506.583,1.124,1.124,0,0,1,.155.45,15.235,15.235,0,0,1,0,2.2,1.132,1.132,0,0,1-.155.457,1.508,1.508,0,0,1-.506.576,1.524,1.524,0,0,1-.884.272,1.5,1.5,0,0,1-.874-.272,1.545,1.545,0,0,1-.518-.576q-.049-.107-.089-.2a1.465,1.465,0,0,1-.061-.253A8.444,8.444,0,0,1,547.734,404.641Zm.673,0a5.819,5.819,0,0,0,.049.944.881.881,0,0,0,.455.636.756.756,0,0,0,.409.107.8.8,0,0,0,.419-.107.763.763,0,0,0,.269-.237.858.858,0,0,0,.18-.4,6.252,6.252,0,0,0,.046-.944,6.4,6.4,0,0,0-.046-.951.851.851,0,0,0-.18-.392.818.818,0,0,0-.269-.243.932.932,0,0,0-.419-.1.884.884,0,0,0-.409.1.862.862,0,0,0-.281.243.8.8,0,0,0-.174.392A5.959,5.959,0,0,0,548.407,404.641Z" transform="translate(-458.545 -402.241)" fill="#1a1818"/>
    <path id="Path_4781" data-name="Path 4781" d="M560.4,402.362h.634l2.013,3.357h.012v-3.357h.673v4.723H563.1l-2.01-3.357h-.012v3.357H560.4Z" transform="translate(-467.131 -402.323)" fill="#1a1818"/>
  </g>
</svg>
