<svg xmlns="http://www.w3.org/2000/svg" width="44.916" height="91.154" viewBox="0 0 44.916 91.154">
  <g id="Group_7476" data-name="Group 7476" transform="translate(-2.771 -3.779)">
    <rect id="Rectangle_210" data-name="Rectangle 210" width="21.765" height="21.765" transform="translate(2.794 50.047)" fill="#0059a9"/>
    <g id="Group_783" data-name="Group 783" transform="translate(2.771 3.779)">
      <path id="Path_4685" data-name="Path 4685" d="M13.778,102.74V111.3c0,4.53,2.241,6.21,5.22,6.21,3.145,0,5.5-1.814,5.5-6.275v-8.5H22.6v8.625c0,3.2-1.4,4.617-3.536,4.617-1.942,0-3.384-1.382-3.384-4.617V102.74Z" transform="translate(-8.235 -52.907)" fill="#fff"/>
      <rect id="Rectangle_211" data-name="Rectangle 211" width="21.764" height="21.765" transform="translate(23.129 46.268)" fill="#0059a9"/>
      <path id="Path_4686" data-name="Path 4686" d="M61.254,117.378v-6.209c0-2.42-.022-4.163-.131-6l.067-.022a43.059,43.059,0,0,0,2.7,4.849l4.613,7.377h1.9V102.843H68.631v6.1c0,2.248.042,4.012.214,5.955l-.066.02a38.863,38.863,0,0,0-2.586-4.721l-4.635-7.355H59.486v14.535Z" transform="translate(-30.926 -52.958)" fill="#fff"/>
      <rect id="Rectangle_212" data-name="Rectangle 212" width="21.764" height="21.765" transform="translate(23.129 69.368)" fill="#0059a9"/>
      <path id="Path_4687" data-name="Path 4687" d="M70.046,149.625a5.971,5.971,0,0,0-4.077-1.21,19.312,19.312,0,0,0-3.6.3v14.339h1.875v-5.821a6.544,6.544,0,0,0,1.511.128,6.04,6.04,0,0,0,4.438-1.595,4.207,4.207,0,0,0,1.144-3.107,3.915,3.915,0,0,0-1.291-3.038" transform="translate(-32.357 -75.581)" fill="#fff"/>
      <path id="Path_4688" data-name="Path 4688" d="M67.647,157.5a6.5,6.5,0,0,1-1.554-.15V151.7a9.524,9.524,0,0,1,1.768-.151c2.07,0,3.431.923,3.431,2.868,0,1.96-1.361,3.082-3.645,3.082" transform="translate(-34.206 -77.135)" fill="#0059a9"/>
      <rect id="Rectangle_213" data-name="Rectangle 213" width="21.766" height="21.764" transform="translate(0 69.39)" fill="#0059a9"/>
      <path id="Path_4689" data-name="Path 4689" d="M23.406,150.166c-1.273-1.185-3.19-1.792-5.886-1.792a27.184,27.184,0,0,0-4.011.3v14.3a26.456,26.456,0,0,0,3.43.167c2.822,0,5.064-.726,6.449-2.086a7.789,7.789,0,0,0,2.086-5.649,6.686,6.686,0,0,0-2.067-5.241" transform="translate(-8.102 -75.561)" fill="#fff"/>
      <path id="Path_4690" data-name="Path 4690" d="M19.177,163.11a11.677,11.677,0,0,1-1.9-.09V151.53a10.755,10.755,0,0,1,2.2-.192c3.967,0,5.91,2.135,5.887,5.6,0,3.923-2.18,6.188-6.188,6.169" transform="translate(-9.974 -77.032)" fill="#0059a9"/>
      <rect id="Rectangle_214" data-name="Rectangle 214" width="44.893" height="44.902" transform="translate(0.023)" fill="#0059a9"/>
      <path id="Path_4691" data-name="Path 4691" d="M76.192,44.633c-.628.89-1.388,1.723-1.97,2.632a5.065,5.065,0,0,0-.131-2.286,19.688,19.688,0,0,1-1.043-4.565l.014-.616c.366,1.645,1.982,2.777,1.878,4.62a4.105,4.105,0,0,1-.183,1.219l.027.03.074-.084a18.22,18.22,0,0,1,.73-2.7,6.566,6.566,0,0,0,.922-3.9,6.638,6.638,0,0,1-.317,5.653" transform="translate(-37.658 -21.254)" fill="#fff"/>
      <path id="Path_4692" data-name="Path 4692" d="M74.133,31.028a5.593,5.593,0,0,1,.522,5.367,9.514,9.514,0,0,0-.6,2.214c-.056-.132-.066-.311-.113-.461-.42-1.609-1.945-2.758-2.574-4.277a7.983,7.983,0,0,1-.459-1.55c.668,1.238,2.319,1.879,2.769,3.242a6.109,6.109,0,0,1,.286,1.149.046.046,0,0,0,.049-.042,15.641,15.641,0,0,1,.054-4.265,3.535,3.535,0,0,0-.5-2.065c.268.156.39.456.572.688" transform="translate(-36.595 -16.965)" fill="#fff"/>
      <path id="Path_4693" data-name="Path 4693" d="M71.9,28.631c.279,1.257-.126,2.483.13,3.751l-.013.01c-.682-1.345-2.136-1.978-3.135-3.056a4.272,4.272,0,0,1-.973-2.244c.574,1.382,2.116,1.687,3,2.847a3.786,3.786,0,0,1,.585.947l.03-.031A25.311,25.311,0,0,1,70.5,27.381a2.724,2.724,0,0,0-1.009-1.317A3.5,3.5,0,0,1,71.9,28.631" transform="translate(-35.109 -14.842)" fill="#fff"/>
      <path id="Path_4694" data-name="Path 4694" d="M67.132,24.19a5.322,5.322,0,0,1,1.533,2.855l.142.333a12.58,12.58,0,0,1-3.242-3.445l-.994-1.005a8.417,8.417,0,0,1,2.561,1.262" transform="translate(-33.45 -13.285)" fill="#fff"/>
      <path id="Path_4695" data-name="Path 4695" d="M30.111,22.226a12.648,12.648,0,0,1,5.444-1.291,12.028,12.028,0,0,1,10.78,6.83,11.88,11.88,0,0,1,.791,8.412,12.073,12.073,0,0,1-18.337,6.8,12.062,12.062,0,0,1,1.323-20.746" transform="translate(-13.072 -12.296)" fill="#fff"/>
      <path id="Path_4696" data-name="Path 4696" d="M25.655,23.263a14.7,14.7,0,0,0-2.141,2.657,19.046,19.046,0,0,1-2,1.823,12.734,12.734,0,0,1,.882-2.309c.724-1.263,2.065-1.705,3.259-2.171" transform="translate(-12.076 -13.452)" fill="#fff"/>
      <path id="Path_4697" data-name="Path 4697" d="M19.366,27.55a2.966,2.966,0,0,1,1.579-1.057c-1.182.813-1.107,2.273-1.484,3.488-.12.448-.329.862-.431,1.321l.032.025a4.143,4.143,0,0,1,.972-1.437c.845-.777,2.09-1.261,2.5-2.411-.018,1.6-1.353,2.852-2.627,3.752a5.324,5.324,0,0,0-1.324,1.577c-.029-.4.062-.807.032-1.238-.139-1.394-.24-2.985.747-4.02" transform="translate(-10.595 -15.055)" fill="#fff"/>
      <path id="Path_4698" data-name="Path 4698" d="M15.42,34.465a5.507,5.507,0,0,1,1.377-3.62c.021-.013.04-.036.069-.031-.909,1.383-.158,3.124-.2,4.7l-.12,1.61c.016.011.016.059.06.041a5.375,5.375,0,0,0,.1-.555c.217-1.3,1.343-2.22,2.329-3.118a2.523,2.523,0,0,0,.5-.745,6.7,6.7,0,0,1-.55,1.9c-.766,1.5-2.184,2.72-2.441,4.431-.124-1.637-1.244-2.864-1.128-4.6" transform="translate(-9.046 -17.2)" fill="#fff"/>
      <path id="Path_4699" data-name="Path 4699" d="M13.968,40.77a6.481,6.481,0,0,1,.373-1.3c-.366,1.867.89,3.212,1.3,4.834a15.15,15.15,0,0,0,.462,1.824c.024.012.043-.013.059-.03-.615-1.723.27-3.321,1.16-4.668a4.507,4.507,0,0,0,.448-1.188,10.043,10.043,0,0,1-.215,2.482c-.215,1.029-.538,2-.818,3A4.669,4.669,0,0,0,16.7,47.7l-.09-.072c-.655-1.2-1.945-2.142-2.325-3.457a7.321,7.321,0,0,1-.315-3.405" transform="translate(-8.286 -21.496)" fill="#fff"/>
      <path id="Path_4700" data-name="Path 4700" d="M13.906,49c.145,1.981,2.275,3.028,3.262,4.667a5.418,5.418,0,0,0,.748.985c-.05-.208-.245-.388-.317-.6a4.255,4.255,0,0,1-.389-2.339,11.761,11.761,0,0,0,.36-3.015c.867,1.873.6,4.207,1.088,6.234.126.443.384.837.55,1.262-1.783-1.216-4.212-2.37-5-4.595a5.588,5.588,0,0,1-.3-2.6" transform="translate(-8.284 -26.077)" fill="#fff"/>
      <path id="Path_4701" data-name="Path 4701" d="M16.052,56.892c.994,2.248,3.481,2.434,5.152,3.8a4.188,4.188,0,0,0,.975.666l.017-.019A5.735,5.735,0,0,1,21.1,60.153c-.975-1.359-.633-3.261-1.363-4.72a10.966,10.966,0,0,1,1.669,2.522c.6,1.473.825,3.136,2.209,4.25-1.5-.491-3.249-.352-4.567-1.275a6.3,6.3,0,0,1-3-4.038" transform="translate(-9.364 -29.422)" fill="#fff"/>
      <path id="Path_4702" data-name="Path 4702" d="M21.125,64.6c1.59,1.813,4.2,1.208,6.318,1.681a2.928,2.928,0,0,0,.892.113c-.253-.161-.6-.143-.881-.287-1.663-.587-1.908-2.387-2.812-3.6a25.449,25.449,0,0,1,3.19,2.8,5.6,5.6,0,0,0,2.655,1.179c-.232.083-.538.058-.789.125-1.739.432-3.68,1.131-5.528.5A5.361,5.361,0,0,1,21.125,64.6" transform="translate(-11.882 -32.932)" fill="#fff"/>
      <path id="Path_4703" data-name="Path 4703" d="M45.507,72.678a5.376,5.376,0,0,1-5.069-1.092c-.566-.362-1.068-.881-1.805-.832a2.492,2.492,0,0,0-.747.072,13.818,13.818,0,0,1,3.787,2.627,5.8,5.8,0,0,1-.686.621,13.485,13.485,0,0,0-3.734-3.033,2.431,2.431,0,0,0-.77.327,11.51,11.51,0,0,0-3.076,2.747l-.72-.592a13.226,13.226,0,0,1,3.8-2.711c-1.362-.43-2.253.712-3.288,1.293a4.847,4.847,0,0,1-4.4.658,4.8,4.8,0,0,1-2.111-1.449,4.678,4.678,0,0,0,4.163.361c1.753-.761,3.57-1.723,5.682-1.263.331.006.653.335.965.054a6.744,6.744,0,0,1,4.694.592l1.394.555a4.6,4.6,0,0,0,4.075-.443,4.828,4.828,0,0,1-2.153,1.508" transform="translate(-14.644 -36.791)" fill="#fff"/>
      <path id="Path_4704" data-name="Path 4704" d="M61.628,66.8c-2.019.76-4.044-.173-5.977-.484l-.371-.049V66.26a5.4,5.4,0,0,0,2.555-1.151,26.31,26.31,0,0,1,3.248-2.93c-.891,1.143-.985,2.769-2.457,3.506a9.869,9.869,0,0,1-1.2.462,12.9,12.9,0,0,0,1.562-.235c1.974-.309,4.233.008,5.616-1.675A5.306,5.306,0,0,1,61.628,66.8" transform="translate(-28.839 -32.771)" fill="#fff"/>
      <path id="Path_4705" data-name="Path 4705" d="M67.02,61.215c-1.026.276-2.127.365-3.129.7,1.693-1.453,1.6-3.7,2.729-5.413A16.5,16.5,0,0,1,67.7,55.053c-.685,1.381-.389,3.17-1.178,4.509A5.926,5.926,0,0,1,65.3,61.029c.158-.007.3-.143.432-.234,1.287-1.28,2.963-1.64,4.351-2.681a4.206,4.206,0,0,0,1.31-1.649c-.264,2.122-2.375,4.114-4.37,4.749" transform="translate(-33.113 -29.233)" fill="#fff"/>
      <path id="Path_4706" data-name="Path 4706" d="M72.822,54.228c-.8.52-1.6,1-2.368,1.6v-.069c1.174-1.951.6-4.626,1.32-6.767l.27-.717c-.149,1.332.43,2.464.391,3.8a4.313,4.313,0,0,1-.732,2.171h.071a28.076,28.076,0,0,1,1.7-2.274c1.04-1,2.1-2.032,2.237-3.427a5.9,5.9,0,0,1-2.884,5.683" transform="translate(-36.371 -25.866)" fill="#fff"/>
      <path id="Path_4707" data-name="Path 4707" d="M56.982,57.558l.084-.115a8.408,8.408,0,0,0,1.066-.891h.043c-.074-.023-.164.048-.245.013-.171-.078-.2-.229-.2-.4l-.736-.76-.04-.113a.994.994,0,0,1-.27.339c.006.1-.03.241.085.306.239.079.549.236.6.515-.1.264-.6.5-.29.79.1.143-.142.2-.1.318" transform="translate(-29.535 -29.351)" fill="#0059a9"/>
      <path id="Path_4708" data-name="Path 4708" d="M48.358,38.459c.138.078.214-.065.331-.1a.73.73,0,0,1,.4.269c.107.047.21-.018.306-.053.066-.5.688-.426.873-.891l-.113.042c-.048-.067-.167-.038-.161-.145a1.208,1.208,0,0,1,.358-.288,6.016,6.016,0,0,0-1.706-.777,6.246,6.246,0,0,1-.718-.144,11.038,11.038,0,0,1,.086,1.239l.428.14c.129-.207.4-.248.522-.446.077-.067.166,0,.229.07a1.164,1.164,0,0,1-.072.478c-.163.324-.546.364-.76.6" transform="translate(-25.187 -19.962)" fill="#0059a9"/>
      <path id="Path_4709" data-name="Path 4709" d="M59.77,46.966a7.871,7.871,0,0,1-1.049,2.286c-.2.251-.391.6-.645.73l.544.479c.028-.03.012-.078.019-.119,0-.072.034-.156.124-.145.262-.007.268.275.418.419-.032.228.168.407.1.616a8.881,8.881,0,0,0,2.4-5.7l.081-.1c-.538.053-1.106.016-1.661.024l-.133-.041a6.477,6.477,0,0,1-.081,1.077l.194.214a.214.214,0,0,1-.04.274.224.224,0,0,1-.273-.018" transform="translate(-30.226 -24.451)" fill="#0059a9"/>
      <path id="Path_4710" data-name="Path 4710" d="M56.106,36.93a6.9,6.9,0,0,0-.8-1.065l-.028.073c-.552.573-1.157,1.165-1.681,1.753a.381.381,0,0,0,.162.172c.022-.143.1-.27.115-.418.14-.2.358-.072.542-.03a3.986,3.986,0,0,1,.85.061c.217.106.235.382.432.489a.171.171,0,0,1-.061.228c.061.449.275-.12.5-.013.094.036.215.024.285.125.037.186.264.152.276.329-.019.089-.113.113-.176.163.056.178-.182.292-.1.484.347.066.36-.336.521-.515a3.234,3.234,0,0,0-.333-.9c-.2-.041-.316-.276-.515-.317-.383-.151.059-.389.009-.617" transform="translate(-28.002 -19.708)" fill="#0059a9"/>
      <path id="Path_4711" data-name="Path 4711" d="M47.9,61.2a9.337,9.337,0,0,1,1.437-.2.5.5,0,0,1-.265-.156c-.28-.017-.412-.31-.5-.532-.043-.159.067-.292.132-.43-.119-.245-.49-.068-.707-.155-.059-.049-.1-.121-.184-.134l.088.134a12.154,12.154,0,0,1,0,1.477" transform="translate(-25.13 -31.484)" fill="#0059a9"/>
      <path id="Path_4712" data-name="Path 4712" d="M47.634,52.7c.156.03.045.2.16.258.245-.079.433.208.627.029-.01-.281.308-.257.48-.329.271-.161.575-.376.545-.737l-.045-.052c-.185,0-.279.143-.414.256-.171.1-.255-.18-.392-.113.007.03.037.043.061.054a.139.139,0,0,1,0,.174c-.2.185-.3-.091-.492-.073v.073c.008.042-.011.107-.07.083-.121-.2-.366-.125-.487-.3-.076-.043-.149.011-.2.059-.043.09-.234-.012-.187.145-.148.053-.165.213-.273.31-.187-.032-.269.178-.444.174.017.036,0,.1.052.1a.625.625,0,0,0,.349.042c.179-.286.478-.046.731-.155" transform="translate(-24.48 -27.653)" fill="#0059a9"/>
      <path id="Path_4713" data-name="Path 4713" d="M52.259,48.787a.462.462,0,0,0,.1.285c.233-.035.134.288.347.259.121-.036.008-.138.041-.216-.033-.18-.209-.2-.329-.306-.013-.036.013-.065.029-.1-.089-.048-.13.006-.186.072" transform="translate(-27.338 -26.078)" fill="#0059a9"/>
      <path id="Path_4714" data-name="Path 4714" d="M49.819,32.08a10.39,10.39,0,0,0-1.928-.405l.06.131-.013,1.62.158-.03a5.26,5.26,0,0,1,2.686,1.094l.042.126a14.158,14.158,0,0,1,.99-1.058l.3-.174-.145-.06a6.992,6.992,0,0,0-2.151-1.244" transform="translate(-25.17 -17.628)" fill="#0059a9"/>
      <path id="Path_4715" data-name="Path 4715" d="M29.551,45.62l.13,1.1a8.425,8.425,0,0,1,.227,1.25c.065-.089.025-.269.187-.287-.068-.131.125-.245.017-.359a1.188,1.188,0,0,1,.341-.79c.306-.013.328-.414.634-.433.155-.007.251.2.319.275a1.123,1.123,0,0,1-.134-.878l-.132.06a14.271,14.271,0,0,1-1.663-.042Z" transform="translate(-16.029 -24.491)" fill="#0059a9"/>
      <path id="Path_4716" data-name="Path 4716" d="M50.882,50.939c.141-.148.445-.144.459-.357-.21-.033-.318.082-.459.2-.02.045-.085.128,0,.16" transform="translate(-26.634 -27.011)" fill="#0059a9"/>
      <path id="Path_4717" data-name="Path 4717" d="M58.48,45.337l.184.183c.184.127.061.394.257.5.231.12.316.389.421.592a.789.789,0,0,0,.053-.173c.081-.329.069-.7.172-1.022a2.542,2.542,0,0,1-1.087-.083" transform="translate(-30.427 -24.41)" fill="#0059a9"/>
      <path id="Path_4718" data-name="Path 4718" d="M52.994,51.215c.2.053.342.307.6.228.218-.12.576.072.719-.155-.024-.222.168-.384.265-.574l.07-.018c.12.124.115.311.168.448.167-.179.3-.377.45-.561a5.354,5.354,0,0,0,.872-1.848,1.725,1.725,0,0,0-.47.082c-.174-.01-.385.091-.533-.029-.052-.047-.091.024-.083.072-.061.09-.121.2-.259.162-.108-.048-.108-.162-.144-.245a.578.578,0,0,1-.029.185,1.958,1.958,0,0,0-.256.4c-.126.139-.33.09-.462.2-.024.288-.341.227-.52.318-.013.035.029.041.046.072a.233.233,0,0,0,.258-.061c.253.067.2-.25.344-.359.125-.018.244-.125.373-.04a.829.829,0,0,1,.145.6c-.145.142-.07.377-.172.544.023.2-.217.287-.186.485a.429.429,0,0,1-.33.1,5.65,5.65,0,0,0-1.5-.343.1.1,0,0,0-.069.115c.216.113.478.119.7.214" transform="translate(-27.353 -26.096)" fill="#0059a9"/>
      <path id="Path_4719" data-name="Path 4719" d="M39.235,61.431l.061-.091-.186.049a9.425,9.425,0,0,1-6.1-2.634l-.019.073-1.232,1.238a12.108,12.108,0,0,0,6.376,2.986,9.653,9.653,0,0,1,1.191.144l-.091-.144Z" transform="translate(-17.161 -31.071)" fill="#0059a9"/>
      <path id="Path_4720" data-name="Path 4720" d="M41.818,50.087a4.56,4.56,0,0,0,2.156.994c.041-.162-.024-.365.059-.5.059-.133.22-.126.34-.1a.1.1,0,0,0,.071-.157c-.172-.033-.094-.225-.155-.333.009-.059.109-.048.084-.126-.12-.1.059-.2-.042-.3.029-.02.051-.055.081-.077-.362.153-.748-.068-1.068-.211-.158-.092-.383-.179-.418-.371a9.411,9.411,0,0,1-1.11,1.19" transform="translate(-22.155 -26.177)" fill="#0059a9"/>
      <path id="Path_4721" data-name="Path 4721" d="M39.878,47.263c-.059-.031-.065-.024-.114.028-.029,0-.065.007-.089-.012,0-.341-.382-.136-.526-.315.168.309.257.662.43.973.109.275.346.491.456.761a4.027,4.027,0,0,1,.5-.587.309.309,0,0,0-.058-.233c-.053-.127,0-.3-.1-.411-.154.053.056.208-.012.3a.1.1,0,0,1-.142-.074.4.4,0,0,1-.29-.27c.114-.07-.028-.1-.058-.16" transform="translate(-20.83 -25.218)" fill="#0059a9"/>
      <path id="Path_4722" data-name="Path 4722" d="M42.635,47.9a.868.868,0,0,1-.247.388l.02.011c.144-.1.247-.286.431-.3Z" transform="translate(-22.438 -25.683)" fill="#0059a9"/>
      <path id="Path_4723" data-name="Path 4723" d="M40.663,58.019A6.931,6.931,0,0,1,36.8,56.57c.035.143.226.235.173.413-.1.164-.311.167-.477.164-.343-.055-.595.2-.914.237-.295.091-.4-.269-.666-.237a9.424,9.424,0,0,0,5.791,2.481l.168.113-.074-.2v-1.58Z" transform="translate(-18.73 -29.986)" fill="#0059a9"/>
      <path id="Path_4724" data-name="Path 4724" d="M29.164,51.746a3.413,3.413,0,0,1-.556-.576.821.821,0,0,1-.5-.38c-.059-.068,0-.185-.071-.234l-.074.089c-.21.1-.284-.115-.429-.2-.186-.1-.1-.455-.349-.39-.094-.006-.124-.113-.184-.173-.232.023-.293-.234-.418-.359-.024.053,0,.125-.072.16-.239.055-.322-.238-.486-.36-.041.019-.071.069-.131.055a.722.722,0,0,1-.246-.5c-.2-.223-.106-.574-.069-.844.036-.072.139-.112.118-.2.056-.125.188-.138.314-.144a.3.3,0,0,1,.118.114c.079-.049.253,0,.187-.169a.782.782,0,0,1,.389-.145,2.172,2.172,0,0,0,.27.371l-.084-.129a9.546,9.546,0,0,1-.29-1.82c.007-.035-.075-.053-.029-.088l.012.018A2.213,2.213,0,0,1,26.6,45.5l-.16.06-1.665-.012A12.221,12.221,0,0,0,26.238,50.8a20,20,0,0,0,1.59,2.236l1.19-1.233Z" transform="translate(-13.693 -24.491)" fill="#0059a9"/>
      <path id="Path_4725" data-name="Path 4725" d="M36.215,28.624c-.371.257-.712.592-1.095.82a9.4,9.4,0,0,1,1.209,1.117l.042.115a7.194,7.194,0,0,1,3.59-1.818,3.115,3.115,0,0,1,.943-.072,12.169,12.169,0,0,1-.013-1.724,9.2,9.2,0,0,0-4.676,1.563" transform="translate(-18.83 -15.337)" fill="#0059a9"/>
      <path id="Path_4726" data-name="Path 4726" d="M34.325,39.3a5.4,5.4,0,0,1-.145.892,1.486,1.486,0,0,1,.748-.032c-.134-.071-.022-.245-.1-.34-.018-.149-.043-.334.1-.431-.016-.246.245-.372.271-.592.065-.251.352-.083.49-.215.09-.048.013-.132.013-.2.119-.164.305-.156.447-.247a1.274,1.274,0,0,1,.4-.416c.36.012.366-.492.707-.5a13.992,13.992,0,0,1-1.322-1.233,7.056,7.056,0,0,0-1.61,3.315" transform="translate(-18.363 -19.767)" fill="#0059a9"/>
      <path id="Path_4727" data-name="Path 4727" d="M34.525,46.427c.017-.108-.143-.136-.127-.244.115-.222.006-.581.3-.676a.689.689,0,0,1-.574-.053l.087.144A4.679,4.679,0,0,1,34.3,46.77c.067-.114.085-.27.228-.343" transform="translate(-18.336 -24.468)" fill="#0059a9"/>
      <path id="Path_4728" data-name="Path 4728" d="M38.172,55.922l-.023-.041.023.075Z" transform="translate(-20.334 -29.644)" fill="#0059a9"/>
      <path id="Path_4729" data-name="Path 4729" d="M31.918,32.676l-.648.822a9.54,9.54,0,0,0-1.711,4.964l1.641-.03.155.061c-.066-.044-.05-.115-.073-.174a7.23,7.23,0,0,1,1.908-4.493,11.811,11.811,0,0,1-1.263-1.262Z" transform="translate(-16.069 -18.068)" fill="#0059a9"/>
      <path id="Path_4730" data-name="Path 4730" d="M41.377,53.612a1.146,1.146,0,0,1,.45-.293c-.532.108-1-.274-1.453-.484a2.318,2.318,0,0,1-.747-.634,8.991,8.991,0,0,1-1.19,1.221c.184.012.287.216.443.306a7.5,7.5,0,0,0,3.054,1.364l-.284-.134c-.217-.243-.523-.532-.534-.871.215-.074.191-.311.261-.473" transform="translate(-20.476 -27.817)" fill="#0059a9"/>
      <path id="Path_4731" data-name="Path 4731" d="M35.668,44.655l-.047.316c-.072.188-.305.048-.411.175-.078.119,0,.245.069.339-.166.384.379.505.372.85.168.216-.024.526.217.718.052.389-.055.916.287,1.221l.061.372c.069.257-.307.189-.258.419.073-.037.089.059.095.082v-.011a15.809,15.809,0,0,1,1.536-1.566l-.227-.229a5.983,5.983,0,0,1-.921-2.053l-.173-.088a5.065,5.065,0,0,0-.084.531l-.06.072c-.125,0-.2-.108-.311-.173-.025-.065-.091-.173.013-.227a.22.22,0,0,1,.145.041c.053-.064.028-.16.06-.243.016-.145-.11-.276-.021-.4.114-.012.2.125.246.2.114.035.2-.058.3-.1,0-.1.143-.24-.012-.3a1.378,1.378,0,0,0-.014-.705c-.064-.2-.286-.162-.447-.145-.484.155.079.521-.04.82-.068.174-.247.013-.374.084" transform="translate(-18.859 -23.616)" fill="#0059a9"/>
      <path id="Path_4732" data-name="Path 4732" d="M63.994,45.429l-.1-.073.059.162a9.609,9.609,0,0,1-1.9,5.314,3.842,3.842,0,0,1-.7.77,12.121,12.121,0,0,1,1.334,1.311l.047-.089a11.52,11.52,0,0,0,2.986-7.306l.073-.144-.089.044Z" transform="translate(-31.852 -24.419)" fill="#0059a9"/>
      <path id="Path_4733" data-name="Path 4733" d="M33.052,26.617l.03-.083a9.491,9.491,0,0,1,6.112-2.573l-.052-.143-.02-1.437.05-.167a11.635,11.635,0,0,0-6.435,2.28c-.366.252-.689.634-1.061.85h.053a10.126,10.126,0,0,1,1.323,1.273" transform="translate(-17.12 -12.931)" fill="#0059a9"/>
      <path id="Path_4734" data-name="Path 4734" d="M42.508,31.708a6.984,6.984,0,0,0-3.991,1.7,15.663,15.663,0,0,1,1.275,1.187,1.5,1.5,0,0,0,.09-.13,5.533,5.533,0,0,1,1.826-.944,2.736,2.736,0,0,1,.9-.1,8.133,8.133,0,0,1,0-1.764Z" transform="translate(-20.516 -17.615)" fill="#0059a9"/>
      <path id="Path_4735" data-name="Path 4735" d="M44.09,36.469a4.083,4.083,0,0,0-2.552,1.2h.128c.146.144.377.113.486.306.055.107-.1.1-.1.184.031.026.073.03.1.073.113.04.09-.066.133-.113.148-.149.173.143.316.143a.219.219,0,0,1,.315.041c.1-.084.3-.006.331-.16.188-.2.085-.5.36-.628.1.053-.006.144.03.227.184.077.394-.156.544.031a3.818,3.818,0,0,1-.091-1.307" transform="translate(-22.016 -20.008)" fill="#0059a9"/>
      <path id="Path_4736" data-name="Path 4736" d="M44.26,41.259a1.139,1.139,0,0,1-.759.448c-.078.1-.059.306-.245.286-.059.133-.263.21-.184.4a3.266,3.266,0,0,0-.1.689c-.355.221-.254-.295-.43-.4l-.063.1c-.069.018-.117-.024-.167-.07-.053-.021-.144-.039-.191.011-.079.132-.2.239-.168.419-.034.107-.214.071-.19.185a3.282,3.282,0,0,0,.6-.084c.139.035.251-.065.39-.07a.125.125,0,0,1,.083.143h.049a.244.244,0,0,0,.094-.286c.013-.126.151-.126.233-.163.078.037.03.113.043.175.269.1-.065.3-.1.441-.071.115,0,.372-.227.335a.085.085,0,0,1-.058-.1h-.032a.311.311,0,0,0,.163.27c.165-.137.171-.37.414-.4.123-.131-.056-.334.131-.441.31-.008.642-.139.89.111-.019.109-.059.159.031.247a1.2,1.2,0,0,1-.216.4.2.2,0,0,1-.063.227c-.081.365-.5.191-.744.317a1.9,1.9,0,0,0,1.321.359c.256-.011.144-.329.276-.472.082-.418.467-.131.7-.245a1.667,1.667,0,0,0,.2-.556.4.4,0,0,1-.161-.447c-.1-.139-.091-.39-.313-.415a.117.117,0,0,1,.025-.141c0-.132.125-.175.161-.277-.136-.089-.1-.287-.089-.4-.234.068-.257-.237-.431-.3-.042-.138-.192-.162-.311-.185-.288.137-.334-.217-.55-.3-.023-.066-.074-.162,0-.215.109-.091.251-.013.376-.02l-.1-.053c-.095-.107-.3-.041-.431,0,.12.119.069.335.143.485" transform="translate(-22.125 -22.116)" fill="#0059a9"/>
      <path id="Path_4737" data-name="Path 4737" d="M26.6,36.794l-.041-.235a9.715,9.715,0,0,1,1.8-5.126,4.862,4.862,0,0,1,.8-.916c-.39-.364-.794-.79-1.2-1.189l-.041-.163A11.775,11.775,0,0,0,24.845,35.7c-.066.36-.021.73-.094,1.1a11.541,11.541,0,0,1,1.847,0" transform="translate(-13.682 -16.381)" fill="#0059a9"/>
      <path id="Path_4738" data-name="Path 4738" d="M54.316,58.51a3.321,3.321,0,0,1-.822.789c-.388.39-1.023.472-1.221,1.036-.207.19-.279.489-.572.6-.11.287-.415.27-.587.477-.5.449-.827-.286-1.281-.374l-.915.161a2.874,2.874,0,0,1-.935.012,13.288,13.288,0,0,1,0,1.878l.115-.072a11.636,11.636,0,0,0,7.507-3.158l-1.26-1.2Z" transform="translate(-25.216 -30.949)" fill="#0059a9"/>
      <path id="Path_4739" data-name="Path 4739" d="M47.909,23.747a.229.229,0,0,1,.056-.14c.083-.05.153.024.187.081.008.085.044.229-.027.277.071.012.109-.042.172-.042a8.925,8.925,0,0,1,3.777,1.148v-.03c.233-.115.532-.263.771-.06.287-.108.34.246.574.287a1.251,1.251,0,0,1,.634.809c.052.108.223.185.246.3a4.551,4.551,0,0,1,.9-1.046l.2-.085a11.161,11.161,0,0,0-6.349-3,9.311,9.311,0,0,1-1.165-.142,8.3,8.3,0,0,1,.018,1.649" transform="translate(-25.17 -12.873)" fill="#0059a9"/>
      <path id="Path_4740" data-name="Path 4740" d="M47.9,28.728a1.879,1.879,0,0,1,.689.024A6.988,6.988,0,0,1,51.8,30.044a.878.878,0,0,1-.274-.431.069.069,0,0,1,.073-.024c.013-.186-.186-.282-.214-.449a.123.123,0,0,1,.131-.054,4.26,4.26,0,0,1,.525.615c.132-.052.24.031.336.1.172.1.065.324.2.444.023.353.454.55.431.9,0,.084.106.018.143.06l.359.441a.176.176,0,0,0,.061.245c.16.074.251-.131.41-.1.233.132-.036.287-.013.432.09,0,.2-.072.277.018.029.132-.109.215-.165.3,0,.13.108.1.205.13a.168.168,0,0,1,.145.217c.3.311-.091.646.053.975a.57.57,0,0,1-.157.585c.007.264-.234.425-.326.647l-.306.059c-.163.162.139.36-.025.462l.671.012-.073-.072a.992.992,0,0,1,.091-.851,1.89,1.89,0,0,1,.318-.658c.041-.012.117-.09.156,0a1.2,1.2,0,0,1-.1.616,1.815,1.815,0,0,1,.184.974c.592-.037,1.173-.047,1.755-.041l-.053-.115a8.614,8.614,0,0,0-.78-3.1c-.125.007-.216.107-.359.072a.111.111,0,0,1-.073-.118,9.027,9.027,0,0,0-.657-.732c-.309.031-.445-.323-.72-.358-.244-.1-.077-.5-.431-.388a.578.578,0,0,1-.377-.4.989.989,0,0,0-.338-.85c-.218-.078-.306.208-.523.162-.119-.06-.065-.216-.1-.316s-.142-.157-.124-.276c.281-.37-.34-.363-.2-.73-.037-.264-.3-.366-.443-.574a9.738,9.738,0,0,0-2.9-.831,2.042,2.042,0,0,1-.718-.1l.058.112c-.014.557.026,1.149-.03,1.67" transform="translate(-25.159 -15.28)" fill="#0059a9"/>
      <path id="Path_4741" data-name="Path 4741" d="M60.92,30.4c.127.03.164.18.249.269.435.233.548.7.932.963.216.451.712.8.73,1.311a9.494,9.494,0,0,1,.908,3.715l-.046.071a.245.245,0,0,0,.141-.053l1.725-.031c-.113-.167-.066-.412-.1-.615a11.838,11.838,0,0,0-3.147-6.951,13.994,13.994,0,0,1-1.191,1.28Z" transform="translate(-31.638 -16.341)" fill="#0059a9"/>
      <path id="Path_4742" data-name="Path 4742" d="M48.394,24.412c.052-.1.189-.061.26-.031l.862-.371a1.2,1.2,0,0,1,.934.36v.042a.76.76,0,0,1-.777.2c-.4.079-.948.306-1.265-.1-.014-.03-.048-.073-.014-.1" transform="translate(-25.412 -13.823)" fill="#fff"/>
      <path id="Path_4743" data-name="Path 4743" d="M58.276,26.951a.364.364,0,0,1,.271.218c-.033.134.126.249.028.357-.323.084-.352-.28-.6-.37a.259.259,0,0,1-.041-.174c.113-.137.221.09.346-.031" transform="translate(-30.153 -15.275)" fill="#fff"/>
    </g>
  </g>
</svg>
