<svg xmlns="http://www.w3.org/2000/svg" width="22.811" height="22.828" viewBox="0 0 22.811 22.828">
  <g id="Group_703" data-name="Group 703" transform="translate(-164.011 -271.7)">
    <path id="Path_4638" data-name="Path 4638" d="M182.243,288.352c.562.556,1.112,1.1,1.66,1.644q1.285,1.281,2.565,2.567a1.1,1.1,0,0,1,.3,1.151,1.084,1.084,0,0,1-.859.787,1.152,1.152,0,0,1-1.107-.377q-1.978-1.984-3.962-3.962c-.068-.068-.139-.132-.207-.2a10.261,10.261,0,1,1,1.612-1.614Zm-8,1.567a7.971,7.971,0,1,0-7.971-7.973A7.973,7.973,0,0,0,174.243,289.919Z" transform="translate(0 0)" fill="#009bc7"/>
  </g>
</svg>
