<svg xmlns="http://www.w3.org/2000/svg" width="50.698" height="90.457" viewBox="0 0 50.698 90.457">
  <g id="Component_19_1" data-name="Component 19 – 1" transform="translate(0.5 0.518)">
    <path id="Path_1426" data-name="Path 1426" d="M127.378,376.018a1.772,1.772,0,0,0,2.771.01l4.826-6.406H151.7a1.686,1.686,0,0,0,1.587-1.811v-12.69c0-.049.07-.1.067-.144a10.765,10.765,0,0,0-5.866-8.716c-.061-.029-.037-.059-.1-.08l-6.506-2.38v-2.219a1.647,1.647,0,0,0-1.175-1.6l-.016,0-3.372-1.385a18.679,18.679,0,0,0,10.843-15.687,6.039,6.039,0,0,0,3.415-6.958,4.919,4.919,0,0,0-2.744-3.333l.3-4.411a19.606,19.606,0,1,0-39.12,0l.3,4.4a4.919,4.919,0,0,0-2.755,3.339,6.044,6.044,0,0,0,3.425,6.96,18.667,18.667,0,0,0,10.871,15.694l-3.3,1.358.007.017c-.055.023-.178.046-.233.074a1.8,1.8,0,0,0-.982,1.526V343.8l-6.526,2.38a1.112,1.112,0,0,0-.154.08,10.861,10.861,0,0,0-5.956,8.716c0,.047-.062.1-.062.144v12.69a1.932,1.932,0,0,0,1.876,1.811h17.016Zm-10.156-9.858V355.122c0-.049.008-.1,0-.144a10.8,10.8,0,0,0-3.067-6.654l3.426-1.236,4.45,5.931a1.729,1.729,0,0,0,2.346.4l.153-.061-2.371,12.8Zm22.428-19.073,3.46,1.247a10.818,10.818,0,0,0-3.074,6.643c0,.047-.019.1-.019.144V366.16h-4.653l-2.33-12.6a1.7,1.7,0,0,0,.783.173,1.74,1.74,0,0,0,1.385-.7Zm-6.236,2.542-1.673-1.115,5.023-3.35Zm-.9-5.838-3.9,2.642-3.889-2.632v-3.936a17.947,17.947,0,0,0,7.791-.023Zm-7.017,4.723-1.673,1.116-3.351-4.466Zm3.266,23.54-3.358-4.476,3.147-16.938.066-.045.4.266,3.1,16.718ZM149.828,355.2V366.16H143.48V355.2a7.527,7.527,0,0,1,3.174-5.4,6.7,6.7,0,0,1,3.174,5.4Zm-33.051-59.353a16.144,16.144,0,0,1,27.906,12.126l-.191,2.761-1.4-5.778a1.718,1.718,0,0,0-.089-.27,8.8,8.8,0,0,0-7.67-5.318l-1.65-.073a1.735,1.735,0,0,0-1.487.727,14.62,14.62,0,0,1-13.461,6.056l-2.774-.3a2.422,2.422,0,0,0-2.675,2.218l-.428,5.339-.013,0-.368-5.359a15.979,15.979,0,0,1,4.3-12.126Zm-3.364,25.783a1.731,1.731,0,0,0-1.432-1.706,2.565,2.565,0,0,1-2.122-2.532,2.625,2.625,0,0,1,.073-.614,1.454,1.454,0,0,1,.55-.843,3.068,3.068,0,0,0,.614.42c.047.024.1.046.147.067,2.527,1.012,3.287,1.134,4.069.65a1.777,1.777,0,0,0,.83-1.36l.509-6.376,1.715.184a18.086,18.086,0,0,0,16.076-6.727l.739.033a5.321,5.321,0,0,1,4.583,3.094l2.605,10.738a1.732,1.732,0,0,0,2.863.858l1.423-1.328c.049-.045.093-.095.138-.142a1.454,1.454,0,0,1,.423.733,2.576,2.576,0,0,1-2.045,3.146,1.761,1.761,0,0,0-1.429,1.732,15.165,15.165,0,0,1-30.33-.026Zm-6.29,33.57a7.661,7.661,0,0,1,3.317-5.412,7.664,7.664,0,0,1,3.319,5.412V366.16h-6.636Zm0,0" transform="translate(-103.66 -287.251)" fill="#009bc7" stroke="#fff" stroke-width="1"/>
  </g>
</svg>
