<svg xmlns="http://www.w3.org/2000/svg" width="74.486" height="74.486" viewBox="0 0 74.486 74.486">
  <g id="Group_663" data-name="Group 663" transform="translate(-132.5 -240.5)">
    <path id="Path_1444" data-name="Path 1444" d="M185.2,314.736H134.484A3.406,3.406,0,0,1,132.75,313V303.32c.044-.133.094-.264.132-.4a25.6,25.6,0,0,1,1.144-4c2.649-5.673,7.179-8.593,13.431-8.869a1.631,1.631,0,0,0,.959-.321,7.6,7.6,0,0,1,3.6-1.887.7.7,0,0,0,.427-.212,2.325,2.325,0,0,0-.567-2.284,15.223,15.223,0,0,1-7.3-11.535.971.971,0,0,0-.484-.657,5.162,5.162,0,0,1-2.525-2.176,8.855,8.855,0,0,1-1.291-4.164c-.081-3.2-.214-6.406-.091-9.6a17.075,17.075,0,0,1,12.047-15.669c1.137-.356,2.329-.535,3.5-.8h14.739a.861.861,0,0,0,.168.123,2.734,2.734,0,0,1,1.336,4.43l-1.2,1.769c.579.165,1.109.3,1.632.466,3.572,1.115,7.438,4.5,7.218,9.752-.111,2.644.016,5.3-.052,7.946a16.168,16.168,0,0,1-.448,3.493,5.716,5.716,0,0,1-3.209,4.281,1.175,1.175,0,0,0-.792,1.1,14.71,14.71,0,0,1-6.739,10.854,2.107,2.107,0,0,0-1.108,2.268c.039.36.087.553.494.628A7.16,7.16,0,0,1,171.3,289.7a1.75,1.75,0,0,0,.88.352c1.281.2,2.584.277,3.846.552a25.232,25.232,0,0,1,2.885.972c.9-1.586,1.7-3.215,2.714-4.69s2.264-2.8,3.412-4.2c-.067-.007-.138-.017-.21-.02-.988-.037-1.523-.489-1.5-1.266s.58-1.191,1.577-1.2c.637,0,1.273,0,1.985,0-.131-.329-.212-.552-.308-.768-.994-2.242-2.006-4.476-2.982-6.726a2.467,2.467,0,0,1,2.337-3.609c.818-.018,1.638-.013,2.456,0a2.455,2.455,0,0,1,2.586,1.877.744.744,0,0,0,.877.6c1.613-.028,3.227-.024,4.84-.006a2.4,2.4,0,0,1,2.584,2.036,3.683,3.683,0,0,1-.288,1.736c-.631,1.6-1.344,3.177-2.07,4.869.9,0,1.687-.029,2.472.009a1.179,1.179,0,0,1,1.165,1.225,1.192,1.192,0,0,1-1.172,1.217c-.176.017-.353.019-.638.034.215.234.337.377.469.508a25.031,25.031,0,0,1,6.728,11.755c.349,1.369.53,2.78.787,4.172v2.457a2.953,2.953,0,0,0-.126.408c-.982,6.12-4.478,10.108-10.3,12.087a27.346,27.346,0,0,1-2.866.654h-2.89c-1.247-.307-2.494-.62-3.744-.915a.547.547,0,0,0-.368.092C186.021,314.176,185.615,314.46,185.2,314.736Zm-42.6-49.9-.187.045c.312,1.4.57,2.809.955,4.186a2.76,2.76,0,0,0,1.991,1.917,2.214,2.214,0,0,1,1.6,1.947c.082.6.138,1.2.243,1.787a12.907,12.907,0,0,0,25.54-1.518,2.411,2.411,0,0,1,1.783-2.276,2.873,2.873,0,0,0,1.75-1.6c1.028-2.111.854-4.362.81-6.593a1.158,1.158,0,0,0-1.217-1.014,1.23,1.23,0,0,0-1.185,1.068,11.972,11.972,0,0,0-.028,1.226,1.24,1.24,0,1,1-2.458,0c-.015-.746,0-1.493-.011-2.239a1.014,1.014,0,0,0-1.006-1.1c-.765-.085-1.533-.158-2.293-.278a16,16,0,0,1-8.189-3.3,1.112,1.112,0,0,0-1.618.081,10.862,10.862,0,0,1-4.826,2.492c-1.755.394-3.545.635-5.327.9-1.129.165-1.379.386-1.39,1.5-.007.7.011,1.4-.018,2.095a1.216,1.216,0,0,1-1.156,1.243,1.247,1.247,0,0,1-1.289-1.2c-.037-.382-.007-.77-.02-1.155a1.228,1.228,0,0,0-1.2-1.34,1.259,1.259,0,0,0-1.246,1.318C142.584,263.634,142.6,264.236,142.6,264.838Zm49.883,47.436a11.873,11.873,0,0,0,8.458-3.857,11.684,11.684,0,0,0,3.19-10.1,22.658,22.658,0,0,0-6.44-13.255,7.58,7.58,0,0,0-5.991-2.453,7.308,7.308,0,0,0-4.493,1.623,15.925,15.925,0,0,0-2.126,2.049,23.916,23.916,0,0,0-5.288,11.531C178.482,305.41,184.223,312.262,192.488,312.274Zm-15.362-53.126c0-.6-.02-1.416,0-2.229a6.527,6.527,0,0,0-3.052-5.8,10.084,10.084,0,0,0-6.36-1.729,12.8,12.8,0,0,1-1.8-.029,1.214,1.214,0,0,1,.1-2.422,8.107,8.107,0,0,1,1.155-.005,1.015,1.015,0,0,0,1.067-.533c.491-.8,1.065-1.545,1.583-2.327a3.8,3.8,0,0,0,.286-.686,3.353,3.353,0,0,0-.735-.169c-4.022-.01-8.043-.026-12.064,0a14.771,14.771,0,0,0-14.1,10.612,15.214,15.214,0,0,0-.574,5.38l3.143.328a3.662,3.662,0,0,1,2.792-1.41c.576-.047,1.15-.112,1.723-.182a13.4,13.4,0,0,0,7.553-2.9,3.437,3.437,0,0,1,4.4.1,10.166,10.166,0,0,0,2.707,1.612,40.708,40.708,0,0,0,5.445,1.314c1.292.231,2.591.3,3.508,1.418a.527.527,0,0,0,.418.12C175.224,259.473,176.121,259.315,177.126,259.148Zm-29.784,33.423a.409.409,0,0,0-.129-.022,12.186,12.186,0,0,0-11.835,10.6c-.259,2.721-.121,5.48-.162,8.222,0,.28,0,.56,0,.839h16.244a22.342,22.342,0,0,1-3.162-9.51C147.862,299.368,147.656,296,147.341,292.571Zm25.084-.01c-.341,3.465-.562,6.825-1.03,10.15a22.47,22.47,0,0,1-3.337,9.519h15.519c-6.284-4.77-7.61-10.951-5.454-18.162A11.8,11.8,0,0,0,172.425,292.561ZM156.4,312.24h6.935c-.229-1.389-.449-2.737-.674-4.084-.428-2.561-.852-5.123-1.3-7.679-.034-.192-.267-.486-.422-.5-.81-.05-1.625-.023-2.481-.023Zm-1.156-14.11a1.433,1.433,0,0,1-1.826.169c-1.1-.529-2.184-1.075-3.433-1.692.377,2.634.692,5.228,1.133,7.8a17.389,17.389,0,0,0,1.942,5.709c.239.421.554.8.933,1.339.078-.335.116-.466.139-.6.59-3.559,1.155-7.122,1.784-10.674A1.735,1.735,0,0,0,155.249,298.129Zm14.383-1.463c-1.118.56-2.157,1.092-3.207,1.6a1.609,1.609,0,0,1-2.111-.3c-.237.615-.622,1.106-.56,1.533.418,2.9.929,5.791,1.413,8.684.161.96.329,1.918.494,2.877l.205.015C168.746,306.7,169.1,301.669,169.631,296.666Zm27.235-22.583h-4.7c-.025.093-.053.14-.046.181a3.362,3.362,0,0,0,.082.35c.267.954,0,1.623-.726,1.827-.754.211-1.322-.171-1.636-1.112-.357-1.07-.7-2.145-1.072-3.21-.07-.2-.248-.506-.392-.515-.822-.05-1.649-.024-2.467-.024a.947.947,0,0,0,0,.243c1.183,2.679,2.363,5.36,3.568,8.03a.711.711,0,0,0,.526.336c1.274.028,2.549.023,3.823,0a.65.65,0,0,0,.5-.26C195.177,278.024,195.995,276.107,196.867,274.083Zm-41.821,12.746c-.289,1.321-.135,2.476,1.082,3.127a36.459,36.459,0,0,0,3.483,1.506.939.939,0,0,0,.635-.015,31.232,31.232,0,0,0,3.11-1.3,2.638,2.638,0,0,0,1.364-3.334A15.334,15.334,0,0,1,155.046,286.829Zm.693,5.993c-.672-.572-1.463-1.157-2.144-1.848-.843-.855-.863-.918-1.967-.429-.369.163-.7.408-1.058.6a.888.888,0,0,0-.4,1.217,5.751,5.751,0,0,0,3.242,3.262Zm8.322.053,2.289,2.757a6.216,6.216,0,0,0,2.972-2.615c.606-1.18.512-1.552-.632-2.181a8.109,8.109,0,0,0-1.539-.583.6.6,0,0,0-.492.134C165.755,291.23,164.872,292.093,164.061,292.875Zm-.93,2.688a4.269,4.269,0,0,0-6.594.146c.742.519.835,1.768,2.051,1.765C160.361,297.468,162.357,297.994,163.131,295.563Z" fill="#009bc7" stroke="#fefefe" stroke-width="0.5"/>
    <path id="Path_1447" data-name="Path 1447" d="M405,620.887c.41-.276.816-.559,1.234-.823a.547.547,0,0,1,.368-.092c1.25.3,2.5.608,3.744.915Z" transform="translate(-219.795 -306.152)" fill="#009bc7" stroke="#fefefe" stroke-width="0.5"/>
    <path id="Path_1448" data-name="Path 1448" d="M132.75,615.75a3.406,3.406,0,0,0,1.734,1.734H132.75Z" transform="translate(0 -302.749)" fill="#009bc7" stroke="#fefefe" stroke-width="0.5"/>
    <path id="Path_1450" data-name="Path 1450" d="M425.751,506.911a1.307,1.307,0,0,0-1.361-1.478,3.646,3.646,0,0,1-3.43-2.8,3.723,3.723,0,0,1,1.787-4.127,1.412,1.412,0,0,0,.566-.695,1.248,1.248,0,0,1,1.258-.986,1.208,1.208,0,0,1,1.193,1.056,1.309,1.309,0,0,0,.412.571,14.191,14.191,0,0,1,1.471,1.335,1.132,1.132,0,0,1-.266,1.655,1.22,1.22,0,0,1-1.684-.207c-.1-.105-.17-.237-.274-.334a1.164,1.164,0,0,0-1.389-.257,1.144,1.144,0,0,0-.7,1.225,1.164,1.164,0,0,0,.944,1.057c.276.069.575.044.858.094A3.7,3.7,0,0,1,428.184,506a3.741,3.741,0,0,1-1.929,3.942,1.265,1.265,0,0,0-.5.669,1.233,1.233,0,0,1-1.189.979,1.1,1.1,0,0,1-1.2-.938c-.074-.449-.326-.6-.658-.822a5.436,5.436,0,0,1-1.217-1.1,1.2,1.2,0,0,1,.152-1.741,1.231,1.231,0,0,1,1.782.245c.638.721,1.292.88,1.853.38A2.673,2.673,0,0,0,425.751,506.911Z" transform="translate(-232.593 -206.735)" fill="#009bc7" stroke="#fefefe" stroke-width="0.5"/>
  </g>
</svg>
