<svg xmlns="http://www.w3.org/2000/svg" width="71.735" height="71.735" viewBox="0 0 71.735 71.735">
  <g id="Component_20_1" data-name="Component 20 – 1" transform="translate(0.15 0.15)">
    <path id="Path_1439" data-name="Path 1439" d="M193.825,385.2a1.311,1.311,0,0,0-.257-1.1,1.775,1.775,0,0,0-1.391-.532q-10.522,0-21.043,0h-8.283V347.087l.785.7c.1.093.194.171.272.24.15.131.268.234.382.347q.469.466.935.936c.494.5,1.006,1.01,1.515,1.506a4.8,4.8,0,0,0,3.3,1.569c3.439.057,6.539.095,9.655-.007a5.243,5.243,0,0,0,4.82-4.126,5.6,5.6,0,0,0-.5-3.929l-.142-.286,2.093-2.345,4.073-4.565q.41-.46.822-.918c.719-.8,1.463-1.63,2.174-2.459a1.282,1.282,0,0,0,.171-1.564,1.22,1.22,0,0,0-1.37-.651,2.385,2.385,0,0,0-1.045.673c-2.428,2.682-5.043,5.612-8.231,9.222a1.275,1.275,0,0,1-1.5.408,8.287,8.287,0,0,0-2.086-.372c-.942-.029-1.9-.026-2.836-.023-.805,0-1.638.005-2.46-.013a2.073,2.073,0,0,1-1.282-.528c-.419-.394-.823-.812-1.213-1.216a22.139,22.139,0,0,0-1.846-1.771,19.117,19.117,0,0,0-3.527-2.354,12.275,12.275,0,0,0-6.4-.823,1.943,1.943,0,0,0-.924.46c-.605.472-1.207.977-1.788,1.465-.392.329-.8.67-1.2,1a3.489,3.489,0,0,1-4.717-.012c-.333-.273-.661-.552-.989-.831-.644-.548-1.311-1.114-2-1.618a3.084,3.084,0,0,0-1.329-.5,7.377,7.377,0,0,0-1.5-.019l-.311.016a9.653,9.653,0,0,0-9.062,7.091c-.087.314-.167.639-.245.953q-.049.2-.1.4v17.13A6.073,6.073,0,0,0,137,363.519a5.4,5.4,0,0,0,4.955,1.342c.164-.033.328-.07.491-.106l.323-.071a.564.564,0,0,1,.256.007l.045.009.39.068v18.8h-1.2c-.509,0-1.018,0-1.527.007-1.191.007-2.424.015-3.638-.02a1.7,1.7,0,0,0-1.846,1.046v.659a1.909,1.909,0,0,0,1.035,1.036h56.6C193.4,385.972,193.741,385.7,193.825,385.2Zm-33.789-36.548c-.007,3.61-.005,7.281,0,10.83l.006,24.053h-5.524V361.152c0-.144,0-.287,0-.43a1.369,1.369,0,0,0-1.371-1.484h-.032a1.341,1.341,0,0,0-1.32,1.488c-.008,2.347-.008,4.734-.008,7.042v2.144q0,4.216,0,8.432v5.164h-5.547l0-25.916q0-5.423,0-10.845a1.821,1.821,0,0,0-.443-1.334,1.368,1.368,0,0,0-2.226.771,5.375,5.375,0,0,0-.047.84q0,2.2,0,4.393,0,2.857,0,5.713c0,.7-.022,1.4-.041,2.085l-.012.4a2.654,2.654,0,0,1-2.654,2.656h-.058a2.714,2.714,0,0,1-2.755-2.62c-.026-.769-.02-1.547-.014-2.3,0-.323.005-.645.005-.968q0-1.792,0-3.583c0-2.764,0-5.622.009-8.433a6.984,6.984,0,0,1,7.906-6.924,1.732,1.732,0,0,1,.84.411c.418.336.836.684,1.24,1.02.349.291.7.582,1.052.868a6.26,6.26,0,0,0,8.219.016c.112-.091.228-.178.345-.265a4.114,4.114,0,0,0,.717-.625c1.483-1.8,3.408-1.584,5.1-1.236a8.186,8.186,0,0,1,4.182,2.343q.616.619,1.237,1.233c.746.74,1.518,1.5,2.26,2.278a2.149,2.149,0,0,0,1.724.7c2.137-.035,4.25-.022,6.23-.006a2.786,2.786,0,0,1,2.9,2.787,2.7,2.7,0,0,1-2.272,2.687,6.379,6.379,0,0,1-1.063.073q-1.442,0-2.885,0c-1.532,0-3.117,0-4.675.007a3.362,3.362,0,0,1-2.616-1.081c-.5-.53-1.026-1.052-1.539-1.557-.3-.295-.6-.59-.895-.888a3.337,3.337,0,0,0-3.826-.905A3.379,3.379,0,0,0,160.035,348.653Z" transform="translate(-135.25 -314.862)" fill="#009bc7" stroke="#fff" stroke-width="0.3"/>
    <path id="Path_1440" data-name="Path 1440" d="M294.542,290.345q6.961,0,13.923,0h4.349c4.5,0,9.162,0,13.743-.006a5.044,5.044,0,0,0,5.181-4.038.981.981,0,0,1,.107-.252V247.519c-.027-.082-.053-.165-.078-.247-.071-.225-.138-.438-.218-.643a4.973,4.973,0,0,0-3.817-3.25,3.5,3.5,0,0,1-.365-.105l-.07-.023H290.649a.719.719,0,0,1-.143.085c-1.085.478-1.082,1.162-.985,1.635A1.4,1.4,0,0,0,291,246.012c.1,0,.2,0,.294,0h.118l34.843,0a2.446,2.446,0,0,1,2.857,2.85q0,17.952,0,35.9c0,2-.853,2.853-2.852,2.853H299.993c-1.976,0-4.019,0-6.028.011a1.339,1.339,0,0,0-1.423,1.325,1.4,1.4,0,0,0,1.34,1.382,4.768,4.768,0,0,0,.493.012Z" transform="translate(-260.411 -243.25)" fill="#009bc7" stroke="#fff" stroke-width="0.3"/>
    <path id="Path_1441" data-name="Path 1441" d="M187.069,246.908a8.382,8.382,0,0,0,7.045,13.133,8.385,8.385,0,0,0,2.742-16.273c-.4-.144-.81-.254-1.243-.37-.181-.048-.361-.1-.541-.148h-2.12l-.064.023a2.439,2.439,0,0,1-.387.111A8.33,8.33,0,0,0,187.069,246.908Zm6.957-.922a5.669,5.669,0,0,1-.013,11.337h-.1a5.712,5.712,0,0,1-5.6-5.687,5.668,5.668,0,0,1,5.706-5.65Z" transform="translate(-176.101 -243.25)" fill="#009bc7" stroke="#fff" stroke-width="0.3"/>
    <path id="Path_1442" data-name="Path 1442" d="M348.611,287.431c-.144,0-.289,0-.433,0H332.161c-.256,0-.512,0-.768-.005-.555-.005-1.129-.011-1.686.011a1.4,1.4,0,0,0-1.114.6,1.355,1.355,0,0,0-.153,1.217,1.442,1.442,0,0,0,1.506.906q3.305.006,6.61,0h6.905l1.51,0c1.188,0,2.416,0,3.622-.006a1.6,1.6,0,0,0,1.145-.442,1.285,1.285,0,0,0,.362-.938A1.381,1.381,0,0,0,348.611,287.431Z" transform="translate(-291.963 -279.095)" fill="#009bc7" stroke="#fff" stroke-width="0.3"/>
    <path id="Path_1443" data-name="Path 1443" d="M340.661,332.839c0-.824-.615-1.34-1.606-1.348-1.044-.008-2.107-.006-3.136,0-.459,0-.921,0-1.377,0l-1.195,0-1.2,0c-.679,0-1.365,0-2.042.012a2.493,2.493,0,0,0-.92.15,1.3,1.3,0,0,0-.706,1.515,1.435,1.435,0,0,0,1.551,1.046c3.023.013,6.062.01,9.029-.006C340.03,334.194,340.66,333.66,340.661,332.839Z" transform="translate(-292.027 -314.854)" fill="#009bc7" stroke="#fff" stroke-width="0.3"/>
  </g>
</svg>
