<svg xmlns="http://www.w3.org/2000/svg" width="70.87" height="56.218" viewBox="0 0 70.87 56.218">
  <g id="Component_23_1" data-name="Component 23 – 1" transform="translate(0.15)">
    <circle id="Ellipse_139" data-name="Ellipse 139" cx="13" cy="13" r="13" transform="translate(1.917)" fill="#fec725" opacity="0.175"/>
    <g id="Group_637" data-name="Group 637" transform="translate(0 12.494)">
      <path id="Path_1321" data-name="Path 1321" d="M203.32,334.778a3.107,3.107,0,0,1-2,1.717c-1.532.547-3.041,1.162-4.545,1.784a2.375,2.375,0,0,1-2.591-.219.578.578,0,0,0-.527-.006c-1.226.762-2.436,1.55-3.638,2.322.787,3.915-1.013,6.069-4.809,5.8-.777,2.842-1.857,3.679-4.952,3.792a4.181,4.181,0,0,1-1.834,3.275,4.235,4.235,0,0,1-3.729.482A4.172,4.172,0,0,1,171.3,357.3c-1.954.411-3.315-.741-4.753-1.872-.328.375-.631.74-.953,1.085a3.781,3.781,0,0,1-6.537-1.746.743.743,0,0,0-.465-.485,3.76,3.76,0,0,1-3.731-3.23c-.021-.087-.051-.171-.075-.248-2.62-.31-3.7-1.24-4.145-3.545-3.625-.584-4.99-2.734-3.614-5.83-.215-.157-.439-.339-.68-.492-1.355-.862-2.706-1.732-4.081-2.561a.984.984,0,0,0-.774-.028,2.361,2.361,0,0,1-1.868.053c-1.811-.72-3.622-1.441-5.441-2.137a2.756,2.756,0,0,1-1.431-1.487v-1.1c.633-1.541,1.283-3.076,1.9-4.626q2.6-6.556,5.167-13.121a2.179,2.179,0,0,1,3.219-1.419q2.532.985,5.058,1.986a2.187,2.187,0,0,1,1.578,2.249.669.669,0,0,0,.313.482,9.561,9.561,0,0,0,4.161.992c2.882.049,5.8-.007,8.6.908a.785.785,0,0,0,.59-.149,5.239,5.239,0,0,0,.694-.667,5.4,5.4,0,0,1,5.079-1.637c1.108.187,2.22.354,3.331.531.748.119,1.162.554,1.105,1.158-.06.637-.583,1.006-1.367.9-1.227-.169-2.45-.37-3.673-.57a3.1,3.1,0,0,0-2.83.911,63.4,63.4,0,0,1-9.608,8.024c-.617.41-.618.794-.057,1.259a4.015,4.015,0,0,0,3.963.645,13.465,13.465,0,0,0,4.837-2.961,2.38,2.38,0,0,1,3.646.083,11.918,11.918,0,0,0,10.454,3.622,1.932,1.932,0,0,1,1.525.418c2.724,2.031,5.464,4.04,8.238,6.086l4.433-2.85-5.875-14.9c-.686.247-1.325.43-1.924.7a9.819,9.819,0,0,1-6.458.6c-.513-.119-1.043-.161-1.562-.256a1.039,1.039,0,0,1-.982-1.183,1,1,0,0,1,1.258-.86c.956.118,1.91.262,2.857.439a5.937,5.937,0,0,0,3.179-.322c.944-.344,1.884-.7,2.809-1.044,0-1.582.346-2.109,1.792-2.687q2.491-1,4.991-1.968a2.109,2.109,0,0,1,2.993,1.313q1.292,3.225,2.559,6.459c.3.754.118,1.313-.477,1.568s-1.136-.037-1.456-.841c-.873-2.193-1.739-4.388-2.64-6.662l-5.7,2.245,7.1,17.992,5.7-2.245-2.41-6.128a3.443,3.443,0,0,1-.193-.515.972.972,0,0,1,.6-1.236.947.947,0,0,1,1.286.481c.28.576.486,1.188.728,1.782q1.021,2.505,2.045,5.01Zm-38.4,12.466a3.878,3.878,0,0,1,2.929,6.695,16.347,16.347,0,0,0,2.189,1.271,1.92,1.92,0,0,0,2.356-1.056,1.82,1.82,0,0,0-.595-2.367c-.545-.422-1.1-.832-1.629-1.27a1.014,1.014,0,0,1-.248-1.506,1.045,1.045,0,0,1,1.532-.1c.187.133.363.282.546.42.971.733,1.918,1.5,2.92,2.188a2.05,2.05,0,0,0,2.869-.508,1.987,1.987,0,0,0-.524-2.781c-.835-.647-1.677-1.284-2.508-1.936-.629-.493-.76-1.095-.367-1.6s.98-.53,1.637-.031c1.078.82,2.143,1.657,3.227,2.469a4.607,4.607,0,0,0,1.055.632,1.99,1.99,0,0,0,2.486-.9,1.917,1.917,0,0,0-.557-2.561c-1.018-.785-2.062-1.54-3.039-2.373a1.467,1.467,0,0,1-.464-1.045,1.035,1.035,0,0,1,.645-.763,1.731,1.731,0,0,1,1.178.3c1.434,1.032,2.813,2.141,4.237,3.187a2.905,2.905,0,0,0,1.173.518,1.981,1.981,0,0,0,2.114-1.2,2.12,2.12,0,0,0-.778-2.565q-3.89-2.9-7.819-5.755a1.3,1.3,0,0,0-.82-.21,14,14,0,0,1-11.519-4.145c-.436-.422-.686-.407-1.122-.021a14.859,14.859,0,0,1-5.308,3.239,6.09,6.09,0,0,1-5.764-.78c-1.969-1.445-1.877-3.483.1-4.911s3.852-2.966,5.768-4.462a4.717,4.717,0,0,0,.442-.465,9.331,9.331,0,0,0-1.061-.2c-2.175-.138-4.349-.308-6.526-.369a8.738,8.738,0,0,1-3.35-.64c-.475-.209-.96-.4-1.485-.611l-6.006,15.235,5.557,3.53c.572-.662,1.089-1.308,1.656-1.906a3.759,3.759,0,0,1,6.419,1.748c.048.195.106.387.16.584a3.915,3.915,0,0,1,2.789.9,4.141,4.141,0,0,1,1.357,2.589C163.243,343.86,164.489,344.924,164.923,347.244Zm-24.411-10.719,7.093-17.994-5.7-2.247-7.094,17.993Zm9.93,8.612a2.386,2.386,0,0,0,.9-.438c1.005-1.1,1.986-2.221,2.894-3.4a1.571,1.571,0,0,0-.354-2.158,1.608,1.608,0,0,0-2.193.062c-.993,1.077-1.94,2.2-2.853,3.345a1.5,1.5,0,0,0-.064,1.694A1.742,1.742,0,0,0,150.442,345.137Zm8.314-1.089a1.952,1.952,0,0,0-1.113-1.625,1.673,1.673,0,0,0-1.941.448c-.853.959-1.685,1.937-2.5,2.926a1.692,1.692,0,1,0,2.56,2.2c.835-.945,1.658-1.9,2.448-2.883A5.779,5.779,0,0,0,158.756,344.048Zm4.221,11.7a2.882,2.882,0,0,0,.94-.511c.962-1.043,1.89-2.122,2.769-3.236a1.673,1.673,0,0,0-2.52-2.178c-.977,1.06-1.906,2.168-2.807,3.294a1.506,1.506,0,0,0-.067,1.75A1.789,1.789,0,0,0,162.977,355.748Zm-.054-8.193a1.94,1.94,0,0,0-1.145-1.608,1.6,1.6,0,0,0-1.881.433q-1.307,1.46-2.549,2.978a1.661,1.661,0,0,0,.158,2.449,1.712,1.712,0,0,0,2.445-.291c.818-.929,1.63-1.866,2.4-2.833A6,6,0,0,0,162.923,347.554Z" transform="translate(-132.75 -314.239)" fill="#0a3a5e" stroke="#fff" stroke-width="0.3"/>
    </g>
  </g>
</svg>
