<svg id="Component_22_1" data-name="Component 22 – 1" xmlns="http://www.w3.org/2000/svg" width="70.64" height="54.202" viewBox="0 0 70.64 54.202">
  <circle id="Ellipse_138" data-name="Ellipse 138" cx="11" cy="11" r="11" fill="#23b6d0" opacity="0.175"/>
  <g id="Group_636" data-name="Group 636" transform="translate(-126.693 -284.496)">
    <path id="Path_1320" data-name="Path 1320" d="M132.75,299.844a5.557,5.557,0,0,1,.968-.751Q149,291.875,164.3,284.678a1.656,1.656,0,0,1,1.55.023q15.288,7.211,30.58,14.412a4.913,4.913,0,0,1,.907.73v.631a5.176,5.176,0,0,1-.951.771q-4.771,2.283-9.571,4.5a.867.867,0,0,0-.591.94c.025,3.111-.01,6.222.024,9.333a6.1,6.1,0,0,1-1.119,3.6,13.137,13.137,0,0,1-3.522,3.392.821.821,0,0,0-.423.822,11.056,11.056,0,0,1,0,1.261,2.155,2.155,0,0,0,.962,2.3,2.85,2.85,0,0,1,.4,4.11,1.459,1.459,0,0,0-.262.894c.107,1.635.27,3.267.4,4.9.078,1-.295,1.39-1.3,1.393q-1.23,0-2.46,0c-.956-.006-1.331-.405-1.256-1.372.127-1.634.287-3.265.393-4.9a1.448,1.448,0,0,0-.251-.9,3.019,3.019,0,0,1,.923-4.551.678.678,0,0,0,.44-.718c-.029-.543-.008-1.089-.008-1.715-.259.114-.462.2-.664.294-9.49,4.264-18.885,4.1-28.159-.652a15.648,15.648,0,0,1-4.7-3.658,6.8,6.8,0,0,1-1.815-4.819c.076-3,.008-6.012.032-9.018a.865.865,0,0,0-.586-.944q-4.8-2.216-9.571-4.5a5.3,5.3,0,0,1-.955-.765Zm45.466,7.744c-.267-.142-.428-.233-.593-.316l-12.612-6.315a5.369,5.369,0,0,1-.5-.262,1,1,0,0,1,.894-1.788,4.922,4.922,0,0,1,.455.216q7.094,3.544,14.184,7.1a1.081,1.081,0,0,0,1.059.024q6.169-2.932,12.35-5.838c.134-.063.255-.152.421-.252-.154-.082-.245-.135-.339-.179q-14.039-6.61-28.086-13.2a1.15,1.15,0,0,0-.861.032q-12.287,5.75-24.558,11.534c-1.265.595-2.527,1.194-3.889,1.837,1.046.49,1.994.931,2.94,1.377q12.726,6,25.447,12.009a1.076,1.076,0,0,0,1.061-.01c.67-.347,1.363-.651,2.046-.973ZM145.868,307v.7c0,2.69.04,5.381-.017,8.07a4.665,4.665,0,0,0,1.228,3.268,14.846,14.846,0,0,0,3.8,3.079,27.012,27.012,0,0,0,11.878,3.621,28.361,28.361,0,0,0,15.93-3.31.808.808,0,0,0,.487-.831c-.018-3.867-.01-7.734-.012-11.6,0-.179-.017-.358-.029-.6-.3.135-.551.239-.793.353q-6.267,2.946-12.529,5.9a1.658,1.658,0,0,1-1.552-.006q-8.791-4.16-17.6-8.287C146.426,307.244,146.182,307.139,145.868,307Zm35.319,13.608.247.146c.762-.907,1.583-1.773,2.261-2.739a3.105,3.105,0,0,0,.5-1.65c.047-3,.022-6,.021-9.007,0-.094-.016-.188-.032-.348-.874.41-1.677.812-2.5,1.161a.729.729,0,0,0-.5.805c.018,3.716.01,7.433.01,11.149Zm-1.028,10.01a1,1,0,1,0-.983-1.023A1.014,1.014,0,0,0,180.159,330.617Zm-.393,6h.829l-.343-3.9-.158.008C179.986,334.015,179.878,335.3,179.765,336.622Z" transform="translate(0 0)" fill="#0a3c61"/>
  </g>
</svg>
