<svg xmlns="http://www.w3.org/2000/svg" width="51.265" height="46.026" viewBox="0 0 51.265 46.026">
  <g id="Component_21_1" data-name="Component 21 – 1" transform="translate(0 0.15)">
    <circle id="Ellipse_137" data-name="Ellipse 137" cx="11" cy="11" r="11" transform="translate(0 1)" fill="#fec725" opacity="0.175"/>
    <g id="Group_635" data-name="Group 635" transform="translate(-165.671 -279.075)">
      <path id="Path_1319" data-name="Path 1319" d="M182.512,288.218c0-1.234-.03-2.4.006-3.569a5.616,5.616,0,0,1,4.406-5.405,6.922,6.922,0,0,1,1.546-.16q5.438-.02,10.876-.006a5.709,5.709,0,0,1,5.991,5.939c.008,1.038,0,2.077,0,3.174.235.011.43.028.626.028,1.636,0,3.272,0,4.908,0a5.715,5.715,0,0,1,5.9,5.867q.023,12.41,0,24.82a5.728,5.728,0,0,1-5.892,5.886q-16.955.013-33.911,0a5.724,5.724,0,0,1-5.911-5.917q-.015-12.354,0-24.708A5.739,5.739,0,0,1,177,288.219C178.805,288.213,180.607,288.218,182.512,288.218Zm-9.148,18.289v.618c0,3.866.058,7.733-.023,11.6a3.641,3.641,0,0,0,3.79,3.793c11.189-.048,22.378-.021,33.568-.023a3.429,3.429,0,0,0,3.777-3.757q0-5.8,0-11.6v-.628c-1.467,0-2.858.011-4.248-.007a.673.673,0,0,0-.719.425,3.382,3.382,0,0,1-6.029.006.716.716,0,0,0-.772-.433q-5.994.016-11.988.007h-6.107a.794.794,0,0,0-.054.078,3.442,3.442,0,0,1-6.343.16.5.5,0,0,0-.368-.227C176.382,306.5,174.916,306.508,173.364,306.508Zm41.083-2.292c.012-.247.029-.429.029-.61q0-4.685,0-9.371a3.416,3.416,0,0,0-3.71-3.715q-16.844,0-33.689,0a3.421,3.421,0,0,0-3.711,3.717q-.006,4.713,0,9.426c0,.163.018.325.03.518.19.013.353.033.515.034,1.246,0,2.492-.01,3.737.009a.647.647,0,0,0,.679-.412,3.244,3.244,0,0,1,3.009-1.865,3.2,3.2,0,0,1,3.021,1.837.73.73,0,0,0,.78.439c2.584-.013,5.169-.008,7.753-.008,3.309,0,6.619,0,9.928-.014a.744.744,0,0,0,.565-.285,3.429,3.429,0,0,1,6.2-.011.628.628,0,0,0,.448.3C211.477,304.225,212.927,304.216,214.447,304.216ZM203.056,288.2c0-1.251.047-2.441-.011-3.625a3.309,3.309,0,0,0-3.163-3.167q-5.964-.062-11.929,0a3.114,3.114,0,0,0-3.033,2.571,35.376,35.376,0,0,0-.036,4.223Zm-20.565,17.147a1.139,1.139,0,0,0-2.277.043,1.139,1.139,0,0,0,2.277-.043Zm24.024,1.159a1.169,1.169,0,0,0,1.117-1.165,1.145,1.145,0,0,0-1.169-1.1,1.133,1.133,0,0,0-1.111,1.158A1.151,1.151,0,0,0,206.515,306.5Z" fill="#0a3a5e" stroke="#fff" stroke-width="0.3"/>
    </g>
  </g>
</svg>
