<svg xmlns="http://www.w3.org/2000/svg" width="25" height="24.278" viewBox="0 0 25 24.278">
  <g id="_103657_news_icon" data-name="103657_news_icon" transform="translate(0.5)">
    <g id="background" transform="translate(0.222)">
      <rect id="Rectangle_3870" data-name="Rectangle 3870" width="23.555" height="23.555" fill="none"/>
    </g>
    <g id="news_1_" transform="translate(0 4.278)">
      <path id="Path_19774" data-name="Path 19774" d="M3,12H18V10.5H3Zm8.25,9H16.5V19.5H11.25Zm0-3H18V16.5H11.25Zm0-3H18V13.5H11.25ZM3,21H9.75V13.5H3ZM21,9V6H0V22.5a2.938,2.938,0,0,0,3,3H21.75s2.25-.047,2.25-3V9ZM3,24a1.469,1.469,0,0,1-1.5-1.5V7.5h18v15a2.17,2.17,0,0,0,.507,1.5Z" transform="translate(0 -6)" fill="#0a3c61" stroke="#fff" stroke-width="1"/>
    </g>
  </g>
</svg>
