<?xml version="1.0" encoding="utf-8"?>
<!-- Generator: Adobe Illustrator 26.0.3, SVG Export Plug-In . SVG Version: 6.00 Build 0)  -->
<svg version="1.1" id="Layer_1" xmlns="http://www.w3.org/2000/svg" xmlns:xlink="http://www.w3.org/1999/xlink" x="0px" y="0px"
	 viewBox="0 0 504.3 504.3" style="enable-background:new 0 0 504.3 504.3;" xml:space="preserve">
<style type="text/css">
	.st0{fill:#AAB1BA;}
	.st1{fill:#ECF4F7;}
	.st2{fill:#019AC6;}
	.st3{fill:#E4F2DE;}
	.st4{fill:#51565F;}
</style>
<g transform="translate(1 1)">
	<path class="st0" d="M105.7,362.1c28.2,0,51.2,23,51.2,51.2s-23,51.2-51.2,51.2s-51.2-23-51.2-51.2
		C54.5,385.1,77.5,362.1,105.7,362.1z M395.8,362.1c28.2,0,51.2,23,51.2,51.2s-23,51.2-51.2,51.2s-51.2-23-51.2-51.2
		C344.6,385.1,367.6,362.1,395.8,362.1z"/>
	<path class="st1" d="M105.7,396.2c9.4,0,17.1,7.7,17.1,17.1s-7.7,17.1-17.1,17.1s-17.1-7.7-17.1-17.1S96.3,396.2,105.7,396.2z
		 M395.8,396.2c9.4,0,17.1,7.7,17.1,17.1s-7.7,17.1-17.1,17.1s-17.1-7.7-17.1-17.1S386.4,396.2,395.8,396.2z"/>
	<path class="st2" d="M191,293.8h110.9h85.3v-1.7c2.6,0.9,5.1,1.7,7.7,1.7h25.6c42.7,0,63.1,25.6,68.3,51.2l7.7,49.5
		c2.6,11.1-4.3,18.8-16.2,18.8h-34.1c0-28.2-23-51.2-51.2-51.2s-51.2,23-51.2,51.2h-8.5H156c0-28.2-23-51.2-51.2-51.2
		s-51.2,23-51.2,51.2H19.5c-9.4,0-17.1-7.7-17.1-17.1V345v-34.1c0-9.4,7.7-17.1,17.1-17.1h42.7L191,293.8L191,293.8z M378.7,89v17.1
		h-34.1c-28.2,0-51.2-23-51.2-51.2s23-51.2,51.2-51.2h34.1v17.1L378.7,89L378.7,89z"/>
	<path class="st3" d="M301.9,293.8H191H63l11.1-38.4v-0.9l23-54.6c8.5-17.1,23-25.6,42.7-25.6h119.5c25.6,0,46.9,14.5,59.7,34.1
		l51.2,68.3c0,0,6,11.9,17.1,15.4v1.7L301.9,293.8L301.9,293.8z"/>
</g>
<path class="st4" d="M499.2,503.9H362.7c-2.6,0-4.3-1.7-4.3-4.3s1.7-4.3,4.3-4.3h136.5c2.6,0,4.3,1.7,4.3,4.3
	C503.5,502.2,501.8,503.9,499.2,503.9z"/>
<path class="st4" d="M328.5,503.9h-17.1c-2.6,0-4.3-1.7-4.3-4.3s1.7-4.3,4.3-4.3h17.1c2.6,0,4.3,1.7,4.3,4.3
	C332.8,502.2,331.1,503.9,328.5,503.9z"/>
<path class="st4" d="M277.3,503.9H157.9c-2.6,0-4.3-1.7-4.3-4.3s1.7-4.3,4.3-4.3h119.5c2.6,0,4.3,1.7,4.3,4.3
	C281.6,502.2,279.9,503.9,277.3,503.9z"/>
<path class="st4" d="M123.7,503.9H4.3c-2.6,0-4.3-1.7-4.3-4.3s1.7-4.3,4.3-4.3h119.5c2.6,0,4.3,1.7,4.3,4.3
	C128,502.2,126.3,503.9,123.7,503.9z"/>
<path class="st4" d="M396.8,469.8c-30.7,0-55.5-24.7-55.5-55.5s24.7-55.5,55.5-55.5c29,0,52.9,22.2,55.5,51.2h29.9
	c5.1,0,8.5-1.7,11.1-4.3c1.7-2.6,2.6-5.1,1.7-9.4l-7.7-46.1h-22.2c-2.6,0-4.3-1.7-4.3-4.3s1.7-4.3,4.3-4.3h20.5
	c-6-21.3-25.6-42.7-63.1-42.7h-25.6c-19.6,0-29-18.8-29-19.6l-51.2-67.4c-13.7-20.5-34.1-32.4-56.3-32.4H140.8
	c-17.9,0-30.7,7.7-39.3,23l-23,54.6c-0.9,1.7-3.4,3.4-5.1,2.6C29.9,245.3,0,204.4,0,158.3C0,99.4,47.8,51.6,106.7,51.6h183.5
	c2.6-29,26.5-51.2,55.5-51.2h34.1c2.6,0,4.3,1.7,4.3,4.3v12.8h46.9c2.6,0,4.3,1.7,4.3,4.3s-1.7,4.3-4.3,4.3H384v59.7h46.9
	c2.6,0,4.3,1.7,4.3,4.3s-1.7,4.3-4.3,4.3H384v12.8c0,2.6-1.7,4.3-4.3,4.3h-34.1c-29,0-52.9-22.2-55.5-51.2H106.7
	c-53.8,0-98.1,44.4-98.1,98.1c0,41,25.6,77.7,64,92.2l22.2-51.2c9.4-18.8,24.7-28.2,46.9-28.2h119.5c24.7,0,48.6,13.7,63.1,35.8
	l51.2,68.3c0.9,0.9,7.7,15.4,22.2,15.4h25.6c45.2,0,67.4,28.2,72.5,54.6l0,0l7.7,49.5c1.7,6,0.9,11.1-2.6,16.2
	c-3.4,5.1-10.2,7.7-17.9,7.7h-29.9C449.7,447.6,425.8,469.8,396.8,469.8z"/>
<path class="st4" d="M396.8,367.4c-25.6,0-46.9,21.3-46.9,46.9c0,25.6,21.3,46.9,46.9,46.9c25.6,0,46.9-21.3,46.9-46.9
	C443.7,388.7,422.4,367.4,396.8,367.4z"/>
<path class="st4" d="M345.6,9c-25.6,0-46.9,21.3-46.9,46.9s21.3,46.9,46.9,46.9h29.9V9H345.6z"/>
<path class="st4" d="M106.7,469.8c-30.7,0-55.5-24.7-55.5-55.5s24.7-55.5,55.5-55.5c29,0,52.9,22.2,55.5,51.2h149.3
	c2.6,0,4.3,1.7,4.3,4.3s-1.7,4.3-4.3,4.3H162.1C159.6,447.6,135.7,469.8,106.7,469.8z"/>
<ellipse transform="matrix(5.530038e-02 -0.9985 0.9985 5.530038e-02 -312.8907 497.8862)" class="st4" cx="106.7" cy="414.3" rx="46.9" ry="46.9"/>
<path class="st4" d="M396.8,435.6c-11.9,0-21.3-9.4-21.3-21.3c0-11.9,9.4-21.3,21.3-21.3c11.9,0,21.3,9.4,21.3,21.3
	C418.1,426.2,408.7,435.6,396.8,435.6z"/>
<circle class="st4" cx="396.8" cy="414.3" r="12.8"/>
<path class="st4" d="M106.7,435.6c-11.9,0-21.3-9.4-21.3-21.3c0-11.9,9.4-21.3,21.3-21.3s21.3,9.4,21.3,21.3
	C128,426.2,118.6,435.6,106.7,435.6z"/>
<circle class="st4" cx="106.7" cy="414.3" r="12.8"/>
<path class="st4" d="M25.6,418.6h-4.3C9.4,418.6,0,409.2,0,397.2v-85.3c0-11.9,9.4-21.3,21.3-21.3h166.4v-81.1
	c0-2.6,1.7-4.3,4.3-4.3s4.3,1.7,4.3,4.3v81.1h104.1l16.2-31.6c0.9-1.7,3.4-2.6,6-1.7c1.7,0.9,2.6,2.6,2.6,3.4s0,1.7-0.9,1.7
	l-13.7,28.2h35.8c2.6,0,4.3,1.7,4.3,4.3s-1.7,4.3-4.3,4.3h-42.7l0,0H198l16.2,80.2c0.9,2.6-0.9,4.3-3.4,5.1s-4.3-0.9-5.1-3.4
	l-16.2-81.9H21.3c-6.8,0-12.8,6-12.8,12.8v29.9h12.8c2.6,0,4.3,1.7,4.3,4.3s-1.7,4.3-4.3,4.3H8.5v46.9c0,6.8,6,12.8,12.8,12.8h4.3
	c2.6,0,4.3,1.7,4.3,4.3S28.2,418.6,25.6,418.6z"/>
<path class="st4" d="M243.2,333.2h-8.5c-2.6,0-4.3-1.7-4.3-4.3s1.7-4.3,4.3-4.3h8.5c2.6,0,4.3,1.7,4.3,4.3S245.8,333.2,243.2,333.2z
	"/>
</svg>
