<svg id="Component_13_1" data-name="Component 13 – 1" xmlns="http://www.w3.org/2000/svg" width="37.729" height="37.729" viewBox="0 0 37.729 37.729">
  <path id="Path_4781" data-name="Path 4781" d="M305.812,540.24a1.572,1.572,0,1,1-1.572-1.572,1.572,1.572,0,0,1,1.572,1.572Zm0,0" transform="translate(-285.376 -511.944)" fill="#fec725"/>
  <path id="Path_4782" data-name="Path 4782" d="M86.864,213.729a18.864,18.864,0,1,1,18.864-18.864,18.885,18.885,0,0,1-18.864,18.864Zm0-35.37a16.506,16.506,0,1,0,16.506,16.506,16.524,16.524,0,0,0-16.506-16.506Zm0,0" transform="translate(-68 -176)" fill="#fec725"/>
  <path id="Path_4783" data-name="Path 4783" d="M240.013,278.231a1.179,1.179,0,0,1-1.179-1.179v-1.588a3.544,3.544,0,0,1,2.361-3.336,4.877,4.877,0,0,0,3.141-4.116,4.323,4.323,0,0,0-8.646,0,1.179,1.179,0,1,1-2.358,0,6.681,6.681,0,0,1,13.362,0,7.234,7.234,0,0,1-4.715,6.34,1.179,1.179,0,0,0-.788,1.113v1.586a1.179,1.179,0,0,1-1.179,1.179Zm0,0" transform="translate(-221.149 -255.044)" fill="#fec725"/>
</svg>
