<svg id="Component_19_5" data-name="Component 19 – 5" xmlns="http://www.w3.org/2000/svg" width="95.907" height="80.491" viewBox="0 0 95.907 80.491">
  <path id="Path_1320" data-name="Path 1320" d="M132.75,307.287a8.252,8.252,0,0,1,1.437-1.115q22.7-10.718,45.409-21.407a2.459,2.459,0,0,1,2.3.034q22.7,10.708,45.412,21.4a7.3,7.3,0,0,1,1.347,1.085v.937a7.686,7.686,0,0,1-1.412,1.145q-7.084,3.391-14.213,6.689a1.287,1.287,0,0,0-.878,1.4c.037,4.62-.015,9.24.035,13.86a9.065,9.065,0,0,1-1.661,5.351,19.508,19.508,0,0,1-5.23,5.037,1.22,1.22,0,0,0-.628,1.221,16.425,16.425,0,0,1,.006,1.872c-.055,1.36-.046,2.455,1.429,3.412,2,1.3,2.056,4.152.6,6.1a2.166,2.166,0,0,0-.389,1.328c.158,2.428.4,4.851.59,7.277.116,1.486-.438,2.063-1.928,2.069q-1.826.007-3.652,0c-1.42-.01-1.976-.6-1.865-2.038.188-2.426.426-4.849.583-7.278a2.15,2.15,0,0,0-.373-1.33,4.483,4.483,0,0,1,1.37-6.759,1.006,1.006,0,0,0,.653-1.066c-.044-.807-.011-1.617-.011-2.547-.385.17-.687.3-.987.436-14.093,6.333-28.045,6.094-41.816-.968A23.237,23.237,0,0,1,151.9,338a10.1,10.1,0,0,1-2.7-7.156c.113-4.461.012-8.927.047-13.391a1.285,1.285,0,0,0-.871-1.4q-7.132-3.29-14.213-6.689a7.863,7.863,0,0,1-1.418-1.136Zm67.517,11.5c-.4-.212-.635-.347-.88-.469l-18.728-9.377a7.97,7.97,0,0,1-.746-.388,1.488,1.488,0,0,1,1.328-2.656,7.309,7.309,0,0,1,.676.321q10.535,5.263,21.063,10.538a1.605,1.605,0,0,0,1.573.035q9.161-4.354,18.34-8.669c.2-.094.379-.226.625-.374-.229-.121-.363-.2-.5-.265q-20.848-9.816-41.708-19.607a1.708,1.708,0,0,0-1.279.048q-18.246,8.539-36.469,17.128c-1.878.883-3.753,1.773-5.776,2.728,1.553.727,2.961,1.383,4.367,2.045q18.9,8.91,37.789,17.833a1.6,1.6,0,0,0,1.575-.014c1-.516,2.024-.967,3.039-1.445Zm-48.036-.874v1.047c0,3.995.06,7.991-.025,11.984a6.927,6.927,0,0,0,1.824,4.854,22.048,22.048,0,0,0,5.649,4.572,40.113,40.113,0,0,0,17.639,5.377,42.116,42.116,0,0,0,23.657-4.915,1.2,1.2,0,0,0,.724-1.235c-.026-5.743-.015-11.485-.017-17.228,0-.266-.025-.531-.043-.9-.452.2-.818.355-1.177.524q-9.306,4.375-18.606,8.763a2.462,2.462,0,0,1-2.305-.009q-13.054-6.177-26.133-12.306C153.059,318.277,152.7,318.122,152.231,317.913Zm52.449,20.209.367.217c1.132-1.347,2.351-2.633,3.358-4.068a4.611,4.611,0,0,0,.737-2.45c.07-4.458.033-8.917.031-13.376,0-.139-.025-.279-.047-.517-1.3.608-2.491,1.206-3.717,1.724a1.083,1.083,0,0,0-.745,1.2c.027,5.519.016,11.038.016,16.557Zm-1.527,14.865a1.49,1.49,0,1,0-1.46-1.52A1.506,1.506,0,0,0,203.153,352.986Zm-.584,8.917H203.8c-.175-1.987-.342-3.887-.509-5.788l-.235.012C202.9,358.032,202.735,359.936,202.569,361.9Z" transform="translate(-132.75 -284.496)" fill="#009bc7"/>
</svg>
