<svg id="Component_16_1" data-name="Component 16 – 1" xmlns="http://www.w3.org/2000/svg" width="67.233" height="67.233" viewBox="0 0 67.233 67.233">
  <g id="Group_813" data-name="Group 813">
    <path id="Path_4764" data-name="Path 4764" d="M66.249,49.461a.985.985,0,0,0,.985-.985V32.91a4.933,4.933,0,0,0-3-4.532,77.588,77.588,0,0,0-20.666-5.653l-.02,0-.663-.072a.985.985,0,0,0-.96.487l-1.182,2.048a.988.988,0,0,1-.853.492H27.342a.988.988,0,0,1-.853-.492L20.214,14.315a.987.987,0,0,1,0-.985L26.489,2.462a.988.988,0,0,1,.853-.492h12.55a.988.988,0,0,1,.853.492L47.019,13.33a.987.987,0,0,1,0,.985l-3.01,5.214a.985.985,0,1,0,1.706.985l3.01-5.214a2.962,2.962,0,0,0,0-2.955L42.45,1.477A2.963,2.963,0,0,0,39.892,0H27.342a2.963,2.963,0,0,0-2.559,1.477L18.509,12.346a2.962,2.962,0,0,0,0,2.955l4.35,7.534A77.572,77.572,0,0,0,3,28.377,4.933,4.933,0,0,0,0,32.91v8.746a.985.985,0,1,0,1.97,0V38.084a75.992,75.992,0,0,1,8.481-3.3,1.972,1.972,0,0,0,1.97,1.936h.563a7.7,7.7,0,0,0-1.2,3.734A82.956,82.956,0,0,0,.57,44.7.985.985,0,0,0,0,45.6V62.309a4.93,4.93,0,0,0,4.924,4.924H62.309a4.93,4.93,0,0,0,4.924-4.924V52.416a.985.985,0,0,0-1.97,0v2.413a77.84,77.84,0,0,0-12.64-4.382,7.71,7.71,0,0,0-.273-8.512l-.012-.017a1.8,1.8,0,0,1-.183-.326,75.824,75.824,0,0,1,13.108,4.631v2.252a.985.985,0,0,0,.985.985ZM42.45,26.168l.861-1.491.015,0a75.622,75.622,0,0,1,20.132,5.508,2.966,2.966,0,0,1,1.806,2.723v3.011A77.919,77.919,0,0,0,55.6,32.353a.99.99,0,0,0-.159-.032l-3.094-4.082a1.97,1.97,0,0,0-3.14,0l-1.665,2.2a77.885,77.885,0,0,0-12.677-1.251,1.8,1.8,0,0,1,.218-.406,7.439,7.439,0,0,0,.669-1.134h4.136a2.963,2.963,0,0,0,2.559-1.477Zm2.536,9.455a1.958,1.958,0,0,0,1.764,1.093h.563a7.686,7.686,0,0,0-.806,1.678,77.95,77.95,0,0,0-10.26-1.033,7.714,7.714,0,0,0-.971-6.2A75.944,75.944,0,0,1,46.209,32.2l-1.028,1.356A1.958,1.958,0,0,0,44.986,35.624Zm-9.894,6.311-.012-.017a1.8,1.8,0,0,1,0-2.086l.016-.022q.173-.244.325-.5a75.955,75.955,0,0,1,10.7,1.018,7.684,7.684,0,0,0,1.4,5l.018.025a1.8,1.8,0,0,1,0,2.091,7.691,7.691,0,0,0-.927,1.733,77.952,77.952,0,0,0-10.284-1.046,7.708,7.708,0,0,0-1.225-6.2ZM30.27,47.446a7.723,7.723,0,0,0-.462.733,77.907,77.907,0,0,0-11.021,1.335,7.712,7.712,0,0,0-.765-7.578l-.012-.017a1.8,1.8,0,0,1-.33-.934,75.893,75.893,0,0,1,11.3-1.555,7.7,7.7,0,0,0,1.28,5.9l.018.025a1.8,1.8,0,0,1,0,2.092ZM22.053,33.558,21.024,32.2a76.046,76.046,0,0,1,7.952-.911,7.707,7.707,0,0,0,1.3,3.02,1.8,1.8,0,0,1-.006,2.1l-.008.012a7.7,7.7,0,0,0-.6,1,77.905,77.905,0,0,0-11.015,1.356,7.687,7.687,0,0,0,.68-2.057h1.162a1.97,1.97,0,0,0,1.57-3.16ZM1.97,32.91a2.966,2.966,0,0,1,1.806-2.723,75.6,75.6,0,0,1,20.148-5.508l.86,1.49a2.963,2.963,0,0,0,2.559,1.477h1.811a7.694,7.694,0,0,0-.3,1.678,77.936,77.936,0,0,0-9.166,1.113l-1.665-2.2a1.97,1.97,0,0,0-3.14,0L11.8,32.3A77.908,77.908,0,0,0,1.97,35.921Zm9.962,9.552a7.653,7.653,0,0,0,1.253,2.868l.018.025a1.8,1.8,0,0,1,0,2.091,7.692,7.692,0,0,0-1.4,3.767A77.931,77.931,0,0,0,1.97,54.829v-8.6A81.261,81.261,0,0,1,11.931,42.461ZM65.264,62.309a2.958,2.958,0,0,1-2.955,2.955H4.924A2.958,2.958,0,0,1,1.97,62.309V56.993a75.95,75.95,0,0,1,9.913-3.748A7.688,7.688,0,0,0,13.2,56.4a1.8,1.8,0,0,1,.161,1.81.985.985,0,1,0,1.781.84,3.77,3.77,0,0,0-.34-3.794,5.739,5.739,0,0,1,0-6.664,3.773,3.773,0,0,0,0-4.38L14.8,44.2a5.742,5.742,0,0,1,0-6.641l.011-.015a3.778,3.778,0,0,0,.664-1.675.985.985,0,0,0-.976-1.119H12.421l4.031-5.318,4.031,5.318H18.447a.985.985,0,0,0-.983.929,5.727,5.727,0,0,1-1.046,2.994l-.011.016a3.767,3.767,0,0,0,0,4.372l.011.015a5.74,5.74,0,0,1-.006,6.655,3.772,3.772,0,0,0,0,4.38,5.773,5.773,0,0,1,.976,4.345.985.985,0,1,0,1.939.347,7.753,7.753,0,0,0-1.312-5.836,1.794,1.794,0,0,1-.324-1.215,75.888,75.888,0,0,1,11.348-1.556,7.708,7.708,0,0,0,1.237,6.2,1.8,1.8,0,0,1,.161,1.81.985.985,0,1,0,1.781.84,3.769,3.769,0,0,0-.34-3.795,5.739,5.739,0,0,1,0-6.664,3.773,3.773,0,0,0,0-4.38l-.008-.012a5.742,5.742,0,0,1,0-6.641l.011-.015a3.768,3.768,0,0,0,0-4.376,5.727,5.727,0,0,1-.635-5.519h2.237a3.77,3.77,0,0,0,0,4.375,5.741,5.741,0,0,1,.01,6.651l-.011.015a3.767,3.767,0,0,0,0,4.372l.011.015a5.74,5.74,0,0,1-.006,6.655,3.772,3.772,0,0,0,0,4.38,5.772,5.772,0,0,1,.976,4.345.985.985,0,1,0,1.939.347,7.753,7.753,0,0,0-1.312-5.836,1.8,1.8,0,0,1,0-2.092,7.7,7.7,0,0,0,.5-.792A75.952,75.952,0,0,1,46.141,51.1a7.7,7.7,0,0,0,1.389,5.3,1.8,1.8,0,0,1,.161,1.81.985.985,0,1,0,1.781.84,3.769,3.769,0,0,0-.339-3.795,5.739,5.739,0,0,1,0-6.664,3.773,3.773,0,0,0,0-4.38l-.008-.012a5.742,5.742,0,0,1,0-6.641l.011-.015a3.78,3.78,0,0,0,.664-1.674.985.985,0,0,0-.976-1.119H46.751l4.031-5.318,4.031,5.318H52.776a.985.985,0,0,0-.983.929,5.728,5.728,0,0,1-1.046,2.994l-.011.015a3.767,3.767,0,0,0,0,4.372l.011.015a5.74,5.74,0,0,1-.006,6.655,3.772,3.772,0,0,0,0,4.38,5.774,5.774,0,0,1,.976,4.345.985.985,0,1,0,1.939.347,7.754,7.754,0,0,0-1.312-5.836,1.79,1.79,0,0,1-.285-.63,75.844,75.844,0,0,1,13.209,4.658v5.317Zm-12.8-22.67a7.685,7.685,0,0,0,1.182-2.922h1.162a1.972,1.972,0,0,0,1.97-1.936,75.95,75.95,0,0,1,8.481,3.3v5.978a77.811,77.811,0,0,0-12.8-4.422Z" transform="translate(0)" fill="#009bc7"/>
    <path id="Path_4765" data-name="Path 4765" d="M207.42,53.363a1.436,1.436,0,0,0,1.764-.4l7.344-9.281a1.444,1.444,0,0,0-1.133-2.341h-3.376l1.071-4.48a1.445,1.445,0,0,0-2.538-1.232l-7.344,9.281a1.445,1.445,0,0,0,1.133,2.341h3.376l-1.071,4.48A1.436,1.436,0,0,0,207.42,53.363Zm-1.994-8.085,5.195-6.565-.808,3.381a.985.985,0,0,0,.958,1.214h3.539l-5.195,6.565.808-3.381a.985.985,0,0,0-.958-1.214Z" transform="translate(-176.251 -30.471)" fill="#009bc7"/>
  </g>
</svg>
