<svg xmlns="http://www.w3.org/2000/svg" width="66.588" height="66.576" viewBox="0 0 66.588 66.576">
  <g id="Component_20_3" data-name="Component 20 – 3" transform="translate(0.1 0.103)">
    <path id="Path_1324" data-name="Path 1324" d="M209.26,294.5a1.682,1.682,0,0,0-1.882-1.856c-1.2-.011-2.419-.008-3.6,0h-.064l-1.6,0h-2.08v-6.611q0-16.368,0-32.737v-.031a7.653,7.653,0,0,0-.039-.964,1.553,1.553,0,0,0-.642-1.034,1.571,1.571,0,0,0-1.194-.294,1.65,1.65,0,0,0-1.4,1.884q0,14.307,0,28.614V292.61h-7.092v-2.182q0-2.019,0-4.038c0-3.2,0-6.5-.006-9.811a1.813,1.813,0,0,0-.737-1.558,1.772,1.772,0,0,0-1.684-.073q-4.519,1.9-9.039,3.8l-1.184.5c-.135.057-.271.111-.426.172l-2,.8V274.53c0-2.252,0-4.581,0-6.869a1.656,1.656,0,0,0-1.21-1.756,1.794,1.794,0,0,0-1.374.291l-3.632,1.863c-4.962,2.546-10.094,5.179-15.16,7.734a1.979,1.979,0,0,0-1.257,2.057c.024,3.043.019,6.1.015,9.055q0,1.789,0,3.574v2.165l-3.767,0-3.12,0a2.432,2.432,0,0,0-1.7.486,2.32,2.32,0,0,0-.486,1.671q0,10.185,0,20.368c0,1.615.552,2.16,2.185,2.16h62.271c1.4,0,1.922-.462,1.925-1.7C209.271,308.557,209.271,301.451,209.26,294.5Zm-34.519-9.833a1.873,1.873,0,0,1,1.075-1.61c2.742-1.189,5.538-2.381,8.242-3.533l.446-.19a1.386,1.386,0,0,1,.835-.075l1.116.139V292.45H174.728v-2.566C174.726,288.1,174.725,286.406,174.741,284.668ZM156.23,277.72c3.23-1.633,6.508-3.31,9.678-4.932l3.178-1.626c.123-.063.236-.11.346-.155l.154-.064,1.786-.768v22.3H155.113v-4.356q0-4.215,0-8.43A2,2,0,0,1,156.23,277.72Zm49.834,36.408H159.933v-2.1q0-.809,0-1.619c0-1.222,0-2.485-.009-3.72a1.628,1.628,0,0,0-1.632-1.73,1.543,1.543,0,0,0-1.122.424,1.8,1.8,0,0,0-.513,1.288c-.018,1.245-.015,2.515-.011,3.742v.024c0,.55,0,1.092,0,1.633v2.056h-10.41V295.84h59.823Z" transform="translate(-142.878 -250.951)" fill="#009bc7" stroke="#fff" stroke-width="0.2"/>
  </g>
</svg>
