<svg id="Group_7348" data-name="Group 7348" xmlns="http://www.w3.org/2000/svg" xmlns:xlink="http://www.w3.org/1999/xlink" width="18.627" height="16.627" viewBox="0 0 18.627 16.627">
  <defs>
    <clipPath id="clip-path">
      <rect x="3" y="3" width="18.627" height="16.627" fill="none"/>
    </clipPath>
  </defs>
  <g id="Scroll_Group_1" data-name="Scroll Group 1" transform="translate(-3 -3)" clip-path="url(#clip-path)" style="isolation: isolate">
    <g id="_Color" data-name=" ↳Color">
      <path id="_Color-2" data-name=" ↳Color" d="M8,16A8,8,0,0,1,2.341,2.341,8,8,0,0,1,13.659,13.659,7.949,7.949,0,0,1,8,16ZM8,9.128H8L10.872,12,12,10.872,9.128,8,12,5.128,10.872,4,8,6.872,5.128,4,4,5.128,6.872,8,4,10.872,5.128,12,8,9.129Z" transform="translate(0 11.314) rotate(-45)" fill="#fff"/>
    </g>
  </g>
</svg>
