<svg xmlns="http://www.w3.org/2000/svg" width="14.158" height="14.141" viewBox="0 0 14.158 14.141">
  <g id="Component_457_1" data-name="Component 457 – 1" transform="translate(1 1)">
    <path id="Path_15214" data-name="Path 15214" d="M1162.5,301.232a3.04,3.04,0,0,0,.978.852,3.115,3.115,0,0,0,1.247.366,3.039,3.039,0,0,0,1.287-.185,3.113,3.113,0,0,0,1.1-.7l1.833-1.833a3.058,3.058,0,0,0-4.327-4.321l-1.051,1.045" transform="translate(-1157.643 -294.55)" fill="none" stroke="gray" stroke-linecap="round" stroke-linejoin="round" stroke-width="2"/>
    <path id="Path_15215" data-name="Path 15215" d="M1163.841,300.972a3.039,3.039,0,0,0-.978-.852,3.1,3.1,0,0,0-1.247-.366,3.04,3.04,0,0,0-1.288.185,3.115,3.115,0,0,0-1.1.7l-1.833,1.833a3.058,3.058,0,0,0,4.327,4.32l1.043-1.045" transform="translate(-1156.54 -295.513)" fill="none" stroke="gray" stroke-linecap="round" stroke-linejoin="round" stroke-width="2"/>
  </g>
</svg>
