<svg xmlns="http://www.w3.org/2000/svg" width="99.656" height="81" viewBox="0 0 99.656 81">
  <g id="Component_485_1" data-name="Component 485 – 1" transform="translate(1 1)">
    <circle id="Ellipse_694" data-name="Ellipse 694" cx="24.5" cy="24.5" r="24.5" transform="translate(49.656 17.5)" fill="#8aaf29" opacity="0.153"/>
    <g id="Group_10554" data-name="Group 10554" transform="translate(65 120.268)">
      <path id="Path_16477" data-name="Path 16477" d="M-6.907-80.933A20.931,20.931,0,0,0,14-101.84v-16.114a2.314,2.314,0,0,0-2.314-2.314H-4.428A20.931,20.931,0,0,0-25.335-99.361v15.2a15.332,15.332,0,0,0-2.658,16.04,15.339,15.339,0,0,0,14.212,9.5H3.009a6.358,6.358,0,0,1,6.362,6.362A6.369,6.369,0,0,1,3.009-45.9H-37.9A10.076,10.076,0,0,1-47.976-55.977V-81.113a14.7,14.7,0,0,0,12.4-14.529v-7.437a2.314,2.314,0,0,0-2.314-2.314h-2.643v-12.56a2.315,2.315,0,0,0-2.314-2.314,2.314,2.314,0,0,0-2.314,2.314v12.56H-55.413v-12.56a2.315,2.315,0,0,0-2.314-2.314,2.314,2.314,0,0,0-2.314,2.314v12.56h-2.644A2.314,2.314,0,0,0-65-103.079v7.437A14.706,14.706,0,0,0-52.6-81.113v25.136A14.7,14.7,0,0,0-37.9-41.268h40.9A11,11,0,0,0,14-52.259,10.984,10.984,0,0,0,3.009-63.249H-13.78a10.721,10.721,0,0,1-9.935-6.64,10.719,10.719,0,0,1,1.71-11.044Zm-13.8-18.428A16.3,16.3,0,0,1-4.428-115.639h13.8v13.8A16.3,16.3,0,0,1-6.907-85.562H-17.433l13.4-13.4a2.314,2.314,0,0,0,0-3.273,2.314,2.314,0,0,0-3.273,0l-13.4,13.4Zm-29.584,13.8A10.075,10.075,0,0,1-60.371-95.642v-5.122H-40.21v5.122A10.075,10.075,0,0,1-50.29-85.562Zm0,0" transform="translate(0 0)" fill="#3fbfd6" stroke="#3fbfd6" stroke-width="2"/>
    </g>
  </g>
</svg>
