<svg xmlns="http://www.w3.org/2000/svg" xmlns:xlink="http://www.w3.org/1999/xlink" width="17" height="17" viewBox="0 0 17 17">
  <defs>
    <clipPath id="clip-path">
      <rect id="Rectangle_127" data-name="Rectangle 127" width="6.837" height="4.005" fill="#fff"/>
    </clipPath>
  </defs>
  <g id="Group_644" data-name="Group 644" transform="translate(-607 -1282)">
    <circle id="Ellipse_142" data-name="Ellipse 142" cx="8.5" cy="8.5" r="8.5" transform="translate(607 1282)" fill="#333"/>
    <g id="Group_643" data-name="Group 643" transform="translate(198.878 1587.919) rotate(-90)">
      <g id="Group_642" data-name="Group 642" transform="translate(294 415)">
        <g id="Group_641" data-name="Group 641" transform="translate(0 0)" clip-path="url(#clip-path)">
          <path id="Path_1325" data-name="Path 1325" d="M297.416,418.9a.477.477,0,0,1-.338-.14l-2.938-2.938a.479.479,0,0,1,.677-.677l2.6,2.6,2.6-2.6a.478.478,0,0,1,.677.677l-2.938,2.938a.475.475,0,0,1-.338.14Zm0,0" transform="translate(-293.999 -415.001)" fill="#fff"/>
        </g>
      </g>
    </g>
  </g>
</svg>
