<?xml version="1.0" encoding="utf-8"?>
<!-- Generator: Adobe Illustrator 26.0.3, SVG Export Plug-In . SVG Version: 6.00 Build 0)  -->
<svg version="1.1" id="Layer_1" xmlns="http://www.w3.org/2000/svg" xmlns:xlink="http://www.w3.org/1999/xlink" x="0px" y="0px"
	 viewBox="0 0 1037 466" style="enable-background:new 0 0 1037 466;" xml:space="preserve">
<style type="text/css">
	.st0{fill:#62AC64;}
	.st1{fill:#FFFFFF;}
	.st2{fill:#4299C3;}
</style>
<g transform="translate(0 -1)">
	<rect y="1" class="st0" width="569.2" height="466"/>
	<path class="st0" d="M805.5,352c0-60.7,49.6-110.4,110.3-110.4c30.7,0,59.1,12.6,78.8,34.3V0.1L569.2,1v429.9h269.3
		C818,411.2,805.5,382.8,805.5,352"/>
	<path class="st1" d="M913.3,241.9c0.8,0,1.6,0,2.4,0c30.7,0,59,13.7,78.8,34.2v-57.8l-82.7-80.4L994.5,56l0.1-55.4L948.7,1
		l-222,222V0.6h-63v99.5H0.2v63h663.5V286l-11.8,11.8L489.8,467h36.9h50.4l284.3-277.9L913.3,241.9z"/>
	<rect x="228.5" y="163.1" class="st1" width="67.6" height="303.9"/>
	<rect x="374.5" y="1" class="st1" width="67.6" height="103.3"/>
	<rect x="46.7" y="318.3" class="st1" width="181.8" height="67.6"/>
</g>
<g>
	<path class="st2" d="M839.7,75c0-13.1-10.6-23.7-23.7-23.7C803,51.4,792.4,62,792.4,75c0,6.6,2.9,14.1,7.1,20l16.6,23.7L832.6,95
		C837.6,87.9,839.7,81.7,839.7,75z"/>
	<circle class="st1" cx="816.1" cy="73.7" r="10.6"/>
</g>
<g>
	<path class="st2" d="M646.5,264.5c0-13.1-10.6-23.7-23.7-23.7c-13.1,0-23.7,10.6-23.7,23.7c0,6.6,2.9,14.1,7.1,20l16.6,23.7
		l16.6-23.7C644.4,277.3,646.5,271.1,646.5,264.5z"/>
	<circle class="st1" cx="622.9" cy="263.2" r="10.6"/>
</g>
<g>
	<path class="st2" d="M223.5,264.5c0-13.1-10.6-23.7-23.7-23.7c-13.1,0-23.7,10.6-23.7,23.7c0,6.6,2.9,14.1,7.1,20l16.6,23.7
		l16.6-23.7C221.4,277.3,223.5,271.1,223.5,264.5z"/>
	<circle class="st1" cx="199.9" cy="263.2" r="10.6"/>
</g>
<g>
	<path class="st2" d="M199.8,41.4c0-13.1-10.6-23.7-23.7-23.7c-13.1,0-23.7,10.6-23.7,23.7c0,6.6,2.9,14.1,7.1,20l16.6,23.7
		l16.6-23.7C197.8,54.2,199.8,48,199.8,41.4z"/>
	<circle class="st1" cx="176.3" cy="40" r="10.6"/>
</g>
<path class="st0" d="M1037,466H580l35.3-36.1c118.4-23.6,236.9-112.2,355.3-135.8c22.1-4.4,44.3,56.2,66.4,51.8
	C1037,385.9,1037,426,1037,466z"/>
<polygon class="st0" points="1037,256.6 994.5,217.3 994.5,55.1 1037,15 "/>
<circle class="st2" cx="914.5" cy="350.2" r="109.9"/>
<g>
	<path class="st2" d="M751.2,364.6c0-13.1-10.6-23.7-23.7-23.7c-13.1,0-23.7,10.6-23.7,23.7c0,6.6,2.9,14.1,7.1,20l16.6,23.7
		l16.6-23.7C749.2,377.4,751.2,371.1,751.2,364.6z"/>
	<circle class="st1" cx="727.6" cy="363.2" r="10.6"/>
</g>
<path class="st1" d="M967.8,310.6v-12.2c0-1.4-1.2-2.5-2.8-2.5s-2.8,1.1-2.8,2.5v12.2H953v-12.2c0-1.4-1.2-2.5-2.8-2.5
	s-2.8,1.1-2.8,2.5v12.2h-6.8v5.2c0,7.3,5.8,13.2,13.3,14.8h0.4v31.5c0,2.8,1.1,8.7,1.2,9.6l6.5,26.2c0.4,1.2,1.5,5.2,1.6,7.2
	c0.1,1-0.1,3.5-1.8,5.3c-1.6,1.8-4.5,2.8-8,2.8c-3.3,0-5.7-0.8-7.2-2.3c-2.1-2.1-1.9-5-1.9-5.2v-55.5c0-8.9-7.2-12.1-12-12.1h-13.4
	v-46.5c0-6.1-5-11.1-11.1-11.1H873c-6.1,0-11.1,5-11.1,11.1v127.7H919v-74.4h13.4c0.8,0,5.3,0.3,5.3,5.3v55.2c0,0.5-0.1,5.8,3.8,10
	c2.9,2.9,6.9,4.5,12.2,4.5c5.7,0,10.1-1.6,13-5c3.1-3.3,3.9-7.6,3.6-10.6c-0.3-3.2-1.8-8-1.9-8.3l-6.4-25.9
	c-0.4-2.2-1.1-6.5-1.1-8.2v-31.2h0.4c7.7-1.5,13.9-7.3,13.9-14.8v-5.2H967.8L967.8,310.6z M907.4,363.8l-31.9,32.6l9.7-23.5h-13
	l19.5-32.6h15.7l-13.7,23.5H907.4z M912.2,321.1c0,2.3-1.9,4.3-4.3,4.3H873c-2.3,0-4.3-1.9-4.3-4.3v-29.5c0-2.3,1.9-4.3,4.3-4.3H908
	c2.3,0,4.3,1.9,4.3,4.3V321.1z"/>
</svg>
