<svg xmlns="http://www.w3.org/2000/svg" width="15.5" height="15.5" viewBox="0 0 15.5 15.5">
  <g id="Component_460_1" data-name="Component 460 – 1" transform="translate(1 1)">
    <path id="Path_15270" data-name="Path 15270" d="M65.75,402.625a6.286,6.286,0,0,1-.675,2.85,6.375,6.375,0,0,1-5.7,3.525,6.284,6.284,0,0,1-2.85-.675L52.25,409.75l1.425-4.275a6.286,6.286,0,0,1-.675-2.85,6.374,6.374,0,0,1,3.525-5.7,6.284,6.284,0,0,1,2.85-.675h.375a6.36,6.36,0,0,1,6,6Z" transform="translate(-52.25 -396.25)" fill="none" stroke="gray" stroke-linecap="round" stroke-linejoin="round" stroke-width="2"/>
  </g>
</svg>
