<svg id="Component_146_1" data-name="Component 146 – 1" xmlns="http://www.w3.org/2000/svg" width="24.496" height="20.258" viewBox="0 0 24.496 20.258">
  <g id="Group_7530" data-name="Group 7530">
    <path id="Path_15375" data-name="Path 15375" d="M16.211,44.3H8.285A8.327,8.327,0,0,0,4.629,60.086l-.082.564-.364,2.509c-.2,1.393.536,1.818,1.63.937L7.782,62.51l1.953-1.573h6.477a8.32,8.32,0,0,0,0-16.639Z" transform="translate(0 -44.298)" fill="#fff"/>
  </g>
  <g id="Group_7531" data-name="Group 7531" transform="translate(0.886 1.992)">
    <path id="Path_15376" data-name="Path 15376" d="M39.221,85.957A15.092,15.092,0,0,1,18.516,96.029a8.336,8.336,0,0,0,3.744,3.722l-.082.564-.364,2.509c-.2,1.393.536,1.818,1.63.937l1.969-1.586,1.953-1.573h6.477a8.327,8.327,0,0,0,5.38-14.646Z" transform="translate(-18.516 -85.957)" fill="#fff"/>
  </g>
</svg>
