<?xml version="1.0" encoding="UTF-8" standalone="no" ?>
<!DOCTYPE svg PUBLIC "-//W3C//DTD SVG 1.1//EN" "http://www.w3.org/Graphics/SVG/1.1/DTD/svg11.dtd">
<svg xmlns="http://www.w3.org/2000/svg" xmlns:xlink="http://www.w3.org/1999/xlink" version="1.1" width="27" height="48" viewBox="0 0 27 48" xml:space="preserve">
<desc>Created with Fabric.js 4.2.0</desc>
<defs>
</defs>
<rect x="0" y="0" width="100%" height="100%" fill="transparent"></rect>
<g transform="matrix(0 0 0 0 0 0)" id="6a709b8d-b068-4bd4-a1fb-36c10d5318ef"  >
</g>
<g transform="matrix(1 0 0 1 13.5 24)" id="d18f5c50-78bf-40ac-b7bd-59703a1dadd4"  >
<rect style="stroke: none; stroke-width: 1; stroke-dasharray: none; stroke-linecap: butt; stroke-dashoffset: 0; stroke-linejoin: miter; stroke-miterlimit: 4; fill: rgb(255,255,255); fill-opacity: 0; fill-rule: nonzero; opacity: 1; visibility: hidden;" vector-effect="non-scaling-stroke"  x="-13.5" y="-24" rx="0" ry="0" width="27" height="48" />
</g>
<g transform="matrix(0.38 0 0 0.38 13.45 23.92)"  >
<g style="" vector-effect="non-scaling-stroke"   >
		<g transform="matrix(1 0 0 1 -1.59 0)"  >
<path style="stroke: none; stroke-width: 1; stroke-dasharray: none; stroke-linecap: butt; stroke-dashoffset: 0; stroke-linejoin: miter; stroke-miterlimit: 4; fill: rgb(9,58,93); fill-rule: nonzero; opacity: 1;" vector-effect="non-scaling-stroke"  transform=" translate(-12, -24)" d="M 0 0 L 12.128 9.5 L 24 0 L 24 48 L 0 48 Z" stroke-linecap="round" />
</g>
		<g transform="matrix(1 0 0 1 11.79 21.49)"  >
<path style="stroke: none; stroke-width: 1; stroke-dasharray: none; stroke-linecap: butt; stroke-dashoffset: 0; stroke-linejoin: miter; stroke-miterlimit: 4; fill: rgb(9,58,93); fill-rule: nonzero; opacity: 1;" vector-effect="non-scaling-stroke"  transform=" translate(-1307.39, -3988.49)" d="M 1309.184 3986.3 L 1305.595 3990.6890000000003 L 1305.595 3986.3 Z" stroke-linecap="round" />
</g>
</g>
</g>
</svg>