<svg xmlns="http://www.w3.org/2000/svg" width="12.481" height="12.661" viewBox="0 0 12.481 12.661">
  <g id="Component_532_1" data-name="Component 532 – 1" transform="translate(0.5 0.5)">
    <path id="Path_15362" data-name="Path 15362" d="M117.917,1520.17h1.557a1.35,1.35,0,0,1,.9.32,1.375,1.375,0,0,1,.457.84v4.09a1.375,1.375,0,0,1-.457.84,1.35,1.35,0,0,1-.9.32h-1.557m-4.084,1.17v2.33a1.746,1.746,0,0,0,1.75,1.75l2.334-5.25v-6.41h-6.58a1.135,1.135,0,0,0-.769.27,1.194,1.194,0,0,0-.4.72l-.805,5.25a1.168,1.168,0,0,0,.033.5,1.2,1.2,0,0,0,.24.44,1.146,1.146,0,0,0,.4.3,1.183,1.183,0,0,0,.491.1Z" transform="translate(-109.352 -1520.169)" fill="none" stroke="gray" stroke-linecap="round" stroke-linejoin="round" stroke-width="1"/>
  </g>
</svg>
