<svg xmlns="http://www.w3.org/2000/svg" width="12.481" height="12.661" style=""><rect id="backgroundrect" width="100%" height="100%" x="0" y="0" fill="none" stroke="none"/>
  
<g class="currentLayer" style=""><title>Layer 1</title><g id="Component_532_1" data-name="Component 532 – 1" class="" stroke="#eb1a1a" stroke-opacity="1">
    <path id="Path_15362" data-name="Path 15362" d="M9.06500262451172,0.5010546875000728 h1.557 a1.35,1.35 0 0 1 0.9,0.3200000000000001 a1.375,1.375 0 0 1 0.457,0.8400000000000002 v4.09 a1.375,1.375 0 0 1 -0.457,0.8400000000000002 a1.35,1.35 0 0 1 -0.9,0.3200000000000001 h-1.557 m-4.084,1.17 v2.33 a1.746,1.746 0 0 0 1.75,1.75 l2.334,-5.25 v-6.41 h-6.58 a1.135,1.135 0 0 0 -0.7690000000000002,0.27 a1.194,1.194 0 0 0 -0.4,0.7200000000000002 l-0.805,5.25 a1.1680000000000001,1.1680000000000001 0 0 0 0.033000000000000015,0.5 a1.2,1.2 0 0 0 0.24000000000000005,0.4400000000000001 a1.146,1.146 0 0 0 0.4,0.3000000000000001 a1.183,1.183 0 0 0 0.4910000000000001,0.1 z" fill="none" stroke="#eb1a1a" stroke-linecap="round" stroke-linejoin="round" stroke-width="1" stroke-opacity="1"/>
  </g></g></svg>