<svg id="Group_721" data-name="Group 721" xmlns="http://www.w3.org/2000/svg" xmlns:xlink="http://www.w3.org/1999/xlink" width="48.74" height="54.318" viewBox="0 0 48.74 54.318">
  <defs>
    <linearGradient id="linear-gradient" x1="-0.045" y1="0.879" x2="0.916" y2="0.211" gradientUnits="objectBoundingBox">
      <stop offset="0" stop-color="#c4c4c4"/>
      <stop offset="0.002" stop-color="#c4c4c4"/>
      <stop offset="0.144" stop-color="#d6d6d6"/>
      <stop offset="0.312" stop-color="#e3e3e3"/>
      <stop offset="0.533" stop-color="#eaeaea"/>
      <stop offset="1" stop-color="#ededed"/>
    </linearGradient>
    <linearGradient id="linear-gradient-2" x1="-0.012" y1="0.832" x2="0.623" y2="0.42" gradientUnits="objectBoundingBox">
      <stop offset="0" stop-color="#c4c4c4"/>
      <stop offset="0.521" stop-color="#dbdbdb"/>
      <stop offset="1" stop-color="#ededed"/>
    </linearGradient>
    <linearGradient id="linear-gradient-3" y1="0.5" x2="1" y2="0.5" gradientUnits="objectBoundingBox">
      <stop offset="0" stop-color="#c4c4c4"/>
      <stop offset="0.439" stop-color="#d4d4d4"/>
      <stop offset="1" stop-color="#e6e6e6"/>
    </linearGradient>
  </defs>
  <g id="Group_208" data-name="Group 208" transform="translate(0)">
    <g id="Group_207" data-name="Group 207">
      <g id="Group_205" data-name="Group 205">
        <ellipse id="Ellipse_160" data-name="Ellipse 160" cx="3.802" cy="3.323" rx="3.802" ry="3.323" transform="translate(0 37.624)" fill="#00685f"/>
        <path id="Path_377" data-name="Path 377" d="M737.839,1113.839h-18.5c-5.049,0-9.142,3.578-9.142,7.991v38.336c0,4.414,4.093,7.991,9.142,7.991h26.392c5.049,0,9.142-3.578,9.142-7.991v-31.437Z" transform="translate(-706.133 -1113.839)" fill="url(#linear-gradient)"/>
        <path id="Path_378" data-name="Path 378" d="M853.968,1113.839,871,1128.729H857.6a3.428,3.428,0,0,1-3.633-3.176Z" transform="translate(-822.262 -1113.839)" fill="url(#linear-gradient-2)"/>
        <path id="Path_379" data-name="Path 379" d="M693.453,1244.617a3.858,3.858,0,0,0-4.089,3.575v14.967h.075a3.986,3.986,0,0,1,4.014-2.894h41.178v-15.648Z" transform="translate(-689.305 -1222.638)" fill="#0d988c"/>
      </g>
      <g id="Group_206" data-name="Group 206" transform="translate(4.32 25.398)">
        <path id="Path_380" data-name="Path 380" d="M711.529,1266.3a.516.516,0,0,1,.536-.481h2.8c3.025,0,5.114,1.815,5.114,4.182v.024c0,2.368-2.09,4.207-5.114,4.207h-2.8a.516.516,0,0,1-.536-.481Zm3.341,7.054c2.433,0,3.987-1.442,3.987-3.3v-.024c0-1.863-1.554-3.329-3.987-3.329h-2.254v6.658Z" transform="translate(-711.529 -1265.679)" fill="#fff"/>
        <path id="Path_381" data-name="Path 381" d="M765.234,1269.339v-.024c0-2.32,1.993-4.351,4.922-4.351s4.894,2.007,4.894,4.327v.024c0,2.319-1.993,4.35-4.922,4.35S765.234,1271.659,765.234,1269.339Zm8.689,0v-.024a3.585,3.585,0,0,0-3.795-3.473,3.541,3.541,0,0,0-3.767,3.449v.024a3.584,3.584,0,0,0,3.795,3.473A3.542,3.542,0,0,0,773.923,1269.339Z" transform="translate(-754.909 -1264.965)" fill="#fff"/>
        <path id="Path_382" data-name="Path 382" d="M826.019,1269.339v-.024a4.556,4.556,0,0,1,4.867-4.351,5.412,5.412,0,0,1,3.437,1.094.5.5,0,0,1,.22.385.528.528,0,0,1-.55.468.709.709,0,0,1-.357-.108,4.257,4.257,0,0,0-2.763-.962,3.531,3.531,0,0,0-3.726,3.449v.024a3.551,3.551,0,0,0,3.726,3.473,4.249,4.249,0,0,0,2.86-1.021.532.532,0,0,1,.344-.133.51.51,0,0,1,.522.457.43.43,0,0,1-.178.337,5.324,5.324,0,0,1-3.575,1.237C828.068,1273.666,826.019,1271.755,826.019,1269.339Z" transform="translate(-804.007 -1264.965)" fill="#fff"/>
        <path id="Path_383" data-name="Path 383" d="M878.088,1273.217l3.217-3.569-3.052-3.365a.547.547,0,0,1-.179-.361.505.505,0,0,1,.536-.456.612.612,0,0,1,.481.24l2.9,3.292,2.86-3.256a.691.691,0,0,1,.522-.276.475.475,0,0,1,.495.445.483.483,0,0,1-.151.336l-3.066,3.389,3.176,3.546a.487.487,0,0,1,.179.348.506.506,0,0,1-.536.469.613.613,0,0,1-.481-.24l-3.039-3.449-3,3.413a.7.7,0,0,1-.536.277.471.471,0,0,1-.481-.445A.482.482,0,0,1,878.088,1273.217Z" transform="translate(-845.943 -1265.382)" fill="#fff"/>
      </g>
    </g>
    <path id="Path_384" data-name="Path 384" d="M747.809,1339.082H710.2v-1.368h41.259Z" transform="translate(-706.133 -1300.089)" fill="url(#linear-gradient-3)"/>
  </g>
</svg>
