<svg id="Component_51_3" data-name="Component 51 – 3" xmlns="http://www.w3.org/2000/svg" width="676.541" height="680.595" viewBox="0 0 676.541 680.595">
  <g id="Group_730" data-name="Group 730" transform="translate(-117.442 -119.655)">
    <g id="Group_792" data-name="Group 792">
      <path id="Path_481" data-name="Path 481" d="M13.075,6.535A6.537,6.537,0,1,1,6.537,0,6.537,6.537,0,0,1,13.075,6.535Z" transform="translate(655.442 206.604) rotate(-1)" fill="#8aaf29"/>
      <path id="Path_4784" data-name="Path 4784" d="M13.075,6.535A6.537,6.537,0,1,1,6.537,0,6.537,6.537,0,0,1,13.075,6.535Z" transform="translate(117.442 462.604) rotate(-1)" fill="#8aaf29"/>
      <path id="Path_482" data-name="Path 482" d="M16.862,8.428A8.431,8.431,0,1,1,8.431,0,8.432,8.432,0,0,1,16.862,8.428Z" transform="translate(230.829 185.393) rotate(-1)" fill="#fec725"/>
      <path id="Path_4782" data-name="Path 4782" d="M16.862,8.428A8.431,8.431,0,1,1,8.431,0,8.432,8.432,0,0,1,16.862,8.428Z" transform="translate(776.829 484.519) rotate(-1)" fill="#fec725"/>
      <path id="Path_4786" data-name="Path 4786" d="M16.862,8.428A8.431,8.431,0,1,1,8.431,0,8.432,8.432,0,0,1,16.862,8.428Z" transform="translate(443.829 783.393) rotate(-1)" fill="#fec725"/>
      <path id="Path_483" data-name="Path 483" d="M14.857,7.428A7.428,7.428,0,1,1,7.428,0,7.428,7.428,0,0,1,14.857,7.428Z" transform="translate(421.899 119.915) rotate(-1)" fill="#23b6d0"/>
      <path id="Path_4785" data-name="Path 4785" d="M14.857,7.428A7.428,7.428,0,1,1,7.428,0,7.428,7.428,0,0,1,14.857,7.428Z" transform="translate(735.899 754.915) rotate(-1)" fill="#23b6d0"/>
      <path id="Path_4783" data-name="Path 4783" d="M14.857,7.428A7.428,7.428,0,1,1,7.428,0,7.428,7.428,0,0,1,14.857,7.428Z" transform="translate(203.899 684.915) rotate(-1)" fill="#23b6d0"/>
    </g>
  </g>
</svg>
