<svg xmlns="http://www.w3.org/2000/svg" width="16.648" height="16.499" viewBox="0 0 16.648 16.499">
  <g id="_8687196_ic_fluent_drafts_regular_icon" data-name="8687196_ic_fluent_drafts_regular_icon" transform="translate(0.251 0.25)">
    <path id="Path_19782" data-name="Path 19782" d="M13.245,2.817,3.639,12.423l-.117.128a2,2,0,0,0-.4.76L2.018,17.366,2,17.445a.5.5,0,0,0,.629.535l4.055-1.106.165-.053a2,2,0,0,0,.723-.462L17.18,6.753l.13-.139a2.783,2.783,0,0,0-4.066-3.8ZM4.346,13.13l8.038-8.038,2.521,2.521L6.867,15.651l-.1.086-.108.072a1,1,0,0,1-.239.1l-3.212.876.877-3.211.042-.123A1,1,0,0,1,4.346,13.13ZM16.473,3.524l.11.12a1.783,1.783,0,0,1-.11,2.4l-.861.86L13.092,4.385l.86-.861.12-.11A1.783,1.783,0,0,1,16.473,3.524Z" transform="translate(-2 -2.002)" fill="gray" stroke="gray" stroke-width="0.5"/>
    <path id="Path_19783" data-name="Path 19783" d="M11.648,3H2.5a.5.5,0,0,0,0,1h8.148Z" transform="translate(-2 -2.002)" fill="gray" stroke="gray" stroke-width="0.5"/>
    <path id="Path_19784" data-name="Path 19784" d="M8.648,6H2.5a.5.5,0,0,0,0,1H7.648Z" transform="translate(-2 -2.002)" fill="gray" stroke="gray" stroke-width="0.5"/>
    <path id="Path_19785" data-name="Path 19785" d="M4.648,10l1-1H2.5a.5.5,0,0,0,0,1Z" transform="translate(-2 -2.002)" fill="gray" stroke="gray" stroke-width="0.5"/>
  </g>
</svg>
