<svg id="Group_722" data-name="Group 722" xmlns="http://www.w3.org/2000/svg" xmlns:xlink="http://www.w3.org/1999/xlink" width="50.833" height="56.65" viewBox="0 0 50.833 56.65">
  <defs>
    <linearGradient id="linear-gradient" x1="-0.045" y1="0.879" x2="0.916" y2="0.211" gradientUnits="objectBoundingBox">
      <stop offset="0" stop-color="#c4c4c4"/>
      <stop offset="0.002" stop-color="#c4c4c4"/>
      <stop offset="0.144" stop-color="#d6d6d6"/>
      <stop offset="0.312" stop-color="#e3e3e3"/>
      <stop offset="0.533" stop-color="#eaeaea"/>
      <stop offset="1" stop-color="#ededed"/>
    </linearGradient>
    <linearGradient id="linear-gradient-2" x1="-0.012" y1="0.832" x2="0.623" y2="0.42" gradientUnits="objectBoundingBox">
      <stop offset="0" stop-color="#c4c4c4"/>
      <stop offset="0.521" stop-color="#dbdbdb"/>
      <stop offset="1" stop-color="#ededed"/>
    </linearGradient>
    <linearGradient id="linear-gradient-3" y1="0.5" x2="1" y2="0.5" gradientUnits="objectBoundingBox">
      <stop offset="0" stop-color="#c4c4c4"/>
      <stop offset="0.439" stop-color="#d4d4d4"/>
      <stop offset="1" stop-color="#e6e6e6"/>
    </linearGradient>
  </defs>
  <g id="Group_188" data-name="Group 188" transform="translate(0)">
    <g id="Group_187" data-name="Group 187">
      <g id="Group_185" data-name="Group 185">
        <ellipse id="Ellipse_156" data-name="Ellipse 156" cx="3.965" cy="3.466" rx="3.965" ry="3.466" transform="translate(0 39.239)" fill="#56791b"/>
        <path id="Path_349" data-name="Path 349" d="M2056.361,1247.413h-19.294c-5.266,0-9.535,3.731-9.535,8.335v39.981c0,4.6,4.269,8.334,9.535,8.334h27.525c5.266,0,9.535-3.731,9.535-8.334v-32.786Z" transform="translate(-2023.294 -1247.413)" fill="url(#linear-gradient)"/>
        <path id="Path_350" data-name="Path 350" d="M2190.479,1247.413l17.765,15.53h-13.976a3.574,3.574,0,0,1-3.788-3.312Z" transform="translate(-2157.412 -1247.413)" fill="url(#linear-gradient-2)"/>
        <path id="Path_351" data-name="Path 351" d="M2008.187,1395.632a4.023,4.023,0,0,0-4.265,3.728v15.61H2004a4.158,4.158,0,0,1,4.187-3.018h42.945v-16.32Z" transform="translate(-2003.861 -1372.71)" fill="#8abb2a"/>
      </g>
      <g id="Group_186" data-name="Group 186" transform="translate(11.393 26.531)">
        <path id="Path_352" data-name="Path 352" d="M2067.975,1427.649v-7.77a.539.539,0,0,1,.559-.5h6.237a.455.455,0,1,1,0,.9h-5.663v3h5.017a.5.5,0,0,1,.518.452.486.486,0,0,1-.518.451h-5.017v3.071h5.735a.455.455,0,1,1,0,.9h-6.309A.539.539,0,0,1,2067.975,1427.649Z" transform="translate(-2067.975 -1419.314)" fill="#fff"/>
        <path id="Path_353" data-name="Path 353" d="M2119.761,1427.056l3.355-3.722-3.183-3.509a.573.573,0,0,1-.186-.376.527.527,0,0,1,.559-.477.639.639,0,0,1,.5.251l3.025,3.434,2.983-3.4a.723.723,0,0,1,.545-.289.468.468,0,0,1,.358.815l-3.2,3.535,3.312,3.7a.509.509,0,0,1,.187.363.528.528,0,0,1-.56.489.636.636,0,0,1-.5-.251l-3.169-3.6-3.125,3.56a.728.728,0,0,1-.559.288.491.491,0,0,1-.5-.463A.5.5,0,0,1,2119.761,1427.056Z" transform="translate(-2110.469 -1418.972)" fill="#fff"/>
        <path id="Path_354" data-name="Path 354" d="M2180.552,1427.649v-7.77a.538.538,0,0,1,.559-.5h6.237a.455.455,0,1,1,0,.9h-5.664v3h5.019a.494.494,0,0,1,.516.452.485.485,0,0,1-.516.451h-5.019v3.071h5.736a.455.455,0,1,1,0,.9h-6.309A.538.538,0,0,1,2180.552,1427.649Z" transform="translate(-2160.635 -1419.314)" fill="#fff"/>
      </g>
    </g>
    <path id="Path_355" data-name="Path 355" d="M2066.76,1502.571h-39.227v-1.427h43.03Z" transform="translate(-2023.294 -1461.905)" fill="url(#linear-gradient-3)"/>
  </g>
</svg>
