<svg id="Component_473_2" data-name="Component 473 – 2" xmlns="http://www.w3.org/2000/svg" xmlns:xlink="http://www.w3.org/1999/xlink" width="297.387" height="361.068" viewBox="0 0 297.387 361.068">
  <defs>
    <clipPath id="clip-path">
      <rect id="SVGID" width="110.064" height="115.433" fill="none"/>
    </clipPath>
  </defs>
  <g id="Group_12613" data-name="Group 12613" transform="translate(-165.794 -590.489)">
    <g id="Group_12604" data-name="Group 12604" transform="translate(165.794 590.489)">
      <g id="Group_12599" data-name="Group 12599" transform="translate(0 0)">
        <circle id="Ellipse_753" data-name="Ellipse 753" cx="105.142" cy="105.142" r="105.142" transform="translate(0 148.693) rotate(-45)" fill="#23b6d0" opacity="0.29"/>
        <g id="Group_12580" data-name="Group 12580" transform="translate(16.715 226.773)">
          <g id="Group_12579" data-name="Group 12579">
            <path id="Path_19786" data-name="Path 19786" d="M196.446,839.648l.23.094a1.707,1.707,0,0,0,1.854-.383l40-40.335a1.707,1.707,0,0,0,.368-1.857l-.1-.229Z" transform="translate(-176.577 -777.31)" fill="#23b6d0"/>
            <path id="Path_19787" data-name="Path 19787" d="M193.04,838.25l.011.006a1.664,1.664,0,0,0,2.036-.258l42.049-42.4a1.665,1.665,0,0,0,.24-2.037l-.007-.011Z" transform="translate(-177.236 -777.966)" fill="#23b6d0"/>
            <path id="Path_19788" data-name="Path 19788" d="M190.011,836.324c.335.267.673.532,1.019.786l45.181-45.563c-.258-.344-.524-.679-.794-1.012Z" transform="translate(-177.822 -778.549)" fill="#23b6d0"/>
            <path id="Path_19789" data-name="Path 19789" d="M204.685,840.447q.473.039.949.064A1.7,1.7,0,0,0,206.92,840L239.253,807.4a1.689,1.689,0,0,0,.494-1.29q-.029-.476-.072-.949Z" transform="translate(-174.983 -775.718)" fill="#23b6d0"/>
            <path id="Path_19790" data-name="Path 19790" d="M216.545,836.181a31.9,31.9,0,0,0,2.946-1.289,1.79,1.79,0,0,0,.464-.337l13.98-14.1a1.782,1.782,0,0,0,.333-.467,31.985,31.985,0,0,0,1.264-2.958Z" transform="translate(-172.687 -773.421)" fill="#23b6d0"/>
            <path id="Path_19791" data-name="Path 19791" d="M200.288,840.436c.18.044.36.088.542.13a1.71,1.71,0,0,0,1.593-.471L239.3,802.908a1.713,1.713,0,0,0,.457-1.6c-.043-.18-.088-.36-.135-.539Z" transform="translate(-175.833 -776.568)" fill="#23b6d0"/>
            <path id="Path_19792" data-name="Path 19792" d="M209.852,839.381c.519-.055,1.035-.126,1.546-.209a1.709,1.709,0,0,0,.943-.488l25.646-25.862a1.712,1.712,0,0,0,.48-.946c.078-.512.144-1.028.2-1.548Z" transform="translate(-173.983 -774.718)" fill="#23b6d0"/>
            <path id="Path_19793" data-name="Path 19793" d="M184.986,831.031q.381.521.782,1.025l45.344-45.727c-.339-.265-.682-.523-1.031-.773Z" transform="translate(-178.795 -779.512)" fill="#23b6d0"/>
            <path id="Path_19794" data-name="Path 19794" d="M180.657,806.555a1.717,1.717,0,0,0-.477.921c-.088.529-.164,1.063-.226,1.6l28.154-28.393q-.806.1-1.6.24a1.706,1.706,0,0,0-.917.485Z" transform="translate(-179.769 -780.455)" fill="#23b6d0"/>
            <path id="Path_19795" data-name="Path 19795" d="M183.5,796.838a1.776,1.776,0,0,0-.307.414,32.572,32.572,0,0,0-1.491,3.211L199.524,782.5a32.326,32.326,0,0,0-3.2,1.517,1.773,1.773,0,0,0-.412.312Z" transform="translate(-179.429 -780.104)" fill="#23b6d0"/>
            <path id="Path_19796" data-name="Path 19796" d="M180.3,813.14a1.693,1.693,0,0,0-.5,1.265q.023.5.06.987l34.555-34.846c-.327-.023-.656-.039-.986-.052a1.7,1.7,0,0,0-1.263.507Z" transform="translate(-179.799 -780.492)" fill="#23b6d0"/>
            <path id="Path_19797" data-name="Path 19797" d="M182.143,822.882a1.7,1.7,0,0,0-.382,1.83c.036.087.07.173.107.26L224,782.483l-.263-.105a1.7,1.7,0,0,0-1.825.4Z" transform="translate(-179.442 -780.15)" fill="#23b6d0"/>
            <path id="Path_19798" data-name="Path 19798" d="M183.822,826.685a1.668,1.668,0,0,0-.251,2.025l.014.026,44.193-44.565h0a1.707,1.707,0,0,0-2.07.273Z" transform="translate(-179.114 -779.825)" fill="#23b6d0"/>
            <path id="Path_19799" data-name="Path 19799" d="M232.985,787.874l-45.656,46.041c.295.307.594.61.9.9L233.9,788.767Q233.449,788.312,232.985,787.874Z" transform="translate(-178.341 -779.064)" fill="#23b6d0"/>
            <path id="Path_19800" data-name="Path 19800" d="M180.916,818.437a1.713,1.713,0,0,0-.463,1.577c.044.19.088.378.135.567L219.6,781.235c-.189-.044-.377-.088-.568-.129a1.709,1.709,0,0,0-1.573.475Z" transform="translate(-179.68 -780.381)" fill="#23b6d0"/>
          </g>
        </g>
        <circle id="Ellipse_754" data-name="Ellipse 754" cx="9.396" cy="9.396" r="9.396" transform="translate(212.674 243.098)" fill="#ffe9e9"/>
        <rect id="Rectangle_3874" data-name="Rectangle 3874" width="135.566" height="203.126" transform="translate(56.079 102.61)" fill="#fec725"/>
        <g id="Group_12589" data-name="Group 12589" transform="translate(63.238 94.556)">
          <g id="Group_12587" data-name="Group 12587">
            <g id="Group_12582" data-name="Group 12582">
              <rect id="Rectangle_3875" data-name="Rectangle 3875" width="135.566" height="203.126" fill="#fff"/>
              <rect id="Rectangle_3876" data-name="Rectangle 3876" width="41.609" height="3.579" transform="translate(21.028 131.987)" fill="#00ccbe"/>
              <g id="Group_12581" data-name="Group 12581" transform="translate(21.028 151.785)">
                <rect id="Rectangle_3877" data-name="Rectangle 3877" width="100.221" height="3.579" fill="#94a3c0"/>
                <rect id="Rectangle_3878" data-name="Rectangle 3878" width="44.182" height="3.579" transform="translate(0 9.619)" fill="#94a3c0"/>
              </g>
              <rect id="Rectangle_3879" data-name="Rectangle 3879" width="15.212" height="3.579" transform="translate(21.028 139.146)" fill="#00ccbe"/>
            </g>
            <rect id="Rectangle_3880" data-name="Rectangle 3880" width="110.064" height="115.433" rx="4.592" transform="translate(12.751 9.843)" fill="#23b6d0"/>
            <g id="Group_12586" data-name="Group 12586" transform="translate(12.751 9.843)">
              <g id="Group_12585" data-name="Group 12585" clip-path="url(#clip-path)">
                <g id="Group_12584" data-name="Group 12584" transform="translate(2.904 8.1)">
                  <path id="Path_19801" data-name="Path 19801" d="M334.982,792.305c-.8-7.14-3.5-29.84-6.15-34.553-3.157-5.608-32.809-18.057-32.809-18.057l-12.71,8.069-12.755-8s-29.581,12.614-32.707,18.241c-2.626,4.728-5.2,27.443-5.957,34.586Z" transform="translate(-231.894 -674.114)" fill="#2a3157"/>
                  <path id="Path_19802" data-name="Path 19802" d="M272.341,743.588l-6.113-3.833-11.963,25.1,9.969,10.775-6.024,9.091,8.641,7.754,8.6-.024Z" transform="translate(-227.565 -674.102)" fill="#505e83"/>
                  <path id="Path_19803" data-name="Path 19803" d="M281.785,743.56l6.091-3.867,12.1,25.029-9.908,10.831,6.075,9.058-8.6,7.8-8.6.024Z" transform="translate(-222.788 -674.114)" fill="#505e83"/>
                  <path id="Path_19804" data-name="Path 19804" d="M289.283,718.477s-2.975,17.5-.019,29.593a107.993,107.993,0,0,1-11.158,8.3l-2.105.492A125.409,125.409,0,0,1,264.31,748.3c1.91-12.16.1-29.757.1-29.757" transform="translate(-225.621 -678.22)" fill="#dc6457"/>
                  <g id="Group_12583" data-name="Group 12583" transform="translate(25.32)">
                    <path id="Path_19805" data-name="Path 19805" d="M268.642,694.073s24.67-15.09,34.383-6.879-3.091,20.844-3.091,20.844,3.879.958,4.131,4.107-6.033,8.5-6.033,8.5l-39.005.109s-6.574-11.61-5.863-17.184,5.573.226,5.573.226,5.3-12.612,7.717-12.619S268.642,694.073,268.642,694.073Z" transform="translate(-253.109 -684.748)" fill="#5d1111"/>
                    <path id="Path_19806" data-name="Path 19806" d="M289.835,715.909s2-2.565,4.568-.926-.516,11.884-4.541,10.432S289.835,715.909,289.835,715.909Z" transform="translate(-246.344 -679.002)" fill="#ea5764"/>
                    <path id="Path_19807" data-name="Path 19807" d="M260.7,715.989s-2.018-2.553-4.572-.9.581,11.882,4.6,10.408S260.7,715.989,260.7,715.989Z" transform="translate(-252.704 -678.984)" fill="#ea5764"/>
                    <path id="Path_19808" data-name="Path 19808" d="M278.064,691.89s13.018,1.293,16.839,10.583,2.787,27.453-.993,32.779-8.831,9.474-15.879,9.936h.013c-7.051-.423-12.124-4.543-15.934-9.847s-4.946-23.461-1.176-32.773,16.779-10.677,16.779-10.677Z" transform="translate(-252.043 -683.365)" fill="#f98879"/>
                    <path id="Path_19809" data-name="Path 19809" d="M273.917,723.083a5.9,5.9,0,0,0,4.2-.1,3.288,3.288,0,0,1-1.458,1.65A2.056,2.056,0,0,1,273.917,723.083Z" transform="translate(-249.082 -677.349)" fill="#ea5764"/>
                    <path id="Path_19810" data-name="Path 19810" d="M299.031,707.132s-13.3,9.244-23,7.09-2.455-11.379-2.455-11.379l-11.6,9a9.418,9.418,0,0,1-3.362,10.67s-1.475-7.991-.523-13.808,4.33-11.157,6.747-13.1,11.367-6.815,17.184-6.1S299.718,693.079,299.031,707.132Z" transform="translate(-252.207 -683.843)" fill="#5d1111"/>
                  </g>
                  <path id="Path_19811" data-name="Path 19811" d="M277.24,747.766l-12.755-8s-.442.189-1.21.524l6.424,52.181,14.913-.042,6.154-52.387c-.52-.222-.815-.346-.815-.346Z" transform="translate(-225.821 -674.114)" fill="#f9fbfc"/>
                  <path id="Path_19812" data-name="Path 19812" d="M274.458,750.988l-3.006,6.706,4.76,2.363,3.88-3.252-3.042-6.041Z" transform="translate(-224.239 -671.972)" fill="#ff5776"/>
                  <path id="Path_19813" data-name="Path 19813" d="M271.169,789.48l11.044-.031-4.122-34.342-3.56,1.954Z" transform="translate(-224.293 -671.131)" fill="#ff5776"/>
                </g>
              </g>
            </g>
          </g>
          <g id="Group_12588" data-name="Group 12588" transform="translate(18.791 174.993)">
            <path id="Path_19814" data-name="Path 19814" d="M242.786,816.713l1.45,4.46a.55.55,0,0,0,.524.381h4.689a.552.552,0,0,1,.325,1l-3.794,2.756a.552.552,0,0,0-.2.617l1.449,4.46a.551.551,0,0,1-.849.616l-3.793-2.756a.552.552,0,0,0-.649,0L238.144,831a.551.551,0,0,1-.849-.616l1.449-4.46a.552.552,0,0,0-.2-.617l-3.794-2.756a.552.552,0,0,1,.325-1h4.689a.551.551,0,0,0,.524-.381l1.449-4.46A.552.552,0,0,1,242.786,816.713Z" transform="translate(-234.522 -816.332)" fill="#fdb913"/>
            <path id="Path_19815" data-name="Path 19815" d="M260.818,816.713l1.449,4.46a.551.551,0,0,0,.524.381h4.689a.552.552,0,0,1,.325,1l-3.794,2.756a.554.554,0,0,0-.2.617l1.45,4.46a.552.552,0,0,1-.85.616l-3.793-2.756a.55.55,0,0,0-.648,0L256.175,831a.551.551,0,0,1-.849-.616l1.449-4.46a.552.552,0,0,0-.2-.617l-3.793-2.756a.552.552,0,0,1,.323-1h4.689a.553.553,0,0,0,.525-.381l1.449-4.46A.552.552,0,0,1,260.818,816.713Z" transform="translate(-231.032 -816.332)" fill="#fdb913"/>
            <path id="Path_19816" data-name="Path 19816" d="M278.849,816.713l1.449,4.46a.552.552,0,0,0,.525.381h4.688a.552.552,0,0,1,.325,1l-3.793,2.756a.552.552,0,0,0-.2.617l1.449,4.46a.551.551,0,0,1-.849.616l-3.794-2.756a.55.55,0,0,0-.648,0L274.206,831a.551.551,0,0,1-.849-.616l1.449-4.46a.554.554,0,0,0-.2-.617l-3.794-2.756a.552.552,0,0,1,.325-1h4.688a.552.552,0,0,0,.525-.381l1.449-4.46A.552.552,0,0,1,278.849,816.713Z" transform="translate(-227.543 -816.332)" fill="#fdb913"/>
            <path id="Path_19817" data-name="Path 19817" d="M296.88,816.713l1.449,4.46a.553.553,0,0,0,.525.381h4.689a.551.551,0,0,1,.323,1l-3.793,2.756a.552.552,0,0,0-.2.617l1.449,4.46a.551.551,0,0,1-.849.616l-3.794-2.756a.55.55,0,0,0-.648,0L292.238,831a.551.551,0,0,1-.849-.616l1.449-4.46a.552.552,0,0,0-.2-.617l-3.794-2.756a.552.552,0,0,1,.325-1h4.689a.551.551,0,0,0,.524-.381l1.449-4.46A.552.552,0,0,1,296.88,816.713Z" transform="translate(-224.053 -816.332)" fill="#fdb913"/>
            <path id="Path_19818" data-name="Path 19818" d="M314.912,816.713l1.449,4.46a.551.551,0,0,0,.524.381h4.689a.552.552,0,0,1,.325,1l-3.794,2.756a.552.552,0,0,0-.2.617l1.449,4.46a.551.551,0,0,1-.849.616l-3.793-2.756a.55.55,0,0,0-.648,0L310.269,831a.551.551,0,0,1-.849-.616l1.449-4.46a.552.552,0,0,0-.2-.617l-3.793-2.756a.551.551,0,0,1,.323-1h4.689a.553.553,0,0,0,.525-.381l1.449-4.46A.552.552,0,0,1,314.912,816.713Z" transform="translate(-220.564 -816.332)" fill="#fdb913"/>
          </g>
        </g>
        <g id="Group_12590" data-name="Group 12590" transform="translate(26.494 105.015)">
          <rect id="Rectangle_3881" data-name="Rectangle 3881" width="7.159" height="7.159" transform="translate(5.145)" fill="#2a3157"/>
          <rect id="Rectangle_3882" data-name="Rectangle 3882" width="3.691" height="3.691" transform="translate(19.63 15.492)" fill="#2a3157"/>
          <rect id="Rectangle_3883" data-name="Rectangle 3883" width="2.684" height="2.684" transform="translate(0 10.067)" fill="#2a3157"/>
        </g>
        <g id="Group_12591" data-name="Group 12591" transform="translate(188.513 147.799)">
          <rect id="Rectangle_3884" data-name="Rectangle 3884" width="90.601" height="56.374" transform="translate(7.382)" fill="#fff"/>
          <path id="Path_19819" data-name="Path 19819" d="M357.947,719.946h49.775v22.818" transform="translate(-317.121 -713.235)" fill="none" stroke="#2a3157" stroke-width="1.125"/>
          <path id="Path_19820" data-name="Path 19820" d="M323.741,735.157V719.946h14.653" transform="translate(-323.741 -713.235)" fill="none" stroke="#2a3157" stroke-width="2.249"/>
          <path id="Path_19821" data-name="Path 19821" d="M343.762,772.475H323.741v-32.66" transform="translate(-323.741 -709.389)" fill="none" stroke="#2a3157" stroke-width="1.125"/>
          <path id="Path_19822" data-name="Path 19822" d="M407.341,753.4v16.442H359.915" transform="translate(-316.74 -706.76)" fill="none" stroke="#2a3157" stroke-width="2.249"/>
          <path id="Path_19823" data-name="Path 19823" d="M380.346,714.323h32.661v28.635" transform="translate(-312.786 -714.323)" fill="none" stroke="#2a3157" stroke-linecap="round" stroke-linejoin="round" stroke-width="1.125" stroke-dasharray="0 5.623"/>
          <circle id="Ellipse_755" data-name="Ellipse 755" cx="6.04" cy="6.04" r="6.04" transform="translate(38.478 13.422)" fill="#fdb913"/>
          <rect id="Rectangle_3885" data-name="Rectangle 3885" width="62.638" height="2.237" transform="translate(15.659 29.977)" fill="#00ccbe"/>
          <rect id="Rectangle_3886" data-name="Rectangle 3886" width="28.187" height="2.237" transform="translate(32.885 37.135)" fill="#94a3c0"/>
          <rect id="Rectangle_3887" data-name="Rectangle 3887" width="37.415" height="2.237" transform="translate(28.271 44.294)" fill="#94a3c0"/>
        </g>
        <g id="Group_12593" data-name="Group 12593" transform="translate(154.654 224.008)">
          <rect id="Rectangle_3888" data-name="Rectangle 3888" width="9.172" height="12.23" transform="translate(70.37 72.496) rotate(137.655)" fill="#a6d0f4"/>
          <g id="Group_12592" data-name="Group 12592">
            <circle id="Ellipse_756" data-name="Ellipse 756" cx="29.216" cy="29.216" r="29.216" transform="translate(5.457 71.182) rotate(-87.314)" fill="#fff" opacity="0.53"/>
            <path id="Path_19824" data-name="Path 19824" d="M362.332,792.33a43.368,43.368,0,0,0-61.265-2.841" transform="translate(-294.269 -778.175)" fill="none" stroke="#4361c4" stroke-linecap="round" stroke-linejoin="round" stroke-width="0.854" stroke-dasharray="0 2.562"/>
            <path id="Path_19825" data-name="Path 19825" d="M304.766,844.606a36.01,36.01,0,1,0,2.358-50.87A36.01,36.01,0,0,0,304.766,844.606Zm5.021-4.576a29.216,29.216,0,1,1,41.273,1.913A29.217,29.217,0,0,1,309.788,840.03Z" transform="translate(-295.371 -776.982)" fill="#0a3a5e"/>
          </g>
          <path id="Path_19834" data-name="Path 19834" d="M0,0H19.109V73.124H0Z" transform="matrix(-0.739, 0.674, -0.674, -0.739, 120.253, 120.799)" fill="#0a3a5e"/>
          <rect id="Rectangle_3890" data-name="Rectangle 3890" width="19.109" height="4.586" transform="matrix(-0.739, 0.674, -0.674, -0.739, 123.342, 124.189)" fill="#ff5776"/>
        </g>
        <g id="Group_12596" data-name="Group 12596" transform="translate(206.409 65.922)">
          <g id="Group_12594" data-name="Group 12594">
            <path id="Path_19826" data-name="Path 19826" d="M360.211,681.067a13.87,13.87,0,0,1,27.74,0c0,.152-.018.3-.023.448h21.487c0-.149.012-.3.012-.448a35.346,35.346,0,0,0-70.692,0c0,.15.01.3.012.448h21.487C360.229,681.365,360.211,681.219,360.211,681.067Z" transform="translate(-338.735 -645.722)" fill="#ff5776"/>
          </g>
          <g id="Group_12595" data-name="Group 12595" transform="translate(0.012 35.793)">
            <path id="Path_19827" data-name="Path 19827" d="M391.9,700.06l-16.2-14.7a13.542,13.542,0,0,1-9.226,1.713v21.594c.74.047,1.485.078,2.237.078A35.185,35.185,0,0,0,391.9,700.06Z" transform="translate(-333.378 -673.844)" fill="#fdb913"/>
            <path id="Path_19828" data-name="Path 19828" d="M360.232,675.711H338.745a35.338,35.338,0,0,0,33.1,34.821V688.938A13.855,13.855,0,0,1,360.232,675.711Z" transform="translate(-338.745 -675.711)" fill="#00ccbe"/>
          </g>
        </g>
        <path id="Path_19829" data-name="Path 19829" d="M334.612,682.053a40.267,40.267,0,0,1,40.267-40.267" transform="translate(-133.123 -580.562)" fill="none" stroke="#2a3157" stroke-linecap="round" stroke-linejoin="round" stroke-width="0.843"/>
        <g id="Group_12598" data-name="Group 12598" transform="translate(243.098 227.662)">
          <rect id="Rectangle_3891" data-name="Rectangle 3891" width="53.69" height="4.027" fill="#232839"/>
          <g id="Group_12597" data-name="Group 12597" transform="translate(0 10.067)">
            <rect id="Rectangle_3892" data-name="Rectangle 3892" width="37.079" height="4.027" transform="translate(0 10.067)" fill="#c7d8f2"/>
            <rect id="Rectangle_3893" data-name="Rectangle 3893" width="19.127" height="4.027" fill="#c7d8f2"/>
            <rect id="Rectangle_3894" data-name="Rectangle 3894" width="5.704" height="4.027" transform="translate(21.644)" fill="#c7d8f2"/>
          </g>
        </g>
      </g>
      <line id="Line_144" data-name="Line 144" x2="33.109" y2="32.661" transform="translate(241.308 105.294)" fill="none" stroke="#2a3157" stroke-linecap="round" stroke-linejoin="round" stroke-width="0.843"/>
      <g id="Group_12600" data-name="Group 12600" transform="translate(22.075 190.303)">
        <line id="Line_145" data-name="Line 145" x2="7.159" y2="7.159" fill="none" stroke="#2a3157" stroke-linecap="round" stroke-linejoin="round" stroke-width="0.843"/>
        <line id="Line_146" data-name="Line 146" x2="7.159" y2="7.159" transform="translate(6.711 0.895)" fill="none" stroke="#2a3157" stroke-linecap="round" stroke-linejoin="round" stroke-width="0.843"/>
        <line id="Line_147" data-name="Line 147" x2="7.159" y2="7.159" transform="translate(12.975 0.895)" fill="none" stroke="#2a3157" stroke-linecap="round" stroke-linejoin="round" stroke-width="0.843"/>
      </g>
      <g id="Group_12601" data-name="Group 12601" transform="translate(253.836 270.837)">
        <line id="Line_148" data-name="Line 148" x2="7.159" y2="7.159" fill="none" stroke="#02b2ca" stroke-linecap="round" stroke-linejoin="round" stroke-width="0.843"/>
        <line id="Line_149" data-name="Line 149" x2="7.159" y2="7.159" transform="translate(6.711 0.895)" fill="none" stroke="#02b2ca" stroke-linecap="round" stroke-linejoin="round" stroke-width="0.843"/>
        <line id="Line_150" data-name="Line 150" x2="7.159" y2="7.159" transform="translate(12.975 0.895)" fill="none" stroke="#02b2ca" stroke-linecap="round" stroke-linejoin="round" stroke-width="0.843"/>
      </g>
      <g id="Group_12602" data-name="Group 12602" transform="translate(61.448 65.027)">
        <rect id="Rectangle_3895" data-name="Rectangle 3895" width="75.166" height="8.948" fill="none" stroke="#2a3157" stroke-width="1.125"/>
        <rect id="Rectangle_3896" data-name="Rectangle 3896" width="6.264" height="6.264" transform="translate(78.745 12.528)" fill="none" stroke="#2a3157" stroke-width="1.125"/>
      </g>
      <g id="Group_12603" data-name="Group 12603" transform="translate(258.03 287.448)">
        <rect id="Rectangle_3897" data-name="Rectangle 3897" width="7.159" height="7.159" transform="translate(18.176 19.183) rotate(180)" fill="#2a3157"/>
        <rect id="Rectangle_3898" data-name="Rectangle 3898" width="3.691" height="3.691" transform="translate(3.691 3.691) rotate(180)" fill="#2a3157"/>
        <rect id="Rectangle_3899" data-name="Rectangle 3899" width="2.684" height="2.684" transform="translate(23.321 9.116) rotate(180)" fill="#2a3157"/>
      </g>
    </g>
    <path id="Path_19830" data-name="Path 19830" d="M212.959,815.383V852.7h28.048" transform="translate(9.127 43.522)" fill="none" stroke="#2a3157" stroke-width="1.125"/>
    <line id="Line_151" data-name="Line 151" x2="13.129" transform="translate(259.682 896.501)" fill="none" stroke="#2a3157" stroke-width="1.125"/>
    <g id="Group_12609" data-name="Group 12609" transform="translate(339.648 904.856)">
      <g id="Group_12605" data-name="Group 12605">
        <circle id="Ellipse_757" data-name="Ellipse 757" cx="1.194" cy="1.194" r="1.194" fill="#2a3157"/>
        <circle id="Ellipse_758" data-name="Ellipse 758" cx="1.194" cy="1.194" r="1.194" transform="translate(9.946)" fill="#2a3157"/>
        <circle id="Ellipse_759" data-name="Ellipse 759" cx="1.194" cy="1.194" r="1.194" transform="translate(19.892)" fill="#2a3157"/>
        <circle id="Ellipse_760" data-name="Ellipse 760" cx="1.194" cy="1.194" r="1.194" transform="translate(29.838)" fill="#2a3157"/>
      </g>
      <g id="Group_12606" data-name="Group 12606" transform="translate(0 8.554)">
        <circle id="Ellipse_761" data-name="Ellipse 761" cx="1.194" cy="1.194" r="1.194" fill="#2a3157"/>
        <circle id="Ellipse_762" data-name="Ellipse 762" cx="1.194" cy="1.194" r="1.194" transform="translate(9.946)" fill="#2a3157"/>
        <circle id="Ellipse_763" data-name="Ellipse 763" cx="1.194" cy="1.194" r="1.194" transform="translate(19.892)" fill="#2a3157"/>
        <circle id="Ellipse_764" data-name="Ellipse 764" cx="1.194" cy="1.194" r="1.194" transform="translate(29.838)" fill="#2a3157"/>
      </g>
      <g id="Group_12607" data-name="Group 12607" transform="translate(0 17.107)">
        <circle id="Ellipse_765" data-name="Ellipse 765" cx="1.194" cy="1.194" r="1.194" fill="#2a3157"/>
        <circle id="Ellipse_766" data-name="Ellipse 766" cx="1.194" cy="1.194" r="1.194" transform="translate(9.946)" fill="#2a3157"/>
        <circle id="Ellipse_767" data-name="Ellipse 767" cx="1.194" cy="1.194" r="1.194" transform="translate(19.892)" fill="#2a3157"/>
        <circle id="Ellipse_768" data-name="Ellipse 768" cx="1.194" cy="1.194" r="1.194" transform="translate(29.838)" fill="#2a3157"/>
      </g>
      <g id="Group_12608" data-name="Group 12608" transform="translate(0 25.661)">
        <circle id="Ellipse_769" data-name="Ellipse 769" cx="1.194" cy="1.194" r="1.194" fill="#2a3157"/>
        <circle id="Ellipse_770" data-name="Ellipse 770" cx="1.194" cy="1.194" r="1.194" transform="translate(9.946)" fill="#2a3157"/>
        <circle id="Ellipse_771" data-name="Ellipse 771" cx="1.194" cy="1.194" r="1.194" transform="translate(19.892)" fill="#2a3157"/>
        <circle id="Ellipse_772" data-name="Ellipse 772" cx="1.194" cy="1.194" r="1.194" transform="translate(29.838)" fill="#2a3157"/>
      </g>
    </g>
    <g id="Group_12610" data-name="Group 12610" transform="translate(188.817 695.542)">
      <rect id="Rectangle_3900" data-name="Rectangle 3900" width="6.366" height="6.365" transform="translate(4.575)" fill="#2a3157"/>
      <rect id="Rectangle_3901" data-name="Rectangle 3901" width="3.282" height="3.282" transform="translate(17.455 13.775)" fill="#2a3157"/>
      <rect id="Rectangle_3902" data-name="Rectangle 3902" width="2.387" height="2.387" transform="translate(0 8.951)" fill="#2a3157"/>
    </g>
    <g id="Group_12611" data-name="Group 12611" transform="translate(188.817 695.542)">
      <rect id="Rectangle_3903" data-name="Rectangle 3903" width="6.366" height="6.365" transform="translate(4.575)" fill="#2a3157"/>
      <rect id="Rectangle_3904" data-name="Rectangle 3904" width="3.282" height="3.282" transform="translate(17.455 13.775)" fill="#2a3157"/>
      <rect id="Rectangle_3905" data-name="Rectangle 3905" width="2.387" height="2.387" transform="translate(0 8.951)" fill="#2a3157"/>
    </g>
    <g id="Group_12612" data-name="Group 12612" transform="translate(310.494 618.595)">
      <path id="Path_19831" data-name="Path 19831" d="M341.166,660.248a11.515,11.515,0,0,1-7.752-3.5,25,25,0,1,0-5.9,4.428A19.524,19.524,0,0,0,341.166,660.248Z" transform="translate(-286.355 -614.038)" fill="#8aaf29"/>
      <path id="Path_19832" data-name="Path 19832" d="M337.666,662.248a11.515,11.515,0,0,1-7.752-3.5,25,25,0,1,0-5.9,4.428A19.525,19.525,0,0,0,337.666,662.248Z" transform="translate(-287.032 -613.651)" fill="none" stroke="#2a3157" stroke-width="1.125"/>
      <path id="Path_19833" data-name="Path 19833" d="M310.348,648.363l-10.441-10.444,4.171-4.171,6.271,6.271,14.137-14.136,4.171,4.171Z" transform="translate(-284.541 -611.746)" fill="#fff"/>
    </g>
  </g>
</svg>
