<svg xmlns="http://www.w3.org/2000/svg" width="12.482" height="12.661" viewBox="0 0 12.482 12.661">
  <g id="Component_531_1" data-name="Component 531 – 1" transform="translate(0.5 0.5)">
    <path id="Path_15361" data-name="Path 15361" d="M52.083,1531.83h-1.75a1.164,1.164,0,0,1-1.167-1.16v-4.09a1.164,1.164,0,0,1,1.167-1.16h1.75m4.083-1.17v-2.33a1.746,1.746,0,0,0-1.75-1.75l-2.333,5.25v6.41h6.58a1.137,1.137,0,0,0,.769-.27,1.2,1.2,0,0,0,.4-.72l.8-5.25a1.159,1.159,0,0,0-.033-.5,1.2,1.2,0,0,0-.24-.44,1.151,1.151,0,0,0-.4-.3,1.184,1.184,0,0,0-.491-.1Z" transform="translate(-49.167 -1520.17)" fill="none" stroke="gray" stroke-linecap="round" stroke-linejoin="round" stroke-width="1"/>
  </g>
</svg>
