<svg xmlns="http://www.w3.org/2000/svg" width="12.482" height="12.661"><rect id="backgroundrect" width="100%" height="100%" x="0" y="0" fill="none" stroke="none"/>
  
<g class="currentLayer" style=""><title>Layer 1</title><g id="Component_531_1" data-name="Component 531 – 1" class="selected" stroke-opacity="1" stroke="#23b6d0">
    <path id="Path_15361" data-name="Path 15361" d="M3.416000183105467,12.159956054687427 h-1.75 a1.1640000000000001,1.1640000000000001 0 0 1 -1.167,-1.1600000000000001 v-4.09 a1.1640000000000001,1.1640000000000001 0 0 1 1.167,-1.1600000000000001 h1.75 m4.083,-1.17 v-2.33 a1.746,1.746 0 0 0 -1.75,-1.75 l-2.333,5.25 v6.41 h6.58 a1.137,1.137 0 0 0 0.7690000000000002,-0.27 a1.2,1.2 0 0 0 0.4,-0.7200000000000002 l0.8,-5.25 a1.159,1.159 0 0 0 -0.033000000000000015,-0.5 a1.2,1.2 0 0 0 -0.24000000000000005,-0.4400000000000001 a1.151,1.151 0 0 0 -0.4,-0.3000000000000001 a1.184,1.184 0 0 0 -0.4910000000000001,-0.1 z" fill="none" stroke="#23b6d0" stroke-linecap="round" stroke-linejoin="round" stroke-width="1"/>
  </g></g></svg>