<svg xmlns="http://www.w3.org/2000/svg" width="88.425" height="95" viewBox="0 0 88.425 95">
  <g id="Component_484_1" data-name="Component 484 – 1" transform="translate(0.5)">
    <circle id="Ellipse_695" data-name="Ellipse 695" cx="24.5" cy="24.5" r="24.5" transform="translate(38.925)" fill="#23b6d0" opacity="0.153"/>
    <g id="Group_10553" data-name="Group 10553" transform="translate(-50.19 -20.916)">
      <path id="Path_16475" data-name="Path 16475" d="M146.165,118.17v8.419a3.62,3.62,0,0,1-.379,1.607l-.342.679a8.818,8.818,0,0,0-.93,3.93v5.857a8.716,8.716,0,0,0,2.584,6.216,3.689,3.689,0,0,1,1,1.9,26.82,26.82,0,0,0,4.677,10.111v4.265l-17.9,10.717A14.2,14.2,0,0,0,128,183.977v4.057a5.2,5.2,0,0,0,5.19,5.19h67.47a5.2,5.2,0,0,0,5.19-5.19v-4.057a14.2,14.2,0,0,0-6.876-12.108L181.08,161.155V156.89a26.772,26.772,0,0,0,4.677-10.116,3.706,3.706,0,0,1,1-1.9,8.707,8.707,0,0,0,2.581-6.214V132.8a8.8,8.8,0,0,0-.931-3.93l-.338-.677a3.608,3.608,0,0,1-.381-1.609v-8.383A15.824,15.824,0,0,0,171.879,102.4h-9.944A15.788,15.788,0,0,0,146.165,118.17Zm9.69,47.189c.12-.069.21-.167.321-.246l6.512,4.608-2.138,2.027a2.792,2.792,0,0,1-3.595.129l-5.181-4.075ZM166.769,173l2.64,2.5-1.434,2.151h-2.412l-1.434-2.151Zm-.969,9.842h1.981l2.673,5.19h-7.171Zm-32.61,1.133a8.864,8.864,0,0,1,4.352-7.653l9.465-5.668,6.724,5.288a7.9,7.9,0,0,0,4.943,1.723c.208,0,.413-.041.621-.057l1.9,2.843-3.677,7.582H133.19Zm67.47,0v4.057H176.293l-3.923-7.616,1.871-2.806c.21.016.417.058.627.058a7.876,7.876,0,0,0,4.923-1.713l6.875-5.406,9.639,5.771A8.868,8.868,0,0,1,200.66,183.977ZM181.9,167.7l-5.332,4.193a2.788,2.788,0,0,1-3.576-.139l-2.141-2.03,6.672-4.72a4.011,4.011,0,0,0,.439.338Zm.6-49.491v8.383a8.834,8.834,0,0,0,.931,3.933l.339.679a3.6,3.6,0,0,1,.38,1.6v5.857a3.568,3.568,0,0,1-1.058,2.542,8.871,8.871,0,0,0-2.418,4.536,22,22,0,0,1-3.962,8.34,4.282,4.282,0,0,0-.819,2.494v3.288a2.508,2.508,0,0,0-.24.106l-8.881,6.284-8.809-6.233v-3.444a4.282,4.282,0,0,0-.821-2.5,22.02,22.02,0,0,1-3.96-8.332,8.878,8.878,0,0,0-2.42-4.544,3.566,3.566,0,0,1-1.056-2.539V132.8a3.614,3.614,0,0,1,.379-1.6l.343-.682a8.848,8.848,0,0,0,.929-3.93V118.17a10.592,10.592,0,0,1,10.58-10.58h9.944A10.627,10.627,0,0,1,182.495,118.206Z" transform="translate(-77.811 -77.809)" fill="#3fbfd6" stroke="#3fbfd6" stroke-width="1"/>
    </g>
  </g>
</svg>
