<svg id="Component_495_1" data-name="Component 495 – 1" xmlns="http://www.w3.org/2000/svg" width="299.469" height="251" viewBox="0 0 299.469 251">
  <g id="Group_11056" data-name="Group 11056" transform="translate(116.412 118.194)">
    <g id="Group_11054" data-name="Group 11054">
      <path id="Path_17079" data-name="Path 17079" d="M218.591,336.428a5.3,5.3,0,0,1-5.229,3.944c-2.43.088-4.8-.461-6.157-2.881a3.24,3.24,0,0,1-.527-1.45c0-1.148-.646-1.615-1.583-2.008-1.326-.558-1.337-.695-1.144-2.118.354-2.6.711-5.2,1-7.8a8.418,8.418,0,0,0-.025-2.611,1.743,1.743,0,0,1,1.3-2.3c-2.289-5.061-3.4-10.416-4.589-15.754A24.645,24.645,0,0,1,203,287.867a13.328,13.328,0,0,1,11.981-8.314,34.365,34.365,0,0,1,10.776.724,17.468,17.468,0,0,1,9.079,5.271,11.833,11.833,0,0,1,2.849,9.273,30.391,30.391,0,0,1-5.266,14.09q-3.666,5.625-7.342,11.244c-.381.583-.816,1.131-1.3,1.8.781.892.537,1.914.241,2.912-.962,3.236-1.977,6.456-2.922,9.7C220.729,335.817,220.111,336.642,218.591,336.428Zm3.119-14.419c1.114-1.662,2.156-3.2,3.183-4.753,2.281-3.444,4.66-6.829,6.8-10.356a27.652,27.652,0,0,0,4.2-11.019,10.992,10.992,0,0,0-1.276-7.254,13.939,13.939,0,0,0-8.1-6.005,34.192,34.192,0,0,0-12.119-1.094c-4.558.21-9.629,4.54-10.661,9.043-.856,3.728-1.545,7.406-.648,11.216.892,3.792,1.671,7.614,2.653,11.383a34.062,34.062,0,0,0,1.863,4.7,4.149,4.149,0,0,0,4.071,2.6c2.659.148,5.3.7,7.939,1.1C220.256,321.665,220.876,321.831,221.71,322.009Zm-.548,8.041c-2.665-.349-5.157-.546-7.6-1.032-2.477-.491-4.9-1.264-7.5-1.956-.08.914-.149,1.694-.213,2.43,2.5.9,12.3,2.175,14.822,1.956C220.812,331.049,220.962,330.621,221.162,330.05Zm-14.991-4.672c4.38,1.887,12.6,3.359,15.628,2.793.1-.386.217-.809.387-1.444l-15.819-2.274C206.334,324.613,206.263,324.947,206.171,325.378Zm.428-4.059c-.28.682-.326,1.225.428,1.487a10.873,10.873,0,0,0,1.983.607c2.7.384,5.4.688,8.1,1.054,1.779.243,3.549.541,5.448.833.076-.519.137-.939.173-1.182C217.485,322.094,212.007,322.375,206.6,321.319ZM205.407,332.3c2.439,1.07,13.5,2.829,14.293,2.216.068-.32.16-.746.284-1.335l-14.371-1.98a1.341,1.341,0,0,0-.16.356A5.517,5.517,0,0,0,205.407,332.3Zm2.611,2.757c.184,2.152,1.106,2.99,3.81,3.56,2.459.518,4.105-.127,5.176-2.089C214.094,335.453,211.033,335.489,208.019,335.06Z" transform="translate(-200.97 -279.429)" fill="#2d4578"/>
      <path id="Path_17080" data-name="Path 17080" d="M221.991,322.339c-.834-.178-1.453-.344-2.083-.438-2.644-.4-5.281-.953-7.939-1.1a4.149,4.149,0,0,1-4.071-2.6,34.06,34.06,0,0,1-1.863-4.7c-.982-3.769-1.76-7.591-2.653-11.383-.9-3.81-.208-7.488.648-11.216,1.032-4.5,6.1-8.833,10.661-9.043a34.193,34.193,0,0,1,12.119,1.094,13.939,13.939,0,0,1,8.1,6.005,10.992,10.992,0,0,1,1.276,7.254,27.653,27.653,0,0,1-4.2,11.019c-2.145,3.527-4.523,6.912-6.8,10.356C224.147,319.137,223.1,320.677,221.991,322.339Z" transform="translate(-201.251 -279.759)" fill="#23b6d0"/>
      <path id="Path_17081" data-name="Path 17081" d="M221.963,337.87c-.2.571-.35,1-.49,1.4-2.525.219-12.321-1.06-14.822-1.956.064-.736.133-1.516.213-2.43,2.6.692,5.025,1.465,7.5,1.956C216.806,337.324,219.3,337.522,221.963,337.87Z" transform="translate(-201.771 -287.25)" fill="#fff"/>
      <path id="Path_17082" data-name="Path 17082" d="M207.025,332.77c.092-.431.163-.764.2-.924l15.819,2.274c-.17.635-.283,1.058-.387,1.444C219.623,336.13,211.4,334.657,207.025,332.77Z" transform="translate(-201.824 -286.821)" fill="#fff"/>
      <path id="Path_17083" data-name="Path 17083" d="M207.492,328.2c5.408,1.056,10.887.775,16.131,2.8-.036.243-.1.663-.173,1.182-1.9-.292-3.669-.59-5.448-.833-2.7-.366-5.4-.67-8.1-1.054a10.874,10.874,0,0,1-1.983-.607C207.166,329.422,207.212,328.879,207.492,328.2Z" transform="translate(-201.863 -286.307)" fill="#fff"/>
      <path id="Path_17084" data-name="Path 17084" d="M206.136,340.8a5.52,5.52,0,0,1,.046-.743,1.341,1.341,0,0,1,.16-.356l14.371,1.98c-.125.588-.216,1.014-.284,1.335C219.634,343.633,208.575,341.874,206.136,340.8Z" transform="translate(-201.698 -287.93)" fill="#fff"/>
      <path id="Path_17085" data-name="Path 17085" d="M209.176,344.194c3.014.429,6.075.393,8.987,1.471-1.071,1.962-2.717,2.607-5.176,2.089C210.282,347.184,209.36,346.346,209.176,344.194Z" transform="translate(-202.127 -288.563)" fill="#fff"/>
    </g>
    <g id="Group_11055" data-name="Group 11055" transform="translate(10.334 25.48)">
      <path id="Path_17086" data-name="Path 17086" d="M213,310.334a86.606,86.606,0,0,1,.859,14.888" transform="translate(-213 -309.268)" fill="none" stroke="#2d4578" stroke-width="0.25"/>
      <path id="Path_17087" data-name="Path 17087" d="M226.68,312.667a38.1,38.1,0,0,0-6.013,13.457" transform="translate(-214.081 -309.597)" fill="none" stroke="#2d4578" stroke-width="0.25"/>
      <path id="Path_17088" data-name="Path 17088" d="M213.083,310.016c.644,2,4.8,1.861,4.009-.287-.5-1.5-1.647,0-1.432,1,.215,1.217,1.432,1.647,2.506,1.718,1.145.071,3.15-.5,3.221-1.861a.8.8,0,0,0-1.5-.5c-1.074,1.933,2.362,2.72,3.507,2.648a3.544,3.544,0,0,0,1.861-.572" transform="translate(-213.012 -309.093)" fill="none" stroke="#2d4578" stroke-width="0.25"/>
    </g>
    <path id="Path_17089" data-name="Path 17089" d="M224.75,288c3.937-.072,8.375,2.29,9.019,6.514a21.325,21.325,0,0,1-.788,9.019" transform="translate(-204.324 -280.638)" fill="none" stroke="#fff" stroke-width="4"/>
  </g>
  <g id="Group_11059" data-name="Group 11059" transform="translate(76.615 167.084)">
    <path id="Path_17090" data-name="Path 17090" d="M189.092,395.943a22.284,22.284,0,0,1,10.6,5.854c3.074,3,4.339,6.861,5.29,10.868.277,1.164-.455,1.969-1.829,2.338-1.271.341-1.7.1-2.206-1.407-.454-1.341-.769-2.728-1.243-4.059a15.5,15.5,0,0,0-14.023-10.128c-2.839,3.222-5.9,6.355-7.1,10.839-.707,2.647-.245,5.151.162,7.714a1.8,1.8,0,0,1-1.888,2.3,1.881,1.881,0,0,1-2.084-1.55c-.566-2.85-1.063-5.671-.295-8.631a19.849,19.849,0,0,1,3.445-7.7c.862-1.078,1.843-2.063,2.955-3.3-1.233-.255-2.135-.462-3.046-.626-4.49-.8-7.377-3.627-9.549-7.424-2.405-4.2-2.469-8.721-1.78-13.3a21.567,21.567,0,0,1,2.042-7.472c.643-1.155,1.282-2.313,2.032-3.667-1.274-.328-2.4-.6-3.508-.913-3.871-1.1-7.251-2.956-8.731-6.928-1.37-3.683-2.4-7.493-3.556-11.252a5.245,5.245,0,0,1-.117-1.174c-.123-1.723.286-2.594,1.232-2.632a3.19,3.19,0,0,1,2.566,2.385c.381,3.994,2.079,7.592,3.369,11.31.97,2.79,3.213,4.215,5.852,5.073a36.84,36.84,0,0,0,3.929.849,2.662,2.662,0,0,0,2.39-.678c2.238-1.857,4.583-3.587,6.806-5.461a7.621,7.621,0,0,0,2.629-5.855c.143-3.852-.9-7.5-1.812-11.168a11.327,11.327,0,0,0-.411-1.361c-.35-.9-.411-1.733.578-2.236a2.259,2.259,0,0,1,2.578.571,1.692,1.692,0,0,1,.5.786c1.429,4.681,2.876,9.352,2.5,14.359a10.141,10.141,0,0,1-5.064,8.292c-1.562.982-3.206,2.017-4.113,3.988,1.13.368,2.208.776,3.316,1.072a17.045,17.045,0,0,1,10.149,7.592,18.488,18.488,0,0,1,3.277,9.953,14.917,14.917,0,0,1-3.766,10.2C190.521,394.136,189.909,394.928,189.092,395.943ZM174.92,367.285c-.784,1.324-1.449,2.294-1.965,3.337-2.84,5.76-3.534,11.668-1.319,17.836a9.727,9.727,0,0,0,7.574,6.655c3.147.715,5.712.33,7.629-2.47.353-.516.876-.916,1.256-1.416a11.324,11.324,0,0,0,2.668-5.71c.6-6.233-2.69-13.372-8.877-15.833C179.7,368.816,177.431,368.143,174.92,367.285Z" transform="translate(-154.64 -336.346)" fill="#0a3a5e"/>
    <g id="Group_11057" data-name="Group 11057" transform="translate(3.457 3.926)">
      <path id="Path_17091" data-name="Path 17091" d="M158.665,348.719c1.933-.716,4.009-.931,6.013-1.575,2.362-.715,4.653-1.789,7.015-2.648a108.589,108.589,0,0,1,11.6-3.579" transform="translate(-158.665 -340.916)" fill="none" stroke="#2d4578" stroke-width="0.25"/>
      <path id="Path_17092" data-name="Path 17092" d="M159.582,353.458c2.291-.071,4.581-1.217,6.728-2,3.079-1.074,6.085-2.434,9.163-3.579,2.935-1.145,6.084-1.647,9.019-2.792" transform="translate(-158.794 -341.504)" fill="none" stroke="#2d4578" stroke-width="0.25"/>
      <path id="Path_17093" data-name="Path 17093" d="M161.332,357.385c5.225-.143,10.522-2.934,15.39-4.652,2.934-1.074,6.013-1.79,8.732-3.15" transform="translate(-159.041 -342.138)" fill="none" stroke="#2d4578" stroke-width="0.25"/>
      <path id="Path_17094" data-name="Path 17094" d="M163.082,362.1c2.792-.072,5.512-1.361,8.089-2.147,2.362-.716,4.581-1.647,6.943-2.362a52.051,52.051,0,0,1,7.8-2.506" transform="translate(-159.288 -342.914)" fill="none" stroke="#2d4578" stroke-width="0.25"/>
      <path id="Path_17095" data-name="Path 17095" d="M166.5,366.251c4.51-.573,9.162-2.577,13.314-4.295a21.332,21.332,0,0,1,4.437-1.79" transform="translate(-159.77 -343.631)" fill="none" stroke="#2d4578" stroke-width="0.25"/>
      <path id="Path_17096" data-name="Path 17096" d="M174.331,376.746a94.264,94.264,0,0,1,9.807-3.579" transform="translate(-160.874 -345.464)" fill="none" stroke="#2d4578" stroke-width="0.25"/>
      <path id="Path_17097" data-name="Path 17097" d="M172.5,381.92c3.364-.716,6.657-3.15,9.878-4.51a41.427,41.427,0,0,0,4.867-2.076" transform="translate(-160.616 -345.77)" fill="none" stroke="#2d4578" stroke-width="0.25"/>
      <path id="Path_17098" data-name="Path 17098" d="M171.914,386.6c4.939-.931,9.521-3.938,14.245-5.512,1.36-.429,3.292-1.432,4.51-1.5" transform="translate(-160.534 -346.369)" fill="none" stroke="#2d4578" stroke-width="0.25"/>
      <path id="Path_17099" data-name="Path 17099" d="M172.248,392.815c5.655-.93,11.524-3.651,16.892-5.655,1.575-.644,3.006-1.718,4.51-2.076" transform="translate(-160.581 -347.145)" fill="none" stroke="#2d4578" stroke-width="0.25"/>
      <path id="Path_17100" data-name="Path 17100" d="M174.5,398.6c5.511-1.575,10.665-4.008,16.034-6.013,1.647-.572,3.15-1.574,4.8-2" transform="translate(-160.898 -347.921)" fill="none" stroke="#2d4578" stroke-width="0.25"/>
      <path id="Path_17101" data-name="Path 17101" d="M178.248,403.37c1.933-.143,3.865-1.288,5.8-1.933,2.219-.644,4.51-1.217,6.728-2C191.848,399,193.781,398,194.64,398" transform="translate(-161.427 -348.967)" fill="none" stroke="#2d4578" stroke-width="0.25"/>
      <path id="Path_17102" data-name="Path 17102" d="M184.748,414.977c3.937-.716,8.231-2.864,11.739-4.724" transform="translate(-162.344 -350.695)" fill="none" stroke="#2d4578" stroke-width="0.25"/>
      <path id="Path_17103" data-name="Path 17103" d="M181.664,420.064c4.724-.787,9.377-3.221,13.958-4.652a21.109,21.109,0,0,0,5.083-2.076" transform="translate(-161.909 -351.13)" fill="none" stroke="#2d4578" stroke-width="0.25"/>
      <path id="Path_17104" data-name="Path 17104" d="M180.581,424.675a140.943,140.943,0,0,0,14.03-4.8c2.935-1.074,6.085-1.933,8.948-3.292" transform="translate(-161.756 -351.588)" fill="none" stroke="#2d4578" stroke-width="0.25"/>
      <path id="Path_17105" data-name="Path 17105" d="M180.664,429.313c4.367-.788,20.616-5.226,24.338-6.228" transform="translate(-161.768 -352.504)" fill="none" stroke="#2d4578" stroke-width="0.25"/>
    </g>
    <g id="Group_11058" data-name="Group 11058" transform="translate(9.756 7.222)">
      <path id="Path_17106" data-name="Path 17106" d="M178.081,392.5" transform="translate(-167.702 -351.487)" fill="none" stroke="#e8a73f" stroke-width="0.75"/>
      <path id="Path_17107" data-name="Path 17107" d="M187.581,381.336" transform="translate(-169.042 -349.912)" fill="none" stroke="#e8a73f" stroke-width="0.75"/>
      <path id="Path_17108" data-name="Path 17108" d="M188.414,419.086" transform="translate(-169.159 -355.236)" fill="none" stroke="#e8a73f" stroke-width="0.75"/>
      <path id="Path_17109" data-name="Path 17109" d="M203.831,424.5" transform="translate(-171.334 -356)" fill="none" stroke="#e8a73f" stroke-width="0.75"/>
      <path id="Path_17110" data-name="Path 17110" d="M166,352.919" transform="translate(-165.998 -345.905)" fill="none" stroke="#e8a73f" stroke-width="0.75"/>
      <path id="Path_17111" data-name="Path 17111" d="M181.582,357.336" transform="translate(-168.196 -346.528)" fill="none" stroke="#e8a73f" stroke-width="0.75"/>
      <path id="Path_17112" data-name="Path 17112" d="M173,344.753" transform="translate(-166.985 -344.753)" fill="none" stroke="#e8a73f" stroke-width="0.75"/>
      <path id="Path_17113" data-name="Path 17113" d="M187.832,400.836" transform="translate(-169.077 -352.663)" fill="none" stroke="#e8a73f" stroke-width="0.75"/>
      <path id="Path_17114" data-name="Path 17114" d="M187.832,428.586" transform="translate(-169.077 -356.576)" fill="none" stroke="#e8a73f" stroke-width="0.75"/>
      <path id="Path_17115" data-name="Path 17115" d="M178.333,380.253" transform="translate(-167.738 -349.76)" fill="none" stroke="#90cbd3" stroke-width="0.75"/>
      <path id="Path_17116" data-name="Path 17116" d="M192.75,392.586" transform="translate(-169.771 -351.499)" fill="none" stroke="#90cbd3" stroke-width="0.75"/>
      <path id="Path_17117" data-name="Path 17117" d="M199.5,419.419" transform="translate(-170.723 -355.283)" fill="none" stroke="#90cbd3" stroke-width="0.75"/>
      <path id="Path_17118" data-name="Path 17118" d="M169.5,361.671" transform="translate(-166.492 -347.139)" fill="none" stroke="#90cbd3" stroke-width="0.75"/>
      <path id="Path_17119" data-name="Path 17119" d="M182.417,346.838" transform="translate(-168.314 -345.047)" fill="none" stroke="#90cbd3" stroke-width="0.75"/>
    </g>
  </g>
  <g id="Group_11061" data-name="Group 11061" transform="translate(0 135.488)">
    <g id="Group_11060" data-name="Group 11060">
      <path id="Path_17120" data-name="Path 17120" d="M110.551,350.9c1.669,3.554,3.2,6.815,4.731,10.079.32.685.65,1.37.907,2.08.473,1.3,0,2.182-1.365,2.36-1.731.222-3.475.349-5.215.491-5.978.487-11.968.854-17.929,1.491a76.013,76.013,0,0,1-8.024.007c-1.322.005-1.514-.48-1.023-1.648,1.442-3.426,3.158-6.743,4.011-10.4.314-1.346.848-2.638,1.272-3.924-.145-.124-.246-.269-.313-.257a30.452,30.452,0,0,1-5.553.107c-2.671.04-5.337.385-8.009.54-2.037.121-4.078.132-6.117.23-1.026.049-1.352-.614-1.427-1.406-.088-.924.024-1.866-.016-2.8-.114-2.616-.282-5.232-.391-7.848-.135-3.255-.243-6.508-.344-9.763-.119-3.845-.309-7.69-.3-11.535.009-4.835.186-9.672.3-14.507a4.324,4.324,0,0,1,.143-.722c1.8-.72,3.686-.479,5.518-.633q5.832-.486,11.672-.867c6.4-.421,12.783-.986,19.211-.9,2.906.039,5.814-.31,8.725-.463,3.08-.162,6.163-.29,9.243-.45,1.917-.1,3.834-.231,5.75-.343.582-.034,1.165-.056,1.747-.075,1.688-.053,3.378-.047,5.06-.167,1.808-.128,2.709.674,2.738,2.445.078,4.71.282,9.419.3,14.129.014,4.659-.139,9.319-.222,13.979-.028,1.625-.11,3.254-.082,4.878.053,3.144.174,6.289.252,9.431.026,1.044.021,2.089,0,3.134a1.516,1.516,0,0,1-1.168,1.556,12.65,12.65,0,0,1-2.4.411c-2.378.147-4.762.228-7.143.337-.292.013-.585.018-.874.052-2.407.276-4.808.634-7.222.8-1.557.11-3.134-.08-4.7-.089A12.7,12.7,0,0,0,110.551,350.9Zm23.177-49.622c-.759,0-1.551-.014-2.343,0-1.159.025-2.315.083-3.474.107-.4.006-.816-.107-1.213-.066a46.51,46.51,0,0,1-8.54.3,14.614,14.614,0,0,0-2.423.24c-.744.069-1.489.148-2.234.164a17.531,17.531,0,0,0-2.752,0,17.683,17.683,0,0,1-3.956.322c-1.5-.063-3.01.306-4.51.271a176.39,176.39,0,0,0-18.486.9c-3.765.311-7.536.554-11.3.837-1.675.125-3.347.269-5.169.417-1.227,15.206.2,30.27.745,45.5.681,0,1.252,0,1.823,0,5.827.037,11.63-.836,17.466-.48a6.372,6.372,0,0,0,.7-.044c1.627-.064,3.255-.182,4.882-.177,3.03.01,6.063.19,9.089.123,4.487-.1,8.971-.341,13.453-.538,1.629-.071,3.256-.171,4.882-.282q3.4-.237,6.8-.514c2.243-.186,4.484-.4,6.913-.624C134.122,332.169,134.754,316.82,133.728,301.274Zm-49.015,64.49a11.184,11.184,0,0,0,1.3.085q3.658-.222,7.313-.474c2.322-.161,4.668-.186,6.958-.544a77.939,77.939,0,0,1,12.652-1.28c.371,0,.742-.049,1.266-.085-.317-.707-.545-1.233-.786-1.75-1.128-2.425-2.348-4.813-3.371-7.281-1.566-3.778-1.54-3.594-5.729-3.383-.115.007-.228.054-.343.058-1.452.047-2.9.141-4.352.122-3.18-.045-6.359-.149-9.663-.23C88.239,355.835,86.517,360.687,84.713,365.764Z" transform="translate(-65.446 -299.563)" fill="#0a3a5e"/>
      <path id="Path_17121" data-name="Path 17121" d="M133.957,301.554c1.026,15.546.394,30.895.346,46.46-2.429.219-4.67.437-6.913.624q-3.4.282-6.8.514c-1.626.111-3.253.21-4.882.282-4.482.2-8.966.44-13.453.538-3.026.067-6.058-.113-9.089-.123-1.627-.005-3.255.112-4.882.177a6.365,6.365,0,0,1-.7.044c-5.836-.356-11.639.517-17.466.48-.571,0-1.142,0-1.823,0-.543-15.229-1.971-30.292-.745-45.5,1.822-.148,3.494-.292,5.169-.417,3.768-.284,7.539-.527,11.3-.838a176.407,176.407,0,0,1,18.486-.9c1.5.034,3.014-.334,4.51-.271a17.685,17.685,0,0,0,3.956-.322,17.527,17.527,0,0,1,2.752,0c.746-.016,1.49-.1,2.234-.164a14.618,14.618,0,0,1,2.423-.24,46.507,46.507,0,0,0,8.54-.3c.4-.041.808.072,1.213.066,1.159-.024,2.315-.082,3.474-.107C132.405,301.54,133.2,301.554,133.957,301.554Z" transform="translate(-65.674 -299.843)" fill="#cbd3dc"/>
      <path id="Path_17122" data-name="Path 17122" d="M128.986,308.575c.841,11.719.323,23.288.283,35.02-1.992.168-3.83.33-5.668.472q-2.787.211-5.577.386c-1.332.084-2.667.159-4,.213-3.676.149-7.352.332-11.032.405-2.482.052-4.968-.083-7.452-.092-1.335-.005-2.67.084-4,.132a5.334,5.334,0,0,1-.571.033c-4.787-.266-9.545.389-14.322.361-.469,0-.936,0-1.5,0-.445-11.479-1.617-22.833-.61-34.294,1.493-.111,2.865-.221,4.238-.317,3.09-.213,6.181-.4,9.268-.629,5.045-.383,10.086-.783,15.16-.679,1.229.026,2.471-.252,3.7-.206a15.689,15.689,0,0,0,3.244-.242,15.958,15.958,0,0,1,2.257,0c.612-.013,1.222-.071,1.832-.124a13.192,13.192,0,0,1,1.988-.181,41.438,41.438,0,0,0,7-.227c.326-.03.663.054.994.048.951-.016,1.9-.061,2.848-.078C127.714,308.565,128.364,308.575,128.986,308.575Z" transform="translate(-66.672 -300.833)" fill="#0a3a5e"/>
      <path id="Path_17123" data-name="Path 17123" d="M87.876,374.2c1.8-5.077,3.526-9.929,5.243-14.761,3.3.082,6.483.186,9.663.23,1.45.019,2.9-.075,4.352-.122.114,0,.228-.052.343-.058,4.189-.21,4.163-.394,5.729,3.383,1.023,2.468,2.243,4.856,3.371,7.281.241.517.469,1.043.786,1.75-.524.036-.9.088-1.266.085a77.939,77.939,0,0,0-12.652,1.28c-2.29.357-4.636.382-6.958.544q-3.655.254-7.313.474A11.171,11.171,0,0,1,87.876,374.2Z" transform="translate(-68.609 -308.001)" fill="#cbd3dc"/>
    </g>
    <path id="Path_17124" data-name="Path 17124" d="M105.667,306.334" transform="translate(-71.118 -300.518)" fill="none" stroke="#2d4578" stroke-width="0.5"/>
    <path id="Path_17125" data-name="Path 17125" d="M112.752,315.68c15.475-2.213,16.892-1.688,16.892,13.385" transform="translate(-72.117 -301.7)" fill="none" stroke="#fff" stroke-width="4"/>
  </g>
  <g id="Group_11068" data-name="Group 11068" transform="translate(3.527 47.402)">
    <g id="Group_11065" data-name="Group 11065" transform="translate(0 0)">
      <path id="Path_17136" data-name="Path 17136" d="M67.041,133.547c-1.11-.53-2.452-.314-2.667-1.657-.259-1.622-.581-3.335.387-4.8a2.772,2.772,0,0,1,1.949-.917c5.613-.31,11.2-1.194,16.847-.785a9.259,9.259,0,0,1,2.015.34,1.728,1.728,0,0,1,.911.73,4.626,4.626,0,0,1-1.98,6.707c.195,2.41.371,4.93.609,7.443.215,2.251.435,4.507.78,6.742a9.1,9.1,0,0,0,.985,3.1c1.78,3.088,3.7,6.1,5.556,9.139q6.061,9.912,12.115,19.83c1.422,2.33.929,4.046-1.572,5.088a10.69,10.69,0,0,1-3.353.883c-5.332.326-10.618,1.105-16,.99-6.766-.146-13.542.255-20.315.356-3.839.058-7.683.055-11.521-.042-2.923-.076-4.39-2.038-3.541-4.842a20.687,20.687,0,0,1,2.217-4.836c2.855-4.6,5.821-9.142,8.786-13.678,2.471-3.781,4.995-7.528,7.508-11.283a4.694,4.694,0,0,0,.9-2.879c-.168-4.595-.271-9.192-.414-13.787C67.228,134.789,67.115,134.188,67.041,133.547Zm1.872.045a2.876,2.876,0,0,0-.163.659c.151,5.076.272,10.153.5,15.225a4.622,4.622,0,0,1-.811,3.05q-5.618,8.235-11.1,16.563c-1.465,2.232-2.766,4.571-4.129,6.867-.974,1.643-2.056,3.238-2.866,4.961-1.294,2.756-.6,3.843,2.446,3.88,4.114.052,8.229-.02,12.342-.08,6.171-.093,12.342-.375,18.509-.285a143.389,143.389,0,0,0,16.412-1.052,9.544,9.544,0,0,0,2.013-.4c1.541-.507,1.855-1.421,1.021-2.785q-6.436-10.524-12.867-21.052c-1.6-2.634-3.035-5.375-4.736-7.941a8.194,8.194,0,0,1-1.388-4q-.42-5.022-.869-10.043c-.121-1.334-.287-2.664-.431-3.982ZM84.83,127.3c-2.858-.794-14.652-.338-18.71.707a4.783,4.783,0,0,0,.211,3.859c5.841-.018,11.664.286,17.467-.436,1.278-.159,1.721-.879,1.513-2.2C85.208,128.56,84.986,127.912,84.83,127.3Z" transform="translate(-48.006 -125.285)" fill="#2d4578"/>
      <path id="Path_17137" data-name="Path 17137" d="M69.2,134.887l13.888-.415c.144,1.319.31,2.648.431,3.982q.452,5.02.869,10.043a8.194,8.194,0,0,0,1.388,4c1.7,2.566,3.135,5.307,4.736,7.941q6.41,10.541,12.867,21.052c.833,1.364.52,2.278-1.021,2.785a9.544,9.544,0,0,1-2.013.4,143.389,143.389,0,0,1-16.412,1.052c-6.167-.089-12.338.192-18.509.285-4.113.06-8.228.132-12.342.08-3.051-.037-3.74-1.124-2.446-3.88.809-1.723,1.891-3.318,2.866-4.961,1.363-2.3,2.664-4.635,4.129-6.867q5.475-8.33,11.1-16.563a4.622,4.622,0,0,0,.811-3.05c-.229-5.072-.35-10.15-.5-15.225A2.875,2.875,0,0,1,69.2,134.887Z" transform="translate(-48.289 -126.58)" fill="#fff"/>
      <path id="Path_17138" data-name="Path 17138" d="M87.753,127.566c.156.611.378,1.259.482,1.928.207,1.324-.235,2.043-1.514,2.2-5.8.722-11.626.418-17.467.436a4.783,4.783,0,0,1-.211-3.859C73.1,127.227,84.9,126.772,87.753,127.566Z" transform="translate(-50.929 -125.55)" fill="#fff"/>
    </g>
    <g id="Group_11066" data-name="Group 11066" transform="translate(29.989 11.071)">
      <path id="Path_17139" data-name="Path 17139" d="M82.919,138.46a53.7,53.7,0,0,0,5.869-.287" transform="translate(-82.919 -138.173)" fill="none" stroke="#2d4578" stroke-width="0.25"/>
      <path id="Path_17140" data-name="Path 17140" d="M83.086,143.888c1.933,0,3.865-.215,5.8-.215" transform="translate(-82.943 -138.949)" fill="none" stroke="#2d4578" stroke-width="0.25"/>
      <path id="Path_17141" data-name="Path 17141" d="M83.752,149.959c1.933.286,3.938-.358,5.941-.287" transform="translate(-83.036 -139.794)" fill="none" stroke="#2d4578" stroke-width="0.25"/>
      <path id="Path_17142" data-name="Path 17142" d="M86.586,147.066c1,0,2.075-.143,3.149-.143" transform="translate(-83.436 -139.407)" fill="none" stroke="#2d4578" stroke-width="0.25"/>
      <path id="Path_17143" data-name="Path 17143" d="M86.419,141a21.05,21.05,0,0,0,3.006-.072" transform="translate(-83.413 -138.561)" fill="none" stroke="#2d4578" stroke-width="0.25"/>
    </g>
    <path id="Path_17144" data-name="Path 17144" d="M85.832,160.085s1.713,3.493,3.026,5.653Q94.113,174.382,99.408,183c.684,1.118.427,1.869-.838,2.283a7.859,7.859,0,0,1-1.651.332,117.9,117.9,0,0,1-13.458.862c-5.057-.074-10.117.158-15.177.233-3.372.051-6.747.109-10.12.067-2.5-.031-3.066-.923-2.006-3.182.663-1.412,1.55-2.721,2.349-4.068,1.118-1.884,2.183-3.8,3.386-5.631q4.489-6.83,9.1-13.582" transform="translate(-49.084 -130.193)" fill="#fec725"/>
    <g id="Group_11067" data-name="Group 11067" transform="translate(17.032 38.127)">
      <path id="Path_17145" data-name="Path 17145" d="M76.586,169.672" transform="translate(-69.069 -169.672)" fill="none" stroke="#fff" stroke-width="1"/>
      <path id="Path_17146" data-name="Path 17146" d="M97.086,182.922" transform="translate(-71.96 -171.541)" fill="none" stroke="#fff" stroke-width="1"/>
      <path id="Path_17147" data-name="Path 17147" d="M67.835,184.089" transform="translate(-67.835 -171.705)" fill="none" stroke="#fff" stroke-width="1.5"/>
      <path id="Path_17148" data-name="Path 17148" d="M89.252,169.756" transform="translate(-70.855 -169.684)" fill="none" stroke="#fff" stroke-width="1.5"/>
      <path id="Path_17149" data-name="Path 17149" d="M83.085,179.922" transform="translate(-69.986 -171.118)" fill="none" stroke="#fff" stroke-width="1.25"/>
    </g>
  </g>
  <g id="Group_11071" data-name="Group 11071" transform="translate(69.02 28.931)">
    <g id="Group_11069" data-name="Group 11069" transform="translate(0)">
      <path id="Path_17150" data-name="Path 17150" d="M128.4,201.49c1.3-3.176,7.587-16.891,9.072-19.947a20.965,20.965,0,0,0,12.866,1.057,9.2,9.2,0,0,0,2.986-.939c2.659-1.668,5.245-3.462,7.8-5.286,1.024-.73.941-1.361-.113-1.994a21.9,21.9,0,0,0-9.136-3.274c-3.2-.317-6.3-.116-9.111,1.666-.715.452-1.393.958-2.385,1.642,1.45-4.075,3.779-7.293,5.271-10.739.231-.128.283-.181.334-.18.174,0,.347.027.521.032a10.972,10.972,0,0,0,6.77-1.922,31.118,31.118,0,0,0,4.832-4.26,29.242,29.242,0,0,0,5.765-8.914,3.125,3.125,0,0,0,.061-1,16.808,16.808,0,0,0-7.714-.117c-4.844,1.063-8.475,3.986-11.353,7.921a8.2,8.2,0,0,0-1.72,4.854c-.034,2.579-1.4,4.638-2.842,6.733-.489-1.624-.813-3.1-1.377-4.486a21.466,21.466,0,0,0-5.21-7.166c-1.085-1.057-2.2-2.083-3.244-3.183s-1.755-1.094-2.246.328a24.235,24.235,0,0,0-1.289,5.054,12.6,12.6,0,0,0,1.078,7.352c1.609,3.063,3.629,5.868,7.149,7.118a15.137,15.137,0,0,1,2.241,1.244c-1.034,2.59-1.984,4.965-3.057,7.653-.229-.589-.333-.793-.391-1.008-1.318-5.121-4.406-9.057-8.356-12.4a34.884,34.884,0,0,0-2.954-2.175c-1.331-.9-2.122-.5-2.285,1.118-.076.754-.19,1.5-.234,2.262a15.631,15.631,0,0,0,1.14,8.041,16.388,16.388,0,0,0,6.345,7.477c1.395.812,2.8,1.612,4.323,2.49-.479,1.125-5.966,12.724-6.5,13.971m23.441-28.057a19.546,19.546,0,0,1,9.893,2.4,5.8,5.8,0,0,1,.735.46c.083.06.113.191.167.289-5.271,5.836-14.645,8.133-21.755,4.242C140.427,175.5,143.824,172.667,148.881,172.461Zm-19.6-19.414c.807.721,1.571,1.373,2.3,2.06a26.336,26.336,0,0,1,5.85,7.3,15.032,15.032,0,0,1,1.292,7.3,6.921,6.921,0,0,1-.536,1.723C129.2,168.914,126.53,160.243,129.277,153.047Zm16.125,3.67a18.643,18.643,0,0,1,10.465-7.963,14,14,0,0,1,6.248,0,21.032,21.032,0,0,1-4.7,7.644,18.811,18.811,0,0,1-5.3,4.479,13.135,13.135,0,0,1-3.258,1.152c-1.306.255-2.689.371-3.57-1.067-.126-.2-.5-.258-.712-.36A4.7,4.7,0,0,1,145.4,156.716Zm-12.782,28.022c-8.58-3.1-12.42-9.908-10.82-17.958C128.418,170.039,134.17,178.773,132.619,184.739Z" transform="translate(-120.059 -146.925)" fill="#2d4578"/>
      <path id="Path_17151" data-name="Path 17151" d="M140.853,184.039c2.506-4.347,5.9-7.181,10.96-7.387a19.546,19.546,0,0,1,9.893,2.4,5.794,5.794,0,0,1,.735.46c.083.06.113.191.166.289C157.337,185.632,147.963,187.929,140.853,184.039Z" transform="translate(-122.992 -151.116)" fill="#8aaf29"/>
      <path id="Path_17152" data-name="Path 17152" d="M166.116,149a21.032,21.032,0,0,1-4.7,7.644,18.81,18.81,0,0,1-5.3,4.479,13.135,13.135,0,0,1-3.258,1.152c-1.306.255-2.689.371-3.57-1.067-.126-.2-.5-.258-.712-.36a4.7,4.7,0,0,1,.828-3.885A18.643,18.643,0,0,1,159.868,149,14,14,0,0,1,166.116,149Z" transform="translate(-124.061 -147.167)" fill="#8aaf29"/>
      <path id="Path_17153" data-name="Path 17153" d="M139.528,172.437c-8.985-2.518-11.654-11.188-8.908-18.384.807.721,1.571,1.373,2.3,2.06a26.335,26.335,0,0,1,5.85,7.3,15.032,15.032,0,0,1,1.292,7.3A6.921,6.921,0,0,1,139.528,172.437Z" transform="translate(-121.403 -147.93)" fill="#8aaf29"/>
      <path id="Path_17154" data-name="Path 17154" d="M132.846,188c-8.58-3.1-12.42-9.908-10.82-17.958C128.645,173.3,134.4,182.033,132.846,188Z" transform="translate(-120.286 -150.185)" fill="#8aaf29"/>
    </g>
    <g id="Group_11070" data-name="Group 11070" transform="translate(6.895 6.867)">
      <path id="Path_17155" data-name="Path 17155" d="M128.086,180.338c2.147,3.221,4.51,6.3,6.586,9.521" transform="translate(-128.086 -158.505)" fill="none" stroke="#2d4578" stroke-width="0.25"/>
      <path id="Path_17156" data-name="Path 17156" d="M134.836,163.671c1.861,3.938,5.3,6.729,6.3,11.024" transform="translate(-129.038 -156.154)" fill="none" stroke="#2d4578" stroke-width="0.25"/>
      <path id="Path_17157" data-name="Path 17157" d="M153.639,181.42c-2.792.143-5.512,1.217-8.232,1.861-2,.429-3.793,1.432-5.655,1.861" transform="translate(-129.731 -158.657)" fill="none" stroke="#2d4578" stroke-width="0.25"/>
      <path id="Path_17158" data-name="Path 17158" d="M157.76,154.92c-2.5.788-4.581,3.006-6.228,5.011a24.487,24.487,0,0,0-3.364,4.366" transform="translate(-130.918 -154.92)" fill="none" stroke="#2d4578" stroke-width="0.25"/>
    </g>
  </g>
  <g id="Group_11077" data-name="Group 11077" transform="translate(120.342)">
    <g id="Group_11072" data-name="Group 11072" transform="translate(0 0)">
      <path id="Path_17159" data-name="Path 17159" d="M164,120.212c-1.407,0-2.561-.047-3.709.009-4.934.241-9.876.4-14.8.806-5.768.482-11.57.637-17.279,1.836-2.626.551-5.356.616-8.036.917-1.222.137-2.439.315-3.646.472a3.591,3.591,0,0,1-.515-2.783c.959-8.012.664-16.056.618-24.091-.026-4.342-.12-8.689-.387-13.023-.284-4.6-.809-9.18-1.232-13.769-.218-2.361-.465-4.721-.661-7.085-.136-1.635.269-2.257,1.933-2.644a32.673,32.673,0,0,1,4.862-.806c2.954-.225,5.923-.259,8.88-.433,5.52-.324,11.038-.694,16.557-1.038,2.892-.18,5.785-.325,8.675-.529,1.049-.075,2.087-.282,3.132-.419,1.729-.227,1.739-.225,1.93,1.432.491,4.252,1.1,8.5,1.424,12.76.339,4.53.4,9.08.574,13.622.206,5.266.424,10.532.6,15.8.064,1.972.015,3.949.029,5.923.02,3.03.029,6.059.087,9.089.021,1.017-.215,2.117.813,2.912C164.056,119.331,163.958,119.893,164,120.212Zm-2.588-1.625c.087-1.615.263-3.049.224-4.479q-.216-8.093-.551-16.183c-.385-9.539-.138-19.1-1.136-28.617-.295-2.811-.648-5.617-1.033-8.417-.171-1.249-.588-1.614-1.591-1.562-3.074.16-6.149.312-9.22.537-2.36.172-4.709.5-7.069.668-3.67.259-7.342.448-11.014.647-3.151.17-6.307.253-9.45.5-1.536.119-3.05.512-4.5.766.625,6.939,1.415,13.6,1.775,20.294.357,6.629.382,13.281.37,19.923-.011,6.68-.25,13.36-.391,20.139,7.293-.855,14.452-1.809,21.636-2.5C146.714,119.6,153.993,119.155,161.409,118.587Z" transform="translate(-114.327 -57.527)" fill="#2d4578"/>
      <path id="Path_17160" data-name="Path 17160" d="M161.7,118.882c-7.415.568-14.694,1.009-21.947,1.709-7.184.694-14.342,1.648-21.636,2.5.141-6.779.38-13.458.391-20.139.012-6.642-.013-13.294-.37-19.923-.361-6.69-1.15-13.355-1.775-20.294,1.446-.254,2.961-.648,4.5-.766,3.144-.242,6.3-.326,9.45-.5,3.672-.2,7.344-.388,11.014-.647,2.36-.167,4.709-.5,7.069-.668,3.071-.225,6.146-.377,9.22-.537,1-.052,1.42.313,1.591,1.562.386,2.8.739,5.606,1.033,8.417,1,9.513.752,19.078,1.136,28.617q.327,8.089.551,16.183C161.958,115.833,161.782,117.267,161.7,118.882Z" transform="translate(-114.613 -57.822)" fill="#fff"/>
    </g>
    <g id="Group_11076" data-name="Group 11076" transform="translate(10.308 5.154)">
      <g id="Group_11073" data-name="Group 11073">
        <path id="Path_17161" data-name="Path 17161" d="M172.288,126.221c-4.934.241-9.876.4-14.8.806-5.768.482-11.57.637-17.279,1.836-2.626.551-5.356.616-8.036.917-1.222.137-2.439.315-3.646.472a3.591,3.591,0,0,1-.515-2.783c.959-8.012.664-16.056.618-24.091-.026-4.342-.12-8.689-.387-13.023-.284-4.6-.809-9.18-1.232-13.769-.218-2.361-.465-4.721-.661-7.085-.136-1.635.269-2.257,1.933-2.644a32.673,32.673,0,0,1,4.862-.806c2.954-.225,5.923-.259,8.88-.433,5.52-.324,11.038-.694,16.557-1.038,2.892-.18,5.785-.325,8.675-.529,1.049-.075,2.087-.282,3.132-.419,1.729-.227,1.739-.225,1.93,1.432.491,4.252,1.1,8.5,1.424,12.76.339,4.53.4,9.08.574,13.622.206,5.266.424,10.532.6,15.8.064,1.972.015,3.949.029,5.923.02,3.03.029,6.059.087,9.089.021,1.017.91,3.813-2.744,3.966m1.121-1.635c.087-1.615.263-3.049.224-4.479q-.216-8.093-.551-16.183c-.385-9.539-.138-19.1-1.136-28.617-.295-2.811-.648-5.617-1.033-8.417-.171-1.249-.587-1.614-1.591-1.562-3.074.16-6.149.312-9.22.537-2.36.172-4.709.5-7.069.668-3.669.259-7.342.448-11.014.647-3.151.17-6.307.253-9.45.5-1.536.119-3.05.512-4.5.766.625,6.939,1.415,13.6,1.775,20.294.357,6.629.382,13.281.37,19.923-.011,6.68-.25,13.36-.391,20.139,7.293-.855,14.452-1.809,21.636-2.5C158.714,125.6,165.993,125.155,173.409,124.587Z" transform="translate(-126.327 -63.527)" fill="#2d4578"/>
        <path id="Path_17162" data-name="Path 17162" d="M173.7,124.882c-7.415.568-14.694,1.009-21.947,1.709-7.184.694-14.342,1.648-21.636,2.5.141-6.779.38-13.458.391-20.139.012-6.642-.013-13.294-.37-19.923-.361-6.69-1.15-13.355-1.775-20.294,1.447-.254,2.961-.648,4.5-.766,3.144-.242,6.3-.326,9.45-.5,3.672-.2,7.344-.388,11.014-.647,2.36-.167,4.709-.5,7.069-.668,3.071-.225,6.146-.377,9.22-.537,1-.052,1.42.313,1.591,1.562.386,2.8.739,5.606,1.033,8.417,1,9.513.752,19.078,1.136,28.617q.327,8.089.551,16.183C173.958,121.833,173.782,123.267,173.7,124.882Z" transform="translate(-126.613 -63.822)" fill="#fff"/>
      </g>
      <g id="Group_11075" data-name="Group 11075" transform="translate(9.102 11.076)">
        <path id="Path_17163" data-name="Path 17163" d="M162.421,112.1c-.072,1.718.215,4.08.286,5.8.143,1.861.143,3.651.215,5.512.071.573-.215,3.579.215,4.08.5.716,3.078-.143,3.865-.286,1.789-.215,3.865.071,5.655-.358,1-.215.931,0,1.074-1.217.072-1.36-.071-2.719,0-4.08.072-2.577.215-5.082.215-7.659,0-1.861.429-2.22-1.574-2.22-3.365,0-6.657.429-9.949.429" transform="translate(-140.517 -81.393)" fill="#8aaf29"/>
        <g id="Group_11074" data-name="Group 11074">
          <path id="Path_17164" data-name="Path 17164" d="M136.923,79.285c5.511-1.789,11.739-1.789,17.465-2.5,4.366-.5,8.518-.215,12.813-.358" transform="translate(-136.923 -76.422)" fill="none" stroke="#2d4578" stroke-width="0.25"/>
          <path id="Path_17165" data-name="Path 17165" d="M138.089,86.248c9.878-.358,19.614-2.076,29.492-2.076" transform="translate(-137.087 -77.515)" fill="none" stroke="#2d4578" stroke-width="0.25"/>
          <path id="Path_17166" data-name="Path 17166" d="M138.339,94.381a145.252,145.252,0,0,1,29.42-2.792" transform="translate(-137.123 -78.561)" fill="none" stroke="#2d4578" stroke-width="0.25"/>
          <path id="Path_17167" data-name="Path 17167" d="M139.339,101.279c6.3.429,12.527-2.147,18.826-2.362,3.722-.071,7.445,0,11.167,0" transform="translate(-137.264 -79.59)" fill="none" stroke="#2d4578" stroke-width="0.25"/>
          <path id="Path_17168" data-name="Path 17168" d="M139.506,108.26c6.514-1.074,13.385-1,19.971-1.432,3.365-.215,6.728-.358,10.093-.573" transform="translate(-137.287 -80.629)" fill="none" stroke="#2d4578" stroke-width="0.25"/>
          <path id="Path_17169" data-name="Path 17169" d="M139.673,115.8c5.01-.429,10.164,0,15.1-.716" transform="translate(-137.311 -81.875)" fill="none" stroke="#2d4578" stroke-width="0.25"/>
          <path id="Path_17170" data-name="Path 17170" d="M139.506,122.053c5.225,0,10.451,0,15.6-.215" transform="translate(-137.287 -82.827)" fill="none" stroke="#2d4578" stroke-width="0.25"/>
          <path id="Path_17171" data-name="Path 17171" d="M140.506,129.577c5.225-.143,10.522-.572,15.747-.572" transform="translate(-137.428 -83.838)" fill="none" stroke="#2d4578" stroke-width="0.25"/>
        </g>
      </g>
    </g>
  </g>
  <g id="Group_11082" data-name="Group 11082" transform="translate(76.617 73.945)">
    <g id="Group_11080" data-name="Group 11080">
      <path id="Path_17175" data-name="Path 17175" d="M215.721,121.215c-.111.729-.2,1.463-.339,2.188a47.874,47.874,0,0,0-1.261,11.6c.112,2.031-.049,4.075.74,6.029a1.272,1.272,0,0,1-.177,1.134c-1.434,1.353-1.79,3.231-2.557,4.914-1.008,2.22-2.129,4.389-3.177,6.592-.9,1.89-1.695,3.832-2.661,5.686-1.182,2.273-2.518,4.463-3.744,6.712-2.4,4.4-4.738,8.822-7.166,13.2-.81,1.463-1.785,2.839-2.732,4.221a4.7,4.7,0,0,1-3.292,1.782,13.268,13.268,0,0,1-9.448-1.328,6.826,6.826,0,0,1-3.375-5.762,12.742,12.742,0,0,1,2.165-8.447c1.008-1.544,1.756-3.258,2.664-4.871,1.856-3.3,3.8-6.547,5.6-9.878,1.185-2.2,2.155-4.524,3.255-6.776q2.676-5.493,5.4-10.96c.8-1.613,1.656-3.2,2.521-4.785a2.124,2.124,0,0,1,.8-.823,91.723,91.723,0,0,0,13.324-8.291c.594-.465,1.091-1.052,1.675-1.532a14.747,14.747,0,0,1,1.363-.9Zm-16.5,12.655c-1.038,1.726-2.1,3.263-2.931,4.918-2.115,4.218-4.112,8.494-6.18,12.736a61.355,61.355,0,0,1-3.922,7.6c-1.389,2.07-2.489,4.334-3.668,6.427a15.557,15.557,0,0,0,6.439,5.473,32.8,32.8,0,0,0,7.924,2.771c2-3.752,3.93-7.4,5.891-11.039.828-1.536,1.766-3.015,2.566-4.565.746-1.447,1.363-2.959,2.062-4.431,1.867-3.927,3.747-7.848,5.673-11.88-1.24-.78-2.289-1.5-3.393-2.129C206.249,137.794,202.793,135.872,199.225,133.87Zm-19.213,36.669c-1.895,3.757-2,4.284-1.814,7.086.2,3.042,1.411,4.634,4.574,5.638a11.706,11.706,0,0,0,6.715.137,4.418,4.418,0,0,0,2.161-1.324,34.628,34.628,0,0,0,2.362-3.733A22.5,22.5,0,0,1,180.012,170.539Zm20.7-37.83,11.892,6.543V129.2l-3.272-1.86C206.509,129.1,203.764,130.81,200.712,132.709ZM195.648,175.7c-2.677-1.073-5.216-2.066-7.735-3.106a15.408,15.408,0,0,1-6.212-5.08c-.763.743-.882,1.337-.285,1.99.431.472.8,1.013,1.267,1.434a20.2,20.2,0,0,0,6.266,4.071,46.036,46.036,0,0,0,5.022,1.446C194.6,176.613,195.394,176.765,195.648,175.7Z" transform="translate(-176.468 -120.921)" fill="#2d4578"/>
      <path id="Path_17176" data-name="Path 17176" d="M200.22,136c3.567,2,7.024,3.924,10.46,5.88,1.1.628,2.153,1.349,3.393,2.129-1.926,4.032-3.806,7.953-5.673,11.88-.7,1.471-1.315,2.984-2.062,4.431-.8,1.55-1.738,3.029-2.566,4.565-1.961,3.635-3.891,7.287-5.891,11.039a32.8,32.8,0,0,1-7.924-2.771,15.557,15.557,0,0,1-6.439-5.473c1.178-2.092,2.279-4.357,3.668-6.427a61.361,61.361,0,0,0,3.922-7.6c2.068-4.242,4.065-8.518,6.18-12.736C198.119,139.259,199.182,137.722,200.22,136Z" transform="translate(-177.462 -123.047)" fill="#fec725"/>
      <path id="Path_17177" data-name="Path 17177" d="M180.285,178.686a22.5,22.5,0,0,0,14,7.8,34.624,34.624,0,0,1-2.362,3.733,4.418,4.418,0,0,1-2.161,1.324,11.706,11.706,0,0,1-6.715-.137c-3.163-1-4.372-2.6-4.574-5.638C178.285,182.97,178.391,182.443,180.285,178.686Z" transform="translate(-176.741 -129.068)" fill="#fff"/>
      <path id="Path_17178" data-name="Path 17178" d="M204.693,133.763c3.052-1.9,5.8-3.611,8.62-5.369l3.272,1.86v10.052Z" transform="translate(-180.448 -121.975)" fill="#fff"/>
      <path id="Path_17179" data-name="Path 17179" d="M196.4,183.352c-.253,1.063-1.044.911-1.678.754a46.043,46.043,0,0,1-5.022-1.446,20.2,20.2,0,0,1-6.266-4.071,19.123,19.123,0,0,1-1.267-1.434c-.6-.653-.478-1.247.285-1.99a15.407,15.407,0,0,0,6.212,5.08C191.182,181.286,193.722,182.279,196.4,183.352Z" transform="translate(-177.218 -128.571)" fill="#fff"/>
    </g>
    <g id="Group_11081" data-name="Group 11081" transform="translate(8.759 15.1)">
      <path id="Path_17180" data-name="Path 17180" d="M205.276,138.5c-3.006,5.3-6.3,10.451-9.019,16.034-3.006,5.869-5.583,12.6-9.592,17.752" transform="translate(-186.665 -138.5)" fill="none" stroke="#2d4578" stroke-width="0.25"/>
      <path id="Path_17181" data-name="Path 17181" d="M211.513,142c-.429,3.006-3.006,6.3-4.437,8.876-2,3.865-4.152,7.588-6.3,11.167-2.577,4.295-5.726,8.732-7.444,13.457" transform="translate(-187.605 -138.994)" fill="none" stroke="#2d4578" stroke-width="0.25"/>
    </g>
  </g>
  <g id="Group_11085" data-name="Group 11085" transform="translate(149.902 148.67)">
    <g id="Group_11083" data-name="Group 11083" transform="translate(0 0)">
      <path id="Path_17182" data-name="Path 17182" d="M225.38,186.777c-1.522.1-1.912-.415-1.562-1.816.973-3.9,1.893-7.817,2.862-11.721,1.277-5.146,2.687-10.262,3.841-15.435,1.115-5,1.978-10.056,2.955-15.087.8-4.12,1.64-8.231,2.394-12.361.6-3.264,1.12-6.544,1.618-9.826.63-4.149,1.2-8.308,1.806-12.46.143-.971.921-1.259,1.607-.566a6.555,6.555,0,0,1,.93,1.464c1.687,3.062,3.382,6.122,5.04,9.2.966,1.8,1.849,3.634,2.81,5.433,1.537,2.875,3.1,5.733,4.662,8.6,1.391,2.559,2.822,5.1,4.166,7.679,2.774,5.324,5.48,10.684,8.256,16.007,2.369,4.547,4.793,9.066,7.208,13.591.326.615.789,1.16,1.1,1.784.46.931.023,1.648-1.005,1.889-2.55.6-5.1,1.185-7.635,1.844-3.827.995-7.64,2.042-11.455,3.079a23.918,23.918,0,0,0-2.5.777c-5.113,2.013-10.487,3.152-15.735,4.714q-4.931,1.466-9.869,2.919C226.371,186.629,225.843,186.689,225.38,186.777Zm.281-1.734,47.461-13.695c-5.314-10.278-10.4-20.556-15.9-30.605s-10.542-20.382-16.637-30.549C237.266,135.632,231.856,160.251,225.661,185.043Z" transform="translate(-223.699 -107.125)" fill="#2d4578"/>
      <path id="Path_17183" data-name="Path 17183" d="M225.983,185.547c6.195-24.792,11.606-49.411,14.927-74.849,6.1,10.168,11.133,20.489,16.637,30.549s10.582,20.327,15.9,30.605Zm12.5-12.629c.99-.255,1.533-.352,2.046-.537.818-.3,1.593-.735,2.424-.973,3.745-1.067,7.5-2.087,11.256-3.12,1.4-.386,2.823-.7,4.2-1.157,1.7-.57,1.766-.787,1.122-2.382-.238-.594-.525-1.167-.792-1.75-1.355-2.963-2.758-5.9-4.051-8.892-1.708-3.945-3.3-7.939-5-11.891-.664-1.55-1.5-3.024-2.2-4.556-.454-.988-.813-2.02-1.2-2.989-2.08.372-2.147.386-2.427,2.3-.557,3.8-1.116,7.6-1.567,11.419-.811,6.873-1.922,13.7-3.143,20.5C238.93,170.08,238.749,171.27,238.478,172.917Z" transform="translate(-224.021 -107.629)" fill="#fff"/>
      <path id="Path_17184" data-name="Path 17184" d="M240.53,176.853c.271-1.647.452-2.837.663-4.018,1.221-6.809,2.332-13.631,3.143-20.5.451-3.815,1.01-7.617,1.567-11.419.281-1.919.347-1.933,2.427-2.3.386.969.745,2,1.2,2.989.705,1.532,1.54,3.006,2.2,4.556,1.7,3.951,3.291,7.945,5,11.891,1.293,2.989,2.7,5.929,4.051,8.892.267.582.554,1.156.792,1.75.644,1.6.577,1.812-1.122,2.382-1.374.46-2.8.771-4.2,1.157-3.753,1.032-7.511,2.053-11.256,3.12-.831.238-1.606.675-2.424.973C242.063,176.5,241.52,176.6,240.53,176.853Zm7.178-35.911-.464.014c-1.593,11.232-3.182,22.462-4.756,33.577l17.526-4.924C255.878,159.974,251.794,150.458,247.708,140.943Z" transform="translate(-226.072 -111.565)" fill="#2d4578"/>
    </g>
    <g id="Group_11084" data-name="Group 11084" transform="translate(19.154 12.921)">
      <path id="Path_17185" data-name="Path 17185" d="M246,123.6c1.288-.429,2.291-1,3.579-1.431" transform="translate(-245.998 -122.167)" fill="none" stroke="#2d4578" stroke-width="0.25"/>
      <path id="Path_17186" data-name="Path 17186" d="M249.165,130.432A30.746,30.746,0,0,1,253.03,129" transform="translate(-246.445 -123.131)" fill="none" stroke="#2d4578" stroke-width="0.25"/>
      <path id="Path_17187" data-name="Path 17187" d="M252.5,137.932a29.657,29.657,0,0,1,4.724-1.432" transform="translate(-246.915 -124.188)" fill="none" stroke="#2d4578" stroke-width="0.25"/>
      <path id="Path_17188" data-name="Path 17188" d="M256.332,145.074c1.431-.716,3.149-.859,4.581-1.574" transform="translate(-247.455 -125.176)" fill="none" stroke="#2d4578" stroke-width="0.25"/>
      <path id="Path_17189" data-name="Path 17189" d="M259.165,152.361c1.861-.716,3.436-1.288,5.3-1.861" transform="translate(-247.855 -126.163)" fill="none" stroke="#2d4578" stroke-width="0.25"/>
      <path id="Path_17190" data-name="Path 17190" d="M263.332,158.479c1.718-.287,3.436-.716,5.154-1.146" transform="translate(-248.443 -127.127)" fill="none" stroke="#2d4578" stroke-width="0.25"/>
      <path id="Path_17191" data-name="Path 17191" d="M265.5,165.052a29.037,29.037,0,0,0,5.727-1.719" transform="translate(-248.748 -127.973)" fill="none" stroke="#2d4578" stroke-width="0.25"/>
      <path id="Path_17192" data-name="Path 17192" d="M269.165,171.861c2-.143,3.579-1.288,5.44-1.861" transform="translate(-249.265 -128.913)" fill="none" stroke="#2d4578" stroke-width="0.25"/>
      <path id="Path_17193" data-name="Path 17193" d="M272,178.552c2.434-.143,4.295-1,6.442-1.718" transform="translate(-249.665 -129.877)" fill="none" stroke="#2d4578" stroke-width="0.25"/>
      <path id="Path_17194" data-name="Path 17194" d="M248.832,126.645a7.107,7.107,0,0,1,2.863-1.145" transform="translate(-246.398 -122.637)" fill="none" stroke="#2d4578" stroke-width="0.25"/>
      <path id="Path_17195" data-name="Path 17195" d="M253,133.549a13.523,13.523,0,0,0,2.577-.716" transform="translate(-246.985 -123.671)" fill="none" stroke="#2d4578" stroke-width="0.25"/>
      <path id="Path_17196" data-name="Path 17196" d="M256.665,140.883c1-.286,2-.429,2.863-.715" transform="translate(-247.502 -124.706)" fill="none" stroke="#2d4578" stroke-width="0.25"/>
      <path id="Path_17197" data-name="Path 17197" d="M259.332,147.906a10.4,10.4,0,0,0,3.578-.573" transform="translate(-247.879 -125.716)" fill="none" stroke="#2d4578" stroke-width="0.25"/>
      <path id="Path_17198" data-name="Path 17198" d="M263.832,154.526a16.8,16.8,0,0,0,2.863-.859" transform="translate(-248.513 -126.61)" fill="none" stroke="#2d4578" stroke-width="0.25"/>
      <path id="Path_17199" data-name="Path 17199" d="M267,161.049c1-.143,1.861-.573,2.72-.716" transform="translate(-248.96 -127.55)" fill="none" stroke="#2d4578" stroke-width="0.25"/>
      <path id="Path_17200" data-name="Path 17200" d="M270.165,167.859a12.884,12.884,0,0,0,3.15-.859" transform="translate(-249.406 -128.49)" fill="none" stroke="#2d4578" stroke-width="0.25"/>
      <path id="Path_17201" data-name="Path 17201" d="M273.832,174.836a7.626,7.626,0,0,1,2.863-1" transform="translate(-249.924 -129.454)" fill="none" stroke="#2d4578" stroke-width="0.25"/>
    </g>
  </g>
  <g id="Group_11088" data-name="Group 11088" transform="translate(205.324 13.482)">
    <g id="Group_11086" data-name="Group 11086" transform="translate(0 0)">
      <path id="Path_17202" data-name="Path 17202" d="M273.516,43.265a9.453,9.453,0,0,1-1.874-.716c-.453-.3-1.025-.809-1.063-1.266a15.652,15.652,0,0,1,.082-4.153,3.019,3.019,0,0,1,3-2.471,83.539,83.539,0,0,1,13.1-.155c1.8.123,3.61.192,5.388.466,2.711.417,3.54,1.451,3.656,4.226.032.758.023,1.519,0,2.277-.034,1.289-.31,1.625-1.565,1.9-.4.086-.813.088-1.215.156-.341.057-.678.155-1.1.254,0,1.049-.032,2.08.005,3.11.2,5.637.489,11.272.607,16.912.093,4.364.058,8.732-.07,13.095-.09,3.082-.331,6.167-.688,9.23a6.171,6.171,0,0,1-4.216,5.5c-2.452.892-4.892,1.488-7.5.776a5.394,5.394,0,0,1-2.719-1.763c-2.339-2.66-2.792-5.922-3.273-9.234-.6-4.119-.409-8.26-.567-12.391-.169-4.368-.227-8.743-.235-13.115-.007-2.972.168-5.944.24-8.918C273.539,45.76,273.516,44.539,273.516,43.265Zm1.507.061c-.123,1.89-.292,3.511-.321,5.133-.062,3.5-.038,6.995-.08,10.492-.019,1.568-.2,3.136-.153,4.7.1,3.312.4,6.62.433,9.931a73.708,73.708,0,0,0,.954,10.257,10.772,10.772,0,0,0,2.612,5.627,3.978,3.978,0,0,0,2.348,1.381,11.131,11.131,0,0,0,7.819-1.7,3.421,3.421,0,0,0,1.1-1.319c1.015-1.837,1.051-3.919,1.225-5.923.232-2.663.243-5.346.292-8.022.082-4.6.158-9.2.158-13.8,0-2.618-.094-5.24-.257-7.853-.176-2.836-.482-5.665-.74-8.606C285.26,42.73,280.219,43.491,275.022,43.326Zm7.95-7.474c0-.093,0-.187,0-.282-2.79.1-5.583.168-8.37.316-2.016.107-2.7.857-2.762,2.817-.082,2.591.32,3.048,2.884,3.251.4.033.813.028,1.221.033,2.033.021,4.072-.017,6.1.072,2.9.129,5.795.317,8.688.539,2.947.227,4.049-.946,3.456-3.778a8.075,8.075,0,0,1-.215-.843,1.606,1.606,0,0,0-1.477-1.484,24.9,24.9,0,0,0-3.6-.613C286.93,35.778,284.95,35.852,282.972,35.852Z" transform="translate(-270.48 -34.317)" fill="#2d4578"/>
      <path id="Path_17203" data-name="Path 17203" d="M275.676,44.781c5.2.165,10.238-.6,15.389.3.258,2.941.564,5.77.74,8.606.162,2.613.259,5.235.257,7.853,0,4.6-.076,9.2-.158,13.8-.049,2.676-.06,5.359-.292,8.022-.174,2-.21,4.086-1.225,5.923a3.421,3.421,0,0,1-1.1,1.319,11.131,11.131,0,0,1-7.819,1.7,3.978,3.978,0,0,1-2.348-1.381,10.772,10.772,0,0,1-2.612-5.627,73.713,73.713,0,0,1-.954-10.257c-.037-3.31-.334-6.618-.433-9.931-.047-1.563.134-3.132.153-4.7.042-3.5.018-7,.08-10.492C275.384,48.292,275.553,46.671,275.676,44.781Z" transform="translate(-271.134 -35.772)" fill="#fff"/>
      <path id="Path_17204" data-name="Path 17204" d="M278.377,49.766c3.687.135,7.263-.49,10.919.247.184,2.411.4,4.731.525,7.057.116,2.142.183,4.291.182,6.439,0,3.77-.053,7.541-.111,11.311-.035,2.195-.044,4.4-.209,6.579a13.325,13.325,0,0,1-.869,4.857,2.741,2.741,0,0,1-.779,1.082,7.062,7.062,0,0,1-5.549,1.394,2.772,2.772,0,0,1-1.665-1.132,9.484,9.484,0,0,1-1.853-4.614,69.5,69.5,0,0,1-.678-8.41c-.027-2.715-.237-5.428-.307-8.143-.034-1.282.1-2.568.108-3.853.03-2.869.014-5.737.058-8.6C278.17,52.645,278.291,51.316,278.377,49.766Z" transform="translate(-271.538 -36.479)" fill="#23b6d0"/>
      <path id="Path_17205" data-name="Path 17205" d="M283.194,36.058c1.978,0,3.958-.074,5.929.028a24.9,24.9,0,0,1,3.6.613,1.606,1.606,0,0,1,1.477,1.484,8.082,8.082,0,0,0,.215.843c.594,2.832-.509,4-3.456,3.778-2.893-.222-5.789-.411-8.688-.539-2.03-.089-4.068-.052-6.1-.072-.408,0-.817,0-1.221-.033-2.565-.2-2.966-.66-2.884-3.251.063-1.959.746-2.709,2.762-2.817,2.786-.148,5.58-.214,8.37-.316C283.192,35.87,283.194,35.965,283.194,36.058Z" transform="translate(-270.702 -34.523)" fill="#fff"/>
    </g>
    <g id="Group_11087" data-name="Group 11087" transform="translate(16.479 14.617)">
      <path id="Path_17206" data-name="Path 17206" d="M289.665,51.334h4.009" transform="translate(-289.665 -51.334)" fill="none" stroke="#2d4578" stroke-width="0.25"/>
      <path id="Path_17207" data-name="Path 17207" d="M289.665,58.5a23.045,23.045,0,0,0,4.438.143" transform="translate(-289.665 -52.345)" fill="none" stroke="#2d4578" stroke-width="0.25"/>
      <path id="Path_17208" data-name="Path 17208" d="M290,67a21.583,21.583,0,0,0,4.295.143" transform="translate(-289.712 -53.544)" fill="none" stroke="#2d4578" stroke-width="0.25"/>
      <path id="Path_17209" data-name="Path 17209" d="M290.5,74.667a33.55,33.55,0,0,0,3.722.143" transform="translate(-289.783 -54.625)" fill="none" stroke="#2d4578" stroke-width="0.25"/>
      <path id="Path_17210" data-name="Path 17210" d="M292.5,71.167a10.81,10.81,0,0,0,2.147.143" transform="translate(-290.065 -54.131)" fill="none" stroke="#2d4578" stroke-width="0.25"/>
      <path id="Path_17211" data-name="Path 17211" d="M292.332,62.644a4.6,4.6,0,0,0,2-.143" transform="translate(-290.041 -52.909)" fill="none" stroke="#2d4578" stroke-width="0.25"/>
      <path id="Path_17212" data-name="Path 17212" d="M291.832,55.334h2.433" transform="translate(-289.971 -51.898)" fill="none" stroke="#2d4578" stroke-width="0.25"/>
    </g>
  </g>
  <g id="Group_11096" data-name="Group 11096" transform="translate(210.58 157.213)">
    <g id="Group_11089" data-name="Group 11089" transform="translate(0 0)">
      <path id="Path_17213" data-name="Path 17213" d="M346.806,72.4c1.29-.6,2.434-1.172,3.613-1.667a21.251,21.251,0,0,1,9.06-1.553c2.677.091,5.35.21,8.021.381a21.1,21.1,0,0,1,7.011,2.087c2.029.88,4.006,1.878,6.018,2.8a18.118,18.118,0,0,1,4.6,3.126,2.683,2.683,0,0,1,.907,2.782c-.82,4.6-1.59,9.2-2.362,13.8-.993,5.924-1.958,11.853-2.961,17.776-.643,3.787-1.331,7.568-2.008,11.35a8.925,8.925,0,0,1-.342,1.174,1.17,1.17,0,0,1-1.475.858c-3.694-.5-7.414-.856-11.093-1.446-5.066-.812-10.1-1.874-15.166-2.668-4.715-.738-9.462-1.265-14.2-1.887-.52-.068-1.04-.147-1.556-.241-4.291-.787-8.578-1.61-12.876-2.357-2.353-.408-4.731-.657-7.086-1.038-3.74-.6-7.468-1.263-11.2-1.886-2.2-.367-2.354-.574-1.908-2.707.609-2.908,1.3-5.8,1.808-8.725q1.272-7.309,2.342-14.656c.563-3.8,1.037-7.621,1.488-11.438q.585-4.949,1.008-9.916A1.83,1.83,0,0,1,310,64.454a25.953,25.953,0,0,1,7.111-1.66A41.234,41.234,0,0,1,330.6,64.231c2.391.724,4.793,1.412,7.19,2.118a2.649,2.649,0,0,1,.661.22C341.3,68.346,344.558,69.532,346.806,72.4Zm37.819,6.842a33.192,33.192,0,0,0-3.971-2.869c-2.73-1.431-5.562-2.671-8.38-3.93a19.231,19.231,0,0,0-7.689-1.412c-.931-.013-1.871.083-2.793-.007A20.751,20.751,0,0,0,348.2,73.879a2.475,2.475,0,0,0-1.339,1.833c-.345,2.238-.743,4.47-.995,6.719-.344,3.062-.492,6.147-.866,9.2-.521,4.279-1.166,8.542-1.772,12.811-.481,3.4-.679,6.848-1.7,10.159a2.181,2.181,0,0,0,.018.635c.963-.6,1.767-1.172,2.629-1.633,2.994-1.607,6.326-1.84,9.6-2.267a25.557,25.557,0,0,1,8.335.706,22.253,22.253,0,0,1,13.128,7.4c.607.721,1.27,1.4,2.147,2.358C379.836,107.413,382.215,93.418,384.624,79.239Zm-80.732,29.92c.376-.237.695-.476,1.044-.652A29.2,29.2,0,0,1,310.1,106a24.294,24.294,0,0,1,18.9,2.251,35.12,35.12,0,0,1,9.422,7.959c.248.29.539.543,1,1,.574-2.423,1.243-4.6,1.58-6.819.7-4.606,1.234-9.236,1.817-13.859.334-2.656.636-5.314.935-7.975.09-.809.076-1.631.181-2.439.478-3.64.914-7.288,1.507-10.911a3.257,3.257,0,0,0-1.3-3.347,28.111,28.111,0,0,0-2.409-1.731A30.016,30.016,0,0,0,335.6,67.24a47.169,47.169,0,0,0-17.48-2.834,16.613,16.613,0,0,0-8.2,2.253C308.491,80.9,306.659,95.038,303.893,109.16Zm71.988,14.346a8.265,8.265,0,0,0-.52-1.276,20.059,20.059,0,0,0-7.412-6.49,25.806,25.806,0,0,0-8.892-2.443,28.253,28.253,0,0,0-13.4,1.588,7.32,7.32,0,0,0-3.83,3.307c.8.179,1.463.366,2.141.47,1.785.273,3.584.461,5.362.77,5.971,1.033,11.923,2.163,17.9,3.135C369.971,123.012,372.758,123.176,375.88,123.505Zm-38.992-5.784.252-.476a35.228,35.228,0,0,0-6.34-5.9,23.788,23.788,0,0,0-12.69-4.4c-4.193-.226-8.115.413-11.654,2.808a10.369,10.369,0,0,0-2.394,2.391Z" transform="translate(-301.599 -62.755)" fill="#2d4578"/>
      <path id="Path_17214" data-name="Path 17214" d="M391.177,80.574c-2.409,14.179-4.788,28.173-7.233,42.564-.878-.959-1.54-1.637-2.147-2.358a22.253,22.253,0,0,0-13.128-7.4,25.557,25.557,0,0,0-8.335-.706c-3.279.427-6.611.66-9.605,2.267-.862.461-1.666,1.03-2.629,1.633a2.183,2.183,0,0,1-.018-.635c1.018-3.311,1.216-6.759,1.7-10.159.606-4.269,1.251-8.532,1.772-12.811.374-3.057.521-6.142.866-9.2.252-2.249.649-4.481.995-6.719a2.475,2.475,0,0,1,1.339-1.833,20.751,20.751,0,0,1,13.592-2.858c.922.09,1.862-.006,2.793.007a19.231,19.231,0,0,1,7.689,1.412c2.818,1.258,5.65,2.5,8.38,3.93A33.19,33.19,0,0,1,391.177,80.574Z" transform="translate(-308.152 -64.089)" fill="#fff"/>
      <path id="Path_17215" data-name="Path 17215" d="M304.269,109.428c2.767-14.121,4.6-28.263,6.023-42.5a16.613,16.613,0,0,1,8.2-2.253,47.169,47.169,0,0,1,17.48,2.834,30.017,30.017,0,0,1,6.133,2.895,28.109,28.109,0,0,1,2.409,1.731,3.257,3.257,0,0,1,1.3,3.347c-.593,3.623-1.029,7.271-1.507,10.911-.106.807-.091,1.629-.181,2.439-.3,2.66-.6,5.319-.935,7.975-.582,4.623-1.116,9.254-1.817,13.859-.338,2.224-1.007,4.4-1.58,6.819-.458-.459-.748-.711-1-1a35.12,35.12,0,0,0-9.422-7.959,24.294,24.294,0,0,0-18.9-2.251,29.2,29.2,0,0,0-5.162,2.5C304.964,108.952,304.645,109.191,304.269,109.428Z" transform="translate(-301.976 -63.023)" fill="#fff"/>
      <path id="Path_17216" data-name="Path 17216" d="M382.485,131.768c-3.122-.33-5.909-.494-8.65-.94-5.979-.972-11.932-2.1-17.9-3.135-1.778-.308-3.577-.5-5.362-.77-.678-.1-1.341-.291-2.141-.47a7.32,7.32,0,0,1,3.83-3.307,28.253,28.253,0,0,1,13.4-1.588A25.806,25.806,0,0,1,374.553,124a20.059,20.059,0,0,1,7.412,6.49A8.262,8.262,0,0,1,382.485,131.768Z" transform="translate(-308.204 -71.017)" fill="#cbd3dc"/>
      <path id="Path_17217" data-name="Path 17217" d="M337.292,124.97l-32.827-5.578A10.369,10.369,0,0,1,306.859,117c3.54-2.395,7.462-3.034,11.654-2.808a23.788,23.788,0,0,1,12.69,4.4,35.226,35.226,0,0,1,6.34,5.9Z" transform="translate(-302.004 -70.003)" fill="#cbd3dc"/>
    </g>
    <g id="Group_11095" data-name="Group 11095" transform="translate(7.93 7.892)">
      <g id="Group_11091" data-name="Group 11091">
        <path id="Path_17218" data-name="Path 17218" d="M316.681,72.279c0,3.15-1.145,6.586-.859,9.592.143,1.861-.43,1.288,1.575,1.861a18.414,18.414,0,0,0,4.008.143c3.436.286,4.152.429,4.152-3.579,0-2.577.143-5.01.286-7.587a30.217,30.217,0,0,0-8.876-.716" transform="translate(-311.529 -71.943)" fill="#fec725"/>
        <g id="Group_11090" data-name="Group 11090" transform="translate(0 2.77)">
          <path id="Path_17219" data-name="Path 17219" d="M331.164,75.167c5.011,0,10.165.429,14.316,3.293" transform="translate(-313.699 -75.167)" fill="none" stroke="#2d4578" stroke-width="0.25"/>
          <path id="Path_17220" data-name="Path 17220" d="M330.664,80.667a66.6,66.6,0,0,1,14.173,2.29" transform="translate(-313.628 -75.943)" fill="none" stroke="#2d4578" stroke-width="0.25"/>
          <path id="Path_17221" data-name="Path 17221" d="M330.164,86.167a108.318,108.318,0,0,1,13.6,2.577" transform="translate(-313.558 -76.718)" fill="none" stroke="#2d4578" stroke-width="0.25"/>
          <path id="Path_17222" data-name="Path 17222" d="M312.5,92c8.59,0,20.9-.429,28.346,4.724" transform="translate(-311.066 -77.54)" fill="none" stroke="#2d4578" stroke-width="0.25"/>
          <path id="Path_17223" data-name="Path 17223" d="M312,98.033c7.731-2,21.045-.287,27.63,4.724" transform="translate(-310.996 -78.276)" fill="none" stroke="#2d4578" stroke-width="0.25"/>
          <path id="Path_17224" data-name="Path 17224" d="M310.831,103.5c5.727.715,11.167-.429,17.036.859,3.15.715,8.447,1.861,10.737,4.151" transform="translate(-310.831 -79.163)" fill="none" stroke="#2d4578" stroke-width="0.25"/>
          <path id="Path_17225" data-name="Path 17225" d="M311.164,108.985c9.592-.287,18.325-.287,26.485,5.583" transform="translate(-310.878 -79.923)" fill="none" stroke="#2d4578" stroke-width="0.25"/>
        </g>
      </g>
      <g id="Group_11094" data-name="Group 11094" transform="translate(36.506 5.476)">
        <g id="Group_11092" data-name="Group 11092" transform="translate(0 16.907)">
          <path id="Path_17226" data-name="Path 17226" d="M354.333,108.874c-.287,2-.859,3.722-1,5.583,3.292-.287,6.872-1.146,10.594-.716,3.006.287,5.727,1.861,8.447,2.864a28.466,28.466,0,0,0,1.574-5.727c-3.006-.859-6.728-2.433-9.735-2.72-3.293-.286-5.852.553-9.878.716" transform="translate(-353.331 -99.425)" fill="#8aaf29"/>
          <path id="Path_17227" data-name="Path 17227" d="M381.954,98c-.572,5.868-1.575,11.739-2.29,17.465,2.719.859,5.154,1.433,7.444,3.006,1.718-2.719,1.861-7.586,2.577-10.737a30.979,30.979,0,0,0,.859-8.16,81.506,81.506,0,0,0-8.16-1.431" transform="translate(-357.045 -98.001)" fill="#cbd3dc"/>
        </g>
        <g id="Group_11093" data-name="Group 11093" transform="translate(2.576)">
          <path id="Path_17228" data-name="Path 17228" d="M359,79.619c9.305-2.433,20.329-1.574,28.632,3.58" transform="translate(-356.706 -78.318)" fill="none" stroke="#2d4578" stroke-width="0.25"/>
          <path id="Path_17229" data-name="Path 17229" d="M358.5,85.09A93.277,93.277,0,0,1,372.67,84.8c4.868.574,9.163,2.147,13.6,3.723" transform="translate(-356.636 -79.207)" fill="none" stroke="#2d4578" stroke-width="0.25"/>
          <path id="Path_17230" data-name="Path 17230" d="M358.5,91.416a51.782,51.782,0,0,1,15.6.143c3.292.429,8.732,1.431,11.6,3.293" transform="translate(-356.636 -80.092)" fill="none" stroke="#2d4578" stroke-width="0.25"/>
          <path id="Path_17231" data-name="Path 17231" d="M357.164,97c6.3.143,12.455-.287,18.468,1.431" transform="translate(-356.448 -80.953)" fill="none" stroke="#2d4578" stroke-width="0.25"/>
          <path id="Path_17232" data-name="Path 17232" d="M356.33,102.619c6.013-.572,12.312-.572,17.609,2.434" transform="translate(-356.33 -81.703)" fill="none" stroke="#2d4578" stroke-width="0.25"/>
        </g>
      </g>
    </g>
  </g>
  <g id="Group_11108" data-name="Group 11108" transform="translate(159.398 78.149)">
    <g id="Group_11105" data-name="Group 11105" transform="translate(0 0)">
      <path id="Path_17249" data-name="Path 17249" d="M376.024,304.275c.6,1.888,1.221,3.61,1.7,5.369a155.681,155.681,0,0,0,6.689,18.557c1.928,4.662,3.907,9.3,5.892,13.938.408.955.978,1.838,1.42,2.779.454.971.228,1.51-.843,1.715a10.218,10.218,0,0,0-5.747,3.747,7.37,7.37,0,0,0-1.225,7.948c.558,1.419.141,2.077-1.416,2.25-4.822.539-9.637,1.123-14.463,1.605-3.4.341-6.81.532-10.214.813-2.763.226-5.52.533-8.286.716a44.752,44.752,0,0,1-8.268.17c-.816-2.043-1.663-4.09-2.453-6.159-1.52-3.975-3.04-7.951-4.5-11.948-1.172-3.209-2.267-6.447-3.374-9.679q-1.973-5.759-3.906-11.533c-.722-2.154-1.4-4.326-2.139-6.473a2.032,2.032,0,0,1,.111-1.544,10.541,10.541,0,0,1,2.555-3.426,19.045,19.045,0,0,1,5.108-4.033,13.1,13.1,0,0,1,5.34-1.507c4.35-.174,8.687-.671,13.031-1.021,4.494-.362,8.992-.676,13.483-1.069,3.3-.289,6.6-.673,9.9-1.018C374.908,304.421,375.394,304.352,376.024,304.275Zm-38.867,4.83c2.622,6.967,5.229,13.745,7.726,20.567s4.882,13.677,7.311,20.5c6.483-.822,12.856-1.389,19.134-2.494s12.661-1.408,18.936-2.483c-1.66-3.87-3.252-7.593-4.851-11.314-.35-.82-.746-1.621-1.081-2.445-1.538-3.8-3.105-7.594-4.573-11.423-.743-1.936-1.3-3.941-1.943-5.917-.2-.609-.384-1.223-.582-1.836q-.892-2.75-1.787-5.5c-.1-.315-.2-.632-.279-.9C362.5,306.946,349.929,308.018,337.158,309.105Zm-1.7.265a2.369,2.369,0,0,0-.551.06c-.327.112-.636.271-.953.413a19.891,19.891,0,0,0-6.409,5.226c-1.208,1.329-1.825,2.846-.723,4.589a2.725,2.725,0,0,1,.272.691c1.489,5.03,2.9,10.085,4.811,14.984,1.369,3.505,2.538,7.086,3.835,10.619q1.819,4.95,3.721,9.868c.725,1.887,1.514,3.749,2.355,5.818,1.735-4.906,5.053-8.148,9.086-10.723-1.593-4.73-3.107-9.389-4.734-14.006-1.678-4.763-3.46-9.489-5.215-14.224-.909-2.458-1.8-4.924-2.8-7.348C337.33,313.335,336.879,311.157,335.455,309.37Zm51.308,37.847c-.862,0-1.293-.037-1.718.006-1.572.158-3.146.314-4.712.522-5.1.679-10.205,1.382-15.309,2.074-1.032.138-2.068.243-3.1.382-2.845.39-5.691.777-8.532,1.2a4.2,4.2,0,0,0-1.245.455,20.422,20.422,0,0,0-7.516,7.024,4.493,4.493,0,0,0-.922,3.581c4.263.44,35.857-2.476,38.791-3.579C381.13,354.162,382.174,350.212,386.763,347.217Z" transform="translate(-324.786 -304.275)" fill="#2d4578"/>
      <path id="Path_17250" data-name="Path 17250" d="M339.189,309.366c12.771-1.087,25.341-2.159,38.013-3.239.082.264.176.581.279.9q.89,2.751,1.787,5.5c.2.612.386,1.227.582,1.836.639,1.977,1.2,3.981,1.943,5.917,1.468,3.828,3.035,7.62,4.573,11.423.334.824.73,1.624,1.081,2.445,1.6,3.721,3.191,7.444,4.851,11.314-6.275,1.075-12.655,1.378-18.936,2.483s-12.652,1.672-19.134,2.494c-2.429-6.826-4.815-13.685-7.311-20.5S341.811,316.333,339.189,309.366Z" transform="translate(-326.817 -304.536)" fill="#fff"/>
      <path id="Path_17251" data-name="Path 17251" d="M335.695,310.207c1.424,1.787,1.874,3.964,2.7,5.966.995,2.425,1.891,4.89,2.8,7.348,1.755,4.735,3.537,9.461,5.215,14.224,1.627,4.617,3.14,9.276,4.734,14.006-4.033,2.575-7.351,5.817-9.086,10.723-.842-2.069-1.63-3.931-2.355-5.818q-1.9-4.921-3.721-9.868c-1.3-3.532-2.466-7.113-3.835-10.619-1.914-4.9-3.322-9.954-4.811-14.984a2.725,2.725,0,0,0-.272-.691c-1.1-1.744-.484-3.261.723-4.589a19.89,19.89,0,0,1,6.409-5.226c.317-.142.625-.3.953-.413A2.367,2.367,0,0,1,335.695,310.207Z" transform="translate(-325.025 -305.112)" fill="#cbd3dc"/>
      <path id="Path_17252" data-name="Path 17252" d="M389.856,354.266c-4.589,2.994-5.633,6.945-4.261,11.663-2.934,1.1-34.528,4.019-38.791,3.579a4.493,4.493,0,0,1,.922-3.581,20.422,20.422,0,0,1,7.516-7.024,4.2,4.2,0,0,1,1.245-.455c2.841-.421,5.687-.808,8.532-1.2,1.031-.139,2.068-.244,3.1-.382,5.1-.691,10.2-1.395,15.309-2.074,1.567-.208,3.14-.364,4.712-.522C388.563,354.229,388.994,354.266,389.856,354.266Z" transform="translate(-327.879 -311.323)" fill="#fff"/>
    </g>
    <path id="Path_17253" data-name="Path 17253" d="M350.382,317.875a33.5,33.5,0,0,1,3.132,7.365c1.075,3.509.306,4.321,4.226,3.56,6.839-1.587,13.743-1.877,20.4-2.9.32-2.85-1.459-6.544-2.445-9.188-.35-1.312.1-1.572-1.154-2.222-2.09-.99-7.027,0-9.189.149-5.053.549-10.026,2.108-15.072,2.512" transform="translate(-328.382 -305.654)" fill="#cbd3dc"/>
    <g id="Group_11106" data-name="Group 11106" transform="translate(34.253 33.551)">
      <path id="Path_17254" data-name="Path 17254" d="M364.663,346.341a125.262,125.262,0,0,1,19.47-3.006" transform="translate(-364.663 -343.335)" fill="none" stroke="#2d4578" stroke-width="0.25"/>
      <path id="Path_17255" data-name="Path 17255" d="M368.163,348.959c3.292.143,6.442-1.574,9.735-1.861a31.689,31.689,0,0,0,5.3-.43" transform="translate(-365.157 -343.805)" fill="none" stroke="#2d4578" stroke-width="0.25"/>
    </g>
    <g id="Group_11107" data-name="Group 11107" transform="translate(25.091 46.15)">
      <path id="Path_17256" data-name="Path 17256" d="M360.83,360.149c7.731.859,16.033-1.718,23.764-2.147" transform="translate(-354.96 -358.002)" fill="none" stroke="#2d4578" stroke-width="0.15"/>
      <path id="Path_17257" data-name="Path 17257" d="M356,363.839a213.9,213.9,0,0,0,28.633-2" transform="translate(-354.278 -358.543)" fill="none" stroke="#2d4578" stroke-width="0.15"/>
      <path id="Path_17258" data-name="Path 17258" d="M354,367.792c5.3.143,10.595-.716,15.891-1a89.315,89.315,0,0,0,10.594-1.288" transform="translate(-353.996 -359.06)" fill="none" stroke="#2d4578" stroke-width="0.15"/>
    </g>
  </g>
  <g id="Group_11111" data-name="Group 11111" transform="translate(238.102 75.96)">
    <g id="Group_11109" data-name="Group 11109">
      <path id="Path_17259" data-name="Path 17259" d="M395.6,248.67c.85-.217,1.763-.49,2.693-.679a2.6,2.6,0,0,1,3.355,1.8c.632,1.946,1.088,3.95,1.635,5.924.213.773.47,1.535.723,2.355-.285.935-1.128,1.2-1.995,1.456-4,1.2-8.011,2.395-12,3.642-5.619,1.76-11.2,3.633-16.839,5.336-5.7,1.722-11.456,3.277-17.174,4.945-2.565.749-5.093,1.61-7.648,2.391-.963.295-1.951.507-3.2.825-1.107-3.964-1.642-7.745-2.514-11.424,1.067-1.548,2.926-1.5,4.149-2.287-.271-2.544-.709-4.973-.735-7.405a41.711,41.711,0,0,1,.607-7.141c.67-4.095,3.411-6.952,6.275-9.65A30.261,30.261,0,0,1,365,231.991a31.313,31.313,0,0,1,6.563-1.629,21.383,21.383,0,0,1,17.167,5.753,19.713,19.713,0,0,1,4.169,6.3C393.82,244.386,394.632,246.416,395.6,248.67Zm-48.819,25.684c18.343-5.307,36.55-10.674,54.569-16.734.139-2.887-1.109-5.28-1.958-7.868-.614.1-1.149.177-1.676.293-.6.13-1.195.326-1.8.443a2.171,2.171,0,0,1-2.622-1.41c-.178-.442-.211-.94-.375-1.388-1.564-4.281-3.374-8.377-7.174-11.269a18.473,18.473,0,0,0-15.706-3.55,57.262,57.262,0,0,0-7.843,2.43,25.54,25.54,0,0,0-10.776,7.994,12.159,12.159,0,0,0-2.9,5.814,28.429,28.429,0,0,0,.287,12.626c.475,1.666.22,2.131-1.436,2.8-.872.35-1.773.624-2.843,1C345.278,268.471,346,271.3,346.781,274.354Z" transform="translate(-342.639 -230.261)" fill="#2d4578"/>
      <path id="Path_17260" data-name="Path 17260" d="M347.091,274.706c-.78-3.054-1.5-5.883-2.255-8.828,1.07-.372,1.971-.647,2.843-1,1.656-.664,1.911-1.129,1.436-2.8a28.428,28.428,0,0,1-.287-12.626,12.159,12.159,0,0,1,2.9-5.814,25.54,25.54,0,0,1,10.776-7.994,57.264,57.264,0,0,1,7.843-2.43,18.473,18.473,0,0,1,15.706,3.55c3.8,2.892,5.61,6.988,7.174,11.269.164.448.2.947.375,1.388a2.171,2.171,0,0,0,2.622,1.41c.606-.118,1.2-.314,1.8-.443.527-.116,1.062-.188,1.676-.293.849,2.588,2.1,4.981,1.958,7.868C383.641,264.032,365.434,269.4,347.091,274.706Zm39.838-20.784c0-.7.016-.971,0-1.24a3.882,3.882,0,0,0-.123-.81,18.6,18.6,0,0,0-5.925-9.4,10.282,10.282,0,0,0-7-2.473,23.586,23.586,0,0,0-12.128,3.416c-3.822,2.39-6.149,5.914-6.087,10.53a30.175,30.175,0,0,0,1.188,6.643c.364,1.49,1.166,1.808,2.656,1.368q4.233-1.251,8.451-2.547c3.726-1.151,7.428-2.377,11.17-3.477C381.678,255.186,384.276,254.6,386.929,253.922Z" transform="translate(-342.949 -230.613)" fill="#fec725"/>
      <path id="Path_17261" data-name="Path 17261" d="M388.706,255.112c-2.652.679-5.251,1.264-7.8,2.012-3.742,1.1-7.444,2.326-11.17,3.477q-4.216,1.3-8.451,2.547c-1.489.44-2.292.122-2.656-1.368a30.173,30.173,0,0,1-1.188-6.643c-.062-4.616,2.265-8.14,6.087-10.53a23.586,23.586,0,0,1,12.128-3.416,10.282,10.282,0,0,1,7,2.473,18.6,18.6,0,0,1,5.925,9.4,3.882,3.882,0,0,1,.123.81C388.723,254.141,388.708,254.412,388.706,255.112Zm-2.418-1.616c-.62-3.225-2.419-5.55-4.607-7.7a7.986,7.986,0,0,0-6.147-2.364,22.68,22.68,0,0,0-9.912,2.35c-5.463,2.922-7.982,8.94-4.946,15.615Z" transform="translate(-344.726 -231.802)" fill="#2d4578"/>
    </g>
    <g id="Group_11110" data-name="Group 11110" transform="translate(8.755 25.974)">
      <path id="Path_17262" data-name="Path 17262" d="M352.831,274.5c.143,1.718,1,3.149,1.145,4.724" transform="translate(-352.831 -262.475)" fill="none" stroke="#2d4578" stroke-width="0.25"/>
      <path id="Path_17263" data-name="Path 17263" d="M368.331,270.5c.572,1.431,1.431,2.719,2,4.151" transform="translate(-355.017 -261.911)" fill="none" stroke="#2d4578" stroke-width="0.25"/>
      <path id="Path_17264" data-name="Path 17264" d="M385,265.835c.716,1.288,1.288,2.72,1.861,4.009" transform="translate(-357.367 -261.252)" fill="none" stroke="#2d4578" stroke-width="0.25"/>
      <path id="Path_17265" data-name="Path 17265" d="M401.5,260.5c.429,1.288,1,2.719,1.575,4.008" transform="translate(-359.694 -260.5)" fill="none" stroke="#2d4578" stroke-width="0.25"/>
      <path id="Path_17266" data-name="Path 17266" d="M360.831,274.668c.429,1,.716,2,1.145,2.864" transform="translate(-353.959 -262.498)" fill="none" stroke="#2d4578" stroke-width="0.25"/>
      <path id="Path_17267" data-name="Path 17267" d="M376.5,269.835a10.322,10.322,0,0,1,1.288,2.863" transform="translate(-356.169 -261.817)" fill="none" stroke="#2d4578" stroke-width="0.25"/>
      <path id="Path_17268" data-name="Path 17268" d="M392.664,264a22.854,22.854,0,0,1,1.718,3.865" transform="translate(-358.449 -260.994)" fill="none" stroke="#2d4578" stroke-width="0.25"/>
      <path id="Path_17269" data-name="Path 17269" d="M357,276.5a17.785,17.785,0,0,1,.644,2.255" transform="translate(-353.419 -262.757)" fill="none" stroke="#2d4578" stroke-width="0.25"/>
      <path id="Path_17270" data-name="Path 17270" d="M365.25,273.875a20.347,20.347,0,0,1,.966,2.255" transform="translate(-354.582 -262.386)" fill="none" stroke="#2d4578" stroke-width="0.25"/>
      <path id="Path_17271" data-name="Path 17271" d="M373.125,271.625a14.029,14.029,0,0,0,.859,2.255" transform="translate(-355.693 -262.069)" fill="none" stroke="#2d4578" stroke-width="0.25"/>
      <path id="Path_17272" data-name="Path 17272" d="M381.125,269.125l.966,2.577" transform="translate(-356.821 -261.716)" fill="none" stroke="#2d4578" stroke-width="0.25"/>
      <path id="Path_17273" data-name="Path 17273" d="M389.125,266.5a21.613,21.613,0,0,1,1.5,2.684" transform="translate(-357.95 -261.346)" fill="none" stroke="#2d4578" stroke-width="0.25"/>
      <path id="Path_17274" data-name="Path 17274" d="M397.5,263.625a9.1,9.1,0,0,1,1.288,2.47" transform="translate(-359.131 -260.941)" fill="none" stroke="#2d4578" stroke-width="0.25"/>
      <path id="Path_17275" data-name="Path 17275" d="M406.25,260.5a8.725,8.725,0,0,1,1.288,3.114" transform="translate(-360.365 -260.5)" fill="none" stroke="#2d4578" stroke-width="0.25"/>
    </g>
  </g>
</svg>
