<svg xmlns="http://www.w3.org/2000/svg" width="795.414" height="747.252" viewBox="0 0 795.414 747.252">
  <g id="Group_92" data-name="Group 92" transform="translate(-16.947 195.056) rotate(-16)" style="mix-blend-mode: color-dodge;isolation: isolate">
    <g id="Group_91" data-name="Group 91" transform="translate(3.263 2.959)">
      <g id="Group_18" data-name="Group 18" transform="translate(504.175 381.997)">
        <g id="Group_16" data-name="Group 16" transform="translate(0 0)" opacity="0.6">
          <line id="Line_7" data-name="Line 7" y1="240.058" x2="156.519" transform="translate(0.842 0.419)" fill="#42585c"/>
          <path id="Path_295" data-name="Path 295" d="M158.2.824,1.689,240.894,0,240.07,156.511,0Z" fill="#42585c"/>
        </g>
        <g id="Group_17" data-name="Group 17" transform="translate(0 0)" opacity="0.6">
          <line id="Line_8" data-name="Line 8" y1="240.058" x2="156.519" transform="translate(0.842 0.419)" fill="#42585c"/>
          <path id="Path_296" data-name="Path 296" d="M158.2.824,1.689,240.894,0,240.07,156.511,0Z" fill="#42585c"/>
        </g>
      </g>
      <g id="Group_21" data-name="Group 21" transform="translate(0 99.016)">
        <g id="Group_19" data-name="Group 19" transform="translate(0.657 0)" opacity="0.6">
          <line id="Line_9" data-name="Line 9" y1="115.576" x2="314.676" transform="translate(0.292 0.842)" fill="#42585c"/>
          <path id="Path_297" data-name="Path 297" d="M314.677,0l.579,1.686L.588,117.26,0,115.577Z" transform="translate(0 0)" fill="#42585c"/>
        </g>
        <g id="Group_20" data-name="Group 20" transform="translate(0 116.064)" opacity="0.6">
          <line id="Line_10" data-name="Line 10" x2="114.243" y2="312.27" transform="translate(0.948 0.354)" fill="#42585c"/>
          <path id="Path_298" data-name="Path 298" d="M1.895,0,116.13,312.272l-1.879.719L0,.724Z" transform="translate(0 0)" fill="#42585c"/>
        </g>
      </g>
      <g id="Group_27" data-name="Group 27" transform="translate(114.909 99.487)">
        <g id="Group_22" data-name="Group 22" transform="translate(318.385 315.536)" opacity="0.6">
          <line id="Line_11" data-name="Line 11" x2="70.767" y2="207.097" transform="translate(0.955 0.353)" fill="#42585c"/>
          <path id="Path_299" data-name="Path 299" d="M1.905,0,72.672,207.11l-1.9.687L0,.7Z" transform="translate(0 0)" fill="#42585c"/>
        </g>
        <g id="Group_23" data-name="Group 23" transform="translate(199.779 0)" opacity="0.6">
          <line id="Line_12" data-name="Line 12" x1="118.624" y1="315.517" transform="translate(0.937 0.372)" fill="#42585c"/>
          <path id="Path_300" data-name="Path 300" d="M1.885,0,120.5,315.517l-1.878.737L0,.742Z" transform="translate(0 0)" fill="#42585c"/>
        </g>
        <g id="Group_24" data-name="Group 24" transform="translate(319.281 282.024)" opacity="0.6">
          <line id="Line_13" data-name="Line 13" y1="32.96" x2="227.286" transform="translate(0.06 0.905)" fill="#42585c"/>
          <path id="Path_301" data-name="Path 301" d="M227.283,0l.12,1.794L.111,34.755,0,32.963Z" transform="translate(0 0)" fill="#42585c"/>
        </g>
        <g id="Group_25" data-name="Group 25" transform="translate(319.281 282.024)" opacity="0.6">
          <line id="Line_14" data-name="Line 14" y1="32.96" x2="227.286" transform="translate(0.06 0.905)" fill="#42585c"/>
          <path id="Path_302" data-name="Path 302" d="M227.283,0l.12,1.794L.111,34.755,0,32.963Z" transform="translate(0 0)" fill="#42585c"/>
        </g>
        <g id="Group_26" data-name="Group 26" transform="translate(0 315.033)" opacity="0.6">
          <line id="Line_15" data-name="Line 15" x1="319.058" y2="112.329" transform="translate(0.282 0.856)" fill="#42585c"/>
          <path id="Path_303" data-name="Path 303" d="M319.063,0l.559,1.7L.558,114.036,0,112.346Z" transform="translate(0 0)" fill="#42585c"/>
        </g>
      </g>
      <g id="Group_31" data-name="Group 31" transform="translate(0.72 98.758)">
        <g id="Group_28" data-name="Group 28" transform="translate(0 64.522)" opacity="0.6">
          <line id="Line_16" data-name="Line 16" x1="169.046" y2="51.296" transform="translate(0.229 0.859)" fill="#42585c"/>
          <path id="Path_304" data-name="Path 304" d="M169.045,0l.463,1.729L.459,53.016,0,51.295Z" transform="translate(0 0)" fill="#42585c"/>
        </g>
        <g id="Group_29" data-name="Group 29" transform="translate(169.041 0)" opacity="0.6">
          <line id="Line_17" data-name="Line 17" y1="64.281" x2="145.63" transform="translate(0.234 1.101)" fill="#42585c"/>
          <rect id="Rectangle_7" data-name="Rectangle 7" width="159.191" height="1.776" transform="translate(0 64.864) rotate(-24.046)" fill="#42585c"/>
        </g>
        <g id="Group_30" data-name="Group 30" transform="translate(113.485 65.35)" opacity="0.6">
          <line id="Line_18" data-name="Line 18" x1="54.804" y2="363.566" transform="translate(0.986 0.031)" fill="#42585c"/>
          <path id="Path_305" data-name="Path 305" d="M56.773.071,1.97,363.638,0,363.561,54.809,0Z" transform="translate(0 0)" fill="#42585c"/>
        </g>
      </g>
      <g id="Group_39" data-name="Group 39" transform="translate(114.944 99.751)">
        <g id="Group_32" data-name="Group 32" transform="translate(54.148 63.939)" opacity="0.6">
          <line id="Line_19" data-name="Line 19" x1="154.698" y1="297.006" transform="translate(0.903 0.449)" fill="#42585c"/>
          <path id="Path_306" data-name="Path 306" d="M156.5,297.011l-1.808.9L0,.908,1.8,0Z" transform="translate(0 0)" fill="#42585c"/>
        </g>
        <g id="Group_33" data-name="Group 33" transform="translate(209.409 314.801)" opacity="0.6">
          <line id="Line_20" data-name="Line 20" y1="45.769" x2="109.557" transform="translate(0.34 0.824)" fill="#42585c"/>
          <path id="Path_307" data-name="Path 307" d="M109.563,0l.675,1.645L.676,47.412,0,45.771Z" transform="translate(0 0)" fill="#42585c"/>
        </g>
        <g id="Group_34" data-name="Group 34" transform="translate(209.016 360.715)" opacity="0.6">
          <line id="Line_21" data-name="Line 21" x2="180.324" y2="161.328" transform="translate(0.732 0.679)" fill="#42585c"/>
          <path id="Path_308" data-name="Path 308" d="M181.788,161.331l-1.461,1.358L0,1.36,1.463,0Z" transform="translate(0 0)" fill="#42585c"/>
        </g>
        <g id="Group_35" data-name="Group 35" transform="translate(199.694 0)" opacity="0.6">
          <line id="Line_22" data-name="Line 22" x1="9.068" y1="361.286" transform="translate(0.987 0.108)" fill="#42585c"/>
          <path id="Path_309" data-name="Path 309" d="M1.981,0l9.062,361.286-1.982.213L0,.213Z" transform="translate(0 0)" fill="#42585c"/>
        </g>
        <g id="Group_36" data-name="Group 36" transform="translate(209.596 281.777)" opacity="0.6">
          <line id="Line_23" data-name="Line 23" y1="78.729" x2="336.843" transform="translate(0.153 0.887)" fill="#42585c"/>
          <path id="Path_310" data-name="Path 310" d="M336.839,0l.311,1.758L.309,80.5,0,78.743Z" transform="translate(0 0)" fill="#42585c"/>
        </g>
        <g id="Group_37" data-name="Group 37" transform="translate(209.596 281.777)" opacity="0.6">
          <line id="Line_24" data-name="Line 24" y1="78.729" x2="336.843" transform="translate(0.153 0.887)" fill="#42585c"/>
          <path id="Path_311" data-name="Path 311" d="M336.839,0l.311,1.758L.309,80.5,0,78.743Z" transform="translate(0 0)" fill="#42585c"/>
        </g>
        <g id="Group_38" data-name="Group 38" transform="translate(0 360.544)" opacity="0.6">
          <line id="Line_25" data-name="Line 25" x1="209.501" y2="66.56" transform="translate(0.247 0.85)" fill="#42585c"/>
          <path id="Path_312" data-name="Path 312" d="M209.508,0l.477,1.708L.487,68.275,0,66.555Z" transform="translate(0 0)" fill="#42585c"/>
        </g>
      </g>
      <g id="Group_46" data-name="Group 46" transform="translate(0.298 99.629)">
        <g id="Group_40" data-name="Group 40" transform="translate(213.306 264.473)" opacity="0.6">
          <line id="Line_26" data-name="Line 26" x2="110.368" y2="96.362" transform="translate(0.721 0.682)" fill="#42585c"/>
          <path id="Path_313" data-name="Path 313" d="M111.8,96.368l-1.436,1.365L0,1.36,1.433,0Z" transform="translate(0 0)" fill="#42585c"/>
        </g>
        <g id="Group_41" data-name="Group 41" transform="translate(168.72 64.25)" opacity="0.6">
          <line id="Line_27" data-name="Line 27" x1="44.33" y1="200.644" transform="translate(0.976 0.261)" fill="#42585c"/>
          <path id="Path_314" data-name="Path 314" d="M1.951,0l44.33,200.644-1.947.52L0,.524Z" transform="translate(0 0)" fill="#42585c"/>
        </g>
        <g id="Group_42" data-name="Group 42" transform="translate(213.694 264.272)" opacity="0.6">
          <line id="Line_28" data-name="Line 28" x2="219.924" y2="50.593" transform="translate(0.333 0.883)" fill="#42585c"/>
          <path id="Path_315" data-name="Path 315" d="M220.586,50.586l-.652,1.767L0,1.764.663,0Z" transform="translate(0 0)" fill="#42585c"/>
        </g>
        <g id="Group_43" data-name="Group 43" transform="translate(0 115.072)" opacity="0.6">
          <line id="Line_29" data-name="Line 29" x1="213.376" y1="149.349" transform="translate(0.65 0.734)" fill="#42585c"/>
          <path id="Path_316" data-name="Path 316" d="M214.673,149.337l-1.3,1.49L0,1.484,1.3,0Z" transform="translate(0 0)" fill="#42585c"/>
        </g>
        <g id="Group_44" data-name="Group 44" transform="translate(213.095 0)" opacity="0.6">
          <line id="Line_30" data-name="Line 30" y1="264.925" x2="101.3" transform="translate(0.932 0.23)" fill="#42585c"/>
          <path id="Path_317" data-name="Path 317" d="M103.164.454,1.858,265.379,0,264.927,101.3,0Z" transform="translate(0 0)" fill="#42585c"/>
        </g>
        <g id="Group_45" data-name="Group 45" transform="translate(114.041 264.768)" opacity="0.6">
          <line id="Line_31" data-name="Line 31" x1="99.134" y2="162.922" transform="translate(0.852 0.387)" fill="#42585c"/>
          <path id="Path_318" data-name="Path 318" d="M100.833.765,1.7,163.7,0,162.931,99.131,0Z" transform="translate(0 0)" fill="#42585c"/>
        </g>
      </g>
      <g id="Group_54" data-name="Group 54" transform="translate(214.165 99.123)">
        <g id="Group_47" data-name="Group 47" transform="translate(0 181.67)" opacity="0.6">
          <line id="Line_32" data-name="Line 32" x1="352.599" y2="83.103" transform="translate(0.16 0.887)" fill="#42585c"/>
          <path id="Path_319" data-name="Path 319" d="M352.6,0l.319,1.76L.317,84.862,0,83.112Z" transform="translate(0 0)" fill="#42585c"/>
        </g>
        <g id="Group_48" data-name="Group 48" transform="translate(109.945 181.863)" opacity="0.6">
          <line id="Line_33" data-name="Line 33" x1="242.231" y2="179.465" transform="translate(0.583 0.694)" fill="#42585c"/>
          <path id="Path_320" data-name="Path 320" d="M243.4,1.377,1.158,180.846,0,179.474,242.238,0Z" transform="translate(0 0)" fill="#42585c"/>
        </g>
        <g id="Group_49" data-name="Group 49" transform="translate(219.384 181.98)" opacity="0.6">
          <line id="Line_34" data-name="Line 34" x1="132.674" y2="133.696" transform="translate(0.701 0.577)" fill="#42585c"/>
          <path id="Path_321" data-name="Path 321" d="M134.086,1.152,1.4,134.849,0,133.692,132.668,0Z" transform="translate(0 0)" fill="#42585c"/>
        </g>
        <g id="Group_50" data-name="Group 50" transform="translate(289.881 182.489)" opacity="0.6">
          <line id="Line_35" data-name="Line 35" x1="61.907" y2="340.793" transform="translate(0.971 0.069)" fill="#42585c"/>
          <path id="Path_322" data-name="Path 322" d="M63.863.127,1.952,340.929,0,340.8,61.9,0Z" transform="translate(0 0)" fill="#42585c"/>
        </g>
        <g id="Group_51" data-name="Group 51" transform="translate(100.801 0)" opacity="0.6">
          <line id="Line_36" data-name="Line 36" x1="251.299" y1="181.822" transform="translate(0.659 0.736)" fill="#42585c"/>
          <path id="Path_323" data-name="Path 323" d="M252.62,181.819l-1.32,1.472L0,1.468,1.314,0Z" transform="translate(0 0)" fill="#42585c"/>
        </g>
        <g id="Group_52" data-name="Group 52" transform="translate(351.98 181.925)" opacity="0.6">
          <line id="Line_37" data-name="Line 37" x2="94.612" y2="100.736" transform="translate(0.779 0.632)" fill="#42585c"/>
          <path id="Path_324" data-name="Path 324" d="M96.172,100.725,94.6,101.99,0,1.262,1.557,0Z" transform="translate(0 0)" fill="#42585c"/>
        </g>
        <g id="Group_53" data-name="Group 53" transform="translate(351.98 181.925)" opacity="0.6">
          <line id="Line_38" data-name="Line 38" x2="94.612" y2="100.736" transform="translate(0.779 0.632)" fill="#42585c"/>
          <path id="Path_325" data-name="Path 325" d="M96.172,100.725,94.6,101.99,0,1.262,1.557,0Z" transform="translate(0 0)" fill="#42585c"/>
        </g>
      </g>
      <g id="Group_58" data-name="Group 58" transform="translate(169.503 0.151)">
        <g id="Group_55" data-name="Group 55" transform="translate(269.61 0.328)" opacity="0.6">
          <path id="Path_487" data-name="Path 487" d="M0,0,38.41,85,126.877,280.78" transform="translate(0.933 0.421)" fill="#42585c"/>
          <path id="Path_326" data-name="Path 326" d="M128.742,280.782l-1.857.831L0,.83,1.849,0Z" transform="translate(0 0)" fill="#42585c"/>
        </g>
        <g id="Group_56" data-name="Group 56" transform="translate(0 0)" opacity="0.6">
          <line id="Line_40" data-name="Line 40" x1="270.052" y2="163.238" transform="translate(0.491 0.75)" fill="#42585c"/>
          <path id="Path_327" data-name="Path 327" d="M271.021,1.5.986,164.742,0,163.24,270.044,0Z" fill="#42585c"/>
        </g>
        <g id="Group_57" data-name="Group 57" transform="translate(145.516 0.082)" opacity="0.6">
          <line id="Line_41" data-name="Line 41" x1="124.421" y2="98.958" transform="translate(0.605 0.668)" fill="#42585c"/>
          <path id="Path_328" data-name="Path 328" d="M125.638,1.327,1.215,100.291,0,98.963,124.416,0Z" transform="translate(0 0)" fill="#42585c"/>
        </g>
      </g>
      <g id="Group_64" data-name="Group 64" transform="translate(114.566 364.629)">
        <g id="Group_59" data-name="Group 59" transform="translate(98.763 0)" opacity="0.6">
          <line id="Line_42" data-name="Line 42" x1="20.298" y1="239.736" transform="translate(0.995 0.154)" fill="#42585c"/>
          <path id="Path_329" data-name="Path 329" d="M1.986,0,22.277,239.741l-1.985.305L0,.309Z" transform="translate(0 0)" fill="#42585c"/>
        </g>
        <g id="Group_60" data-name="Group 60" transform="translate(119.2 96.12)" opacity="0.6">
          <line id="Line_43" data-name="Line 43" y1="143.374" x2="90.07" transform="translate(0.857 0.396)" fill="#42585c"/>
          <path id="Path_330" data-name="Path 330" d="M91.776.79,1.7,144.173,0,143.382,90.073,0Z" transform="translate(0 0)" fill="#42585c"/>
        </g>
        <g id="Group_61" data-name="Group 61" transform="translate(119.368 50.139)" opacity="0.6">
          <line id="Line_44" data-name="Line 44" y1="189.143" x2="199.627" transform="translate(0.688 0.608)" fill="#42585c"/>
          <path id="Path_331" data-name="Path 331" d="M200.993,1.2,1.359,190.352,0,189.156,199.63,0Z" transform="translate(0 0)" fill="#42585c"/>
        </g>
        <g id="Group_62" data-name="Group 62" transform="translate(119.883 238.986)" opacity="0.6">
          <line id="Line_45" data-name="Line 45" x2="270.394" y2="17.954" transform="translate(0.173 0.904)" fill="#42585c"/>
          <path id="Path_332" data-name="Path 332" d="M270.732,17.953l-.322,1.824L0,1.814.327,0Z" transform="translate(0 0)" fill="#42585c"/>
        </g>
        <g id="Group_63" data-name="Group 63" transform="translate(0 162.318)" opacity="0.6">
          <line id="Line_46" data-name="Line 46" x1="119.431" y1="76.814" transform="translate(0.625 0.757)" fill="#42585c"/>
          <path id="Path_333" data-name="Path 333" d="M120.668,76.816l-1.24,1.513L0,1.518,1.243,0Z" transform="translate(0 0)" fill="#42585c"/>
        </g>
      </g>
      <g id="Group_70" data-name="Group 70" transform="translate(433.664 0.18)">
        <g id="Group_65" data-name="Group 65" transform="translate(5.689 0)" opacity="0.6">
          <line id="Line_47" data-name="Line 47" x1="268.687" y1="207.827" transform="translate(0.692 0.721)" fill="#42585c"/>
          <path id="Path_334" data-name="Path 334" d="M270.058,207.825l-1.369,1.447L0,1.431,1.366,0Z" transform="translate(0 0)" fill="#42585c"/>
        </g>
        <g id="Group_66" data-name="Group 66" transform="translate(132.844 207.766)" opacity="0.6">
          <line id="Line_48" data-name="Line 48" x1="141.81" y2="72.952" transform="translate(0.415 0.782)" fill="#42585c"/>
          <path id="Path_335" data-name="Path 335" d="M142.641,1.562.837,74.514,0,72.946,141.807,0Z" transform="translate(0 0)" fill="#42585c"/>
        </g>
        <g id="Group_67" data-name="Group 67" transform="translate(0 207.868)" opacity="0.6">
          <line id="Line_49" data-name="Line 49" x1="274.484" y2="206.648" transform="translate(0.585 0.681)" fill="#42585c"/>
          <path id="Path_336" data-name="Path 336" d="M275.656,1.355,1.17,208.008,0,206.643,274.489,0Z" transform="translate(0 0)" fill="#42585c"/>
        </g>
        <g id="Group_68" data-name="Group 68" transform="translate(226.907 208.405)" opacity="0.6">
          <line id="Line_50" data-name="Line 50" x1="47.198" y2="173.688" transform="translate(0.964 0.143)" fill="#42585c"/>
          <path id="Path_337" data-name="Path 337" d="M49.121.276,1.917,173.964,0,173.688,47.194,0Z" transform="translate(0 0)" fill="#42585c"/>
        </g>
        <g id="Group_69" data-name="Group 69" transform="translate(226.907 208.405)" opacity="0.6">
          <line id="Line_51" data-name="Line 51" x1="47.198" y2="173.688" transform="translate(0.964 0.143)" fill="#42585c"/>
          <path id="Path_338" data-name="Path 338" d="M49.121.276,1.917,173.964,0,173.688,47.194,0Z" transform="translate(0 0)" fill="#42585c"/>
        </g>
      </g>
      <g id="Group_76" data-name="Group 76" transform="translate(433.664 0.18)">
        <g id="Group_71" data-name="Group 71" transform="translate(5.689 0)" opacity="0.6">
          <line id="Line_52" data-name="Line 52" x1="268.687" y1="207.827" transform="translate(0.692 0.721)" fill="#42585c"/>
          <path id="Path_339" data-name="Path 339" d="M270.058,207.825l-1.369,1.447L0,1.431,1.366,0Z" transform="translate(0 0)" fill="#42585c"/>
        </g>
        <g id="Group_72" data-name="Group 72" transform="translate(132.844 207.766)" opacity="0.6">
          <line id="Line_53" data-name="Line 53" x1="141.81" y2="72.952" transform="translate(0.415 0.782)" fill="#42585c"/>
          <path id="Path_340" data-name="Path 340" d="M142.641,1.562.837,74.514,0,72.946,141.807,0Z" transform="translate(0 0)" fill="#42585c"/>
        </g>
        <g id="Group_73" data-name="Group 73" transform="translate(0 207.868)" opacity="0.6">
          <line id="Line_54" data-name="Line 54" x1="274.484" y2="206.648" transform="translate(0.585 0.681)" fill="#42585c"/>
          <path id="Path_341" data-name="Path 341" d="M275.656,1.355,1.17,208.008,0,206.643,274.489,0Z" transform="translate(0 0)" fill="#42585c"/>
        </g>
        <g id="Group_74" data-name="Group 74" transform="translate(226.907 208.405)" opacity="0.6">
          <line id="Line_55" data-name="Line 55" x1="47.198" y2="173.688" transform="translate(0.964 0.143)" fill="#42585c"/>
          <path id="Path_342" data-name="Path 342" d="M49.121.276,1.917,173.964,0,173.688,47.194,0Z" transform="translate(0 0)" fill="#42585c"/>
        </g>
        <g id="Group_75" data-name="Group 75" transform="translate(226.907 208.405)" opacity="0.6">
          <line id="Line_56" data-name="Line 56" x1="47.198" y2="173.688" transform="translate(0.964 0.143)" fill="#42585c"/>
          <path id="Path_343" data-name="Path 343" d="M49.121.276,1.917,173.964,0,173.688,47.194,0Z" transform="translate(0 0)" fill="#42585c"/>
        </g>
      </g>
      <g id="Group_84" data-name="Group 84" transform="translate(433.671 0.167)">
        <g id="Group_77" data-name="Group 77" transform="translate(274.963 207.632)" opacity="0.6">
          <line id="Line_57" data-name="Line 57" x1="5.888" y2="0.015" transform="translate(0.099 0.914)" fill="#42585c"/>
          <path id="Path_344" data-name="Path 344" d="M6.085,0,5.9,1.823,0,1.833.19.02Z" transform="translate(0 0)" fill="#42585c"/>
        </g>
        <g id="Group_78" data-name="Group 78" transform="translate(274.963 207.632)" opacity="0.6">
          <line id="Line_58" data-name="Line 58" x1="5.888" y2="0.015" transform="translate(0.099 0.914)" fill="#42585c"/>
          <path id="Path_345" data-name="Path 345" d="M6.085,0,5.9,1.823,0,1.833.19.02Z" transform="translate(0 0)" fill="#42585c"/>
        </g>
        <g id="Group_79" data-name="Group 79" transform="translate(5.695 0)" opacity="0.6">
          <line id="Line_59" data-name="Line 59" x1="274.575" y1="207.812" transform="translate(0.681 0.734)" fill="#42585c"/>
          <path id="Path_346" data-name="Path 346" d="M275.929,207.826l-1.347,1.445L0,1.456,1.357,0Z" transform="translate(0 0)" fill="#42585c"/>
        </g>
        <g id="Group_80" data-name="Group 80" transform="translate(132.85 207.757)" opacity="0.6">
          <line id="Line_60" data-name="Line 60" x1="147.698" y2="72.967" transform="translate(0.403 0.789)" fill="#42585c"/>
          <path id="Path_347" data-name="Path 347" d="M148.505,1.589.811,74.543,0,72.955,147.7,0Z" transform="translate(0 0)" fill="#42585c"/>
        </g>
        <g id="Group_81" data-name="Group 81" transform="translate(0 207.858)" opacity="0.6">
          <line id="Line_61" data-name="Line 61" x1="280.372" y2="206.663" transform="translate(0.578 0.689)" fill="#42585c"/>
          <path id="Path_348" data-name="Path 348" d="M281.535,1.378,1.157,208.035,0,206.657,280.373,0Z" transform="translate(0 0)" fill="#42585c"/>
        </g>
        <g id="Group_82" data-name="Group 82" transform="translate(226.912 208.38)" opacity="0.6">
          <line id="Line_62" data-name="Line 62" x1="53.086" y2="173.703" transform="translate(0.952 0.166)" fill="#42585c"/>
          <path id="Path_349" data-name="Path 349" d="M55,.334,1.906,174.028,0,173.7,53.086,0Z" transform="translate(0 0)" fill="#42585c"/>
        </g>
        <g id="Group_83" data-name="Group 83" transform="translate(226.912 208.38)" opacity="0.6">
          <line id="Line_63" data-name="Line 63" x1="53.086" y2="173.703" transform="translate(0.952 0.166)" fill="#42585c"/>
          <path id="Path_350" data-name="Path 350" d="M55,.334,1.906,174.028,0,173.7,53.086,0Z" transform="translate(0 0)" fill="#42585c"/>
        </g>
      </g>
      <g id="Group_90" data-name="Group 90" transform="translate(0.184 0)">
        <g id="Group_85" data-name="Group 85" transform="translate(141.632 0)" opacity="0.6">
          <line id="Line_64" data-name="Line 64" y1="46.107" x2="298.162" transform="translate(0.068 0.901)" fill="#42585c"/>
          <path id="Path_351" data-name="Path 351" d="M298.152,0l.145,1.793L.146,47.907,0,46.116Z" transform="translate(0 0)" fill="#42585c"/>
        </g>
        <g id="Group_86" data-name="Group 86" transform="translate(140.733 46.742)" opacity="0.6">
          <line id="Line_65" data-name="Line 65" x2="72.44" y2="317.775" transform="translate(0.967 0.266)" fill="#42585c"/>
          <path id="Path_352" data-name="Path 352" d="M1.947,0l72.43,317.773-1.943.531L0,.543Z" transform="translate(0 0)" fill="#42585c"/>
        </g>
        <g id="Group_87" data-name="Group 87" transform="translate(140.733 46.736)" opacity="0.6">
          <line id="Line_66" data-name="Line 66" x2="28.11" y2="117.131" transform="translate(0.967 0.272)" fill="#42585c"/>
          <path id="Path_353" data-name="Path 353" d="M1.943,0,30.053,117.128l-1.942.551L0,.554Z" transform="translate(0 0)" fill="#42585c"/>
        </g>
        <g id="Group_88" data-name="Group 88" transform="translate(0 46.5)" opacity="0.6">
          <line id="Line_67" data-name="Line 67" x1="140.936" y2="168.427" transform="translate(0.764 0.508)" fill="#42585c"/>
          <path id="Path_354" data-name="Path 354" d="M142.474,1.022,1.526,169.455,0,168.431,140.942,0Z" transform="translate(0 0)" fill="#42585c"/>
        </g>
        <g id="Group_89" data-name="Group 89" transform="translate(141.312 46.142)" opacity="0.6">
          <line id="Line_68" data-name="Line 68" x2="173.74" y2="52.851" transform="translate(0.388 0.866)" fill="#42585c"/>
          <path id="Path_355" data-name="Path 355" d="M174.522,52.85l-.78,1.732L0,1.738.786,0Z" transform="translate(0 0)" fill="#42585c"/>
        </g>
      </g>
    </g>
    <path id="Path_356" data-name="Path 356" d="M2.683.413A4.052,4.052,0,0,1,8.12,2.122,4.072,4.072,0,0,1,5.725,7.3,4.064,4.064,0,0,1,.288,5.585,4.038,4.038,0,0,1,2.683.413Z" transform="translate(660.591 381.516)" fill="#42585c"/>
    <path id="Path_357" data-name="Path 357" d="M2.684.412A4.054,4.054,0,0,1,8.125,2.123a4.052,4.052,0,0,1-2.4,5.17A4.039,4.039,0,0,1,.286,5.579,4.044,4.044,0,0,1,2.684.412Z" transform="translate(504.081 621.583)" fill="#42585c"/>
    <path id="Path_358" data-name="Path 358" d="M2.683.413A4.052,4.052,0,0,1,8.12,2.122,4.072,4.072,0,0,1,5.725,7.3,4.064,4.064,0,0,1,.288,5.585,4.038,4.038,0,0,1,2.683.413Z" transform="translate(660.591 381.516)" fill="#42585c"/>
    <path id="Path_359" data-name="Path 359" d="M2.684.412A4.054,4.054,0,0,1,8.125,2.123a4.052,4.052,0,0,1-2.4,5.17A4.039,4.039,0,0,1,.286,5.579,4.044,4.044,0,0,1,2.684.412Z" transform="translate(504.081 621.583)" fill="#42585c"/>
    <path id="Path_360" data-name="Path 360" d="M2.681.411A4.058,4.058,0,0,1,8.125,2.128,4.056,4.056,0,0,1,5.718,7.3,4.036,4.036,0,0,1,.289,5.584,4.042,4.042,0,0,1,2.681.411Z" transform="translate(314.683 98.966)" fill="#42585c"/>
    <path id="Path_361" data-name="Path 361" d="M2.692.413A4.04,4.04,0,0,1,8.121,2.121,4.05,4.05,0,0,1,5.722,7.3,4.04,4.04,0,0,1,.287,5.577,4.035,4.035,0,0,1,2.692.413Z" transform="translate(0 214.548)" fill="#42585c"/>
    <path id="Path_362" data-name="Path 362" d="M2.687.411A4.045,4.045,0,0,1,8.126,2.125,4.059,4.059,0,0,1,5.724,7.3,4.064,4.064,0,0,1,.285,5.594,4.056,4.056,0,0,1,2.687.411Z" transform="translate(114.237 526.813)" fill="#42585c"/>
    <path id="Path_363" data-name="Path 363" d="M2.692.413A4.04,4.04,0,0,1,8.121,2.121,4.05,4.05,0,0,1,5.722,7.3,4.04,4.04,0,0,1,.287,5.577,4.035,4.035,0,0,1,2.692.413Z" transform="translate(0 214.548)" fill="#42585c"/>
    <path id="Path_364" data-name="Path 364" d="M2.684.412A4.054,4.054,0,0,1,8.125,2.123a4.052,4.052,0,0,1-2.4,5.17A4.039,4.039,0,0,1,.286,5.579,4.044,4.044,0,0,1,2.684.412Z" transform="translate(504.081 621.583)" fill="#42585c"/>
    <path id="Path_365" data-name="Path 365" d="M2.69.413A4.028,4.028,0,0,1,8.116,2.129,4.047,4.047,0,0,1,5.727,7.3,4.05,4.05,0,0,1,.285,5.583,4.053,4.053,0,0,1,2.69.413Z" transform="translate(433.307 414.474)" fill="#42585c"/>
    <path id="Path_366" data-name="Path 366" d="M2.681.411A4.058,4.058,0,0,1,8.125,2.128,4.056,4.056,0,0,1,5.718,7.3,4.036,4.036,0,0,1,.289,5.584,4.042,4.042,0,0,1,2.681.411Z" transform="translate(314.683 98.966)" fill="#42585c"/>
    <path id="Path_367" data-name="Path 367" d="M2.69.413A4.028,4.028,0,0,1,8.116,2.129,4.047,4.047,0,0,1,5.727,7.3,4.05,4.05,0,0,1,.285,5.583,4.053,4.053,0,0,1,2.69.413Z" transform="translate(433.307 414.474)" fill="#42585c"/>
    <path id="Path_368" data-name="Path 368" d="M2.683.413A4.052,4.052,0,0,1,8.12,2.122,4.072,4.072,0,0,1,5.725,7.3,4.064,4.064,0,0,1,.288,5.585,4.038,4.038,0,0,1,2.683.413Z" transform="translate(660.591 381.516)" fill="#42585c"/>
    <path id="Path_369" data-name="Path 369" d="M2.69.413A4.028,4.028,0,0,1,8.116,2.129,4.047,4.047,0,0,1,5.727,7.3,4.05,4.05,0,0,1,.285,5.583,4.053,4.053,0,0,1,2.69.413Z" transform="translate(433.307 414.474)" fill="#42585c"/>
    <path id="Path_370" data-name="Path 370" d="M2.683.413A4.052,4.052,0,0,1,8.12,2.122,4.072,4.072,0,0,1,5.725,7.3,4.064,4.064,0,0,1,.288,5.585,4.038,4.038,0,0,1,2.683.413Z" transform="translate(660.591 381.516)" fill="#42585c"/>
    <path id="Path_371" data-name="Path 371" d="M2.69.413A4.028,4.028,0,0,1,8.116,2.129,4.047,4.047,0,0,1,5.727,7.3,4.05,4.05,0,0,1,.285,5.583,4.053,4.053,0,0,1,2.69.413Z" transform="translate(433.307 414.474)" fill="#42585c"/>
    <path id="Path_372" data-name="Path 372" d="M2.687.411A4.045,4.045,0,0,1,8.126,2.125,4.059,4.059,0,0,1,5.724,7.3,4.064,4.064,0,0,1,.285,5.594,4.056,4.056,0,0,1,2.687.411Z" transform="translate(114.237 526.813)" fill="#42585c"/>
    <path id="Path_373" data-name="Path 373" d="M2.69.413A4.028,4.028,0,0,1,8.116,2.129,4.047,4.047,0,0,1,5.727,7.3,4.05,4.05,0,0,1,.285,5.583,4.053,4.053,0,0,1,2.69.413Z" transform="translate(433.307 414.474)" fill="#42585c"/>
    <path id="Path_374" data-name="Path 374" d="M2.692.413A4.04,4.04,0,0,1,8.121,2.121,4.05,4.05,0,0,1,5.722,7.3,4.04,4.04,0,0,1,.287,5.577,4.035,4.035,0,0,1,2.692.413Z" transform="translate(0 214.548)" fill="#42585c"/>
    <path id="Path_375" data-name="Path 375" d="M2.676.41A4.05,4.05,0,0,1,8.113,2.116a4.046,4.046,0,0,1-2.4,5.175A4.033,4.033,0,0,1,.287,5.58,4.043,4.043,0,0,1,2.676.41Z" transform="translate(169.062 163.248)" fill="#42585c"/>
    <path id="Path_376" data-name="Path 376" d="M2.681.411A4.058,4.058,0,0,1,8.125,2.128,4.056,4.056,0,0,1,5.718,7.3,4.036,4.036,0,0,1,.289,5.584,4.042,4.042,0,0,1,2.681.411Z" transform="translate(314.683 98.966)" fill="#42585c"/>
    <path id="Path_377" data-name="Path 377" d="M2.676.41A4.05,4.05,0,0,1,8.113,2.116a4.046,4.046,0,0,1-2.4,5.175A4.033,4.033,0,0,1,.287,5.58,4.043,4.043,0,0,1,2.676.41Z" transform="translate(169.062 163.248)" fill="#42585c"/>
    <path id="Path_378" data-name="Path 378" d="M2.687.411A4.045,4.045,0,0,1,8.126,2.125,4.059,4.059,0,0,1,5.724,7.3,4.064,4.064,0,0,1,.285,5.594,4.056,4.056,0,0,1,2.687.411Z" transform="translate(114.237 526.813)" fill="#42585c"/>
    <path id="Path_379" data-name="Path 379" d="M2.676.41A4.05,4.05,0,0,1,8.113,2.116a4.046,4.046,0,0,1-2.4,5.175A4.033,4.033,0,0,1,.287,5.58,4.043,4.043,0,0,1,2.676.41Z" transform="translate(169.062 163.248)" fill="#42585c"/>
    <path id="Path_380" data-name="Path 380" d="M2.676.41A4.05,4.05,0,0,1,8.113,2.116a4.046,4.046,0,0,1-2.4,5.175A4.033,4.033,0,0,1,.287,5.58,4.043,4.043,0,0,1,2.676.41Z" transform="translate(169.062 163.248)" fill="#42585c"/>
    <path id="Path_381" data-name="Path 381" d="M2.688.41A4.045,4.045,0,0,1,8.12,2.134a4.048,4.048,0,0,1-2.4,5.17A4.049,4.049,0,0,1,.291,5.588,4.037,4.037,0,0,1,2.688.41Z" transform="translate(323.746 460.243)" fill="#42585c"/>
    <path id="Path_382" data-name="Path 382" d="M2.69.413A4.028,4.028,0,0,1,8.116,2.129,4.047,4.047,0,0,1,5.727,7.3,4.05,4.05,0,0,1,.285,5.583,4.053,4.053,0,0,1,2.69.413Z" transform="translate(433.307 414.474)" fill="#42585c"/>
    <path id="Path_383" data-name="Path 383" d="M2.688.41A4.045,4.045,0,0,1,8.12,2.134a4.048,4.048,0,0,1-2.4,5.17A4.049,4.049,0,0,1,.291,5.588,4.037,4.037,0,0,1,2.688.41Z" transform="translate(323.746 460.243)" fill="#42585c"/>
    <path id="Path_384" data-name="Path 384" d="M2.684.412A4.054,4.054,0,0,1,8.125,2.123a4.052,4.052,0,0,1-2.4,5.17A4.039,4.039,0,0,1,.286,5.579,4.044,4.044,0,0,1,2.684.412Z" transform="translate(504.081 621.583)" fill="#42585c"/>
    <path id="Path_385" data-name="Path 385" d="M2.688.41A4.045,4.045,0,0,1,8.12,2.134a4.048,4.048,0,0,1-2.4,5.17A4.049,4.049,0,0,1,.291,5.588,4.037,4.037,0,0,1,2.688.41Z" transform="translate(323.746 460.243)" fill="#42585c"/>
    <path id="Path_386" data-name="Path 386" d="M2.681.411A4.058,4.058,0,0,1,8.125,2.128,4.056,4.056,0,0,1,5.718,7.3,4.036,4.036,0,0,1,.289,5.584,4.042,4.042,0,0,1,2.681.411Z" transform="translate(314.683 98.966)" fill="#42585c"/>
    <path id="Path_387" data-name="Path 387" d="M2.688.41A4.045,4.045,0,0,1,8.12,2.134a4.048,4.048,0,0,1-2.4,5.17A4.049,4.049,0,0,1,.291,5.588,4.037,4.037,0,0,1,2.688.41Z" transform="translate(323.746 460.243)" fill="#42585c"/>
    <path id="Path_388" data-name="Path 388" d="M2.683.413A4.052,4.052,0,0,1,8.12,2.122,4.072,4.072,0,0,1,5.725,7.3,4.064,4.064,0,0,1,.288,5.585,4.038,4.038,0,0,1,2.683.413Z" transform="translate(660.591 381.516)" fill="#42585c"/>
    <path id="Path_389" data-name="Path 389" d="M2.688.41A4.045,4.045,0,0,1,8.12,2.134a4.048,4.048,0,0,1-2.4,5.17A4.049,4.049,0,0,1,.291,5.588,4.037,4.037,0,0,1,2.688.41Z" transform="translate(323.746 460.243)" fill="#42585c"/>
    <path id="Path_390" data-name="Path 390" d="M2.683.413A4.052,4.052,0,0,1,8.12,2.122,4.072,4.072,0,0,1,5.725,7.3,4.064,4.064,0,0,1,.288,5.585,4.038,4.038,0,0,1,2.683.413Z" transform="translate(660.591 381.516)" fill="#42585c"/>
    <path id="Path_391" data-name="Path 391" d="M2.688.41A4.045,4.045,0,0,1,8.12,2.134a4.048,4.048,0,0,1-2.4,5.17A4.049,4.049,0,0,1,.291,5.588,4.037,4.037,0,0,1,2.688.41Z" transform="translate(323.746 460.243)" fill="#42585c"/>
    <path id="Path_392" data-name="Path 392" d="M2.687.411A4.045,4.045,0,0,1,8.126,2.125,4.059,4.059,0,0,1,5.724,7.3,4.064,4.064,0,0,1,.285,5.594,4.056,4.056,0,0,1,2.687.411Z" transform="translate(114.237 526.813)" fill="#42585c"/>
    <path id="Path_393" data-name="Path 393" d="M2.688.41A4.045,4.045,0,0,1,8.12,2.134a4.048,4.048,0,0,1-2.4,5.17A4.049,4.049,0,0,1,.291,5.588,4.037,4.037,0,0,1,2.688.41Z" transform="translate(323.746 460.243)" fill="#42585c"/>
    <path id="Path_394" data-name="Path 394" d="M2.688.41A4.045,4.045,0,0,1,8.12,2.134a4.048,4.048,0,0,1-2.4,5.17A4.049,4.049,0,0,1,.291,5.588,4.037,4.037,0,0,1,2.688.41Z" transform="translate(323.746 460.243)" fill="#42585c"/>
    <path id="Path_395" data-name="Path 395" d="M2.68.417A4.036,4.036,0,0,1,8.122,2.129,4.055,4.055,0,0,1,5.719,7.3,4.041,4.041,0,0,1,.285,5.59,4.05,4.05,0,0,1,2.68.417Z" transform="translate(213.382 363.879)" fill="#42585c"/>
    <path id="Path_396" data-name="Path 396" d="M2.676.41A4.05,4.05,0,0,1,8.113,2.116a4.046,4.046,0,0,1-2.4,5.175A4.033,4.033,0,0,1,.287,5.58,4.043,4.043,0,0,1,2.676.41Z" transform="translate(169.062 163.248)" fill="#42585c"/>
    <path id="Path_397" data-name="Path 397" d="M2.68.417A4.036,4.036,0,0,1,8.122,2.129,4.055,4.055,0,0,1,5.719,7.3,4.041,4.041,0,0,1,.285,5.59,4.05,4.05,0,0,1,2.68.417Z" transform="translate(213.382 363.879)" fill="#42585c"/>
    <path id="Path_398" data-name="Path 398" d="M2.69.413A4.028,4.028,0,0,1,8.116,2.129,4.047,4.047,0,0,1,5.727,7.3,4.05,4.05,0,0,1,.285,5.583,4.053,4.053,0,0,1,2.69.413Z" transform="translate(433.307 414.474)" fill="#42585c"/>
    <path id="Path_399" data-name="Path 399" d="M2.68.417A4.036,4.036,0,0,1,8.122,2.129,4.055,4.055,0,0,1,5.719,7.3,4.041,4.041,0,0,1,.285,5.59,4.05,4.05,0,0,1,2.68.417Z" transform="translate(213.382 363.879)" fill="#42585c"/>
    <path id="Path_400" data-name="Path 400" d="M2.692.413A4.04,4.04,0,0,1,8.121,2.121,4.05,4.05,0,0,1,5.722,7.3,4.04,4.04,0,0,1,.287,5.577,4.035,4.035,0,0,1,2.692.413Z" transform="translate(0 214.548)" fill="#42585c"/>
    <path id="Path_401" data-name="Path 401" d="M2.68.417A4.036,4.036,0,0,1,8.122,2.129,4.055,4.055,0,0,1,5.719,7.3,4.041,4.041,0,0,1,.285,5.59,4.05,4.05,0,0,1,2.68.417Z" transform="translate(213.382 363.879)" fill="#42585c"/>
    <path id="Path_402" data-name="Path 402" d="M2.681.411A4.058,4.058,0,0,1,8.125,2.128,4.056,4.056,0,0,1,5.718,7.3,4.036,4.036,0,0,1,.289,5.584,4.042,4.042,0,0,1,2.681.411Z" transform="translate(314.683 98.966)" fill="#42585c"/>
    <path id="Path_403" data-name="Path 403" d="M2.68.417A4.036,4.036,0,0,1,8.122,2.129,4.055,4.055,0,0,1,5.719,7.3,4.041,4.041,0,0,1,.285,5.59,4.05,4.05,0,0,1,2.68.417Z" transform="translate(213.382 363.879)" fill="#42585c"/>
    <path id="Path_404" data-name="Path 404" d="M2.687.411A4.045,4.045,0,0,1,8.126,2.125,4.059,4.059,0,0,1,5.724,7.3,4.064,4.064,0,0,1,.285,5.594,4.056,4.056,0,0,1,2.687.411Z" transform="translate(114.237 526.813)" fill="#42585c"/>
    <path id="Path_405" data-name="Path 405" d="M2.68.417A4.036,4.036,0,0,1,8.122,2.129,4.055,4.055,0,0,1,5.719,7.3,4.041,4.041,0,0,1,.285,5.59,4.05,4.05,0,0,1,2.68.417Z" transform="translate(213.382 363.879)" fill="#42585c"/>
    <path id="Path_406" data-name="Path 406" d="M2.68.417A4.036,4.036,0,0,1,8.122,2.129,4.055,4.055,0,0,1,5.719,7.3,4.041,4.041,0,0,1,.285,5.59,4.05,4.05,0,0,1,2.68.417Z" transform="translate(213.382 363.879)" fill="#42585c"/>
    <path id="Path_407" data-name="Path 407" d="M2.676.414A4.047,4.047,0,0,1,8.123,2.12,4.059,4.059,0,0,1,5.716,7.3,4.05,4.05,0,0,1,.282,5.576,4.05,4.05,0,0,1,2.676.414Z" transform="translate(565.992 280.788)" fill="#42585c"/>
    <path id="Path_408" data-name="Path 408" d="M2.688.41A4.045,4.045,0,0,1,8.12,2.134a4.048,4.048,0,0,1-2.4,5.17A4.049,4.049,0,0,1,.291,5.588,4.037,4.037,0,0,1,2.688.41Z" transform="translate(323.746 460.243)" fill="#42585c"/>
    <path id="Path_409" data-name="Path 409" d="M2.676.414A4.047,4.047,0,0,1,8.123,2.12,4.059,4.059,0,0,1,5.716,7.3,4.05,4.05,0,0,1,.282,5.576,4.05,4.05,0,0,1,2.676.414Z" transform="translate(565.992 280.788)" fill="#42585c"/>
    <path id="Path_410" data-name="Path 410" d="M2.69.413A4.028,4.028,0,0,1,8.116,2.129,4.047,4.047,0,0,1,5.727,7.3,4.05,4.05,0,0,1,.285,5.583,4.053,4.053,0,0,1,2.69.413Z" transform="translate(433.307 414.474)" fill="#42585c"/>
    <path id="Path_411" data-name="Path 411" d="M2.676.414A4.047,4.047,0,0,1,8.123,2.12,4.059,4.059,0,0,1,5.716,7.3,4.05,4.05,0,0,1,.282,5.576,4.05,4.05,0,0,1,2.676.414Z" transform="translate(565.992 280.788)" fill="#42585c"/>
    <path id="Path_412" data-name="Path 412" d="M2.684.412A4.054,4.054,0,0,1,8.125,2.123a4.052,4.052,0,0,1-2.4,5.17A4.039,4.039,0,0,1,.286,5.579,4.044,4.044,0,0,1,2.684.412Z" transform="translate(504.081 621.583)" fill="#42585c"/>
    <path id="Path_413" data-name="Path 413" d="M2.676.414A4.047,4.047,0,0,1,8.123,2.12,4.059,4.059,0,0,1,5.716,7.3,4.05,4.05,0,0,1,.282,5.576,4.05,4.05,0,0,1,2.676.414Z" transform="translate(565.992 280.788)" fill="#42585c"/>
    <path id="Path_414" data-name="Path 414" d="M2.681.411A4.058,4.058,0,0,1,8.125,2.128,4.056,4.056,0,0,1,5.718,7.3,4.036,4.036,0,0,1,.289,5.584,4.042,4.042,0,0,1,2.681.411Z" transform="translate(314.683 98.966)" fill="#42585c"/>
    <path id="Path_415" data-name="Path 415" d="M2.676.414A4.047,4.047,0,0,1,8.123,2.12,4.059,4.059,0,0,1,5.716,7.3,4.05,4.05,0,0,1,.282,5.576,4.05,4.05,0,0,1,2.676.414Z" transform="translate(565.992 280.788)" fill="#42585c"/>
    <path id="Path_416" data-name="Path 416" d="M2.683.413A4.052,4.052,0,0,1,8.12,2.122,4.072,4.072,0,0,1,5.725,7.3,4.064,4.064,0,0,1,.288,5.585,4.038,4.038,0,0,1,2.683.413Z" transform="translate(660.591 381.516)" fill="#42585c"/>
    <path id="Path_417" data-name="Path 417" d="M2.676.414A4.047,4.047,0,0,1,8.123,2.12,4.059,4.059,0,0,1,5.716,7.3,4.05,4.05,0,0,1,.282,5.576,4.05,4.05,0,0,1,2.676.414Z" transform="translate(565.992 280.788)" fill="#42585c"/>
    <path id="Path_418" data-name="Path 418" d="M2.683.413A4.052,4.052,0,0,1,8.12,2.122,4.072,4.072,0,0,1,5.725,7.3,4.064,4.064,0,0,1,.288,5.585,4.038,4.038,0,0,1,2.683.413Z" transform="translate(660.591 381.516)" fill="#42585c"/>
    <path id="Path_419" data-name="Path 419" d="M2.676.414A4.047,4.047,0,0,1,8.123,2.12,4.059,4.059,0,0,1,5.716,7.3,4.05,4.05,0,0,1,.282,5.576,4.05,4.05,0,0,1,2.676.414Z" transform="translate(565.992 280.788)" fill="#42585c"/>
    <path id="Path_420" data-name="Path 420" d="M2.676.414A4.047,4.047,0,0,1,8.123,2.12,4.059,4.059,0,0,1,5.716,7.3,4.05,4.05,0,0,1,.282,5.576,4.05,4.05,0,0,1,2.676.414Z" transform="translate(565.992 280.788)" fill="#42585c"/>
    <path id="Path_421" data-name="Path 421" d="M2.681.415A4.055,4.055,0,0,1,8.13,2.126,4.05,4.05,0,0,1,5.725,7.3,4.051,4.051,0,0,1,.286,5.58,4.04,4.04,0,0,1,2.681.415Z" transform="translate(439.102 0)" fill="#42585c"/>
    <path id="Path_422" data-name="Path 422" d="M2.676.41A4.05,4.05,0,0,1,8.113,2.116a4.046,4.046,0,0,1-2.4,5.175A4.033,4.033,0,0,1,.287,5.58,4.043,4.043,0,0,1,2.676.41Z" transform="translate(169.062 163.248)" fill="#42585c"/>
    <path id="Path_423" data-name="Path 423" d="M2.681.415A4.055,4.055,0,0,1,8.13,2.126,4.05,4.05,0,0,1,5.725,7.3,4.051,4.051,0,0,1,.286,5.58,4.04,4.04,0,0,1,2.681.415Z" transform="translate(439.102 0)" fill="#42585c"/>
    <path id="Path_424" data-name="Path 424" d="M2.681.411A4.058,4.058,0,0,1,8.125,2.128,4.056,4.056,0,0,1,5.718,7.3,4.036,4.036,0,0,1,.289,5.584,4.042,4.042,0,0,1,2.681.411Z" transform="translate(314.683 98.966)" fill="#42585c"/>
    <path id="Path_425" data-name="Path 425" d="M2.681.415A4.055,4.055,0,0,1,8.13,2.126,4.05,4.05,0,0,1,5.725,7.3,4.051,4.051,0,0,1,.286,5.58,4.04,4.04,0,0,1,2.681.415Z" transform="translate(439.102 0)" fill="#42585c"/>
    <path id="Path_426" data-name="Path 426" d="M2.68.417A4.036,4.036,0,0,1,8.122,2.129,4.055,4.055,0,0,1,5.719,7.3,4.041,4.041,0,0,1,.285,5.59,4.05,4.05,0,0,1,2.68.417Z" transform="translate(213.382 363.879)" fill="#42585c"/>
    <path id="Path_427" data-name="Path 427" d="M2.681.408A4.048,4.048,0,0,1,8.115,2.122,4.048,4.048,0,0,1,5.723,7.3,4.063,4.063,0,0,1,.281,5.581,4.057,4.057,0,0,1,2.681.408Z" transform="translate(233.68 603.628)" fill="#42585c"/>
    <path id="Path_428" data-name="Path 428" d="M2.688.41A4.045,4.045,0,0,1,8.12,2.134a4.048,4.048,0,0,1-2.4,5.17A4.049,4.049,0,0,1,.291,5.588,4.037,4.037,0,0,1,2.688.41Z" transform="translate(323.746 460.243)" fill="#42585c"/>
    <path id="Path_429" data-name="Path 429" d="M2.681.408A4.048,4.048,0,0,1,8.115,2.122,4.048,4.048,0,0,1,5.723,7.3,4.063,4.063,0,0,1,.281,5.581,4.057,4.057,0,0,1,2.681.408Z" transform="translate(233.68 603.628)" fill="#42585c"/>
    <path id="Path_430" data-name="Path 430" d="M2.69.413A4.028,4.028,0,0,1,8.116,2.129,4.047,4.047,0,0,1,5.727,7.3,4.05,4.05,0,0,1,.285,5.583,4.053,4.053,0,0,1,2.69.413Z" transform="translate(433.307 414.474)" fill="#42585c"/>
    <path id="Path_431" data-name="Path 431" d="M2.681.408A4.048,4.048,0,0,1,8.115,2.122,4.048,4.048,0,0,1,5.723,7.3,4.063,4.063,0,0,1,.281,5.581,4.057,4.057,0,0,1,2.681.408Z" transform="translate(233.68 603.628)" fill="#42585c"/>
    <path id="Path_432" data-name="Path 432" d="M2.684.412A4.054,4.054,0,0,1,8.125,2.123a4.052,4.052,0,0,1-2.4,5.17A4.039,4.039,0,0,1,.286,5.579,4.044,4.044,0,0,1,2.684.412Z" transform="translate(504.081 621.583)" fill="#42585c"/>
    <path id="Path_433" data-name="Path 433" d="M2.681.408A4.048,4.048,0,0,1,8.115,2.122,4.048,4.048,0,0,1,5.723,7.3,4.063,4.063,0,0,1,.281,5.581,4.057,4.057,0,0,1,2.681.408Z" transform="translate(233.68 603.628)" fill="#42585c"/>
    <path id="Path_434" data-name="Path 434" d="M2.687.411A4.045,4.045,0,0,1,8.126,2.125,4.059,4.059,0,0,1,5.724,7.3,4.064,4.064,0,0,1,.285,5.594,4.056,4.056,0,0,1,2.687.411Z" transform="translate(114.237 526.813)" fill="#42585c"/>
    <path id="Path_435" data-name="Path 435" d="M2.681.408A4.048,4.048,0,0,1,8.115,2.122,4.048,4.048,0,0,1,5.723,7.3,4.063,4.063,0,0,1,.281,5.581,4.057,4.057,0,0,1,2.681.408Z" transform="translate(233.68 603.628)" fill="#42585c"/>
    <path id="Path_436" data-name="Path 436" d="M2.681.415A4.055,4.055,0,0,1,8.13,2.126,4.05,4.05,0,0,1,5.725,7.3,4.051,4.051,0,0,1,.286,5.58,4.04,4.04,0,0,1,2.681.415Z" transform="translate(439.102 0)" fill="#42585c"/>
    <path id="Path_437" data-name="Path 437" d="M2.691.412A4.036,4.036,0,0,1,8.118,2.124,4.05,4.05,0,0,1,5.721,7.3,4.046,4.046,0,0,1,.286,5.582,4.041,4.041,0,0,1,2.691.412Z" transform="translate(707.791 207.829)" fill="#42585c"/>
    <path id="Path_438" data-name="Path 438" d="M2.676.414A4.047,4.047,0,0,1,8.123,2.12,4.059,4.059,0,0,1,5.716,7.3,4.05,4.05,0,0,1,.282,5.576,4.05,4.05,0,0,1,2.676.414Z" transform="translate(565.992 280.788)" fill="#42585c"/>
    <path id="Path_439" data-name="Path 439" d="M2.691.412A4.036,4.036,0,0,1,8.118,2.124,4.05,4.05,0,0,1,5.721,7.3,4.046,4.046,0,0,1,.286,5.582,4.041,4.041,0,0,1,2.691.412Z" transform="translate(707.791 207.829)" fill="#42585c"/>
    <path id="Path_440" data-name="Path 440" d="M2.69.413A4.028,4.028,0,0,1,8.116,2.129,4.047,4.047,0,0,1,5.727,7.3,4.05,4.05,0,0,1,.285,5.583,4.053,4.053,0,0,1,2.69.413Z" transform="translate(433.307 414.474)" fill="#42585c"/>
    <path id="Path_441" data-name="Path 441" d="M2.691.412A4.036,4.036,0,0,1,8.118,2.124,4.05,4.05,0,0,1,5.721,7.3,4.046,4.046,0,0,1,.286,5.582,4.041,4.041,0,0,1,2.691.412Z" transform="translate(707.791 207.829)" fill="#42585c"/>
    <path id="Path_442" data-name="Path 442" d="M2.683.413A4.052,4.052,0,0,1,8.12,2.122,4.072,4.072,0,0,1,5.725,7.3,4.064,4.064,0,0,1,.288,5.585,4.038,4.038,0,0,1,2.683.413Z" transform="translate(660.591 381.516)" fill="#42585c"/>
    <path id="Path_443" data-name="Path 443" d="M2.691.412A4.036,4.036,0,0,1,8.118,2.124,4.05,4.05,0,0,1,5.721,7.3,4.046,4.046,0,0,1,.286,5.582,4.041,4.041,0,0,1,2.691.412Z" transform="translate(707.791 207.829)" fill="#42585c"/>
    <path id="Path_444" data-name="Path 444" d="M2.683.413A4.052,4.052,0,0,1,8.12,2.122,4.072,4.072,0,0,1,5.725,7.3,4.064,4.064,0,0,1,.288,5.585,4.038,4.038,0,0,1,2.683.413Z" transform="translate(660.591 381.516)" fill="#42585c"/>
    <path id="Path_445" data-name="Path 445" d="M2.691.412A4.036,4.036,0,0,1,8.118,2.124,4.05,4.05,0,0,1,5.721,7.3,4.046,4.046,0,0,1,.286,5.582,4.041,4.041,0,0,1,2.691.412Z" transform="translate(707.791 207.829)" fill="#42585c"/>
    <path id="Path_446" data-name="Path 446" d="M2.681.415A4.055,4.055,0,0,1,8.13,2.126,4.05,4.05,0,0,1,5.725,7.3,4.051,4.051,0,0,1,.286,5.58,4.04,4.04,0,0,1,2.681.415Z" transform="translate(439.102 0)" fill="#42585c"/>
    <path id="Path_447" data-name="Path 447" d="M2.691.412A4.036,4.036,0,0,1,8.118,2.124,4.05,4.05,0,0,1,5.721,7.3,4.046,4.046,0,0,1,.286,5.582,4.041,4.041,0,0,1,2.691.412Z" transform="translate(707.791 207.829)" fill="#42585c"/>
    <path id="Path_448" data-name="Path 448" d="M2.676.414A4.047,4.047,0,0,1,8.123,2.12,4.059,4.059,0,0,1,5.716,7.3,4.05,4.05,0,0,1,.282,5.576,4.05,4.05,0,0,1,2.676.414Z" transform="translate(565.992 280.788)" fill="#42585c"/>
    <path id="Path_449" data-name="Path 449" d="M2.691.412A4.036,4.036,0,0,1,8.118,2.124,4.05,4.05,0,0,1,5.721,7.3,4.046,4.046,0,0,1,.286,5.582,4.041,4.041,0,0,1,2.691.412Z" transform="translate(707.791 207.829)" fill="#42585c"/>
    <path id="Path_450" data-name="Path 450" d="M2.69.413A4.028,4.028,0,0,1,8.116,2.129,4.047,4.047,0,0,1,5.727,7.3,4.05,4.05,0,0,1,.285,5.583,4.053,4.053,0,0,1,2.69.413Z" transform="translate(433.307 414.474)" fill="#42585c"/>
    <path id="Path_451" data-name="Path 451" d="M2.691.412A4.036,4.036,0,0,1,8.118,2.124,4.05,4.05,0,0,1,5.721,7.3,4.046,4.046,0,0,1,.286,5.582,4.041,4.041,0,0,1,2.691.412Z" transform="translate(707.791 207.829)" fill="#42585c"/>
    <path id="Path_452" data-name="Path 452" d="M2.683.413A4.052,4.052,0,0,1,8.12,2.122,4.072,4.072,0,0,1,5.725,7.3,4.064,4.064,0,0,1,.288,5.585,4.038,4.038,0,0,1,2.683.413Z" transform="translate(660.591 381.516)" fill="#42585c"/>
    <path id="Path_453" data-name="Path 453" d="M2.691.412A4.036,4.036,0,0,1,8.118,2.124,4.05,4.05,0,0,1,5.721,7.3,4.046,4.046,0,0,1,.286,5.582,4.041,4.041,0,0,1,2.691.412Z" transform="translate(707.791 207.829)" fill="#42585c"/>
    <path id="Path_454" data-name="Path 454" d="M2.683.413A4.052,4.052,0,0,1,8.12,2.122,4.072,4.072,0,0,1,5.725,7.3,4.064,4.064,0,0,1,.288,5.585,4.038,4.038,0,0,1,2.683.413Z" transform="translate(660.591 381.516)" fill="#42585c"/>
    <path id="Path_455" data-name="Path 455" d="M2.691.412A4.036,4.036,0,0,1,8.118,2.124,4.05,4.05,0,0,1,5.721,7.3,4.046,4.046,0,0,1,.286,5.582,4.041,4.041,0,0,1,2.691.412Z" transform="translate(707.791 207.829)" fill="#42585c"/>
    <path id="Path_456" data-name="Path 456" d="M2.691.412A4.036,4.036,0,0,1,8.118,2.124,4.05,4.05,0,0,1,5.721,7.3,4.046,4.046,0,0,1,.286,5.582,4.041,4.041,0,0,1,2.691.412Z" transform="translate(707.791 207.829)" fill="#42585c"/>
    <path id="Path_457" data-name="Path 457" d="M2.7.408A4.037,4.037,0,0,1,8.125,2.127,4.036,4.036,0,0,1,5.735,7.3,4.079,4.079,0,0,1,.278,5.583,4.065,4.065,0,0,1,2.7.408Z" transform="translate(713.673 207.821)" fill="#42585c"/>
    <path id="Path_458" data-name="Path 458" d="M2.691.412A4.036,4.036,0,0,1,8.118,2.124,4.05,4.05,0,0,1,5.721,7.3,4.046,4.046,0,0,1,.286,5.582,4.041,4.041,0,0,1,2.691.412Z" transform="translate(707.791 207.829)" fill="#42585c"/>
    <path id="Path_459" data-name="Path 459" d="M2.7.408A4.037,4.037,0,0,1,8.125,2.127,4.036,4.036,0,0,1,5.735,7.3,4.079,4.079,0,0,1,.278,5.583,4.065,4.065,0,0,1,2.7.408Z" transform="translate(713.673 207.821)" fill="#42585c"/>
    <path id="Path_460" data-name="Path 460" d="M2.681.415A4.055,4.055,0,0,1,8.13,2.126,4.05,4.05,0,0,1,5.725,7.3,4.051,4.051,0,0,1,.286,5.58,4.04,4.04,0,0,1,2.681.415Z" transform="translate(439.102 0)" fill="#42585c"/>
    <path id="Path_461" data-name="Path 461" d="M2.7.408A4.037,4.037,0,0,1,8.125,2.127,4.036,4.036,0,0,1,5.735,7.3,4.079,4.079,0,0,1,.278,5.583,4.065,4.065,0,0,1,2.7.408Z" transform="translate(713.673 207.821)" fill="#42585c"/>
    <path id="Path_462" data-name="Path 462" d="M2.676.414A4.047,4.047,0,0,1,8.123,2.12,4.059,4.059,0,0,1,5.716,7.3,4.05,4.05,0,0,1,.282,5.576,4.05,4.05,0,0,1,2.676.414Z" transform="translate(565.992 280.788)" fill="#42585c"/>
    <path id="Path_463" data-name="Path 463" d="M2.7.408A4.037,4.037,0,0,1,8.125,2.127,4.036,4.036,0,0,1,5.735,7.3,4.079,4.079,0,0,1,.278,5.583,4.065,4.065,0,0,1,2.7.408Z" transform="translate(713.673 207.821)" fill="#42585c"/>
    <path id="Path_464" data-name="Path 464" d="M2.69.413A4.028,4.028,0,0,1,8.116,2.129,4.047,4.047,0,0,1,5.727,7.3,4.05,4.05,0,0,1,.285,5.583,4.053,4.053,0,0,1,2.69.413Z" transform="translate(433.307 414.474)" fill="#42585c"/>
    <path id="Path_465" data-name="Path 465" d="M2.7.408A4.037,4.037,0,0,1,8.125,2.127,4.036,4.036,0,0,1,5.735,7.3,4.079,4.079,0,0,1,.278,5.583,4.065,4.065,0,0,1,2.7.408Z" transform="translate(713.673 207.821)" fill="#42585c"/>
    <path id="Path_466" data-name="Path 466" d="M2.683.413A4.052,4.052,0,0,1,8.12,2.122,4.072,4.072,0,0,1,5.725,7.3,4.064,4.064,0,0,1,.288,5.585,4.038,4.038,0,0,1,2.683.413Z" transform="translate(660.591 381.516)" fill="#42585c"/>
    <path id="Path_467" data-name="Path 467" d="M2.7.408A4.037,4.037,0,0,1,8.125,2.127,4.036,4.036,0,0,1,5.735,7.3,4.079,4.079,0,0,1,.278,5.583,4.065,4.065,0,0,1,2.7.408Z" transform="translate(713.673 207.821)" fill="#42585c"/>
    <path id="Path_468" data-name="Path 468" d="M2.683.413A4.052,4.052,0,0,1,8.12,2.122,4.072,4.072,0,0,1,5.725,7.3,4.064,4.064,0,0,1,.288,5.585,4.038,4.038,0,0,1,2.683.413Z" transform="translate(660.591 381.516)" fill="#42585c"/>
    <path id="Path_469" data-name="Path 469" d="M2.7.408A4.037,4.037,0,0,1,8.125,2.127,4.036,4.036,0,0,1,5.735,7.3,4.079,4.079,0,0,1,.278,5.583,4.065,4.065,0,0,1,2.7.408Z" transform="translate(713.673 207.821)" fill="#42585c"/>
    <path id="Path_470" data-name="Path 470" d="M2.681.415A4.055,4.055,0,0,1,8.13,2.126,4.05,4.05,0,0,1,5.725,7.3,4.051,4.051,0,0,1,.286,5.58,4.04,4.04,0,0,1,2.681.415Z" transform="translate(439.102 0)" fill="#42585c"/>
    <path id="Path_471" data-name="Path 471" d="M2.685.407A4.052,4.052,0,0,1,8.116,2.116,4.063,4.063,0,0,1,5.724,7.294,4.056,4.056,0,0,1,.285,5.574,4.042,4.042,0,0,1,2.685.407Z" transform="translate(140.951 46.127)" fill="#42585c"/>
    <path id="Path_472" data-name="Path 472" d="M2.68.417A4.036,4.036,0,0,1,8.122,2.129,4.055,4.055,0,0,1,5.719,7.3,4.041,4.041,0,0,1,.285,5.59,4.05,4.05,0,0,1,2.68.417Z" transform="translate(213.382 363.879)" fill="#42585c"/>
    <path id="Path_473" data-name="Path 473" d="M2.685.407A4.052,4.052,0,0,1,8.116,2.116,4.063,4.063,0,0,1,5.724,7.294,4.056,4.056,0,0,1,.285,5.574,4.042,4.042,0,0,1,2.685.407Z" transform="translate(140.951 46.127)" fill="#42585c"/>
    <path id="Path_474" data-name="Path 474" d="M2.676.41A4.05,4.05,0,0,1,8.113,2.116a4.046,4.046,0,0,1-2.4,5.175A4.033,4.033,0,0,1,.287,5.58,4.043,4.043,0,0,1,2.676.41Z" transform="translate(169.062 163.248)" fill="#42585c"/>
    <path id="Path_475" data-name="Path 475" d="M2.685.407A4.052,4.052,0,0,1,8.116,2.116,4.063,4.063,0,0,1,5.724,7.294,4.056,4.056,0,0,1,.285,5.574,4.042,4.042,0,0,1,2.685.407Z" transform="translate(140.951 46.127)" fill="#42585c"/>
    <path id="Path_476" data-name="Path 476" d="M2.692.413A4.04,4.04,0,0,1,8.121,2.121,4.05,4.05,0,0,1,5.722,7.3,4.04,4.04,0,0,1,.287,5.577,4.035,4.035,0,0,1,2.692.413Z" transform="translate(0 214.548)" fill="#42585c"/>
    <path id="Path_477" data-name="Path 477" d="M2.685.407A4.052,4.052,0,0,1,8.116,2.116,4.063,4.063,0,0,1,5.724,7.294,4.056,4.056,0,0,1,.285,5.574,4.042,4.042,0,0,1,2.685.407Z" transform="translate(140.951 46.127)" fill="#42585c"/>
    <path id="Path_478" data-name="Path 478" d="M2.681.411A4.058,4.058,0,0,1,8.125,2.128,4.056,4.056,0,0,1,5.718,7.3,4.036,4.036,0,0,1,.289,5.584,4.042,4.042,0,0,1,2.681.411Z" transform="translate(314.683 98.966)" fill="#42585c"/>
    <path id="Path_479" data-name="Path 479" d="M2.685.407A4.052,4.052,0,0,1,8.116,2.116,4.063,4.063,0,0,1,5.724,7.294,4.056,4.056,0,0,1,.285,5.574,4.042,4.042,0,0,1,2.685.407Z" transform="translate(140.951 46.127)" fill="#42585c"/>
  </g>
</svg>
