<svg xmlns="http://www.w3.org/2000/svg" xmlns:xlink="http://www.w3.org/1999/xlink" width="10" height="10" viewBox="0 0 10 10">
  <defs>
    <clipPath id="clip-path">
      <rect id="Rectangle_191" data-name="Rectangle 191" width="10" height="10" transform="translate(0.002 -0.159)" fill="#333"/>
    </clipPath>
  </defs>
  <g id="Group_725" data-name="Group 725" transform="translate(-0.002 0.159)">
    <g id="Group_724" data-name="Group 724" transform="translate(0 0)">
      <g id="Group_723" data-name="Group 723" transform="translate(0 0)" clip-path="url(#clip-path)">
        <path id="Path_4643" data-name="Path 4643" d="M164.231,272.693l3.443-3.444a.573.573,0,0,0-.81-.81l-3.444,3.444-3.444-3.444a.573.573,0,0,0-.81.81l3.443,3.444-3.443,3.444a.573.573,0,1,0,.81.81l3.444-3.444,3.444,3.444a.573.573,0,0,0,.81-.81Zm0,0" transform="translate(-158.499 -267.764)" fill="#333"/>
      </g>
    </g>
  </g>
</svg>
