<svg id="Component_483_1" data-name="Component 483 – 1" xmlns="http://www.w3.org/2000/svg" xmlns:xlink="http://www.w3.org/1999/xlink" width="122.765" height="111" viewBox="0 0 122.765 111">
  <defs>
    <clipPath id="clip-path">
      <rect id="Rectangle_980" data-name="Rectangle 980" width="111" height="111" transform="translate(0 0.029)" fill="#23b6d0" stroke="#fff" stroke-width="1.5"/>
    </clipPath>
  </defs>
  <g id="Group_10551" data-name="Group 10551" transform="translate(75.985 120.239)">
    <path id="Path_16470" data-name="Path 16470" d="M248.444-44.511H225.313A2.315,2.315,0,0,1,223-46.824a2.315,2.315,0,0,1,2.313-2.313h20.818V-69.955a2.315,2.315,0,0,1,2.313-2.313,2.315,2.315,0,0,1,2.313,2.313v23.131a2.315,2.315,0,0,1-2.313,2.313Zm0,0" transform="translate(-204.728 -34.121)" fill="#23b6d0" stroke="#23b6d0" stroke-width="1.5"/>
    <circle id="Ellipse_693" data-name="Ellipse 693" cx="24.5" cy="24.5" r="24.5" transform="translate(-75.985 -113.738)" fill="#fff5d8"/>
    <path id="Path_16474" data-name="Path 16474" d="M63.529,17.748a2.258,2.258,0,0,1-.81-.148,2.306,2.306,0,0,1-1.485-2.47L65.18-14.635H49.312a2.317,2.317,0,0,1-2.068-1.276,2.311,2.311,0,0,1,.218-2.425L75.22-55.347a2.311,2.311,0,0,1,2.761-.74,2.309,2.309,0,0,1,1.373,2.507L75.173-28.514H90.948A2.31,2.31,0,0,1,92.983-27.3a2.322,2.322,0,0,1-.1,2.368L65.462,16.707a2.326,2.326,0,0,1-1.933,1.041Zm-9.59-37.01H67.817a2.31,2.31,0,0,1,1.739.786,2.315,2.315,0,0,1,.556,1.827L67.146,5.734,86.655-23.888H72.443a2.313,2.313,0,0,1-1.768-.819,2.291,2.291,0,0,1-.513-1.874l3.067-18.4Zm0,0" transform="translate(-79.616 -45.491)" fill="#23b6d0" stroke="#23b6d0" stroke-width="1.5"/>
    <g id="Group_10550" data-name="Group 10550" transform="translate(-65 -120.268)">
      <g id="Group_10549" data-name="Group 10549" clip-path="url(#clip-path)">
        <path id="Path_16471" data-name="Path 16471" d="M-62.687,147.489A2.315,2.315,0,0,1-65,145.176V122.045a2.315,2.315,0,0,1,2.313-2.313h23.131a2.315,2.315,0,0,1,2.313,2.313,2.315,2.315,0,0,1-2.313,2.313H-60.374v20.818a2.315,2.315,0,0,1-2.313,2.313Zm0,0" transform="translate(65 -50.339)" fill="#23b6d0" stroke="#23b6d0" stroke-width="1.5"/>
        <path id="Path_16472" data-name="Path 16472" d="M-61.083-69.38a2.354,2.354,0,0,1-.3-.018,2.325,2.325,0,0,1-2-2.6A55.578,55.578,0,0,1-8.349-120.268c24.963,0,48.266,16.243,55.409,38.619a2.315,2.315,0,0,1-1.5,2.906,2.311,2.311,0,0,1-2.91-1.5c-6.546-20.507-27.994-35.395-51-35.395A50.944,50.944,0,0,0-58.793-71.4a2.317,2.317,0,0,1-2.289,2.017Zm0,0" transform="translate(63.863 120.268)" fill="#23b6d0" stroke="#23b6d0" stroke-width="1.5"/>
        <path id="Path_16473" data-name="Path 16473" d="M-9.489,138.629C-34.5,138.629-57.806,122.387-64.9,100a2.314,2.314,0,0,1,1.5-2.9,2.3,2.3,0,0,1,2.906,1.509c6.5,20.5,27.947,35.39,51,35.39A50.944,50.944,0,0,0,40.955,89.758a2.316,2.316,0,1,1,4.594.6A55.586,55.586,0,0,1-9.489,138.629Zm0,0" transform="translate(65.004 -27.6)" fill="#23b6d0" stroke="#23b6d0" stroke-width="1.5"/>
      </g>
    </g>
  </g>
</svg>
