<svg id="Group_673" data-name="Group 673" xmlns="http://www.w3.org/2000/svg" width="16.195" height="16.174" viewBox="0 0 16.195 16.174">
  <path id="Path_1405" data-name="Path 1405" d="M141.359,240.75c.257.216.51.436.77.647q3.353,2.733,6.708,5.463c.032.026.061.055.108.1l-7.607,6.217v-3.843c-.312.034-.6.054-.892.1a8.671,8.671,0,0,0-4.929,2.535,8.066,8.066,0,0,0-1.7,2.513c-.32.756-.647,1.509-.973,2.264-.027.062-.063.119-.1.179v-3.766a1.084,1.084,0,0,0,.026-.138,8.283,8.283,0,0,1,.772-3.094,8.972,8.972,0,0,1,6.8-5.222c.32-.059.646-.084.979-.126V240.75Z" transform="translate(-132.75 -240.75)" fill='none' stroke="#FFFFFF"/>
</svg>
