<svg xmlns="http://www.w3.org/2000/svg" width="38.419" height="35.512" viewBox="0 0 38.419 35.512">
  <g id="Group_715" data-name="Group 715" transform="translate(-129 -252)">
    <path id="Path_4641" data-name="Path 4641" d="M160.245,261.275a11.128,11.128,0,0,0-20.619-3.7,6.391,6.391,0,0,0-1.169-.111,6.1,6.1,0,0,0-6.092,6.091,6.657,6.657,0,0,0,.126,1.264A8.476,8.476,0,0,0,129,271.656a9.062,9.062,0,0,0,2.3,6,8.205,8.205,0,0,0,5.688,2.86h6.858a1.066,1.066,0,1,0,0-2.133h-6.763a6.727,6.727,0,0,1-5.949-6.731,6.332,6.332,0,0,1,3.136-5.451,1.075,1.075,0,0,0,.466-1.3,3.875,3.875,0,0,1-.237-1.359,3.965,3.965,0,0,1,3.958-3.958,3.9,3.9,0,0,1,1.351.237,1.071,1.071,0,0,0,1.335-.545,8.995,8.995,0,0,1,17.088,2.963,1.066,1.066,0,0,0,.885.948,7.688,7.688,0,0,1-.727,15.184h-5.823a1.067,1.067,0,1,0,0,2.133h5.941a9.454,9.454,0,0,0,6.336-3.129,9.833,9.833,0,0,0-4.6-16.1Zm0,0" fill="#009bc7"/>
    <path id="Path_4642" data-name="Path 4642" d="M268.693,393.076a1.063,1.063,0,0,0,0-1.509l-5.649-5.649a1.079,1.079,0,0,0-.751-.316,1.045,1.045,0,0,0-.75.316l-5.649,5.649a1.071,1.071,0,0,0,.75,1.825,1.041,1.041,0,0,0,.751-.316l3.832-3.832v17.61a1.066,1.066,0,1,0,2.133,0v-17.61l3.832,3.832a1.054,1.054,0,0,0,1.5,0Zm0,0" transform="translate(-114.08 -120.408)" fill="#009bc7"/>
  </g>
</svg>
