<svg xmlns="http://www.w3.org/2000/svg" width="15.258" height="13.4" viewBox="0 0 15.258 13.4">
  <g id="user_1_" data-name="user (1)" transform="translate(0.2 0.2)">
    <path id="Path_15377" data-name="Path 15377" d="M88.427,6.2a3.1,3.1,0,1,1,3.1-3.1A3.1,3.1,0,0,1,88.427,6.2Zm0-5.262A2.167,2.167,0,1,0,90.594,3.1,2.169,2.169,0,0,0,88.427.937Zm0,0" transform="translate(-82.856 -0.008)" fill="#23b6d0" stroke="#23b6d0" stroke-width="0.4"/>
    <path id="Path_15378" data-name="Path 15378" d="M10.679,261.579H.464A.464.464,0,0,1,0,261.115v-2.167a2.944,2.944,0,0,1,2.94-2.94H8.2a2.944,2.944,0,0,1,2.94,2.94v2.167A.464.464,0,0,1,10.679,261.579Zm-9.75-.929h9.286v-1.7A2.014,2.014,0,0,0,8.2,256.937H2.94a2.014,2.014,0,0,0-2.012,2.012Zm0,0" transform="translate(0 -248.579)" fill="#23b6d0" stroke="#23b6d0" stroke-width="0.4"/>
    <path id="Path_15379" data-name="Path 15379" d="M304.394,187.6h-5.262a.464.464,0,1,1,0-.929h5.262a.464.464,0,0,1,0,.929Zm0,0" transform="translate(-290.001 -181.26)" fill="#23b6d0" stroke="#23b6d0" stroke-width="0.4"/>
    <path id="Path_15380" data-name="Path 15380" d="M395.136,107.187a.465.465,0,0,1-.328-.793l2.148-2.148-2.148-2.148a.464.464,0,0,1,.657-.657l2.476,2.476a.465.465,0,0,1,0,.657l-2.476,2.476A.461.461,0,0,1,395.136,107.187Zm0,0" transform="translate(-383.219 -98.365)" fill="#23b6d0" stroke="#23b6d0" stroke-width="0.4"/>
  </g>
</svg>
