<svg xmlns="http://www.w3.org/2000/svg" xmlns:xlink="http://www.w3.org/1999/xlink" width="24.704" height="24.829" viewBox="0 0 24.704 24.829">
  <defs>
    <clipPath id="clip-path">
      <rect id="Rectangle_12" data-name="Rectangle 12" width="24.704" height="24.829" fill="#0a3a5e"/>
    </clipPath>
  </defs>
  <g id="Component_48_3" data-name="Component 48 – 3" transform="translate(0 0)">
    <g id="Group_4" data-name="Group 4">
      <g id="Group_3" data-name="Group 3" transform="translate(0 0)" clip-path="url(#clip-path)">
        <path id="Path_4" data-name="Path 4" d="M512.51,1346.678a2.431,2.431,0,0,0-1.763-.808,2.513,2.513,0,0,0-1.784.8l-1.648,1.643c-.136-.073-.271-.141-.4-.208-.188-.094-.365-.183-.516-.277a17.916,17.916,0,0,1-4.292-3.911,10.568,10.568,0,0,1-1.408-2.221c.427-.391.824-.8,1.21-1.189.146-.146.292-.3.438-.443a2.393,2.393,0,0,0,0-3.609l-1.424-1.424c-.161-.162-.328-.328-.485-.5-.313-.323-.641-.657-.98-.97a2.469,2.469,0,0,0-1.747-.767,2.554,2.554,0,0,0-1.773.767l-.01.01-1.773,1.789a3.815,3.815,0,0,0-1.132,2.425,9.142,9.142,0,0,0,.668,3.87,22.455,22.455,0,0,0,3.99,6.655,24.541,24.541,0,0,0,8.172,6.4,12.727,12.727,0,0,0,4.589,1.356c.11.005.224.01.329.01a3.929,3.929,0,0,0,3.009-1.293c.005-.01.016-.016.021-.026a11.79,11.79,0,0,1,.913-.944c.224-.214.454-.438.678-.673a2.6,2.6,0,0,0,.787-1.8,2.507,2.507,0,0,0-.8-1.789Zm1.867,5.491c-.005,0-.005.005,0,0-.2.219-.412.417-.636.636a13.681,13.681,0,0,0-1.006,1.043,2.514,2.514,0,0,1-1.961.829c-.078,0-.162,0-.24-.005a11.313,11.313,0,0,1-4.068-1.22,23.168,23.168,0,0,1-7.7-6.029,21.174,21.174,0,0,1-3.755-6.253,7.444,7.444,0,0,1-.584-3.265,2.393,2.393,0,0,1,.72-1.549l1.778-1.779a1.185,1.185,0,0,1,.793-.37,1.117,1.117,0,0,1,.761.365l.015.016c.318.3.621.605.939.934.162.167.329.334.5.506l1.424,1.424a1,1,0,0,1,0,1.617c-.151.151-.3.3-.448.448-.438.448-.855.866-1.309,1.272-.01.01-.021.016-.026.026A1.064,1.064,0,0,0,499.3,1342l.016.047A11.435,11.435,0,0,0,501,1344.8l.005.005a19.145,19.145,0,0,0,4.631,4.214,7.048,7.048,0,0,0,.641.349c.188.094.365.183.516.276.021.01.042.026.063.036a1.13,1.13,0,0,0,.516.13,1.115,1.115,0,0,0,.793-.36l1.784-1.784a1.18,1.18,0,0,1,.788-.391,1.061,1.061,0,0,1,.751.381l2.884,2.884a1.031,1.031,0,0,1,.005,1.632Zm0,0" transform="translate(-492.999 -1331.315)" fill="#0a3a5e"/>
        <path id="Path_5" data-name="Path 5" d="M689.258,1381.011a6.712,6.712,0,0,1,5.465,5.465.7.7,0,0,0,.694.584.951.951,0,0,0,.12-.01.7.7,0,0,0,.579-.813,8.116,8.116,0,0,0-6.613-6.613.708.708,0,0,0-.814.574.7.7,0,0,0,.569.814Zm0,0" transform="translate(-675.923 -1375.076)" fill="#0a3a5e"/>
        <path id="Path_6" data-name="Path 6" d="M703.453,1321.774a13.363,13.363,0,0,0-10.889-10.889.7.7,0,1,0-.229,1.387,11.937,11.937,0,0,1,9.731,9.731.7.7,0,0,0,.693.584.919.919,0,0,0,.12-.01.691.691,0,0,0,.574-.8Zm0,0" transform="translate(-678.79 -1310.818)" fill="#0a3a5e"/>
      </g>
    </g>
  </g>
</svg>
