<svg xmlns="http://www.w3.org/2000/svg" width="13.299" height="13.299" viewBox="0 0 13.299 13.299">
  <path id="Path_1462" data-name="Path 1462" d="M138.649,253.3a6.649,6.649,0,1,0-5.031-2.3l-1.478,1.458a.474.474,0,0,0,.331.811l6.178.032Zm-2.827-9h5.686a.474.474,0,0,1,0,.948h-5.686a.474.474,0,1,1,0-.948Zm0,1.9h5.686a.474.474,0,0,1,0,.948h-5.686a.474.474,0,0,1,0-.948Zm-.474,2.369a.474.474,0,0,1,.474-.474h5.686a.474.474,0,0,1,0,.948h-5.686a.474.474,0,0,1-.474-.474Zm0,0" transform="translate(-131.999 -240)" fill="#42d2f4"/>
</svg>
