<svg id="Component_48_9" data-name="Component 48 – 9" xmlns="http://www.w3.org/2000/svg" width="23.341" height="22.31" viewBox="0 0 23.341 22.31">
  <path id="Path_1424" data-name="Path 1424" d="M-37.169-161A2.611,2.611,0,0,0-40-158.4a2.59,2.59,0,0,0,2.765,2.6h.032a2.61,2.61,0,0,0,2.831-2.6,2.6,2.6,0,0,0-2.8-2.6Zm0,0" transform="translate(40 161)" fill="#00a1ed"/>
  <rect id="Rectangle_144" data-name="Rectangle 144" width="5.003" height="15.053" transform="translate(0.296 7.257)" fill="#00a1ed"/>
  <path id="Path_1425" data-name="Path 1425" d="M190.51,28.1c-2.7,0-4.509,2.536-4.509,2.536V28.458h-5V43.512h5V35.105a3.429,3.429,0,0,1,.165-1.221,2.739,2.739,0,0,1,2.567-1.83c1.811,0,2.535,1.38,2.535,3.4v8.053h5V34.88c0-4.624-2.469-6.775-5.76-6.775Zm0,0" transform="translate(-172.929 -21.201)" fill="#00a1ed"/>
</svg>
