<svg xmlns="http://www.w3.org/2000/svg" width="15.939" height="21.194" viewBox="0 0 15.939 21.194">
  <g id="Component_47_6" data-name="Component 47 – 6" transform="translate(0)">
    <g id="Component_43_2" data-name="Component 43 – 2">
      <path id="Path_156" data-name="Path 156" d="M516.251,1264.566a22.931,22.931,0,0,0,10.656,0c1.753-.495,2.642-1.212,2.642-2.13s-.889-1.635-2.642-2.13a16.607,16.607,0,0,0-2.773-.5c2.012-3.434,4.005-7.322,4.005-9.245a6.56,6.56,0,1,0-13.121,0c0,1.923,1.993,5.811,4.005,9.245a16.585,16.585,0,0,0-2.773.5c-1.753.495-2.641,1.212-2.641,2.13s.889,1.635,2.641,2.13Zm5.328-19.155a5.155,5.155,0,0,1,5.149,5.149c0,1.458-1.8,5.281-4.826,10.226a.377.377,0,0,1-.645,0c-3.022-4.945-4.827-8.768-4.827-10.226a5.155,5.155,0,0,1,5.149-5.149ZM516.89,1261.6a17.163,17.163,0,0,1,2.937-.443l.225.37a1.789,1.789,0,0,0,3.053,0l.225-.37a17.191,17.191,0,0,1,2.937.443,1.119,1.119,0,1,1,0,1.681,21.982,21.982,0,0,1-9.376,0,1.119,1.119,0,1,1,0-1.681Zm0,0" transform="translate(-513.609 -1244)" fill="#0a3a5e"/>
      <path id="Path_157" data-name="Path 157" d="M632.227,1320.457a2.637,2.637,0,1,0-2.637,2.637,2.64,2.64,0,0,0,2.637-2.637Zm-3.862,0a1.225,1.225,0,1,1,1.225,1.225,1.227,1.227,0,0,1-1.225-1.225Zm0,0" transform="translate(-621.62 -1314.347)" fill="#0a3a5e"/>
    </g>
  </g>
</svg>
