<svg id="Group_674" data-name="Group 674" xmlns="http://www.w3.org/2000/svg" width="16.506" height="14.685" viewBox="0 0 16.506 14.685">
  <path id="Path_1408" data-name="Path 1408" d="M134.2,251.437a4.438,4.438,0,0,0-3.3-1.437,4.152,4.152,0,0,0-2.593.9,5.3,5.3,0,0,0-1.048,1.095A5.305,5.305,0,0,0,126.2,250.9a4.151,4.151,0,0,0-2.593-.9,4.439,4.439,0,0,0-3.3,1.437A5.159,5.159,0,0,0,119,254.96a6.143,6.143,0,0,0,1.637,4.021,34.907,34.907,0,0,0,4.1,3.846c.568.484,1.211,1.032,1.88,1.617a.969.969,0,0,0,1.276,0c.668-.584,1.312-1.133,1.88-1.617a34.882,34.882,0,0,0,4.1-3.846,6.143,6.143,0,0,0,1.637-4.021,5.159,5.159,0,0,0-1.31-3.523Zm0,0" transform="translate(-119 -250)" fill="#42d2f4"/>
</svg>
