<svg id="Component_24_1" data-name="Component 24 – 1" xmlns="http://www.w3.org/2000/svg" width="48.865" height="53.547" viewBox="0 0 48.865 53.547">
  <g id="Group_794" data-name="Group 794" transform="translate(-342.206 -1519.399)">
    <circle id="Ellipse_140" data-name="Ellipse 140" cx="13" cy="13" r="13" transform="translate(342.206 1519.399)" fill="#23b6d0" opacity="0.175"/>
    <path id="Path_1322" data-name="Path 1322" d="M513.776,447.643h0Z" transform="translate(-122.706 1104.49)" fill="#0a3a5e" stroke="#0a3a5f" stroke-width="0.4"/>
    <path id="Path_1323" data-name="Path 1323" d="M182.684,270.832c-.045-.184-.091-.374-.144-.553a5.283,5.283,0,0,0-2.565-3.21l-.205-.112-.012-.006-.175-.1a.654.654,0,0,1-.224-.208l-.013-.018-.236-.308.184-.342a3.935,3.935,0,0,0-1.938-5.564,1.121,1.121,0,0,1-.759-1.148c.016-1.125.011-2.267.007-3.371v-.361a6.162,6.162,0,0,0-6.231-6.241c-2.03-.007-3.843-.007-5.541,0a1.216,1.216,0,0,1-1.16-.653,3.73,3.73,0,0,0-3.415-2.044h-.04a3.737,3.737,0,0,0-3.407,2.059,1.172,1.172,0,0,1-1.111.639h-.015c-1.615-.009-3.261-.006-4.852,0h-.6a6.138,6.138,0,0,0-6.295,6.181c-.018.929-.013,1.875-.009,2.789v.056q0,.51,0,1.02a.991.991,0,0,1-.665,1.052,3.825,3.825,0,0,0-2.234,2.258,3.942,3.942,0,0,0,.242,3.309l.26.481-.454.3-.043.03a1.632,1.632,0,0,1-.228.144,5.222,5.222,0,0,0-3,4,.83.83,0,0,1-.062.2v4.856a1.092,1.092,0,0,0,1.154.546c1.018-.03,2.012-.025,3.064-.018.447,0,.886.006,1.33.006h.574l.027.573c0,.057.006.112.009.166v.017c.007.13.014.253.016.383,0,.437,0,.88,0,1.309,0,.9-.007,1.822.045,2.719a6.14,6.14,0,0,0,5.96,5.657c.646.01,1.29.007,1.913,0h.09l.868,0h.6V288.7c0,.551,0,1.079,0,1.606,0,.879.207,1.081,1.1,1.081h11.545c.8,0,1.037-.236,1.04-1.053q0-.524,0-1.048v-.145q0-.508,0-1.016a1.077,1.077,0,0,1,.025-.212c0-.024.01-.05.016-.083l.085-.5h.918c.3,0,.606,0,.911,0h.5a9.079,9.079,0,0,0,2.562-.23,6.135,6.135,0,0,0,4.494-5.865c.008-.835.006-1.669,0-2.476v-.113q0-.506,0-1.013v-1.128h3.161c.177,0,.355,0,.533-.007h.016c.406-.007.826-.014,1.253.017a1.067,1.067,0,0,0,1.172-.543v-4.926c-.016-.065-.032-.131-.048-.2Zm-6.729-9.208a2.4,2.4,0,0,1-.062,4.806h-.027a2.4,2.4,0,1,1,.087-4.806Zm-15.711-13.535h.01a2.4,2.4,0,0,1-.015,4.807h-.015a2.406,2.406,0,0,1-2.385-2.421A2.41,2.41,0,0,1,160.244,248.089Zm-1.739,6.327c1.123-.03,2.286-.031,3.455,0a3.688,3.688,0,0,1,3.585,3.434c.042.691.032,1.36.021,2.068,0,.307-.009.617-.009.93v.6H154.967v-.6c0-.334-.01-.676-.019-1.007a16.379,16.379,0,0,1,.048-2.359A3.622,3.622,0,0,1,158.506,254.416Zm-13.824,7.205h0a2.4,2.4,0,0,1,2.394,2.41,2.408,2.408,0,0,1-2.4,2.4,2.4,2.4,0,0,1,0-4.81Zm-5.426,13.358v-.6c0-.072,0-.145,0-.219,0-.175,0-.351,0-.527.006-.251,0-.511,0-.762a11.447,11.447,0,0,1,.089-1.877,3.672,3.672,0,0,1,3.638-3.056c.974-.011,2.039-.012,3.256,0a3.683,3.683,0,0,1,3.721,3.262,16.327,16.327,0,0,1,.042,2.216c-.008.317-.017.646-.017.963v.6Zm26.312,13.36v.018c0,.3-.009.6-.009.9v.6H154.821l.032-.632c.018-.361.025-.727.032-1.081a15.818,15.818,0,0,1,.186-2.53,3.545,3.545,0,0,1,3.505-2.791c1.234-.02,2.332-.019,3.357,0a3.705,3.705,0,0,1,3.614,3.451C165.589,286.972,165.578,287.668,165.568,288.34Zm-7.727-9.453a2.382,2.382,0,0,1,.722-1.689,2.344,2.344,0,0,1,1.711-.689,2.4,2.4,0,0,1-.033,4.807h-.022A2.406,2.406,0,0,1,157.841,278.887Zm17.252.663,0,.3h0a15.372,15.372,0,0,1-.1,2.121,4.547,4.547,0,0,1-4.4,3.848c-.369.01-.749.014-1.163.014-.583,0-1.144-.009-1.615-.019a1.024,1.024,0,0,1-.916-.645,5.339,5.339,0,0,0-2.9-3.389.707.707,0,0,1-.267-.235l-.014-.019-.253-.307.182-.352a3.973,3.973,0,0,0,.28-3.246,3.9,3.9,0,0,0-6.155-1.733,3.965,3.965,0,0,0-.928,5.01l.231.47-.434.293-.047.033a1.885,1.885,0,0,1-.258.166A5.31,5.31,0,0,0,153.6,285.1a1.023,1.023,0,0,1-.86.716h-.061c-.246,0-.492,0-.737.006h-.027a18.392,18.392,0,0,1-2.627-.093,4.476,4.476,0,0,1-3.82-4.214c-.045-1.009-.034-1.991-.023-3.031,0-.458.01-.913.01-1.373v-.6h2.835c.789,0,1.577,0,2.365,0a.764.764,0,0,0,.863-.86c0-.44,0-.878.007-1.3a32.052,32.052,0,0,0-.08-3.329,4.955,4.955,0,0,0-2.9-4.056c-.047-.024-.093-.05-.15-.082l-.609-.336.273-.521a3.937,3.937,0,0,0,.513-2.3,3.826,3.826,0,0,0-2.384-3.288,1.131,1.131,0,0,1-.755-1.151c.009-.686.006-1.385,0-2.061,0-.52,0-1.031,0-1.543a4.656,4.656,0,0,1,4.911-4.884H156.2l.854,2.243-.6.337c-.112.062-.217.121-.321.183a5.08,5.08,0,0,0-2.7,4.3c-.063,1.266-.046,2.567-.029,3.825l.007.51a.731.731,0,0,0,.816.776c3.92.006,7.971.007,12.04,0,.309,0,.77-.151.778-.564q.008-.413.018-.827a32.78,32.78,0,0,0-.091-4.317,4.853,4.853,0,0,0-2.829-3.82c-.063-.032-.124-.068-.188-.106l-.517-.3.823-2.175h.415c.647,0,1.307-.012,1.945-.024,1.5-.028,3.036-.057,4.555.065a4.443,4.443,0,0,1,3.91,4.408c.029,1.342.018,2.661,0,4.124a1.094,1.094,0,0,1-.623.939,3.915,3.915,0,0,0-2.232,2.306,3.962,3.962,0,0,0-.036,2.616l.084-.058.206.72a.626.626,0,0,1-.066.6l-.22.306-.133-.023-.3.2a9,9,0,0,0-.992.7,5.056,5.056,0,0,0-1.8,3.914c-.018,1.171-.011,2.365-.005,3.519l0,.483a.756.756,0,0,0,.839.842c1.027,0,2.008,0,3.282,0H175.1v.6c0,.159,0,.315,0,.469,0,.346,0,.67,0,1S175.091,279.231,175.094,279.55Zm6.138-6.11-.3,0,.3.005c-.006.307-.011.625-.011.94v.6H170.541v-.6c0-.34-.011-.7-.021-1.015a14.849,14.849,0,0,1,.054-2.389,3.605,3.605,0,0,1,3.565-3.036c1.183-.02,2.343-.019,3.445,0a3.714,3.714,0,0,1,3.622,3.394C181.257,272.042,181.244,272.753,181.231,273.44Z" transform="translate(208.09 1281.354)" fill="#0a3a5e" stroke="#0a3a5f" stroke-width="0.4"/>
  </g>
</svg>
