<svg id="Component_19_1" data-name="Component 19 – 1" xmlns="http://www.w3.org/2000/svg" width="52.938" height="56.432" viewBox="0 0 52.938 56.432">
  <circle id="Ellipse_143" data-name="Ellipse 143" cx="13" cy="13" r="13" fill="#23b6d0" opacity="0.175"/>
  <path id="Path_1451" data-name="Path 1451" d="M191.673,323.162c-.869,0-1.644.007-2.419,0-.756-.009-1.183-.386-1.188-1.028a1.045,1.045,0,0,1,1.168-1.062c.793-.014,1.587,0,2.411,0V316.01c-.808,0-1.62.01-2.431,0a1.038,1.038,0,0,1-1.148-.951,1.015,1.015,0,0,1,1.075-1.138c.815-.019,1.632,0,2.491,0v-5.062c-.808,0-1.6,0-2.392,0a1.073,1.073,0,0,1-1.137-.759,1.017,1.017,0,0,1,1.026-1.329c.815-.027,1.632-.006,2.5-.006v-5.093c-.838,0-1.673.023-2.506-.007a1.024,1.024,0,0,1-.975-1.451,1.1,1.1,0,0,1,1.1-.637c.389,0,.779,0,1.168,0h1.211V294.5c-.746,0-1.5,0-2.248,0-.862,0-1.309-.354-1.317-1.026-.008-.694.457-1.068,1.343-1.071.733,0,1.466,0,2.235,0v-5.052c-.785,0-1.538,0-2.291,0-.832-.007-1.292-.4-1.283-1.073.008-.661.439-1.015,1.256-1.021.754-.005,1.509,0,2.355,0,0-.614,0-1.179,0-1.745a4.238,4.238,0,0,1,4.517-4.495c10.717,0,21.435.021,32.152-.016a4.422,4.422,0,0,1,4.542,4.552c-.052,13.811-.024,27.623-.024,41.435a4.2,4.2,0,0,1-4.33,4.414q-16.23.008-32.46,0a4.207,4.207,0,0,1-4.378-4c-.039-.51-.018-1.024-.023-1.536C191.671,323.661,191.673,323.458,191.673,323.162Zm10.945,4.144h25.625c1.743,0,2.523-.773,2.523-2.5q0-20.622,0-41.243a2.145,2.145,0,0,0-2.451-2.445q-12.508,0-25.016,0h-.676Zm-8.806-13.389c1.14,0,2.2-.01,3.269,0a1.016,1.016,0,0,1,1.086.877,1.042,1.042,0,0,1-1.131,1.209c-1.061.016-2.123,0-3.215,0v5.052h.647c.861,0,1.722-.01,2.582.009a1.042,1.042,0,0,1,1.127,1.043,1.022,1.022,0,0,1-1.111,1.046c-.246.009-.492,0-.738,0H193.81c0,.824-.059,1.564.014,2.29a2.039,2.039,0,0,0,2.1,1.847c.737.023,1.475,0,2.213,0h2.31v-46.18c-1.586,0-3.122-.033-4.655.012a1.837,1.837,0,0,0-1.867,1.426,17.2,17.2,0,0,0-.187,2.694c1.206,0,2.271-.015,3.335,0a1.033,1.033,0,0,1,1.013,1.468,1.1,1.1,0,0,1-1.106.627c-1.041,0-2.082,0-3.162,0v5.057c1.1,0,2.162-.011,3.224,0a1.05,1.05,0,1,1-.025,2.091c-1.058.009-2.117,0-3.187,0v5.061h.722c.8,0,1.6-.01,2.4,0s1.234.419,1.225,1.072c-.009.633-.439,1.009-1.2,1.022s-1.517,0-2.275.005c-.3,0-.593.024-.923.039,0,1.593.009,3.109-.006,4.624,0,.389.2.424.5.421.943-.009,1.886-.02,2.828,0a1,1,0,0,1,1.072,1.02,1.019,1.019,0,0,1-1.042,1.062c-.654.037-1.311.016-1.967.018-.442,0-.885,0-1.354,0Z" transform="translate(-180.101 -273.125)" fill="#0a3a5e" stroke="#fff" stroke-width="0.3"/>
  <path id="Path_1452" data-name="Path 1452" d="M310.428,380.277c-.417-.589-.809-1.224-1.281-1.793a4.6,4.6,0,0,1-.771-4.4.746.746,0,0,1,.235-.421c.591-.377.683-1.023.924-1.6a5.529,5.529,0,0,1,6.127-3.154,5.144,5.144,0,0,1,4.544,3.907c.034.117.053.278.136.334,1.21.823.99,2.062.928,3.235a3.6,3.6,0,0,1-.929,2.1c-.469.57-.869,1.2-1.337,1.852.385.151.637.235.877.345a6.818,6.818,0,0,1,4.281,6.15c.036.592.025,1.189.009,1.782a1.03,1.03,0,0,1-1.135,1.154q-8.3.011-16.6,0c-.639,0-1.119-.355-1.1-.914a17.311,17.311,0,0,1,.27-3.654,6.5,6.5,0,0,1,4.058-4.542c.207-.087.417-.167.624-.251A1.278,1.278,0,0,0,310.428,380.277Zm11.59,7.381a4.787,4.787,0,0,0-4.53-5.383,1.207,1.207,0,0,1-1.216-.656c-.237-.531.042-.913.335-1.339.437-.636.767-1.345,1.179-2a5.045,5.045,0,0,1,.837-1.067c.46-.418.886-1.85.492-2.039-.713-.343-.746-.958-.88-1.572-.392-1.8-1.624-2.68-3.662-2.639a3.166,3.166,0,0,0-3.359,2.781c-.1.572-.167,1.152-.828,1.39a.292.292,0,0,0-.13.179,2.188,2.188,0,0,0,.673,1.936,3.237,3.237,0,0,1,.677.82c.479.779.9,1.593,1.4,2.364a1.157,1.157,0,0,1,.212,1.2,1.116,1.116,0,0,1-1.039.638,6.761,6.761,0,0,0-1.094.138,4.731,4.731,0,0,0-3.593,5.253Z" transform="translate(-278.155 -348.235)" fill="#0a3a5e" stroke="#fff" stroke-width="0.3"/>
</svg>
