<svg xmlns="http://www.w3.org/2000/svg" width="59.018" height="51.03" viewBox="0 0 59.018 51.03">
  <g id="Group_795" data-name="Group 795" transform="translate(-765 -2070.898)">
    <circle id="Ellipse_141" data-name="Ellipse 141" cx="13" cy="13" r="13" transform="translate(765 2071)" fill="#2b7630" opacity="0.175"/>
    <path id="Path_1324" data-name="Path 1324" d="M193.712,284.3a1.288,1.288,0,0,0-1.441-1.421c-.916-.009-1.852-.006-2.757,0h-.049l-1.228,0h-1.593v-5.063q0-12.535,0-25.069v-.024a5.859,5.859,0,0,0-.03-.738,1.189,1.189,0,0,0-.492-.792,1.2,1.2,0,0,0-.914-.225,1.264,1.264,0,0,0-1.076,1.443q0,10.956,0,21.912v8.529H178.7v-1.671q0-1.546,0-3.093c0-2.449,0-4.98,0-7.513a1.388,1.388,0,0,0-.564-1.193,1.357,1.357,0,0,0-1.29-.056l-6.922,2.914-.907.382c-.1.043-.208.085-.326.132l-1.533.612v-4.359c0-1.725,0-3.508,0-5.26a1.268,1.268,0,0,0-.926-1.344,1.374,1.374,0,0,0-1.052.223l-2.782,1.427c-3.8,1.95-7.73,3.966-11.609,5.922a1.516,1.516,0,0,0-.963,1.575c.018,2.33.015,4.671.011,6.934q0,1.37,0,2.737v1.658l-2.885,0-2.389,0a1.862,1.862,0,0,0-1.3.372,1.777,1.777,0,0,0-.372,1.279q0,7.8,0,15.6c0,1.236.422,1.654,1.673,1.654h47.686c1.073,0,1.472-.354,1.474-1.305C193.721,295.065,193.721,289.623,193.712,284.3Zm-26.434-7.53a1.434,1.434,0,0,1,.823-1.233c2.1-.911,4.241-1.823,6.312-2.705l.342-.146a1.061,1.061,0,0,1,.639-.057l.854.106v9.994h-8.98v-1.965C167.267,279.4,167.266,278.1,167.278,276.771ZM153.1,271.45c2.473-1.251,4.984-2.535,7.411-3.777l2.434-1.245c.094-.048.181-.084.265-.119l.118-.049,1.367-.588v17.074H152.247v-3.336q0-3.228,0-6.456A1.535,1.535,0,0,1,153.1,271.45Zm38.162,27.881H155.939v-1.609q0-.62,0-1.24c0-.936,0-1.9-.007-2.849a1.247,1.247,0,0,0-1.25-1.325,1.181,1.181,0,0,0-.859.325,1.381,1.381,0,0,0-.392.986c-.014.954-.011,1.926-.008,2.866v.019c0,.421,0,.836,0,1.251v1.575h-7.972v-14h45.812Z" transform="translate(630.202 1820.049)" fill="#0a3c61" stroke="#fff" stroke-width="0.2"/>
  </g>
</svg>
