<svg id="Component_20_1" data-name="Component 20 – 1" xmlns="http://www.w3.org/2000/svg" width="48.735" height="50.25" viewBox="0 0 48.735 50.25">
  <g id="Group_634" data-name="Group 634" transform="translate(-132.75 -239.235)">
    <path id="Path_1315" data-name="Path 1315" d="M198.24,243.891c-.093.881-.177,1.762-.279,2.641A37.432,37.432,0,0,1,195,257.306a.938.938,0,0,1-1.274.573.958.958,0,0,1-.47-1.32q.757-2.049,1.511-4.1c.059-.16.094-.329.142-.5a9.7,9.7,0,0,1-7.89-7.911c-.923.315-1.855.606-2.766.95a40.361,40.361,0,0,0-11.571,6.836,48.229,48.229,0,0,0-11.82,14.275c-.269.5-.719,1.059-.656,1.535.059.443.681.819,1.069,1.21,1.23,1.237,2.467,2.466,3.742,3.739.129-.119.254-.229.372-.346q2.374-2.371,4.746-4.744a3.912,3.912,0,0,1,.347-.325.941.941,0,0,1,1.324,1.329,4.275,4.275,0,0,1-.358.381l-4.71,4.712c-.11.11-.212.226-.371.4.313.3.614.574.9.863,1.236,1.232,2.477,2.459,3.7,3.708a.561.561,0,0,0,.771.136,46.579,46.579,0,0,0,10.7-7.445A48.5,48.5,0,0,0,188.9,264.1a1.678,1.678,0,0,1,.719-.57.818.818,0,0,1,.986.389.908.908,0,0,1-.041,1.111c-.662.871-1.316,1.749-2.014,2.591a50.636,50.636,0,0,1-8.412,8.035.58.58,0,0,0-.239.808,9.387,9.387,0,0,1-1.828,10.011c-.661.764-1.121.754-1.83.046q-3.569-3.565-7.132-7.137a.648.648,0,0,0-.745-.2c-1.457.432-2.929.814-4.386,1.247a1.264,1.264,0,0,1-1.409-.374c-1.183-1.217-2.379-2.422-3.6-3.6a1.343,1.343,0,0,1-.388-1.533c.436-1.423.8-2.867,1.224-4.295a.652.652,0,0,0-.191-.75q-3.579-3.555-7.138-7.13c-.713-.714-.726-1.172.031-1.831a9.391,9.391,0,0,1,9.965-1.858.656.656,0,0,0,.913-.282,49.172,49.172,0,0,1,12.363-11.594,39.378,39.378,0,0,1,16.423-6.132c1-.132,2.015-.206,3.023-.307h3.046Zm-1.913-1.2a29.7,29.7,0,0,0-7.374.939,7.483,7.483,0,0,0,6.471,6.4A35.846,35.846,0,0,0,196.327,242.69Zm-34.554,18.166c-2.184-1.057-5.872-.535-7.331.976l4.23,4.232Zm16.355,16.363-5.374,3.2,4.29,4.258A7.412,7.412,0,0,0,178.128,277.218Zm-16.68-5.4c-.305,1.084-.615,2.143-.89,3.211a.619.619,0,0,0,.175.476c.737.763,1.544,1.464,2.228,2.27a1.4,1.4,0,0,0,1.79.473c.784-.3,1.611-.481,2.412-.712Z" transform="translate(-16.755)" fill="#0a3a5e"/>
    <path id="Path_1316" data-name="Path 1316" d="M132.75,542.969c.731-1.436,1.431-2.888,2.2-4.3.839-1.542,1.67-3.1,2.635-4.559a3.691,3.691,0,0,1,5.211-.92,3.732,3.732,0,0,1,.084,6.148c-1.887,1.238-3.918,2.256-5.9,3.346-.981.539-2,1.019-2.995,1.526H132.75Zm3.084-2.016.168.17c1.884-1.067,3.779-2.116,5.648-3.209A1.742,1.742,0,0,0,142.5,536a1.853,1.853,0,0,0-1.541-1.547,1.742,1.742,0,0,0-1.917.852C137.95,537.172,136.9,539.068,135.834,540.953Z" transform="translate(0 -254.721)" fill="#0a3a5e"/>
    <path id="Path_1317" data-name="Path 1317" d="M325.158,347.364a6.66,6.66,0,1,1,6.67-6.636A6.633,6.633,0,0,1,325.158,347.364Zm-.006-1.906a4.753,4.753,0,1,0-4.736-4.75A4.746,4.746,0,0,0,325.152,345.458Z" transform="translate(-162.184 -81.454)" fill="#0a3a5e"/>
    <path id="Path_1318" data-name="Path 1318" d="M461.841,391.734a.936.936,0,0,1-.937.927.948.948,0,1,1,0-1.9A.931.931,0,0,1,461.841,391.734Z" transform="translate(-285.675 -130.975)" fill="#0a3a5e"/>
  </g>
  <circle id="Ellipse_136" data-name="Ellipse 136" cx="13" cy="13" r="13" transform="translate(11)" fill="#8aaf29" opacity="0.175"/>
</svg>
