<svg xmlns="http://www.w3.org/2000/svg" width="52.269" height="56.482" viewBox="0 0 52.269 56.482">
  <g id="Group_793" data-name="Group 793" transform="translate(-491 -2305)">
    <g id="Group_792" data-name="Group 792">
      <circle id="Ellipse_144" data-name="Ellipse 144" cx="13" cy="13" r="13" transform="translate(491 2305)" fill="#fec725" opacity="0.175"/>
      <g id="Group_665" data-name="Group 665" transform="translate(325.485 2064.971)">
        <path id="Path_1453" data-name="Path 1453" d="M210.415,451.66a3.51,3.51,0,0,1-.709-.952c-.187-.62.383-1.2,1.108-1.214.9-.016,1.808.007,2.712-.008a1.831,1.831,0,0,0,1.883-1.89q.012-8.19,0-16.379c0-.071-.011-.142-.025-.292h-.573c-1.736,0-3.471-.009-5.207.005a1.265,1.265,0,0,1-1.3-.586,1.247,1.247,0,0,1,.2-1.36,2.887,2.887,0,0,0-3.466-4.237,2.846,2.846,0,0,0-1.873,2.828,3.951,3.951,0,0,0,.476,1.469,1.28,1.28,0,0,1,.129,1.321,1.21,1.21,0,0,1-1.2.564c-1.879-.012-3.758,0-5.719,0v.539c0,1.7-.009,3.4,0,5.1,0,.553-.05,1.056-.614,1.332a1.28,1.28,0,0,1-1.4-.273,2.881,2.881,0,1,0-.054,4.631,2.752,2.752,0,0,1,.684-.425,1.094,1.094,0,0,1,1.377,1.158c.007,1.952,0,3.9,0,5.857,0,.2,0,.39,0,.646h3.385c.271,0,.542,0,.813,0a1.087,1.087,0,0,1,1.151.794,1.055,1.055,0,0,1-.523,1.246c-.057.038-.107.086-.16.129h-24.2c-.219-.075-.438-.148-.656-.224a4,4,0,0,1-2.709-3.806q-.015-8.816,0-17.631c0-.884.41-1.244,1.388-1.244H201.1a5.145,5.145,0,0,1,1.676-5.13,4.867,4.867,0,0,1,3.653-1.233,5.13,5.13,0,0,1,4.568,6.36h.588c1.573,0,3.146,0,4.72,0,.874,0,1.28.392,1.281,1.244q0,8.816,0,17.631a4,4,0,0,1-3.02,3.9c-.118.032-.23.084-.345.126Zm-34.3-20.715v.531q0,7.944,0,15.889a1.89,1.89,0,0,0,2.142,2.124h16.38v-4.72a5.053,5.053,0,0,1-5.687-1.984,4.648,4.648,0,0,1-.225-5.405,5.01,5.01,0,0,1,5.918-2.349v-4.086Z" transform="translate(0 -155.348)" fill="#0a3c61" stroke="#fff" stroke-width="0.4"/>
        <path id="Path_1454" data-name="Path 1454" d="M232.2,240.75a6.224,6.224,0,0,1,3.023,1.985q5.657,5.7,11.352,11.361c.977.977.979,1.376.018,2.338q-2.263,2.264-4.525,4.53a1.147,1.147,0,0,1-2.1-.589,2.891,2.891,0,1,0-3.449,3.433,1.238,1.238,0,0,1,1.077.853,1.259,1.259,0,0,1-.505,1.285c-1.516,1.5-3.02,3.017-4.531,4.524-.754.752-1.263.752-2.026-.011-1.2-1.2-2.39-2.409-3.633-3.664a5.122,5.122,0,0,1-4.535,2.78,4.96,4.96,0,0,1-3.729-1.595,5.152,5.152,0,0,1,1.33-8.052c-.122-.134-.234-.268-.357-.391-1.111-1.114-2.228-2.222-3.336-3.34a1.11,1.11,0,0,1-.014-1.829q6.193-6.2,12.389-12.4a5.187,5.187,0,0,1,2.252-1.221Zm2.27,24.571a5,5,0,0,1-2.337-3.668,4.934,4.934,0,0,1,1.395-4.224,4.838,4.838,0,0,1,3.651-1.5,5.041,5.041,0,0,1,4.272,2.351l3.194-3.111c-.188-.164-.4-.33-.6-.521q-5.47-5.463-10.934-10.931a1.926,1.926,0,0,0-3.136.007q-5.6,5.6-11.2,11.2c-.11.11-.21.231-.329.362.149.157.269.289.395.416q1.936,1.938,3.876,3.873a1.149,1.149,0,0,1,.414,1.255,1.165,1.165,0,0,1-1.115.784,2.89,2.89,0,0,0-2.574,3.282,2.933,2.933,0,0,0,2.884,2.52,2.9,2.9,0,0,0,2.888-2.629,1.157,1.157,0,0,1,.752-1.083,1.178,1.178,0,0,1,1.3.419c1.206,1.224,2.43,2.429,3.635,3.653a4.65,4.65,0,0,1,.464.645Z" transform="translate(-35.787)" fill="#0a3c61" stroke="#fff" stroke-width="0.4"/>
        <path id="Path_1455" data-name="Path 1455" d="M388.928,612.031c-.106-.065-.216-.124-.318-.2a1.022,1.022,0,0,1-.44-1.22,1,1,0,0,1,1.014-.736.983.983,0,0,1,1.022.724,1.039,1.039,0,0,1-.414,1.235c-.1.072-.214.129-.321.193Z" transform="translate(-183.179 -315.719)" fill="#0a3c61" stroke="#fff" stroke-width="0.4"/>
      </g>
    </g>
  </g>
</svg>
