<?xml version="1.0" encoding="iso-8859-1"?>
<!-- Generator: Adobe Illustrator 21.0.0, SVG Export Plug-In . SVG Version: 6.00 Build 0)  -->
<svg version="1.1" id="Layer_1" xmlns="http://www.w3.org/2000/svg" xmlns:xlink="http://www.w3.org/1999/xlink" x="0px" y="0px"
	 viewBox="-49 141 512 512" style="enable-background:new -49 141 512 512;" xml:space="preserve">
<path style="fill:#3D80B3;" d="M456.404,547.394L246.39,199.102c-8.274-13.721-23.367-22.245-39.39-22.245
	s-31.116,8.524-39.391,22.246l-210.012,348.29c-8.551,14.182-8.804,31.95-0.661,46.37c8.145,14.42,23.491,23.378,40.051,23.378
	h420.028c16.56,0,31.907-8.958,40.052-23.379C465.209,579.342,464.956,561.575,456.404,547.394z M428.04,577.372
	c-2.242,3.969-6.467,6.436-11.026,6.436H-3.014c-4.559,0-8.784-2.466-11.025-6.435c-2.242-3.97-2.172-8.862,0.181-12.765
	l210.015-348.292c2.278-3.777,6.433-6.124,10.844-6.124c4.41,0,8.565,2.347,10.843,6.124l210.013,348.292
	C430.211,568.512,430.281,573.403,428.04,577.372z"/>
<path style="fill:#3D80B3;" d="M207.156,472.967c7.422,0,17.937-4.02,17.937-13.607c0-36.802,4.329-89.686,4.329-126.489
	c0-12.061-10.205-18.866-22.267-18.866c-12.68,0-22.576,6.804-22.576,18.866c0,36.802,4.329,89.686,4.329,126.489
	C188.91,468.947,197.26,472.967,207.156,472.967z"/>
<path style="fill:#3D80B3;" d="M207.466,494.306c-13.607,0-23.814,10.824-23.814,23.814c0,12.68,10.206,23.814,23.814,23.814
	c12.68,0,23.505-11.134,23.505-23.814C230.971,505.13,220.145,494.306,207.466,494.306z"/>
</svg>
