<svg id="F6-Logo" xmlns="http://www.w3.org/2000/svg" width="89.333" height="23.807" viewBox="0 0 89.333 23.807">
  <path id="Path_4798" data-name="Path 4798" d="M487.008,475.487l-.427.937H484.4l3.592-7.623h.9l3.557,7.623h-2.17l-.439-.937Zm.628-1.648H489.2l-.783-1.826Z" transform="translate(-441.601 -460.714)"/>
  <path id="Path_4799" data-name="Path 4799" d="M661.654,474.68v-.036H658.9V468.8h-2v7.623h3.936Z" transform="translate(-593.649 -460.714)"/>
  <path id="Path_4800" data-name="Path 4800" d="M448.654,474.68v-.036H445.9V468.8h-2v7.623h3.936Z" transform="translate(-405.902 -460.714)"/>
  <path id="Path_4801" data-name="Path 4801" d="M398.234,473.969h-2.442v2.454H393.8V468.8h4.754v1.731h-2.762v1.7h2.442Z" transform="translate(-361.742 -460.714)"/>
  <path id="Path_4802" data-name="Path 4802" d="M546.9,470.543V468.8h5.667v1.743h-1.861v5.88h-1.932v-5.88Z" transform="translate(-496.691 -460.714)"/>
  <path id="Path_4803" data-name="Path 4803" d="M602.059,468.8l-1.577,2.691a.232.232,0,0,1,.107-.012,2.224,2.224,0,0,1,2.513,2.395c0,1.743-1.221,2.549-2.857,2.549-1.612,0-2.845-.806-2.845-2.549a3.6,3.6,0,0,1,.486-1.636l2.063-3.438Zm-.877,5.074a.825.825,0,0,0-.937-.937.925.925,0,1,0,0,1.85.818.818,0,0,0,.937-.913" transform="translate(-541.204 -460.714)"/>
  <path id="Path_4804" data-name="Path 4804" d="M699.908,475.487l-.427.937H697.3l3.592-7.623h.9l3.557,7.623h-2.17l-.439-.937Zm.64-1.648h1.565l-.782-1.826Z" transform="translate(-629.259 -460.714)"/>
  <path id="Path_4805" data-name="Path 4805" d="M775.61,472.44a1.778,1.778,0,0,1,.949,1.624,2.21,2.21,0,0,1-2.407,2.312H770.5V468.8h3.355a2.244,2.244,0,0,1,2.395,2.336,1.821,1.821,0,0,1-.64,1.3m-3.13-1.921v1.269H773.7a.569.569,0,0,0,.581-.593.6.6,0,0,0-.581-.676Zm0,2.881v1.257h1.529a.574.574,0,0,0,.581-.581.559.559,0,0,0-.593-.664H772.48Z" transform="translate(-693.781 -460.714)"/>
  <path id="Path_4806" data-name="Path 4806" d="M828.612,473.993c0,.5.569.747,1.15.747.534,0,1.1-.249,1.1-.688,0-.7-.806-.723-1.34-.759-1.328-.083-2.656-.616-2.656-2.122,0-1.577,1.34-2.371,2.822-2.371,1.4,0,2.822.794,2.786,2.371H830.71c-.012-.5-.474-.7-.984-.7-.427,0-.984.119-.984.664,0,.486.415.6,1.1.676,1.541.13,2.893.5,2.893,2.253,0,1.518-1.482,2.324-2.964,2.324-1.529,0-3-.771-2.976-2.395Z" transform="translate(-743.404 -460.714)"/>
  <rect id="Rectangle_240" data-name="Rectangle 240" width="23.806" height="23.806" transform="translate(0 0)" fill="#ffd400"/>
  <path id="Path_4807" data-name="Path 4807" d="M175.955,441.1v-2.8H161.1v14.855h2.8V446.6h2.7v1.885a4.671,4.671,0,1,0,4.671-4.671h-1.885v-2.7h6.568Zm-2.8,7.374a1.885,1.885,0,1,1-3.77,0v-1.885h1.885a1.9,1.9,0,0,1,1.885,1.885M166.6,443.8h-2.7v-2.7h2.7Z" transform="translate(-156.63 -433.83)"/>
</svg>
