<svg xmlns="http://www.w3.org/2000/svg" width="99.319" height="27.616" viewBox="0 0 99.319 27.616">
  <g id="logo" transform="translate(0.008 0.015)">
    <path id="XMLID_85_" d="M6.494.991v.422a.642.642,0,0,1-.739.723H4.348v8.973a.642.642,0,0,1-.739.723H2.895c-.5,0-.753-.236-.753-.723V2.135H.737A.642.642,0,0,1,0,1.412V.991A.642.642,0,0,1,.737.268H5.756a.642.642,0,0,1,.739.723" transform="translate(0 -0.135)"/>
    <path id="XMLID_84_" d="M22.706.991V11.109a.642.642,0,0,1-.739.723h-.713a.642.642,0,0,1-.739-.723V7.1H17.752v4.01a.642.642,0,0,1-.739.723H16.3a.642.642,0,0,1-.739-.723V.991A.642.642,0,0,1,16.3.268h.718a.642.642,0,0,1,.739.723V5.2h2.763V.991a.642.642,0,0,1,.739-.723h.718a.642.642,0,0,1,.739.723" transform="translate(-7.75 -0.135)"/>
    <path id="XMLID_82_" d="M38.927,11.837H34.676a.642.642,0,0,1-.739-.723V.991a.642.642,0,0,1,.739-.723h4.251a.642.642,0,0,1,.739.723v.422a.642.642,0,0,1-.739.723H36.117v2.91h2.329a.642.642,0,0,1,.739.723v.422a.642.642,0,0,1-.739.723H36.117V9.977h2.811a.642.642,0,0,1,.739.723v.41a.643.643,0,0,1-.739.728" transform="translate(-16.905 -0.135)"/>
    <path id="XMLID_81_" d="M54.251,6.075A3.166,3.166,0,0,1,52.624,3.3v-.41A2.8,2.8,0,0,1,53.445.766,3.47,3.47,0,0,1,55.932,0,3.471,3.471,0,0,1,58.4.77a2.8,2.8,0,0,1,.821,2.123v.1a.642.642,0,0,1-.739.723H57.76c-.5,0-.739-.236-.739-.693V2.963c0-.693-.377-1.029-1.114-1.029a1.231,1.231,0,0,0-.873.251,1.018,1.018,0,0,0-.256.757V3.2a1.329,1.329,0,0,0,.206.743,2.392,2.392,0,0,0,.753.638l1.988,1.265A3.654,3.654,0,0,1,58.889,7a3.119,3.119,0,0,1,.361,1.566V8.99a2.708,2.708,0,0,1-.868,2.119,3.665,3.665,0,0,1-2.534.773,3.6,3.6,0,0,1-2.52-.773,2.735,2.735,0,0,1-.838-2.123V8.851a.642.642,0,0,1,.739-.723h.718c.5,0,.739.221.739.673v.116c0,.693.4,1.029,1.165,1.029.8,0,1.2-.356,1.2-1.044V8.666a1.367,1.367,0,0,0-.19-.743,2.406,2.406,0,0,0-.7-.607l-1.97-1.265Z" transform="translate(-26.144 0)"/>
    <path id="XMLID_80_" d="M69.732,11.215a2.708,2.708,0,0,1-.873-2.123V.991A.642.642,0,0,1,69.6.268h.718a.642.642,0,0,1,.739.723V9.007c0,.707.4,1.059,1.2,1.059s1.215-.351,1.215-1.059V.991c0-.487.256-.723.753-.723h.718a.642.642,0,0,1,.739.723v8.1a2.708,2.708,0,0,1-.877,2.122,4.447,4.447,0,0,1-5.069,0" transform="translate(-34.298 -0.135)"/>
    <path id="XMLID_74_" d="M91.006,8.013c0-.707-.41-1.059-1.215-1.059H88.529V9.985h1.355c.753,0,1.129-.356,1.129-1.059V8.013ZM89.775,2.135H88.529V5.082h1.165c.821,0,1.231-.351,1.231-1.044V3.179c0-.688-.382-1.044-1.149-1.044m3.388,5.928v.994q0,2.778-3.187,2.78h-2.86a.642.642,0,0,1-.739-.723V.991a.642.642,0,0,1,.739-.723h2.761c2.123,0,3.187.928,3.187,2.8v.821A2.045,2.045,0,0,1,91.9,5.972,1.97,1.97,0,0,1,93.164,8.06" transform="translate(-43.024 -0.135)"/>
    <path id="XMLID_72_" d="M105.746,4.595c.035.657.05,1.477.05,2.474v4.04c0,.487-.256.723-.753.723h-.6a.642.642,0,0,1-.739-.723V.991a.642.642,0,0,1,.739-.723h.821a.836.836,0,0,1,.838.588l1.288,3.518.821,2.374.821-2.389,1.3-3.5a.84.84,0,0,1,.838-.588h.838a.642.642,0,0,1,.739.723V11.109a.642.642,0,0,1-.739.723h-.633a.642.642,0,0,1-.739-.723V7.054l.035-2.462c-.221.707-.512,1.531-.858,2.462l-.427,1.231a.827.827,0,0,1-.838.574h-.67a.821.821,0,0,1-.838-.574l-.41-1.21Z" transform="translate(-51.657 -0.135)"/>
    <path id="XMLID_69_" d="M129.256,7.186l-.071-.3c-.427-2.173-.688-3.693-.753-4.533-.1,1.029-.361,2.544-.753,4.533l-.071.3Zm2.279,4.648h-.657a.725.725,0,0,1-.788-.657L129.629,9h-2.4l-.462,2.173a.725.725,0,0,1-.788.657h-.657c-.547,0-.773-.271-.667-.793L126.867.9a.762.762,0,0,1,.808-.643h1.506A.747.747,0,0,1,129.99.9L132.2,11.043c.111.522-.116.793-.662.793" transform="translate(-62.082 -0.132)"/>
    <path id="XMLID_66_" d="M144.791,5.739H145.8c.8,0,1.215-.351,1.215-1.044V3.179c0-.693-.41-1.044-1.215-1.044h-1.009Zm4.387,5.252a.681.681,0,0,1-.015.607.624.624,0,0,1-.547.236h-.84a.859.859,0,0,1-.873-.622l-1.2-3.6h-.888v3.5a.642.642,0,0,1-.739.723h-.7a.642.642,0,0,1-.739-.723V.991a.642.642,0,0,1,.739-.723h2.449a3.668,3.668,0,0,1,2.534.793,2.708,2.708,0,0,1,.873,2.123V4.715a2.583,2.583,0,0,1-1.421,2.495L149.214,11h-.04Z" transform="translate(-71.047 -0.135)"/>
    <path id="XMLID_64_" d="M159.478,11.109V.991a.642.642,0,0,1,.739-.723h.718a.642.642,0,0,1,.739.723V11.109a.642.642,0,0,1-.739.723h-.718a.636.636,0,0,1-.739-.723" transform="translate(-79.435 -0.135)"/>
    <path id="XMLID_63_" d="M171.226,7.32c-.291-.723-.547-1.416-.788-2.052s-.4-1.094-.482-1.365l-.135-.422a21.388,21.388,0,0,1,.341,4.5v3.13a.642.642,0,0,1-.739.723h-.667a.642.642,0,0,1-.739-.723V.991a.642.642,0,0,1,.739-.723h.858a.821.821,0,0,1,.821.574l1.559,3.9c.306.757.582,1.466.8,2.1s.377,1.094.462,1.345l.1.372A21.354,21.354,0,0,1,173.019,4V.991a.642.642,0,0,1,.739-.723h.688a.642.642,0,0,1,.739.723V11.109a.642.642,0,0,1-.739.723h-.8a.8.8,0,0,1-.838-.574l-1.593-3.973Z" transform="translate(-83.688 -0.135)"/>
    <path id="XMLID_62_" d="M191.432,11.837h-4.246a.642.642,0,0,1-.739-.723V.991a.642.642,0,0,1,.739-.723h4.246a.642.642,0,0,1,.739.723v.422a.642.642,0,0,1-.739.723h-2.809v2.91h2.329a.642.642,0,0,1,.739.723v.422a.642.642,0,0,1-.739.723h-2.329V9.977h2.811a.642.642,0,0,1,.739.723v.41a.643.643,0,0,1-.739.728" transform="translate(-92.868 -0.135)"/>
    <path id="XMLID_61_" d="M7.5,40.576v.372A2.571,2.571,0,0,1,6.826,42.8a2.688,2.688,0,0,1-2.023.707A2.688,2.688,0,0,1,2.78,42.8a2.551,2.551,0,0,1-.673-1.852v-6.4a2.572,2.572,0,0,1,.673-1.852A2.688,2.688,0,0,1,4.8,31.986a2.688,2.688,0,0,1,2.023.707A2.551,2.551,0,0,1,7.5,34.546v.437a.3.3,0,0,1-.336.336h-.17a.3.3,0,0,1-.336-.336v-.437A1.612,1.612,0,0,0,4.82,32.735a1.613,1.613,0,0,0-1.837,1.817v6.4A1.612,1.612,0,0,0,4.82,42.77a1.613,1.613,0,0,0,1.837-1.817v-.372a.3.3,0,0,1,.336-.336h.171a.3.3,0,0,1,.336.336" transform="translate(-1.052 -15.935)"/>
    <path id="XMLID_57_" d="M19.1,32.736a1.613,1.613,0,0,0-1.837,1.817v6.4A1.612,1.612,0,0,0,19.1,42.771a1.613,1.613,0,0,0,1.837-1.817v-6.4A1.612,1.612,0,0,0,19.1,32.736M21.107,42.8a2.688,2.688,0,0,1-2.023.707,2.688,2.688,0,0,1-2.023-.707,2.551,2.551,0,0,1-.673-1.852v-6.4a2.571,2.571,0,0,1,.673-1.852,2.688,2.688,0,0,1,2.023-.707,2.688,2.688,0,0,1,2.023.707,2.551,2.551,0,0,1,.673,1.852v6.4a2.571,2.571,0,0,1-.673,1.852" transform="translate(-8.164 -15.936)"/>
    <path id="XMLID_56_" d="M34.083,32.29H34.4a.355.355,0,0,1,.387.336L35.87,39.06q.429,2.6.557,3.693c.171-1.231.351-2.462.557-3.693l1.079-6.483a.322.322,0,0,1,.351-.286h.2c.251,0,.351.135.3.387L37.1,43.1a.431.431,0,0,1-.457.41h-.41a.437.437,0,0,1-.457-.41l-.959-5.506c-.251-1.38-.437-2.575-.557-3.6q-.173,1.362-.557,3.589L32.744,43.1a.431.431,0,0,1-.457.41h-.4a.433.433,0,0,1-.457-.41L29.611,32.677c-.05-.251.05-.387.3-.387h.2a.319.319,0,0,1,.351.286l1.079,6.483c.221,1.345.41,2.575.557,3.7.15-1.129.336-2.359.557-3.7l1.079-6.434a.36.36,0,0,1,.387-.336Z" transform="translate(-14.746 -16.085)"/>
    <path id="XMLID_53_" d="M53.46,32.737a1.613,1.613,0,0,0-1.837,1.817v6.4a1.842,1.842,0,1,0,3.673,0v-6.4a1.616,1.616,0,0,0-1.837-1.817m2,10.068a3.238,3.238,0,0,1-4.04,0,2.551,2.551,0,0,1-.673-1.852v-6.4a2.571,2.571,0,0,1,.673-1.852,3.238,3.238,0,0,1,4.04,0,2.551,2.551,0,0,1,.673,1.852v6.4a2.571,2.571,0,0,1-.673,1.852" transform="translate(-25.279 -15.937)"/>
    <path id="XMLID_50_" d="M67.719,38.136c1.231,0,1.837-.574,1.837-1.737V34.869c0-1.179-.607-1.767-1.837-1.767H66.088v5.034Zm2.846,4.984a.318.318,0,0,1,0,.3.262.262,0,0,1-.251.116h-.135a.549.549,0,0,1-.537-.41L68.11,38.888a2.844,2.844,0,0,1-.41.015H66.068v4.3a.3.3,0,0,1-.336.336h-.164a.3.3,0,0,1-.336-.336V32.665a.3.3,0,0,1,.336-.336H67.7a2.743,2.743,0,0,1,2.023.693,2.443,2.443,0,0,1,.673,1.817v1.531a2.216,2.216,0,0,1-1.445,2.324l1.616,4.4v.03Z" transform="translate(-32.491 -16.105)"/>
    <path id="XMLID_47_" d="M84.959,32.26a.272.272,0,0,1,.251.116.318.318,0,0,1,0,.3L82.836,37.73l2.495,5.356a.318.318,0,0,1,0,.3.262.262,0,0,1-.251.116h-.236a.429.429,0,0,1-.41-.251L82.024,38a.712.712,0,0,1,0-.457l2.309-5.019a.422.422,0,0,1,.41-.251h.221V32.26Zm-4.05.351v10.54a.3.3,0,0,1-.336.336h-.164a.3.3,0,0,1-.336-.336V32.611a.3.3,0,0,1,.336-.336h.164a.3.3,0,0,1,.336.336" transform="translate(-39.883 -16.071)"/>
    <path id="XMLID_46_" d="M93.6,43.176V32.636a.3.3,0,0,1,.336-.336h.171a.3.3,0,0,1,.336.336v10.54a.3.3,0,0,1-.336.336h-.171a.3.3,0,0,1-.336-.336" transform="translate(-46.622 -16.09)"/>
    <path id="XMLID_45_" d="M100.447,33.7c.035.843.05,1.97.05,3.4v6.028a.3.3,0,0,1-.336.336H100a.3.3,0,0,1-.336-.336V32.6a.3.3,0,0,1,.336-.336h.472a.378.378,0,0,1,.387.271l2.41,6.113,1.33,3.418c-.015-.522-.035-1.651-.035-3.383V32.611a.3.3,0,0,1,.336-.336h.164a.3.3,0,0,1,.336.336v10.54a.3.3,0,0,1-.336.336h-.487a.378.378,0,0,1-.387-.271l-2.41-6.082Z" transform="translate(-49.641 -16.071)"/>
    <path id="XMLID_44_" d="M115.239,34.58a2.571,2.571,0,0,1,.673-1.852,3.238,3.238,0,0,1,4.04,0,2.551,2.551,0,0,1,.673,1.852v.442a.3.3,0,0,1-.336.336h-.164a.3.3,0,0,1-.336-.336v-.437a1.837,1.837,0,1,0-3.674,0v6.4a1.575,1.575,0,0,0,1.751,1.806,2,2,0,0,0,1.43-.487,1.732,1.732,0,0,0,.507-1.313V38.51h-1.059a.3.3,0,0,1-.336-.336v-.09a.3.3,0,0,1,.336-.336h1.566a.3.3,0,0,1,.336.336v4.969a.3.3,0,0,1-.336.336h-.171a.3.3,0,0,1-.336-.336V42.7a2.231,2.231,0,0,1-1.938.843,2.432,2.432,0,0,1-1.92-.707,2.7,2.7,0,0,1-.643-1.867v-6.4Z" transform="translate(-57.4 -15.951)"/>
    <path id="XMLID_43_" d="M135.861,37.507a3.1,3.1,0,0,1-1.651-2.575v-.487a2.662,2.662,0,1,1,5.321,0V34.7a.3.3,0,0,1-.336.336h-.164a.3.3,0,0,1-.336-.336v-.251a1.827,1.827,0,0,0-3.654,0v.3a1.989,1.989,0,0,0,.321,1.195,3.834,3.834,0,0,0,.959.873l1.666,1.094a2.979,2.979,0,0,1,1.616,2.374v.588a2.544,2.544,0,0,1-.723,1.837,3.266,3.266,0,0,1-4.061,0,2.512,2.512,0,0,1-.707-1.852v-.4a.3.3,0,0,1,.337-.336h.171a.3.3,0,0,1,.336.336v.41a1.824,1.824,0,0,0,.457,1.313,1.859,1.859,0,0,0,1.416.487,2,2,0,0,0,1.45-.487,1.777,1.777,0,0,0,.487-1.313v-.222a2.272,2.272,0,0,0-.3-1.165,3.206,3.206,0,0,0-.944-.858l-1.666-1.094Z" transform="translate(-66.8 -15.861)"/>
    <path id="XMLID_42_" d="M150.8,39.345c-.221,0-.336-.1-.336-.3v-.15a.3.3,0,0,1,.336-.336h.387c1.231,0,1.837-.574,1.837-1.737V34.883c0-1.179-.607-1.767-1.837-1.767h-1.632V43.235a.3.3,0,0,1-.336.336h-.171a.3.3,0,0,1-.336-.336V32.7a.3.3,0,0,1,.336-.336h2.138a2.762,2.762,0,0,1,2.023.688,2.443,2.443,0,0,1,.673,1.817V36.8a2.455,2.455,0,0,1-.673,1.817,2.743,2.743,0,0,1-2.023.693H150.8Z" transform="translate(-74.071 -16.119)"/>
    <path id="XMLID_39_" d="M164.33,39.472l-.588-2.574c-.221-.923-.387-1.717-.522-2.374s-.221-1.094-.251-1.3l-.05-.3c-.082.574-.351,1.9-.821,3.975l-.588,2.575h2.821Zm1.43,4.04h-.185a.341.341,0,0,1-.351-.286l-.688-3h-3.2l-.693,3a.345.345,0,0,1-.351.286h-.185c-.251,0-.351-.116-.3-.372l2.474-10.555a.345.345,0,0,1,.351-.286h.607a.341.341,0,0,1,.351.286l2.474,10.555c.045.251-.055.372-.306.372" transform="translate(-79.592 -16.091)"/>
    <path id="XMLID_38_" d="M180.045,40.577v.372a2.571,2.571,0,0,1-.673,1.852,3.238,3.238,0,0,1-4.04,0,2.551,2.551,0,0,1-.672-1.852v-6.4a2.572,2.572,0,0,1,.672-1.852,3.238,3.238,0,0,1,4.04,0,2.551,2.551,0,0,1,.673,1.852v.437a.3.3,0,0,1-.336.336h-.174a.3.3,0,0,1-.336-.336v-.437a1.837,1.837,0,1,0-3.675,0v6.4a1.837,1.837,0,1,0,3.675,0v-.372a.3.3,0,0,1,.337-.336h.171a.3.3,0,0,1,.336.336" transform="translate(-86.996 -15.936)"/>
    <path id="XMLID_37_" d="M192.891,43.512h-3.975a.3.3,0,0,1-.336-.336V32.636a.3.3,0,0,1,.336-.336h3.975a.3.3,0,0,1,.336.336v.082a.3.3,0,0,1-.336.336h-3.468v4.427H192.4a.3.3,0,0,1,.337.336V37.9a.3.3,0,0,1-.337.336h-2.982V42.75h3.468a.3.3,0,0,1,.336.336v.082a.3.3,0,0,1-.336.336" transform="translate(-93.93 -16.09)"/>
  </g>
</svg>
