<svg xmlns="http://www.w3.org/2000/svg" xmlns:xlink="http://www.w3.org/1999/xlink" width="128" height="128" viewBox="0 0 128 128">
  <defs>
    <clipPath id="clip-path">
      <rect id="Rectangle_251" data-name="Rectangle 251" width="128" height="128" rx="5" transform="translate(1270 14520)" fill="#fff"/>
    </clipPath>
  </defs>
  <g id="Mask_Group_652" data-name="Mask Group 652" transform="translate(-1270 -14520)" clip-path="url(#clip-path)">
    <g id="Group_967" data-name="Group 967" transform="translate(-2396 758)">
      <path id="Path_4841" data-name="Path 4841" d="M0,0H145.137V145.137H0Z" transform="translate(3657 13753)" fill="#0468b1"/>
      <path id="Path_4842" data-name="Path 4842" d="M33.76,30.184c-1.935,2.9-4.838,5.322-6.289,8.708,0-2.419.484-5.322-.484-7.257-1.451-4.838-2.9-9.192-3.387-15V14.7c.968,5.322,6.289,9.192,5.805,15a9.114,9.114,0,0,1-.968,3.87v-.484c.968-2.9.968-5.805,2.419-8.708,1.935-3.87,3.87-7.741,2.9-12.579,3.87,5.805,2.9,13.062,0,18.384" transform="translate(3747.574 13798.288)" fill="#fff"/>
      <path id="Path_4843" data-name="Path 4843" d="M33.543,10.653C36.93,15.491,37.9,22.748,34.995,28.07a40.3,40.3,0,0,0-1.935,7.257,1.777,1.777,0,0,0-.484-1.451c-.968-5.322-6.289-9.192-8.224-13.546-.968-1.451-.968-2.9-1.451-5.322,1.935,3.87,7.257,5.805,9.192,10.643.968.968.484,2.419.968,3.87-.968-4.838-.484-9.192,0-13.546A15.453,15.453,0,0,0,31.608,9.2c.484-.484.968.484,1.935,1.451" transform="translate(3744.888 13787.822)" fill="#fff"/>
      <path id="Path_4844" data-name="Path 4844" d="M34.579,16.108c.968,3.87-.484,7.741.484,12.095-2.419-4.354-6.773-6.289-10.16-9.676A10.667,10.667,0,0,1,22,11.27c1.935,4.354,6.773,5.322,9.676,9.192.968.968.968,1.935,1.935,2.9a40.834,40.834,0,0,1-2.9-11.611L27.805,7.4c2.9.968,5.805,4.838,6.773,8.708" transform="translate(3741.434 13781.4)" fill="#fff"/>
      <path id="Path_4845" data-name="Path 4845" d="M85.058,13.441c2.9,2.9,3.87,5.805,4.838,9.192l.484.968A58.027,58.027,0,0,1,79.736,12.473l-2.9-3.387c2.419.968,5.805,1.935,8.224,4.354m-53.7-3.387c5.322-2.9,11.611-3.87,17.416-4.354A39.331,39.331,0,0,1,83.606,27.471c3.87,7.741,5.322,18.384,2.9,27.092-2.9,10.643-11.611,20.8-21.771,25.157C53.128,85.042,37.163,84.074,27,76.817,12.973,67.625,7.168,50.693,11.522,34.244c2.419-9.676,10.16-19.835,19.835-24.19m-11.127,0c-2.9,2.419-4.838,5.805-7.257,8.708A84.23,84.23,0,0,1,6.2,24.568c1.451-2.9,1.451-5.805,3.387-7.741,2.419-4.354,6.773-5.322,10.643-6.773" transform="translate(3680.795 13774.876)" fill="#fff"/>
      <path id="Path_4846" data-name="Path 4846" d="M8.1,11.087c.968-1.935,2.9-2.9,5.322-3.387-3.87,2.9-3.387,7.257-4.838,11.611-.484.968-.968,2.9-1.451,3.87a42.545,42.545,0,0,0,2.9-4.838c2.9-2.9,6.773-4.354,8.224-8.224,0,5.322-4.354,9.192-8.708,12.095A11.827,11.827,0,0,0,5.2,27.535v-3.87c.484-4.354,0-9.676,2.9-12.579" transform="translate(3676.957 13782.552)" fill="#fff"/>
      <path id="Path_4847" data-name="Path 4847" d="M4.424,20.711c0-4.838,1.935-8.224,4.354-11.611-2.9,4.354-.484,10.16-.968,15l-.484,5.322a2.909,2.909,0,0,1,.484-1.935c.968-4.354,4.354-7.257,7.257-10.16a6.445,6.445,0,0,0,1.451-2.419,31.293,31.293,0,0,1-1.935,6.289c-2.419,4.838-7.257,8.708-7.741,14.03.484-4.838-3.387-9.192-2.419-14.514" transform="translate(3673.379 13787.926)" fill="#fff"/>
      <path id="Path_4848" data-name="Path 4848" d="M4.109,16.354,5.56,12c-.968,5.805,2.9,10.643,4.354,15.481l1.451,5.805c-1.935-5.322.968-10.643,3.87-15.481.968-.968.968-2.419,1.451-3.87.484,2.419-.484,5.322-.968,7.741-.968,2.9-1.935,6.773-2.9,9.676-.968,1.935-.484,4.354,0,6.289-1.935-3.87-6.289-7.257-7.257-11.611a13.035,13.035,0,0,1-1.451-9.676" transform="translate(3671.275 13799.055)" fill="#fff"/>
      <path id="Path_4849" data-name="Path 4849" d="M3.7,15.684c.484,6.289,7.257,9.676,10.643,15.481a16.421,16.421,0,0,0,2.9,2.9c0-.968-.968-.968-.968-1.935a12.684,12.684,0,0,1-.968-7.257c.484-2.9,1.451-6.289.968-9.676,2.9,5.805,1.935,13.546,3.387,19.835a9.724,9.724,0,0,0,1.935,3.87c-5.805-3.87-13.546-7.257-15.965-15C3.7,21.489,3.7,18.587,3.7,15.684" transform="translate(3671.2 13811.336)" fill="#fff"/>
      <path id="Path_4850" data-name="Path 4850" d="M4.5,22.522c2.9,7.257,11.611,7.741,16.449,12.095a3.978,3.978,0,0,0,2.9,1.935c-.968-.968-2.9-2.419-3.387-3.87-2.9-4.354-1.935-10.643-4.354-15.481,1.935,2.9,3.87,5.322,5.322,8.708,1.935,4.838,2.9,10.16,7.257,13.546-4.838-1.451-10.643-.968-15-3.87S4.984,28.327,4.5,22.522" transform="translate(3674.271 13819.012)" fill="#fff"/>
      <path id="Path_4851" data-name="Path 4851" d="M6.2,26.573c5.322,5.805,13.546,3.87,20.319,5.322.968,0,1.935.484,2.9.484-.968-.484-1.935-.484-2.9-.968C21.2,29.476,20.23,24.154,17.327,19.8c3.87,2.419,6.773,5.805,10.16,9.192,2.419,1.935,5.322,2.9,8.708,3.87-.968.484-1.935,0-2.9.484-5.805,1.451-11.611,3.387-17.9,1.451C12.005,32.862,8.135,29.96,6.2,26.573" transform="translate(3680.795 13828.99)" fill="#fff"/>
      <path id="Path_4852" data-name="Path 4852" d="M68.958,30.411c-5.806,1.935-11.611,0-16.449-3.387-1.935-.968-3.387-2.9-5.805-2.9H44.284A35.056,35.056,0,0,1,56.379,32.83a8.494,8.494,0,0,1-2.419,1.935A39.578,39.578,0,0,0,41.865,25.09c-.968,0-1.451.968-2.419.968-3.387,2.419-7.257,5.322-9.676,9.192L27.352,32.83a40.247,40.247,0,0,1,12.095-8.708c-4.354-1.451-7.257,2.419-10.643,4.354a14.5,14.5,0,0,1-14.03,1.935c-2.9-.968-5.322-2.419-6.773-4.838,3.87,2.9,9.192,2.9,13.546.968,5.805-2.419,11.611-5.322,18.384-3.87.968,0,1.935.968,2.9,0a24.363,24.363,0,0,1,15.481,1.935l4.838,1.935A16.791,16.791,0,0,0,76.7,25.09c-2.9,2.9-4.838,4.838-7.741,5.322" transform="translate(3687.703 13838.215)" fill="#fff"/>
      <path id="Path_4853" data-name="Path 4853" d="M38.019,34.214c-6.773,2.419-13.062-.484-19.352-1.451H17.7c2.9-.968,5.805-1.451,8.224-3.87,3.387-3.387,6.773-6.773,10.643-9.192-2.9,3.87-2.9,9.192-7.741,11.611-.968.968-2.9.968-3.87,1.451,1.935,0,2.9-.968,5.322-.968,6.289-.968,13.546,0,17.9-5.322-2.419,3.387-6.773,6.773-10.16,7.741" transform="translate(3724.931 13828.607)" fill="#fff"/>
      <path id="Path_4854" data-name="Path 4854" d="M30.66,37.035c-2.9.968-6.773.968-10.16,2.419,5.322-4.838,5.322-12.095,8.708-17.416.968-1.451,1.935-2.9,3.387-4.838-2.419,4.354-.968,10.16-3.87,14.514a18.942,18.942,0,0,1-3.87,4.838c.484,0,.968-.484,1.451-.968,4.354-3.87,9.192-5.322,14.03-8.708a11.827,11.827,0,0,0,4.354-5.322c-.484,7.257-7.741,13.546-14.03,15.481" transform="translate(3735.677 13819.012)" fill="#fff"/>
      <path id="Path_4855" data-name="Path 4855" d="M30.057,33.868A20.207,20.207,0,0,0,22.8,39.19c3.87-6.289,1.935-15,4.354-21.771L28.122,15c-.484,4.354,1.451,7.741.968,12.095,0,2.9-.968,4.838-2.419,7.257,1.935-2.419,2.9-5.322,5.322-7.257,3.387-2.9,6.773-6.773,7.257-11.127,1.451,7.257-2.9,14.03-9.192,17.9" transform="translate(3744.504 13810.568)" fill="#fff"/>
      <path id="Path_4856" data-name="Path 4856" d="M54.376,54.876a26.836,26.836,0,0,0,3.87-2.9h-.968a.948.948,0,0,1-.968-.968l-2.419-2.419V48.1a1.041,1.041,0,0,1-.968.968c0,.484,0,.968.484.968.968.484,1.935.968,1.935,1.451-.484.968-1.935,1.451-.968,2.9.484,0-.484,0,0,.484M40.83,23.43c.484.484.968,0,.968-.484a1.041,1.041,0,0,1,.968.968h.968c0-1.451,2.419-.968,2.9-2.9h-.484a.474.474,0,0,1-.484-.484l.968-.968a25.928,25.928,0,0,0-5.322-2.419,4.361,4.361,0,0,1-2.419-.484c.484.968,0,2.9.484,3.87l.968.484c.484-.968.968-.968,1.451-1.451h.968v1.451c0,1.935-1.451,1.935-1.935,2.419M61.149,36.492a25.282,25.282,0,0,1-3.387,7.257c-.968.968-.968,1.935-1.935,2.419l1.935,1.451v-.484a.474.474,0,0,1,.484-.484.948.948,0,0,1,.968.968c0,.968.484.968.484,1.935a29.836,29.836,0,0,0,7.741-18.384l.484-.484H62.117a8.233,8.233,0,0,1-.484,3.387l.968.968v.968c-.968.968-.968.968-1.451.484M56.311,19.56c-.968-.968-1.451-2.419-2.9-3.387a57.986,57.986,0,0,0-5.322,5.805l.484.484a1.689,1.689,0,0,1,.484-.968c.484-.968.968,0,1.935,0h2.9c.968.484.968.968,1.451,1.451v.968c0,1.451.968-.484,1.451,0,.484,0,.968,0,.968.484,0,.968.968.484.968.968a.474.474,0,0,1-.484.484c0,.968-.968.968-.484,1.451.968,0,.968-.968,1.451-1.451-.484-.968-.484-1.935-.968-2.9-.968,0-.968-.968-1.451-.968-1.451-.968,0-1.451-.484-2.419M39.379,59.714c1.451-.484,2.9-.484,4.838-.968-.484,0-.968,0-.968-.484-.968,0-.968-.968-1.451-1.935a1.777,1.777,0,0,1,.484-1.451c-.484-.968-1.451,0-2.419-.484a1.689,1.689,0,0,0-.968-.484l.484.484v5.322m1.451-15c.484,0,0,.968.484.968.968-.484,1.451.968,1.935,0,0-.968.968-.968,1.451-.968.968-.484,1.935-.968,1.935-2.419-.968,0-.968.484-.968.968-.484.484-.968-.968-.968-.484v.484c-.968.968-.968-.484-1.451,0v.484c-.484-.968-.968-.484-1.451-.968H40.83c0,.484-.968,0-.968.484-.484,0-.484.968-.968.968-.968,0-.968.968-1.451.484V45.2h.968c.484-.968,1.451,0,2.419-.484m5.322-7.257c0,.484,0,.968.484.968.968,0,.484.968.968.968s0-.484,0-.968c0-.968-.484-.968-1.451-.968h0m-.484-27.092C43.733,9.4,41.8,9.4,39.379,9.4v5.805h.484c2.9.484,6.289,1.451,8.708,3.387v.484c.968-.968,1.935-2.419,2.9-3.387l.968-.484h-.484a18.334,18.334,0,0,0-6.289-4.838M9.384,32.138l.484,3.387c0,.968.968,2.9.968,3.87,0-.484,0-.968.968-.968,0-.484.484-.968,0-.968a6.876,6.876,0,0,1,.968-2.9c.968,0,.968-.968,1.935-1.451.484,0,.968.968.968.968a2.279,2.279,0,0,1-.484-2.9H8.9l.484.968ZM44.217,41.33c.484-.484,1.451-.484,1.451-.968-.484-.484-.484,0-1.451.968-.484-.484-.484,0,0,0m12.095-10.16.968.968c.968.484,0,.968.968,1.451s.968.968.968,1.935v-.484c.484-.968,0-2.419.484-2.9-.968-.484-2.419-.484-3.387-.968M48.571,45.2c.968,0,.968.968,1.935.968.968-.484,1.935,0,2.419-.484,0-.968.484-.968.968-1.935a1.777,1.777,0,0,1,.484,1.451c.484-.968.968-.968,1.451-1.935.968-1.935,2.419-3.87,2.9-5.805a1.777,1.777,0,0,0-1.451.484c-.484,0-.968.484-1.935,0H54.86c0,.484-.484.968-.968.484-.484,0-.484-.484-.484-.968v.968c-.484.484-.484.968-.968.968-.484.484-.968.484-1.451.968,0,.968-.968.968-1.451.968h.968a.948.948,0,0,0,.968-.968c.484,0,.968-.484.968,0,.484.484.484.968.484,1.935-.484.484,0,.968-.484,1.935,0,.968-.968.968-.968,1.451a1.5,1.5,0,0,1-.968.484c-1.451-.968-2.9-.968-4.838-.968,0,0-.484,0,0,.484,1.451-.968,1.935-.968,2.9-.484M36.96,62.133c-7.741-.484-14.514-2.9-19.835-8.708l-3.87,3.87a34.086,34.086,0,0,0,20.8,9.192,10.652,10.652,0,0,1,3.87.484l-.484-.484-.484-4.354Zm-7.741-20.8a12.236,12.236,0,0,0,7.257,2.9V42.782c0-.484.968-.484.968-.484s.484-.484,0-.484-.484-.968-.484-.968a.474.474,0,0,0,.484-.484.67.67,0,0,1,0-.968l.484-.484a3.207,3.207,0,0,1-3.387-.968l-.968-.968L29.219,41.33m-1.935-6.289h-.968c0-.968-.968-.484-1.451-.968l1.451,2.9c.484.968.968,1.451,1.451,2.419.484-.968.968-.968,1.451-1.935v-.968c0-.484,0-.968-.484-.968s0,.968,0,.968h-.484a1.041,1.041,0,0,1-.968-.968c.484,0,0,0,0-.484m3.87.484a1.041,1.041,0,0,1-.968.968c.484-.484.968-.968,1.451-.968ZM36.96,54.393c-4.838,0-8.708-1.935-12.579-4.838,0,.484.968.968.484.968a1.777,1.777,0,0,1-1.451.484c-.968,0-1.935.968-2.9.968-.968.484-.968-.968-1.935-.968a30,30,0,0,0,18.868,7.741l.484.484V53.425l-.968.968Z" transform="translate(3691.157 13789.077)" fill="#0468b1"/>
      <path id="Path_4857" data-name="Path 4857" d="M21.814,57.73c-.968-.484-.968-.968-1.935-1.935-.968,0-.968-.968-1.451-.968v-.484c-.968.484-.968-.484-1.451-.968-.968-.484-.484-1.935-1.451-1.451-.484,0-.484-.484-.968-.484a.948.948,0,0,1-.968-.968v.484c-.968,0-.968-.968-1.451-.968h-.484a2.513,2.513,0,0,1-.968-1.935c-.968-.968-.484-1.935,0-2.9a1.689,1.689,0,0,0,.484-.968c0-.484.968-.484.968-.484a.474.474,0,0,1,.484.484c.484,0,.968,0,.968-.484a1.5,1.5,0,0,1,.968-.484c.484.484.484.968.968.968l-.484-.484a24.283,24.283,0,0,1-.968-5.805V36.444H7.3a40.367,40.367,0,0,0,4.838,16.933c.968,2.9,3.387,4.838,5.322,7.257l3.87-3.87ZM28.1,12.254c-.968.968-2.419,1.935-3.387,2.9a27.655,27.655,0,0,1,3.87,3.387v.484c2.9-2.9,7.257-4.838,11.127-5.805.968,0,1.935-.484,2.9,0V7.9C37.3,7.9,32.941,9.835,28.1,12.254m-4.838,20.8a6.136,6.136,0,0,1-.484,2.9c.968-.484,1.451,0,2.419,0-.484,0,0-.968-.484-.968a1.777,1.777,0,0,1,.484-1.451c0-.968.968-.968.968-1.935s.968-.484,1.451-.968c.484,0,0-.484,0-.968.484-.484.968-.484,1.451-.968l.968-.968c.968,0,.968-1.451,2.419-1.451-1.451-.968-2.9-2.9-4.354-3.87a30.928,30.928,0,0,0-4.838,10.643m.968,7.741c0-.484-.484-.484-.484-.968.484-.968,0-1.935.968-1.935-.968,0-.968.484-1.935,0l.484.484c0,.968.484,2.419.484,3.87,0-.968,0-1.451.484-1.451M29.554,54.344Z" transform="translate(3685.017 13783.319)" fill="#0468b1"/>
      <path id="Path_4858" data-name="Path 4858" d="M16.357,23.133l-1.935,2.9A27.487,27.487,0,0,0,9.1,42h5.805v-.484A23.327,23.327,0,0,1,21.195,27,42.3,42.3,0,0,1,16.357,23.133ZM32.322,59.417c.484-.484.968-.968,1.451-.968-1.935.484-2.9-.968-4.838-1.451a4.83,4.83,0,0,1-2.419-1.935,14.724,14.724,0,0,1-3.87,3.87c.968,0,.968.968,1.451.968,2.9,2.419,6.773,3.387,9.676,4.354l-.968-.484a10.121,10.121,0,0,1-1.935-2.9c1.451-.484,1.451-.968,1.451-1.451M19.26,43.936V44.9c0,.968-.968,0-.968.484v.968c-.484.968.968,1.451.968,2.9.484.968,0,1.451.968,2.419,0,.968,0,2.9.968,3.87v.968a.948.948,0,0,1-.968.968.474.474,0,0,1,.484.484,27.6,27.6,0,0,1,5.322-5.322l-.968-.968c-.968-1.935-2.419-4.354-2.9-6.773l-.484-.484c0,.968-.484.968-.484,1.935a1.689,1.689,0,0,1-.968-.484.67.67,0,0,1,0-.968h.484v-.968c0-.484-.484-.968,0-.968a1.041,1.041,0,0,1,.968.968c.484,0,.968,0,.968-.484s.484-.968,0-.968c.484-.968,0-1.451,0-2.419-.484-.484-.968,0-1.451,0-1.451.484.484,1.451,0,2.9-.968,1.451-1.451.484-1.935.968m49.347,0c-.484,6.773-2.9,12.095-6.289,17.416-.968.968-.968,1.935-2.419,2.419,1.451.968,2.9,2.9,4.354,4.354,5.805-6.773,9.192-14.514,9.192-23.706v-.484ZM16.357,20.714a31.013,31.013,0,0,1,19.835-8.708V6.2a39.931,39.931,0,0,0-20.8,7.257A21.042,21.042,0,0,1,12,16.36a9.493,9.493,0,0,1,4.354,4.354m19.835.968A25.943,25.943,0,0,0,23.13,27,29.192,29.192,0,0,1,27,30.873a.474.474,0,0,1,.484-.484c1.935-.968,3.87-2.419,5.805-2.9.968,0,1.935-.484,2.9-.484V21.681Zm0,7.257a13.751,13.751,0,0,0-8.224,4.354h.484c.484.484.968.484,1.451.968,0,.484-.484.484-.484.968H29.9c.484,0,.484,0,.484-.484.484-.484.484.484.968.484h.968c.484-.484.968,0,.968-.484.968-.968.484-1.451.968-1.935.484,0,0,.484,0,.968.968.484.968-.484,1.935,0V28.938m.484,8.708A6.445,6.445,0,0,1,34.257,39.1c-.484.484,0,.968-.968.968,0,.484-.968.968-.968.968-.484.968,0,1.451-.484,2.419-.968.968-.968-.968-1.451-.968H28.935c-.484.484-.968.968-.484.968,0,.484-.968,0-.968.968a2.909,2.909,0,0,0,1.935-.484h.968a.474.474,0,0,1,.484.484c.484,0,.484-.968.484-.968,0-.484.484-.484.968-.484s0,.484,0,.484c.968.484,0,.968-.484,1.451,0,.484,0,.968-.968.968v-.484c0,.484,0,.968.484.968.484-.484.484-.968.968-.968.484-.484,0-.968.484-1.451.968,0,1.935-.484,2.9.484v.968a1.041,1.041,0,0,1-.968.968v.968c-.484.968-1.451.968-2.419.968.968.968,2.9.968,4.354.968.968,0,.484-.968.968-1.451.484-.968,1.451-.484,2.419-.968.484-.968.968-.968.968-1.935-.968-.484-.968-.968-.968-1.451-.484-.484-.484-.968-.968-.968V42c0-.484.484-.484.484-.968a1.5,1.5,0,0,1-.484-.968c-.968,0-.968-.968-1.451-.968,0-.484-.968-.484-.968-.968-.968.484-.968-.968-1.935-.968V36.2a.67.67,0,0,1,.968,0h-.484c-.484-.484-.968,0-1.451,0,2.9.968,2.419.968,2.9,1.451" transform="translate(3691.925 13776.795)" fill="#0468b1"/>
      <path id="Path_4859" data-name="Path 4859" d="M12.822,41.617v-.968A32.09,32.09,0,0,1,18.627,24.2c.968-.968,1.451-2.419,2.9-2.9l-3.87-3.87c-5.322,6.289-9.192,13.546-9.676,21.287A8.233,8.233,0,0,1,7.5,42.1a6.854,6.854,0,0,1,5.322-.484M65.555,64.839c-.484.968-1.935,1.935-2.9,2.9s-2.9,1.451-3.87,3.387c-.968.968-.968,1.451-1.935,1.935-.484.968-.968.968-1.935,1.451-1.451,1.451-2.9-.968-3.87-.968l-2.9.484c-.968,0-1.935.484-2.9,0v5.805h.484a37.662,37.662,0,0,0,24.19-10.16l-4.354-3.87v-.968Zm-20.8-53.7c.484-.484.484-.484.968,0v.968H46.2c4.354.484,8.708,1.451,12.095,3.87.968-.484,1.935-.968,2.419,0,.968-.484.968.968,1.935.968.484,0,1.451,1.451,1.451,2.419,0,.484.968.968.968.968.968-.968,1.935-2.419,2.9-3.387l.968-.484A37.905,37.905,0,0,0,48.622,6.784a10.652,10.652,0,0,1-3.87-.484v4.838" transform="translate(3685.784 13777.179)" fill="#0468b1"/>
      <path id="Path_4860" data-name="Path 4860" d="M15.2,13.989c.968-.484,1.451,0,2.419,0,3.87.968,7.257,1.935,10.643,4.354-.484-.484-.968-.968-.968-1.451,0-.968-.968-.968-.968-1.451h.484a5.072,5.072,0,0,1,1.451,1.935c.484,0,.968,0,.968.484s0,.968.968,1.451c0,.968,1.451,1.935,1.451,2.9,0,.484.484,0,.484,0l.968,1.451v.968a1.689,1.689,0,0,0,.968-.484c.968.484,0,.968,0,1.451h.968a1.689,1.689,0,0,1-.484.968c0,.484.484.484.968.484s.484.484.484.968c.968.968-.484,1.935,0,2.9s0,.968-.484,1.935c0,.968-.968.968-.968,1.935h-.968c-.484.484.484.968,0,1.451h1.935c-.484-.968,0-1.935.484-2.9s.484-1.451.968-1.935c0,0,.484-.484.484,0,0,.968,0,1.451-.484,1.935.968.968.484,1.935.968,2.9h5.805V35.76c-.484-3.387-.968-7.257-2.419-10.16-.484,0-.968.484-.968,0,0,0-.484,0,0-.484-.968-.968-.968-1.451-1.935-2.419-.968,0-1.451-.968-2.419-.968s-.484-1.451-1.451-.968c-.484,0-.968-.968-.968-.968a3.555,3.555,0,0,0-.968-2.9c-.968-.484-.968.968-1.451.484-.484,0,0-.968-.484-.968,0-.484-.484-.484-.484-.968.968-.968-.968-.968-.968-2.419,0-.968-.968-.968-1.451-1.935-2.9-.968-5.805-2.419-9.192-2.9A4.361,4.361,0,0,1,16.168,7.7v.484a13.277,13.277,0,0,0-.968,5.805" transform="translate(3715.336 13782.552)" fill="#0468b1"/>
      <path id="Path_4861" data-name="Path 4861" d="M19.5,12.47c.484,0,.484.968.968.968,1.451.968,1.935,2.419,2.9,2.9.968,1.451,2.419,2.9,2.419,4.354,1.451,3.87,2.9,7.257,2.9,12.095H34.5c-.484-.484,0-.968-.484-1.935A37.917,37.917,0,0,0,23.854,8.6,11.422,11.422,0,0,1,19.5,12.47Z" transform="translate(3731.839 13786.007)" fill="#0468b1"/>
      <path id="Path_4862" data-name="Path 4862" d="M15.3,7.868c0-.484.968,0,.968,0l2.9-.968c.968,0,2.419,0,2.9.968a2.663,2.663,0,0,1-2.419.968c-1.451,0-2.9.484-4.354-.968m16.449,3.387a1.041,1.041,0,0,1,.968.968c0,.484.484.968,0,.968-.968.484-.968-.968-1.935-.968v-.484c.484-.968.484,0,.968-.484" transform="translate(3715.72 13779.481)" fill="#fff"/>
    </g>
  </g>
</svg>
